<svg width="240" height="240" viewBox="0 0 240 240" fill="none" xmlns="http://www.w3.org/2000/svg">
<path d="M107.379 123.856L109.939 123.287L111.93 125.136L111.432 127.696L108.303 128.122L107.379 123.856Z" fill="#00B4A6"/>
<path d="M105.387 124.425L108.089 123.643L109.226 127.98H106.951L105.387 127.056V124.425Z" fill="#FFE34F"/>
<path d="M115.91 141.872L118.944 141.348L120.461 145.614H117.996L115.91 144.641V141.872Z" fill="#FFE34F"/>
<path d="M113.922 159.671L116.126 158.914L117.406 162.256L115.877 162.54L113.922 161.794V159.671Z" fill="#FFE34F"/>
<path d="M71.1151 99.5387L72.5372 99.3965L72.1106 102.241L69.5508 102.099L71.1151 99.5387Z" fill="#00B4A6"/>
<path d="M118.898 141.065L121.543 140.496L123.023 142.345L122.572 144.905L119.736 145.616L118.898 141.065Z" fill="#00B4A6"/>
<path d="M115.77 159.126L117.776 158.699L118.898 160.086L118.556 162.006L116.978 162.397L115.77 159.126Z" fill="#00B4A6"/>
<path d="M69.9768 101.457L72.2522 101.955L71.6834 103.946L68.5547 104.372L69.9768 101.457Z" fill="#FFE34F"/>
<circle cx="80.7216" cy="96.7827" r="2.87642" transform="rotate(-7.4383 80.7216 96.7827)" stroke="black" stroke-width="1.5"/>
<circle cx="80.7704" cy="96.8311" r="1.1428" transform="rotate(-7.4383 80.7704 96.8311)" stroke="black" stroke-width="1.5"/>
<circle cx="81.9404" cy="106.091" r="2.87642" transform="rotate(-7.4383 81.9404 106.091)" stroke="black" stroke-width="1.5"/>
<circle cx="81.9071" cy="106.075" r="1.1428" transform="rotate(-7.4383 81.9071 106.075)" stroke="black" stroke-width="1.5"/>
<path d="M88.4216 100.681C88.4216 101.272 87.997 101.638 87.6073 101.638C87.2177 101.638 86.793 101.272 86.793 100.681C86.793 100.09 87.2177 99.7246 87.6073 99.7246C87.997 99.7246 88.4216 100.09 88.4216 100.681Z" stroke="black" stroke-width="1.5"/>
<mask id="path-14-inside-1_3764_1441" fill="white">
<ellipse cx="87.183" cy="96.3439" rx="0.995488" ry="1.06659"/>
</mask>
<path d="M86.6785 96.3439C86.6785 96.2037 86.8086 95.9105 87.183 95.9105V98.9105C88.657 98.9105 89.6785 97.6623 89.6785 96.3439H86.6785ZM87.183 95.9105C87.5574 95.9105 87.6875 96.2037 87.6875 96.3439H84.6875C84.6875 97.6623 85.709 98.9105 87.183 98.9105V95.9105ZM87.6875 96.3439C87.6875 96.4841 87.5574 96.7773 87.183 96.7773V93.7773C85.709 93.7773 84.6875 95.0256 84.6875 96.3439H87.6875ZM87.183 96.7773C86.8086 96.7773 86.6785 96.4841 86.6785 96.3439H89.6785C89.6785 95.0256 88.657 93.7773 87.183 93.7773V96.7773Z" fill="black" mask="url(#path-14-inside-1_3764_1441)"/>
<path d="M75.5057 99.33V99.33C75.0581 95.4709 77.9265 92.0208 81.8023 91.7563L83.3796 91.6486C87.8207 91.3455 91.7124 94.5944 92.2074 99.0181L92.4833 101.484C92.9986 106.09 89.6464 110.226 85.034 110.677L82.6652 110.908C79.4721 111.22 76.6177 108.916 76.2481 105.73V105.73" stroke="black" stroke-width="1.5"/>
<path d="M96.1961 125.71C96.2612 125.517 96.31 125.338 96.343 125.19C94.1739 123.97 95.2288 122.386 95.9883 121.794C95.344 121.102 94.5617 120.774 93.5605 121.299C92.5593 121.824 92.6401 121.334 91.8369 121.227C91.1944 121.142 90.5206 121.545 90.2641 121.758C88.3708 123.853 90.5718 126.387 90.8789 126.8C91.0078 126.973 91.1349 127.206 91.3097 127.378M92.7782 120.971C92.7118 120.757 92.6807 120.206 93.087 119.714C93.4932 119.223 94.1442 119.024 94.4189 118.985C94.4144 119.645 94.08 120.965 92.7782 120.971Z" stroke="black"/>
<path d="M147.766 73.9419C148.674 73.8941 149.55 73.4648 150.468 73.373" stroke="#FFE34F" stroke-width="5" stroke-linecap="round"/>
<path d="M147.766 71.3853C148.674 71.3374 149.55 70.9082 150.468 70.8164" stroke="#00B4A6" stroke-width="5" stroke-linecap="round"/>
<path d="M115.556 149.011C113.52 149.474 111.539 149.824 110.294 150.383C106.81 151.947 89.3174 156.142 83.4156 158.489C77.5137 160.835 86.6864 161.76 90.8106 160.551C94.1099 159.584 100.908 159.627 103.894 159.769H112.782C113.533 159.532 114.666 158.843 115.446 157.565M115.556 149.011C115.603 148.71 115.812 149.146 116.267 153.298C116.469 155.144 116.07 156.542 115.446 157.565M115.556 149.011C118.977 148.233 122.55 147.137 123.037 144.197M114.773 141.028C98.2438 144.462 96.4243 142.978 91.4506 145.05C87.3548 146.756 83.1548 147.799 81.5668 148.107C80.7135 147.918 79.2345 147.041 80.1447 145.05C81.2824 142.561 101.192 133.104 106.81 131.469C109.999 130.54 111.323 128.769 111.764 127.344M114.773 141.028C115.258 140.927 115.756 140.822 116.267 140.712C117.628 140.221 119.789 139.813 121.315 140.447M114.773 141.028L111.86 118.172M72.7496 98.5464L72.3941 94.0667C72.5078 90.5398 75.8072 89.0418 77.4426 88.7337C84.6007 88.1886 99.7984 87.0983 103.325 87.0983C106.852 87.0983 108.255 90.3218 108.516 91.9335L110.664 108.786M72.7496 98.5464C74.5036 98.3568 77.727 99.2859 76.5893 104.519C75.8873 107.749 75.2394 109.592 74.7626 110.563M72.7496 98.5464C72.5382 98.5816 72.1912 98.7576 71.754 99.1547M60.6614 152.587C59.9788 151.393 61.4673 147.681 62.2968 145.974C63.0554 140.547 64.3306 128.923 63.3636 125.851C62.1548 122.011 63.5058 117.034 64.0746 116.892C64.6022 116.76 66.5973 109.29 68.5289 104.519M60.6614 152.587C61.344 153.782 62.4628 154.365 62.9368 154.507M60.6614 152.587L58.386 177.261C57.9357 178.328 57.035 180.873 57.035 182.523C57.035 184.173 55.3759 194.919 54.5463 200.086C53.5508 205.704 51.0479 218.403 49 224.262M66.2077 157.636C65.947 158.702 65.9517 161.077 68.0565 162.044M74.5272 172.426C75.096 172.094 76.4897 171.103 77.5136 169.795C78.5376 168.487 79.9786 168.349 80.5712 168.444M115.446 157.565C116.178 157.874 116.779 158.186 117.262 158.497M68.5289 104.519C68.6803 104.146 68.8312 103.788 68.981 103.453C70.0175 101.129 71.0148 99.8261 71.754 99.1547M68.5289 104.519C69.5329 104.519 71.5834 104.306 71.754 103.453C71.9673 102.386 73.3895 98.9098 71.754 99.1547M111.764 127.344C111.945 126.762 111.977 126.237 111.929 125.851C112.04 124.98 111.56 123.505 109.222 123.149M111.764 127.344C110.919 127.7 108.744 128.354 106.81 128.127C104.876 127.899 105.008 125.472 105.316 124.287L109.222 123.149M109.222 123.149C108.571 123.05 107.776 123.038 106.81 123.149C101.263 123.789 96.0014 125.851 87.3264 128.767C82.3283 130.446 79.2185 132.881 77.3714 134.521M123.037 144.197C123.071 143.992 123.09 143.779 123.093 143.557C123.116 141.816 122.367 140.884 121.315 140.447M123.037 144.197C122.297 144.884 120.192 146.116 117.689 145.548C115.186 144.979 115.698 142.751 116.267 141.708L121.315 140.447M118.477 162.044C117.531 163.345 115.33 164.427 113.565 165.031C106.169 166.619 90.6967 169.795 87.9662 169.795C87.3279 169.795 86.76 170.005 86.2597 170.351M118.477 162.044C118.214 162.139 117.262 162.386 115.556 162.613C113.849 162.841 113.517 160.812 113.565 159.769L117.262 158.497M118.477 162.044C119.262 160.964 119.18 159.732 117.262 158.497M81.8511 235.995C80.0577 230.222 77.3349 204.237 76.1441 191.411M65.7811 198.948C66.4684 196.318 69.18 191.127 74.5272 191.411M84.6243 236.35C85.3116 222.698 86.9423 195.038 87.9662 193.615M87.9662 193.615C92.0904 193.615 88.8195 188.78 88.6062 180.034C88.4951 175.477 88.6693 176.422 88.3218 176.904M87.9662 193.615C84.2801 192.573 76.755 190.672 76.1441 191.411M84.5359 172.426C83.9481 173.515 83.5809 174.717 83.4156 175.554C82.5624 182.95 78.1774 188.828 76.0915 190.842C76.1087 191.029 76.1262 191.219 76.1441 191.411M84.5359 172.426C84.9812 171.601 85.553 170.84 86.2597 170.351M84.5359 172.426C85.7096 174.548 86.5647 175.755 87.1841 176.407M88.3218 176.904L87.1841 174.843M88.3218 176.904C88.1387 177.157 88.0162 177.283 87.1841 176.407M87.1841 174.843L86.2597 170.351M87.1841 174.843V176.407M72.8135 121.514L74.1006 111.488C74.2368 111.433 74.4667 111.166 74.7626 110.563M72.8135 121.514L72.7496 122.011C72.9866 124.548 73.3896 129.99 73.1051 131.469C72.7496 133.317 74.5273 135.593 75.0961 136.233C75.3372 136.504 76.0126 135.728 77.3714 134.521M72.8135 121.514L75.8071 120.163M75.8071 120.163L74.7626 110.563M75.8071 120.163L77.3714 134.521M110.664 108.786C113.314 107.269 118.457 103.097 117.831 98.5464M110.664 108.786L111.86 118.172M117.831 98.5464C114.607 95.5362 107.776 87.596 106.241 79.9165C104.705 72.2371 104.178 70.1276 104.107 70.0328M117.831 98.5464C120.438 101.983 128.184 107.719 138.31 103.168C146.355 99.5523 152.217 91.569 155.603 85.3917M104.107 70.0328C105.292 70.8386 108.563 72.5808 112.071 71.9526C116.267 71.2014 119.111 71.4549 121.671 64.202M104.107 70.0328C101.05 67.7574 99.1299 62.9221 98.8455 61.3578C98.618 60.1063 97.0916 59.4616 96.3568 59.2957V55.6693M121.671 64.202C124.23 56.9492 118.897 60.0779 121.884 57.8736C124.273 56.1102 126.861 57.1388 127.857 57.8736C128.141 57.8973 128.682 58.0442 128.568 58.4424C128.426 58.9402 127.501 59.3668 127.857 60.4334C128.212 61.5 131.057 71.0283 139.163 71.0283C147.422 71.0283 148.975 69.1795 150.966 65.8375C152.957 62.4955 151.251 58.2291 155.446 56.6648M121.671 64.202L120.106 70.2461C119.419 71.7393 118.684 75.0386 121.244 76.2901M155.446 56.6648V52.825M155.446 56.6648C156.869 56.1343 158.444 55.4998 159.915 54.8871M164.69 52.825C164.382 52.2799 163.609 51.1754 162.983 51.1185C162.897 51.1106 162.752 51.0178 162.557 50.8553M164.69 52.825C163.72 53.262 161.914 54.0545 159.915 54.8871M164.69 52.825C165.188 50.9052 166.738 47.7196 168.956 50.3363C171.175 52.953 170.639 53.0858 170.094 52.825M164.69 52.825C165.022 50.6681 163.638 45.1598 155.446 40.3814C147.255 35.6031 141.936 30.1895 140.3 28.08M139.518 8.81025C139.396 8.84887 139.253 8.90777 139.092 8.98898M162.557 50.8553C160.992 49.5534 156.174 43.7791 151.749 41.3769C146.771 38.6749 133.972 27.5112 132.479 25.378C132.235 25.03 132.12 24.699 132.098 24.3825M162.557 50.8553L155.446 52.825M155.446 52.825C152.713 52.0269 148.075 51.1733 143.145 51.2462M96.3568 55.6693L99.841 54.6027C101.191 54.0507 102.524 53.6397 103.823 53.3459M96.3568 55.6693L101.974 52.114M121.244 75.6502C121.291 75.4368 121.557 75.1382 122.239 75.6502C123.093 76.2901 123.093 77.1434 123.448 77.2145C123.804 77.2856 125.084 78.3522 127.288 77.2145M127.004 76.5745C127.217 75.982 127.914 74.8111 128.995 74.868C130.346 74.9391 131.057 76.5034 132.763 75.2946C134.128 74.3276 133.522 71.9052 133.048 70.8149M128.568 65.8375C129.232 67.7574 130.161 71.9242 128.568 73.2325M159.915 54.8871L159.997 55.9537C160.095 56.3588 160.17 56.8633 160.226 57.447M160.226 57.447C160.6 59.9831 162.386 64.4438 166.539 61.9978M160.226 57.447C160.585 61.2358 160.106 68.3579 159.568 73.2325M166.539 61.9978C167.937 60.4097 170.393 56.3519 169.027 52.825H170.094M166.539 61.9978C166.065 63.0881 164.818 65.2118 163.623 64.9842C163.033 64.8718 162.557 64.9862 162.201 65.1766M170.094 52.825C168.956 52.0429 170.094 49.2697 167.321 54.8871C165.102 59.381 162.509 56.7596 161.49 54.8871M170.094 52.825C170.163 52.9281 170.231 53.0468 170.297 53.1806M159.568 73.2325C159.347 75.2326 159.117 76.8543 158.93 77.7122C158.671 78.9039 157.544 81.8512 155.603 85.3917M159.568 73.2325C160.706 72.2371 163.965 68.9093 167.89 63.5621C171.515 58.6228 171.092 54.7999 170.297 53.1806M161.49 65.8375C161.598 65.6457 161.837 65.3714 162.201 65.1766M161.846 61.9978C161.893 62.0689 161.888 62.4102 161.49 63.2066C161.092 64.003 161.798 64.8518 162.201 65.1766M170.297 53.1806C169.945 51.8225 169.738 49.2812 171.729 49.9808C173.805 50.7101 174.545 42.8042 169.454 37.4782M140.798 16.7742C144.282 16.2764 156.584 30.071 165.685 34.6929C167.196 35.4602 168.441 36.4181 169.454 37.4782M137.527 5.68157C138.618 4.82829 142.419 4.07457 148.904 7.88586C157.01 12.65 164.69 17.5563 166.112 19.5473C166.909 20.6634 167.916 26.2208 168.667 31.2087M169.454 37.4782V36.8972C169.263 35.3651 168.988 33.3389 168.667 31.2087M168.667 31.2087C167.602 29.6918 163.922 24.6101 157.722 16.4186C151.521 8.22717 143.856 7.64883 140.798 8.3836M139.092 8.98898C137.967 9.55551 135.984 11.208 134.541 14.641C132.479 19.5473 133.901 18.9073 134.114 20.3295C134.293 21.5196 131.981 22.7595 132.098 24.3825M139.092 8.98898C138.736 6.46438 136.02 2.11202 127.999 4.89939C117.973 8.3836 111.502 13.361 110.009 15.992C108.516 18.6229 103.823 21.9649 102.899 27.7245C102.159 32.3322 99.4618 36.6602 98.2056 38.2482C97.3523 38.9356 96.1577 41.5902 98.2056 46.7099M98.2056 46.7099C99.6846 40.3956 101.95 37.7268 102.899 37.1816M98.2056 46.7099C98.4965 47.4374 98.7728 48.0739 99.0338 48.6298M101.974 52.114L103.467 51.4822M101.974 52.114C101.629 52.3986 100.609 51.9855 99.0338 48.6298M103.823 51.3318V53.3459M103.823 51.3318V46.7099C104.416 42.7753 106.71 34.4227 111.147 32.4886C116.693 30.071 131.716 26.729 132.098 24.3825M103.823 51.3318L103.467 51.4822M103.823 53.3459C103.918 53.3244 104.013 53.3036 104.107 53.2833M125.226 25.378C118.826 25.7572 105.771 29.0755 104.747 39.3148C103.723 49.5541 103.467 51.6928 103.467 51.4822M132.479 12.7211C129.35 10.422 120.704 8.01387 111.147 16.7742M108.817 60.0779C107.91 60.4169 106.779 59.0013 105.885 58.9676C106.416 58.8217 108.177 59.509 108.177 59.509M108.817 60.0779C109.185 59.9403 109.446 59.7553 109.511 59.509C109.599 59.1815 110.095 58.5576 110.862 58.1378M108.817 60.0779C110.004 61.0077 111.443 61.2803 112.853 61.2441M110.862 58.1378C111.076 59.1659 111.773 61.3403 112.853 61.2441M110.862 58.1378C111.213 57.946 111.621 57.7671 112.071 57.6217M112.853 61.2441C113.794 61.2199 114.722 61.0585 115.555 60.8631M116.267 57.6827C117.043 57.9095 117.978 58.7869 118.755 59.3668C119.111 59.7697 119.609 60.5756 118.755 60.5756C118.317 60.5756 117.009 60.5223 115.555 60.8631M116.267 57.6827C116.575 58.3646 116.864 59.9554 115.555 60.8631M116.267 57.6827C114.728 57.2333 113.251 57.2415 112.071 57.6217M112.071 57.6217C111.2 58.0745 110.329 58.6193 109.511 58.9676M107.663 58.8691L108.587 58.9183M109.511 58.9676L108.587 58.9183M109.511 58.9676C109.046 59.1659 108.598 59.3466 108.177 59.509M108.587 58.9183L108.177 59.509M147.127 58.9676C147.577 59.3377 148.307 58.4424 148.762 58.4424C149.217 58.4424 147.435 59.6986 146.345 59.509M147.127 58.9676L146.345 59.509M147.127 58.9676C146.759 58.9676 145.507 58.4809 143.145 57.7468M146.345 59.509L145.989 59.3448M143.145 57.7468L145.989 59.3448M143.145 57.7468C142.984 57.6968 142.818 57.6443 142.646 57.5892M145.989 59.3448C145.228 59.8131 143.513 60.5183 141.367 60.6501M137.527 57.1683C135.868 57.5018 134.766 59.4718 134.185 60.0779C134.185 60.2494 134.827 59.6406 137.883 60.3247M137.527 57.1683C138.644 56.944 139.949 56.6733 141.367 57.1625C141.822 57.3195 142.248 57.4613 142.646 57.5892M137.527 57.1683C137.219 57.6628 136.859 58.9863 137.883 60.3247M137.883 60.3247C138.043 60.3605 138.208 60.3967 138.381 60.4334C139.429 60.6568 140.438 60.7071 141.367 60.6501M142.646 57.5892C142.789 58.3167 142.732 60.1749 141.367 60.6501M133.048 58.0869C134.043 56.8781 136.319 54.688 139.163 55.0293C142.007 55.3706 146.036 56.9472 147.482 57.764M107.663 58.4424C108.066 57.6366 109.668 55.9537 112.853 55.6693C116.039 55.3849 117.215 56.0015 117.404 56.3453M117.404 56.3453C116.974 56 116.565 55.7791 116.267 55.6693C113.072 54.7488 107.197 53.8283 103.823 55.5766M117.404 56.3453C118.275 57.0437 119.233 58.2509 119.537 60.0779C120.106 63.491 120.035 69.1795 114.844 69.8906C109.654 70.6016 108.303 70.6016 105.458 68.8951C105.237 68.7209 104.997 68.5131 104.747 68.2748M109.867 52.7398C114.551 52.8427 118.294 54.2353 120.106 55.3138H120.817L121.315 54.8871H129.563C130.264 54.4051 131.002 53.9802 131.771 53.6072M109.867 52.7398C112 52.8867 116.736 53.2659 118.613 53.6072C120.49 53.9485 119.395 52.3328 118.613 51.4822C117.357 50.8632 113.849 49.6252 109.867 49.6252C105.885 49.6252 104.368 52.064 104.107 53.2833M109.867 52.7398C108.067 52.7003 106.129 52.8511 104.107 53.2833M109.867 52.7398C110.199 52.7537 110.453 52.6479 108.817 52.114C107.181 51.58 104.995 52.6711 104.107 53.2833M131.771 53.6072C130.351 53.8162 130.324 52.0352 130.488 51.1185C132.242 49.8386 137.414 47.5489 144.069 48.6298C150.725 49.7106 151.82 50.8815 151.535 51.3318C150.326 50.8054 146.956 50.0513 143.145 51.2462M131.771 53.6072C135.222 51.932 139.273 51.3034 143.145 51.2462M117.404 85.0362C118.66 84.2303 121.841 82.7181 124.515 83.1163C127.779 83.6025 125.888 81.7142 137.527 84.0119M117.404 85.0362C121.671 90.0847 122.239 91.3647 129.279 90.938C134.898 90.5974 137.883 86.482 138.381 84.1829C138.088 84.1235 137.804 84.0665 137.527 84.0119M117.404 85.0362C118.834 85.0728 121.609 85.4102 123.662 85.7455M137.527 84.0119C136.073 84.5381 133.379 85.1585 130.843 85.5859M155.603 85.3917C155.029 93.166 155.403 108.899 161.49 109.639C162.073 109.71 162.596 109.889 163.054 110.159M111.86 118.172C112.392 119.081 118.065 121.626 136.176 124.885M152.175 114.403L149.118 126.198M149.118 126.198C146.482 126.321 143.481 126.14 140.087 125.567C139.606 125.485 139.132 125.404 138.665 125.324M149.118 126.198C165.504 125.437 167.811 112.957 163.054 110.159M131.91 117.532L136.176 124.885M136.176 124.885C136.981 125.03 137.81 125.176 138.665 125.324M134.825 117.532L138.665 125.324M154.237 97.622L153.242 105.301M163.054 110.159L169.099 113.194C172.298 114.759 177.162 114.304 176.138 115.327M176.138 115.327C178.011 115.896 182.794 116.92 186.946 116.465C188.849 116.257 189.128 116.459 188.86 117.034M176.138 115.327C177.963 118.693 181.798 125.567 182.538 126.136M190.999 129.904C191.023 129.241 190.487 126.96 188.155 123.149C186.309 120.132 188.398 118.027 188.86 117.034M188.86 117.034C189.052 117.342 189.748 117.973 190.999 118.029M159.915 39.8126C165.038 40.6076 174.119 43.7543 169.454 49.9808M101.974 42.4435C101.057 43.5548 99.1844 46.3478 99.0338 48.6298M122.951 18.3385C121.694 17.6037 117.646 17.3288 111.502 22.1071C103.823 28.08 108.729 27.7956 104.107 32.4886M103.325 88.8048C104.321 88.8048 106.411 89.4306 106.81 91.9335C107.208 94.4364 107.781 98.9019 108.018 100.822M78.0114 90.0847C76.7078 90.4877 74.1006 91.7628 74.1006 93.64M113.991 151.663L114.347 154.72C114.276 155.787 113.621 158.105 111.574 158.845M104.747 68.2748C102.717 66.3398 100.028 62.3918 101.548 58.0869C101.955 56.9337 102.766 56.1242 103.823 55.5766M104.747 68.2748C104.747 64.3667 104.562 56.3558 103.823 55.5766M123.662 85.7455C124.262 85.8436 124.801 85.9415 125.226 86.0317C126.143 86.2262 128.421 85.9941 130.843 85.5859M123.662 85.7455C124.847 85.757 127.942 85.7413 130.843 85.5859M130.488 57.8736C130.488 55.9537 132.427 54.8301 136.319 53.6072C138.807 52.825 148.051 51.8296 149.615 55.9537C150.867 59.2531 150.706 62.1637 150.469 63.2066C149.904 65.2449 147.079 69.5777 140.869 69.4639C133.108 69.3217 130.132 64.202 130.488 57.8736Z" stroke="black" stroke-width="1.5"/>
<path d="M142.016 58.3834C142.008 58.4146 141.99 58.45 141.961 58.4825M141.961 58.4825C141.866 58.5877 141.647 58.6642 141.223 58.4825C140.529 58.1852 141.322 57.3922 141.917 58.2843L141.961 58.4825ZM139.769 58.2843C139.967 58.4164 138.428 60.0968 139.769 58.2843ZM139.769 58.2843C140.266 60.4448 137.695 58.2843 139.769 58.2843Z" stroke="black" stroke-width="1.5"/>
<path d="M116.133 58.8111C116.125 58.8424 116.108 58.8777 116.078 58.9103M116.078 58.9103C115.983 59.0154 115.764 59.0919 115.34 58.9103C114.646 58.6129 115.439 57.82 116.034 58.712L116.078 58.9103ZM113.886 58.712C114.084 58.8442 112.545 60.5245 113.886 58.712ZM113.886 58.712C114.384 60.8725 111.812 58.712 113.886 58.712Z" stroke="black" stroke-width="1.5"/>
</svg>
