<svg width="464" height="244" viewBox="0 0 464 244" fill="none" xmlns="http://www.w3.org/2000/svg">
<path d="M100.325 171.14L40.7272 78.1172L78.9872 53.6051C80.9068 57.4525 81.5581 61.8088 81.0764 66.1318C80.5584 70.7828 81.7434 75.6548 84.8651 79.7543C90.31 86.9049 100.285 89.2655 108.34 85.2791C118.69 80.1577 122.041 67.3797 115.988 57.9321C113.495 54.0407 109.821 51.3718 105.735 50.0813C101.694 48.8049 98.1993 46.2724 95.5331 43.0047L133.75 18.52L158.235 56.7373L158.235 56.7371C161.503 54.0709 164.035 50.5763 165.312 46.5347C166.602 42.4487 169.271 38.7751 173.163 36.2819C182.61 30.2291 195.388 33.5806 200.51 43.9298C204.496 51.9852 202.135 61.9602 194.985 67.4051C190.885 70.5267 186.013 71.7118 181.362 71.1937C177.039 70.712 172.683 71.3633 168.836 73.2828L168.835 73.2828L193.348 111.543L100.325 171.14Z" fill="#1A1A1A"/>
<path d="M142.776 166.05C154.499 184.473 222.034 284.79 345.507 326.874L408.617 327.065L421.513 251.9C242.895 229.338 152.1 105.812 147.44 108.185C144.888 109.485 152.693 124.566 152.693 124.566C152.693 124.566 140.852 108.615 137.973 110.014C135.094 111.413 144.685 129.986 144.685 129.986C144.685 129.986 132.309 109.536 128.99 111.788C125.671 114.041 138.149 136.197 138.149 136.197C138.149 136.197 128.219 119.163 124.834 121.658C123.214 122.852 128.456 136.159 135.241 148.771L130.653 151.71C130.653 151.71 132.696 155.233 142.776 166.05Z" fill="#00B4A6"/>
</svg>
