<svg width="581" height="583" viewBox="0 0 581 583" fill="none" xmlns="http://www.w3.org/2000/svg">
<path d="M402.608 272.687L440.133 250.154L440.133 250.154C437.654 246.929 434.356 244.39 430.496 243.047C426.593 241.689 423.127 239.013 420.832 235.193C415.262 225.916 418.85 213.693 428.969 209.045C436.845 205.428 446.395 207.982 451.443 215.027C454.338 219.066 455.344 223.796 454.715 228.264C454.13 232.418 454.636 236.636 456.378 240.398L456.378 240.398L493.944 217.839L516.503 255.405C512.741 257.148 508.523 257.654 504.37 257.069C499.901 256.44 495.171 257.446 491.132 260.34C484.087 265.389 481.533 274.938 485.15 282.815C489.798 292.934 502.021 296.522 511.298 290.952C515.119 288.657 517.794 285.19 519.152 281.288C520.496 277.428 523.034 274.13 526.259 271.651L548.792 309.175L511.268 331.709L511.268 331.709C513.747 334.933 517.045 337.472 520.905 338.816C524.808 340.174 528.274 342.849 530.569 346.67C536.139 355.947 532.551 368.17 522.432 372.818C514.555 376.435 505.006 373.881 499.957 366.836C497.063 362.797 496.057 358.067 496.686 353.598C497.271 349.445 496.765 345.227 495.023 341.465L495.023 341.465L457.456 364.024L402.608 272.687Z" fill="#1A1A1A"/>
<path d="M171.448 281.729C307.197 397.879 421.443 304.051 421.443 304.051L425.106 310.152C437.429 306.953 454.729 295.271 456.195 299.683C457.197 302.699 441.998 313.657 441.998 313.657C441.998 313.657 462.796 303.754 464.314 306.966C465.832 310.179 445.156 323.914 445.156 323.914C445.156 323.914 467.41 311.753 468.715 316.009C470.019 320.265 445.593 335.065 445.593 335.065C445.593 335.065 462.697 328.383 462.486 333.045C462.397 335.005 414.607 389.005 338.455 407.75C246.182 430.463 192.417 421.386 127.501 386.2C61.9799 350.686 20.8486 288.08 24.4039 236.177C48.5783 236.177 106.199 236.177 136.745 236.177C149.543 259.641 171.448 281.729 171.448 281.729Z" fill="#AD898A"/>
</svg>
