<svg width="468" height="239" viewBox="0 0 468 239" fill="none" xmlns="http://www.w3.org/2000/svg">
<path d="M254.047 135.24L269.004 93.1302C264.891 92.1485 260.573 92.4951 256.539 93.9194C249.026 96.5726 239.74 94.4825 233.351 85.34C233.078 84.9487 232.736 84.2327 232.604 83.7739C227.422 65.7619 242.964 53.8012 256.617 58.6509C260.9 60.1723 264.275 63.0967 266.421 66.7231C268.544 70.3102 271.749 73.0937 275.473 74.9197L290.413 32.8571L332.523 47.8145C333.505 43.7016 333.158 39.3835 331.734 35.3498C329.081 27.8359 331.171 18.5502 340.313 12.1614C340.704 11.8879 341.42 11.5461 341.879 11.4142C359.891 6.23238 371.852 21.7739 367.002 35.4273C365.481 39.7103 362.556 43.0852 358.93 45.2316C355.343 47.3545 352.56 50.5588 350.733 54.2829L392.796 69.2235L377.839 111.333C381.951 112.315 386.27 111.968 390.303 110.544C397.817 107.891 407.103 109.981 413.492 119.123C413.765 119.515 414.107 120.231 414.239 120.689C419.421 138.701 403.879 150.662 390.226 145.812C385.943 144.291 382.568 141.367 380.422 137.74C378.299 134.153 375.094 131.37 371.37 129.544L356.43 171.606L254.047 135.24Z" fill="#1A1A1A"/>
<path d="M322.255 159.467C322.255 159.467 308.341 201.612 284.764 245.401C246.7 316.1 107.722 398.396 107.722 398.396L66.4627 295.397C66.4627 295.397 194.696 264.101 277.517 163.924C286.336 153.257 281.145 138.675 283.856 137.695C288.668 135.956 290.212 148.086 290.212 148.086L322.255 159.467Z" fill="#FFDFD9"/>
</svg>
