<svg width="462" height="380" viewBox="0 0 462 380" fill="none" xmlns="http://www.w3.org/2000/svg">
<path d="M432.311 379.957V337.201C432.311 337.201 448.973 367.513 432.311 379.957Z" fill="#F1F1F1"/>
<path d="M433.34 379.949L401.844 351.035C401.844 351.035 435.442 359.26 433.34 379.949Z" fill="#F1F1F1"/>
<path d="M140.919 13.4096C144.516 13.4096 147.431 10.4942 147.431 6.89792C147.431 3.30161 144.516 0.38623 140.919 0.38623C137.323 0.38623 134.408 3.30161 134.408 6.89792C134.408 10.4942 137.323 13.4096 140.919 13.4096Z" fill="#F1F1F1"/>
<path d="M124.37 29.9587C127.967 29.9587 130.882 27.0433 130.882 23.447C130.882 19.8507 127.967 16.9353 124.37 16.9353C120.774 16.9353 117.859 19.8507 117.859 23.447C117.859 27.0433 120.774 29.9587 124.37 29.9587Z" fill="#F1F1F1"/>
<path d="M120.233 323.704C123.829 323.704 126.745 320.789 126.745 317.192C126.745 313.596 123.829 310.681 120.233 310.681C116.637 310.681 113.721 313.596 113.721 317.192C113.721 320.789 116.637 323.704 120.233 323.704Z" fill="#F1F1F1"/>
<path d="M342.843 372.237H335.761L335.355 345.342L342.843 344.918V372.237Z" fill="#9F616A"/>
<path d="M344.657 379.109L321.806 379.108V378.813C321.809 376.454 322.747 374.193 324.415 372.526C326.083 370.858 328.344 369.92 330.702 369.917H344.657V379.109Z" fill="#2F2E41"/>
<path d="M383.387 364.077L376.894 366.907L365.775 342.415L372.47 339.035L383.387 364.077Z" fill="#9F616A"/>
<path d="M366.849 378.783L366.731 378.512C366.264 377.441 366.012 376.289 365.991 375.121C365.97 373.953 366.178 372.792 366.605 371.705C367.033 370.618 367.67 369.625 368.48 368.784C369.291 367.943 370.26 367.27 371.33 366.803L384.122 361.226L387.795 369.652L366.849 378.783Z" fill="#2F2E41"/>
<path d="M355.429 159.944C363.904 159.944 370.775 153.073 370.775 144.597C370.775 136.122 363.904 129.251 355.429 129.251C346.953 129.251 340.083 136.122 340.083 144.597C340.083 153.073 346.953 159.944 355.429 159.944Z" fill="#9F616A"/>
<path d="M382.899 351.238L363.064 302.783L372.697 257.445L354.421 256.453L344.361 307.175L369.722 357.472L382.899 351.238Z" fill="#2F2E41"/>
<path d="M361.221 248.377L351.87 306.325L349.059 361.866L332.917 361.724L332.318 255.461L361.221 248.377Z" fill="#2F2E41"/>
<path d="M374.049 251.681L373.129 260.075L327.371 262.122L330.47 249.502L374.049 251.681Z" fill="#CBCBCB"/>
<path d="M330.539 267.526C330.101 266.975 329.777 266.343 329.586 265.666C329.395 264.988 329.34 264.28 329.424 263.581C329.509 262.883 329.731 262.208 330.078 261.596C330.425 260.984 330.89 260.447 331.446 260.016C331.679 259.835 331.926 259.674 332.185 259.533L350.132 192.09L360.771 196.765L339.687 261.939C340.19 263.031 340.308 264.261 340.023 265.428C339.738 266.596 339.067 267.633 338.119 268.372C336.998 269.257 335.574 269.664 334.155 269.506C332.736 269.348 331.437 268.636 330.539 267.526Z" fill="#9F616A"/>
<path d="M341.882 174.715L343.999 170.343C343.999 170.343 354.421 161.333 365.415 166.734L367.109 171.781L376.075 186.26L374.049 253.134C374.049 253.134 336.643 250.29 327.372 253.679L331.447 200.687L341.882 174.715Z" fill="#3F3D56"/>
<path d="M343.829 259.587L328.035 255.169L342.641 209.52L343.964 184.033C344.04 182.746 344.386 181.489 344.979 180.344C345.571 179.199 346.398 178.19 347.405 177.385C348.618 176.402 350.021 175.68 351.526 175.265C353.031 174.85 354.606 174.751 356.151 174.973C361.312 175.68 365.109 179.627 365.178 184.357L365.178 184.38L365.175 184.403L360.103 220.127L358.476 225.942L343.829 259.587Z" fill="#CBCBCB"/>
<path d="M362.385 156.626L365.879 157.51L371.173 151.881C371.173 151.881 380.904 129.309 359.397 125.854C337.89 122.4 342.587 131.121 339.711 136.589L348.5 138.874L356.409 146.959C356.409 146.959 361.57 143.179 363.088 146.608C364.606 150.037 362.385 156.626 362.385 156.626Z" fill="#2F2E41"/>
<path d="M240.017 287.541H0V47.5242H240.017V287.541Z" fill="white"/>
<path d="M240.017 287.541H0V47.5242H240.017V287.541ZM3.54622 283.994H236.47V51.0704H3.54622V283.994Z" fill="#E5E5E5"/>
<path d="M203.418 150.704H49.488V156.138H203.418V150.704Z" fill="#00B4A6"/>
<path d="M203.418 164.832H49.488V170.266H203.418V164.832Z" fill="#00B4A6"/>
<path d="M203.418 178.96H49.488V184.394H203.418V178.96Z" fill="#00B4A6"/>
<path d="M40.1446 157.763C42.1031 157.763 43.6908 156.176 43.6908 154.217C43.6908 152.259 42.1031 150.671 40.1446 150.671C38.1861 150.671 36.5984 152.259 36.5984 154.217C36.5984 156.176 38.1861 157.763 40.1446 157.763Z" fill="#00B4A6"/>
<path d="M203.418 89.8274H49.488V95.2612H203.418V89.8274Z" fill="#E5E5E5"/>
<path d="M203.418 103.955H49.488V109.389H203.418V103.955Z" fill="#E5E5E5"/>
<path d="M203.418 118.083H49.488V123.517H203.418V118.083Z" fill="#E5E5E5"/>
<path d="M40.1446 96.2956C42.1031 96.2956 43.6908 94.7079 43.6908 92.7493C43.6908 90.7908 42.1031 89.2031 40.1446 89.2031C38.1861 89.2031 36.5984 90.7908 36.5984 92.7493C36.5984 94.7079 38.1861 96.2956 40.1446 96.2956Z" fill="#E5E5E5"/>
<path d="M203.418 212.172H49.488V217.606H203.418V212.172Z" fill="#E5E5E5"/>
<path d="M203.418 226.3H49.488V231.734H203.418V226.3Z" fill="#E5E5E5"/>
<path d="M203.418 240.428H49.488V245.862H203.418V240.428Z" fill="#E5E5E5"/>
<path d="M40.1446 218.64C42.1031 218.64 43.6908 217.053 43.6908 215.094C43.6908 213.136 42.1031 211.548 40.1446 211.548C38.1861 211.548 36.5984 213.136 36.5984 215.094C36.5984 217.053 38.1861 218.64 40.1446 218.64Z" fill="#E5E5E5"/>
<path d="M461.409 379.805H284.689C284.532 379.805 284.382 379.743 284.271 379.632C284.16 379.521 284.098 379.371 284.098 379.214C284.098 379.057 284.16 378.907 284.271 378.796C284.382 378.685 284.532 378.623 284.689 378.623H461.409C461.566 378.623 461.716 378.685 461.827 378.796C461.938 378.907 462 379.057 462 379.214C462 379.371 461.938 379.521 461.827 379.632C461.716 379.743 461.566 379.805 461.409 379.805Z" fill="#CBCBCB"/>
</svg>
