<svg width="60" height="60" viewBox="0 0 60 60" fill="none" xmlns="http://www.w3.org/2000/svg">
<path d="M0 4C0 1.79086 1.79086 0 4 0H28.4639C29.7367 0 30.9335 0.605744 31.6872 1.6314L37.2233 9.16527C37.7279 9.85192 38 10.6818 38 11.5339V44C38 46.2091 36.2091 48 34 48H4C1.79086 48 0 46.2091 0 44V4Z" fill="#00B4A6"/>
<path d="M50.7975 19.0643L50.7974 19.0644L50.8037 19.066L51.5 19.2456V30.9891C51.5 40.5487 46.7696 47.1313 41.9875 51.3411C39.5954 53.4469 37.1954 54.9536 35.3816 55.9333C34.4751 56.4229 33.7168 56.7799 33.1816 57.0135C32.9138 57.1304 32.7031 57.2159 32.5585 57.2715C32.4957 57.2956 32.447 57.3134 32.4126 57.3255H32.3986L32.3166 57.3549L32 57.4687L31.6901 57.3574C31.6895 57.3572 31.6889 57.3569 31.6882 57.3567C31.452 57.2658 26.7229 55.4417 22.0175 51.308C17.2335 47.1052 12.5 40.5409 12.5 30.9891V19.2456L13.1963 19.066L13.1963 19.066L13.2016 19.0646C16.4687 18.1835 19.6609 17.0364 22.7473 15.6345C25.778 14.2957 28.7036 12.7229 31.4986 10.9299L31.4986 10.93L31.504 10.9264L32.0064 10.5948L32.5157 10.9154C32.5164 10.9158 32.517 10.9162 32.5176 10.9166C35.3119 12.709 38.2367 14.2814 41.2666 15.6198C44.3478 17.0259 47.535 18.1778 50.7975 19.0643Z" stroke="#1A1A1A"/>
</svg>
