<svg width="60" height="60" viewBox="0 0 60 60" fill="none" xmlns="http://www.w3.org/2000/svg">
<rect y="6" width="49" height="49" rx="24" fill="#00B4A6"/>
<path d="M33 25.7241V25.7241C33 22.0105 29.9895 19 26.2759 19H22C17.5817 19 14 22.5817 14 27V34C14 38.4183 17.5817 42 22 42H27.069C30.3446 42 33 39.3446 33 36.069V36.069" stroke="#1A1A1A"/>
<path d="M58 25.7241V25.7241C58 22.0105 54.9895 19 51.2759 19H47C42.5817 19 39 22.5817 39 27V34C39 38.4183 42.5817 42 47 42H52.069C55.3446 42 58 39.3446 58 36.069V36.069" stroke="#1A1A1A"/>
</svg>
