<svg width="60" height="60" viewBox="0 0 60 60" fill="none" xmlns="http://www.w3.org/2000/svg">
<g clip-path="url(#clip0_1230_13041)">
<path d="M49 30.5C49 25.8521 47.6217 21.3087 45.0395 17.4441C42.4573 13.5795 38.7871 10.5675 34.4931 8.78883C30.199 7.01017 25.4739 6.54479 20.9154 7.45155C16.3568 8.3583 12.1695 10.5965 8.88299 13.883C5.59646 17.1695 3.3583 21.3568 2.45155 25.9154C1.54479 30.4739 2.01017 35.199 3.78883 39.4931C5.56749 43.7871 8.57955 47.4573 12.4441 50.0395C16.3087 52.6218 20.8521 54 25.5 54" stroke="#1A1A1A"/>
<path d="M25 54C28.1517 54 31.2726 53.3792 34.1844 52.1731C37.0962 50.967 39.742 49.1992 41.9706 46.9706C44.1992 44.742 45.967 42.0962 47.1731 39.1844C48.3792 36.2726 49 33.1517 49 30" stroke="#1A1A1A" stroke-dasharray="2 2"/>
<rect x="10" y="15" width="31" height="31" rx="15.5" fill="#00B4A6"/>
<path d="M25.5 11.5V29.5L32 36" stroke="black"/>
<path d="M44 26L49 31L54 26" stroke="#1A1A1A"/>
</g>
<defs>
<clipPath id="clip0_1230_13041">
<rect width="60" height="60" fill="white"/>
</clipPath>
</defs>
</svg>
