<svg width="213" height="452" viewBox="0 0 213 452" fill="none" xmlns="http://www.w3.org/2000/svg">
<rect x="7.47949" y="275.214" width="179.754" height="176.085" rx="30" transform="rotate(-3.22437 7.47949 275.214)" fill="#00B4A6"/>
<path d="M12.7622 86.5151C14.1265 91.3694 15.8935 98.0382 17.5935 105.1M53.3128 141.235C39.7959 167.046 21.0803 151.56 23.1598 141.235C24.2777 135.685 21.0762 119.567 17.5935 105.1M53.3128 141.235C64.1263 120.586 47.4208 76.8789 37.7164 57.6065M53.3128 141.235C60.5911 151.216 78.0591 163.95 89.7044 135.041C90.2449 133.699 90.7442 132.321 91.2045 130.911M37.7164 57.6065C26.2791 56.2299 2.98848 60.0844 1.32487 86.5151C-0.338748 112.946 4.79073 144.333 7.56342 156.723C9.29633 186.664 17.753 247.165 37.7164 249.643M37.7164 57.6065C56.5471 30.3492 79.528 35.2369 88.6646 41.0879M37.7164 249.643C57.6798 252.121 77.9205 245.169 85.5454 241.384M37.7164 249.643C44.3016 287.156 54.7685 367.137 43.955 386.96C30.4382 411.738 161.448 408.641 160.408 384.895C159.368 361.148 145.851 250.985 165.607 219.341M88.6646 41.0879C93.6221 59.4658 100.66 101.94 91.2045 130.911M88.6646 41.0879C111.123 17.9612 127.829 26.6335 133.374 33.8605M91.2045 130.911C95.5566 139.859 108.628 151.56 126.096 126.781L133.374 33.8605M133.374 33.8605C134.605 31.5271 136.71 28.957 139.613 27.2134M130.255 124.717C133.198 128.089 136.157 130.008 138.989 130.911M139.613 27.2134C145.7 23.5566 155.295 23.5352 167.686 36.9582C169.345 45.4935 170.86 58.8373 170.534 73.0942M139.613 27.2134C138.573 12.91 141.9 -10.9475 163.527 8.04965C170.18 13.8934 176.077 18.6743 181.203 22.8999M138.989 130.911C146.56 133.325 153.222 128.474 156.249 124.717C160.609 119.207 163.757 112.455 165.971 105.1M138.989 130.911C98.5635 146.604 80.2774 178.06 76.1875 191.826C78.6136 206.281 89.9123 236.015 115.698 239.319C135.949 241.914 154.533 229.82 165.607 219.341M165.971 105.1C167.236 106.477 171.221 108.817 177.044 107.165M165.971 105.1C169.008 95.0156 170.289 83.7976 170.534 73.0942M181.203 22.8999C196.907 35.8454 205.373 43.5805 206.157 60.7048C207.197 83.4187 231.112 132.976 172.885 211.443C171.1 213.733 168.634 216.477 165.607 219.341M181.203 22.8999L177.044 27.2134C175.311 31.4942 166.854 32.8286 146.891 3.9199M7.56342 99.9379C9.05137 103.379 13.1405 109.23 17.5935 105.1M170.534 73.0942C173.744 73.4387 181.203 72.4755 185.362 65.867M64.7502 103.035C68.287 100.97 77.3976 97.4601 85.5454 99.9379M26.2791 112.327C29.0518 109.574 36.8847 105.1 46.0345 109.23M103.221 91.6783C106.687 89.9576 115.49 87.5485 122.977 91.6783M136.494 87.5485C142.732 86.1719 156.041 84.6577 159.368 89.6134M12.7622 68.9644C17.6145 65.867 28.3587 60.2918 32.5177 62.7697M51.2333 52.4452C56.0855 49.0036 66.8297 42.9466 70.9887 46.2504M100.102 39.0233C104.954 36.2701 115.282 31.5896 117.778 34.8935M141.692 34.8935C145.505 33.861 153.754 33.2415 156.249 39.0233" stroke="#434343" stroke-width="2" stroke-linecap="round" stroke-linejoin="round"/>
</svg>
