<svg width="40" height="40" viewBox="0 0 40 40" fill="none" xmlns="http://www.w3.org/2000/svg">
<rect x="1" y="8" width="31" height="21" rx="4" fill="#00B4A6"/>
<rect x="1" y="5" width="12" height="19" rx="4" fill="#00B4A6"/>
<mask id="path-3-inside-1_1354_27173" fill="white">
<path fill-rule="evenodd" clip-rule="evenodd" d="M13 13C10.7909 13 9 14.7909 9 17V20V28V33C9 35.2091 10.7909 37 13 37H36C38.2091 37 40 35.2091 40 33V20C40 17.7909 38.2091 16 36 16H20.874C20.4299 14.2748 18.8638 13 17 13H13Z"/>
</mask>
<path d="M20.874 16L19.9055 16.2493L20.0988 17H20.874V16ZM10 17C10 15.3431 11.3431 14 13 14V12C10.2386 12 8 14.2386 8 17H10ZM10 20V17H8V20H10ZM10 28V20H8V28H10ZM10 33V28H8V33H10ZM13 36C11.3431 36 10 34.6569 10 33H8C8 35.7614 10.2386 38 13 38V36ZM36 36H13V38H36V36ZM39 33C39 34.6569 37.6569 36 36 36V38C38.7614 38 41 35.7614 41 33H39ZM39 20V33H41V20H39ZM36 17C37.6569 17 39 18.3431 39 20H41C41 17.2386 38.7614 15 36 15V17ZM20.874 17H36V15H20.874V17ZM17 14C18.3965 14 19.5725 14.9551 19.9055 16.2493L21.8424 15.7507C21.2874 13.5944 19.3312 12 17 12V14ZM13 14H17V12H13V14Z" fill="#1A1A1A" mask="url(#path-3-inside-1_1354_27173)"/>
</svg>
