<svg width="80" height="80" viewBox="0 0 80 80" fill="none" xmlns="http://www.w3.org/2000/svg">
<g clip-path="url(#clip0_192_3358)">
<path d="M0 33.3333C0 31.1242 1.79086 29.3333 4 29.3333H56C58.2091 29.3333 60 31.1242 60 33.3333V70.6667C60 72.8758 58.2091 74.6666 56 74.6666H4C1.79086 74.6666 0 72.8758 0 70.6666V33.3333Z" fill="#6F7D7C"/>
<path d="M46.6666 20.6667C46.6666 11.4619 39.2047 4 29.9999 4C20.7952 4 13.3333 11.4619 13.3333 20.6667V42" stroke="#1A1A1A"/>
<mask id="path-3-outside-1_192_3358" maskUnits="userSpaceOnUse" x="24.3333" y="41.6667" width="13" height="20" fill="black">
<rect fill="white" x="24.3333" y="41.6667" width="13" height="20"/>
<path fill-rule="evenodd" clip-rule="evenodd" d="M32.0946 53.14C34.3467 52.5157 35.9999 50.4509 35.9999 48C35.9999 45.0545 33.6121 42.6667 30.6666 42.6667C27.7211 42.6667 25.3333 45.0545 25.3333 48C25.3333 50.4509 26.9865 52.5157 29.2386 53.14L25.7591 59.1667C25.3742 59.8334 25.8553 60.6667 26.6251 60.6667H34.708C35.4778 60.6667 35.959 59.8334 35.5741 59.1667L32.0946 53.14Z"/>
</mask>
<path d="M32.0946 53.14L31.8274 52.1764L30.5827 52.5214L31.2285 53.64L32.0946 53.14ZM29.2386 53.14L30.1046 53.64L30.7505 52.5214L29.5057 52.1764L29.2386 53.14ZM25.7591 59.1667L26.6251 59.6667L26.6251 59.6667L25.7591 59.1667ZM35.5741 59.1667L34.708 59.6667L35.5741 59.1667ZM34.9999 48C34.9999 49.99 33.6577 51.669 31.8274 52.1764L32.3617 54.1037C35.0357 53.3624 36.9999 50.9119 36.9999 48H34.9999ZM30.6666 43.6667C33.0598 43.6667 34.9999 45.6068 34.9999 48H36.9999C36.9999 44.5022 34.1644 41.6667 30.6666 41.6667V43.6667ZM26.3333 48C26.3333 45.6068 28.2734 43.6667 30.6666 43.6667V41.6667C27.1688 41.6667 24.3333 44.5022 24.3333 48H26.3333ZM29.5057 52.1764C27.6754 51.669 26.3333 49.99 26.3333 48H24.3333C24.3333 50.9119 26.2975 53.3624 28.9715 54.1037L29.5057 52.1764ZM26.6251 59.6667L30.1046 53.64L28.3726 52.64L24.8931 58.6667L26.6251 59.6667ZM26.6251 59.6667L26.6251 59.6667L24.8931 58.6667C24.1233 60 25.0855 61.6667 26.6251 61.6667V59.6667ZM34.708 59.6667H26.6251V61.6667H34.708V59.6667ZM34.708 59.6667H34.708V61.6667C36.2476 61.6667 37.2099 60 36.4401 58.6667L34.708 59.6667ZM31.2285 53.64L34.708 59.6667L36.4401 58.6667L32.9606 52.64L31.2285 53.64Z" fill="#1A1A1A" mask="url(#path-3-outside-1_192_3358)"/>
</g>
<defs>
<clipPath id="clip0_192_3358">
<rect width="80" height="80" fill="white"/>
</clipPath>
</defs>
</svg>
