<svg width="80" height="80" viewBox="0 0 80 80" fill="none" xmlns="http://www.w3.org/2000/svg">
<g clip-path="url(#clip0_1404_17367)">
<path d="M32.6157 10.6667C50.6513 10.6667 65.3333 23.3624 65.3333 38.9693C65.3333 54.5761 50.6513 67.2719 32.6157 67.2719C29.2414 67.268 25.8837 66.8055 22.6369 65.8972L11.3289 73.0133C11.0202 73.2091 10.6639 73.3192 10.2973 73.3321C9.9308 73.345 9.56749 73.2601 9.24549 73.0865C8.9235 72.9129 8.65467 72.6568 8.46718 72.3451C8.27969 72.0335 8.18044 71.6777 8.17983 71.3151V57.7096C5.62123 55.2831 3.57949 52.375 2.17479 49.1565C0.770088 45.9381 0.0307999 42.4744 0.000450134 38.9693C-0.101791 23.3624 14.5802 10.6667 32.6157 10.6667Z" fill="#00B4A6"/>
<path d="M70.1161 21.162C69.7117 21.689 69.2276 22.1483 68.682 22.5236L62.3709 11.5925C62.9688 11.3077 63.6085 11.118 64.2671 11.0313C65.0914 10.9228 65.929 10.9777 66.732 11.1929C67.5351 11.408 68.2879 11.7793 68.9475 12.2854C69.6071 12.7915 70.1605 13.4226 70.5762 14.1426C70.9919 14.8626 71.2617 15.6574 71.3702 16.4817C71.4787 17.306 71.4238 18.1435 71.2086 18.9466C70.9935 19.7496 70.6222 20.5025 70.1161 21.162Z" stroke="#1A1A1A"/>
<path d="M21.3711 37.2131L21.8041 36.9631L21.5541 36.5301C19.3343 32.6853 20.6516 27.769 24.4964 25.5492L40.7647 16.1567L40.8669 16.0977L40.9319 15.9992L51.0062 0.741044L72.3975 37.792L54.1465 38.8875L54.0287 38.8945L53.9265 38.9536L46.5318 43.2229L46.0988 43.4729L46.3488 43.9059L53.7835 56.7832L48.7338 59.6987L41.2991 46.8213L41.0491 46.3883L40.6161 46.6383L37.6582 48.346C33.8134 50.5658 28.8971 49.2485 26.6773 45.4037L26.4273 44.9707L25.9943 45.2207L24.5153 46.0745C22.3041 47.3512 19.4766 46.5936 18.2 44.3824C16.9233 42.1711 17.6809 39.3436 19.8922 38.067L21.3711 37.2131Z" stroke="#1A1A1A"/>
</g>
<defs>
<clipPath id="clip0_1404_17367">
<rect width="80" height="80" fill="white"/>
</clipPath>
</defs>
</svg>
