<svg width="25" height="24" viewBox="0 0 25 24" fill="none" xmlns="http://www.w3.org/2000/svg">
<path fill-rule="evenodd" clip-rule="evenodd" d="M12.2703 0.800049C6.09342 0.800049 1.09045 5.80301 1.09045 11.9799C1.09045 16.9269 4.29067 21.1054 8.73464 22.5867C9.29364 22.6845 9.50326 22.3491 9.50326 22.0557C9.50326 21.7901 9.48928 20.9097 9.48928 19.9734C6.68036 20.4905 5.95367 19.2887 5.73007 18.6598C5.6043 18.3384 5.05928 17.3462 4.58414 17.0806C4.19285 16.871 3.63386 16.354 4.57017 16.34C5.45058 16.326 6.07944 17.1505 6.28906 17.4859C7.29525 19.1769 8.90234 18.7017 9.54518 18.4082C9.643 17.6816 9.93647 17.1924 10.2579 16.9129C7.77039 16.6334 5.17108 15.6692 5.17108 11.3929C5.17108 10.1771 5.6043 9.17093 6.31701 8.38834C6.20521 8.10885 5.81392 6.96292 6.42881 5.42569C6.42881 5.42569 7.36512 5.13222 9.50326 6.57162C10.3976 6.32008 11.3479 6.1943 12.2982 6.1943C13.2485 6.1943 14.1988 6.32008 15.0932 6.57162C17.2313 5.11825 18.1676 5.42569 18.1676 5.42569C18.7825 6.96292 18.3912 8.10885 18.2794 8.38834C18.9921 9.17093 19.4253 10.1631 19.4253 11.3929C19.4253 15.6832 16.8121 16.6334 14.3245 16.9129C14.7298 17.2623 15.0792 17.9331 15.0792 18.9812C15.0792 20.4765 15.0652 21.6783 15.0652 22.0557C15.0652 22.3491 15.2748 22.6985 15.8338 22.5867C18.0532 21.8374 19.9817 20.411 21.3479 18.5083C22.7142 16.6055 23.4494 14.3223 23.4501 11.9799C23.4501 5.80301 18.4471 0.800049 12.2703 0.800049Z" fill="#6F7D7C"/>
</svg>
