<?xml version="1.0" standalone="no"?>
<!DOCTYPE svg PUBLIC "-//W3C//DTD SVG 20010904//EN"
 "http://www.w3.org/TR/2001/REC-SVG-20010904/DTD/svg10.dtd">
<svg version="1.0" xmlns="http://www.w3.org/2000/svg"
 width="170.000000pt" height="270.000000pt" viewBox="0 0 170.000000 270.000000"
 preserveAspectRatio="xMidYMid meet">

<g transform="translate(0.000000,270.000000) scale(0.100000,-0.100000)"
fill="#000000" stroke="none">
<path d="M675 2346 c-303 -58 -487 -288 -561 -702 -24 -137 -25 -451 0 -584
48 -267 161 -489 300 -588 123 -88 303 -138 466 -128 323 19 518 172 635 496
62 174 94 443 75 637 -35 366 -136 611 -308 745 -70 55 -116 79 -207 108 -90
28 -296 36 -400 16z m376 -44 c150 -44 250 -117 330 -239 178 -273 230 -725
129 -1120 -82 -317 -255 -505 -511 -553 -76 -15 -254 -12 -333 5 -226 48 -387
211 -475 483 -69 212 -87 544 -42 772 48 244 120 398 239 514 82 79 191 133
320 156 75 14 268 4 343 -18z"/>
<path d="M676 2191 c-3 -5 10 -12 29 -15 37 -7 75 -46 75 -77 0 -17 -8 -19
-68 -19 -61 0 -71 3 -93 26 -34 37 -105 76 -130 72 -20 -3 -20 -4 10 -42 17
-21 31 -43 31 -47 0 -5 -25 -9 -55 -9 -50 0 -56 -2 -70 -30 -21 -41 -19 -50
15 -50 25 0 30 -4 30 -24 0 -13 -5 -26 -11 -28 -7 -2 -7 -12 0 -30 9 -23 7
-28 -10 -33 -33 -11 -47 -46 -54 -140 -10 -130 -22 -168 -77 -243 -69 -95 -65
-105 47 -116 71 -8 93 -14 106 -30 l16 -20 14 22 c12 18 23 22 69 22 30 0 72
3 93 6 49 9 49 34 -2 105 -56 78 -70 119 -82 233 -13 137 -16 145 -45 158 -21
10 -25 17 -20 40 3 15 1 28 -4 28 -6 0 -10 11 -10 25 0 22 4 25 39 25 40 0 40
0 47 -47 10 -74 42 -148 77 -183 35 -35 97 -70 122 -70 14 0 16 -23 13 -206
-3 -202 -3 -206 -27 -225 -13 -10 -36 -19 -52 -19 -16 0 -29 -4 -29 -10 0 -6
63 -10 170 -10 107 0 170 4 170 10 0 6 -13 10 -29 10 -16 0 -39 9 -52 19 -24
19 -24 21 -24 222 l0 202 40 14 c90 30 148 108 169 227 l11 61 43 3 c39 3 42
1 42 -22 0 -16 -6 -26 -15 -26 -18 0 -18 -1 -5 -35 8 -22 7 -27 -14 -37 -32
-14 -43 -46 -51 -148 -9 -119 -18 -148 -76 -234 -70 -103 -67 -110 48 -114 81
-2 91 -5 96 -22 7 -26 33 -26 47 0 9 16 23 20 98 22 85 3 87 3 90 29 2 18 -8
41 -32 72 -63 83 -80 135 -92 290 -5 71 -8 80 -35 99 -24 18 -29 27 -24 50 4
17 2 28 -4 28 -6 0 -11 11 -11 25 0 22 4 25 35 25 19 0 35 2 35 5 0 2 -8 20
-17 40 -16 34 -18 35 -75 35 -58 0 -58 0 -47 23 6 12 21 32 32 44 51 57 -53
32 -115 -27 -40 -39 -44 -40 -110 -40 -74 0 -79 5 -56 55 8 18 25 29 57 39
l45 13 -109 6 c-148 9 -223 9 -229 -2z m104 -322 c0 -117 -2 -130 -17 -127
-23 4 -63 84 -79 160 -21 100 -22 98 41 98 l55 0 0 -131z m227 89 c-18 -128
-51 -209 -90 -216 -15 -3 -17 9 -17 127 l0 131 56 0 57 0 -6 -42z"/>
<path d="M385 1111 c-88 -15 -111 -56 -102 -175 21 -274 344 -524 627 -486 36
4 83 16 105 25 111 47 251 169 297 259 25 49 29 125 8 151 -46 56 -249 90
-540 89 -227 0 -260 -9 -287 -71 -62 -149 142 -324 379 -324 102 0 144 17 202
81 31 34 37 47 34 78 -5 59 -45 75 -197 80 -121 4 -124 4 -142 -19 -36 -47
-28 -51 84 -44 119 8 157 -1 157 -39 0 -16 -11 -32 -32 -48 -29 -20 -44 -23
-134 -23 -92 0 -105 3 -159 30 -71 37 -100 72 -100 125 0 45 23 74 75 98 51
23 305 22 418 -3 93 -20 158 -59 168 -100 16 -66 -86 -182 -216 -244 -71 -34
-80 -36 -180 -36 -103 0 -107 1 -193 42 -169 82 -277 218 -277 351 0 74 19
115 62 133 21 9 137 9 481 0 311 -8 462 -9 481 -2 24 10 44 36 35 46 -4 3
-413 16 -869 29 -80 2 -163 1 -185 -3z"/>
</g>
</svg>
