<?xml version="1.0" encoding="UTF-8"?>
<!-- Generated by Pixelmator Pro 3.2.2 -->
<svg width="230" height="247" viewBox="0 0 230 247" xmlns="http://www.w3.org/2000/svg" xmlns:xlink="http://www.w3.org/1999/xlink">
    <path id="Path" fill="#000000" stroke="none" d="M 225.927841 147.882919 C 222.534485 165.340256 195.535828 184.445587 164.527832 188.148254 C 148.358505 190.077591 132.438492 191.850922 115.462502 191.07225 C 87.699829 189.800247 65.793167 184.445587 65.793167 184.445587 C 65.793167 187.148254 65.959831 189.721588 66.293167 192.128265 C 69.902504 219.526932 93.461166 221.168243 115.777168 221.933578 C 138.301163 222.704254 158.357162 216.380264 158.357162 216.380264 L 159.282501 236.74292 C 159.282501 236.74292 143.527832 245.202927 115.462502 246.758926 C 99.986504 247.609589 80.7705 246.369583 58.389168 240.445602 C 9.847832 227.597595 1.499832 175.854919 0.222498 123.353584 C -0.166835 107.765594 0.073165 93.066925 0.073165 80.77359 C 0.073165 27.088257 35.247833 11.352249 35.247833 11.352249 C 52.983833 3.206924 83.417168 -0.218414 115.055832 -0.477081 L 115.833168 -0.477081 C 147.471832 -0.218414 177.925171 3.206924 195.659836 11.352249 C 195.659836 11.352249 230.833176 27.088257 230.833176 80.77359 C 230.833176 80.77359 231.27449 120.382927 225.927841 147.882919"/>
    <path id="path1" fill="#ffffff" stroke="none" d="M 189.343826 84.9384 L 189.343826 149.942383 L 163.5905 149.942383 L 163.5905 86.84906 C 163.5905 73.549057 157.994507 66.798386 146.801163 66.798386 C 134.425171 66.798386 128.222488 74.806381 128.222488 90.641052 L 128.222488 125.17572 L 102.621162 125.17572 L 102.621162 90.641052 C 102.621162 74.806381 96.417168 66.798386 84.041161 66.798386 C 72.847832 66.798386 67.251831 73.549057 67.251831 86.84906 L 67.251831 149.942383 L 41.498497 149.942383 L 41.498497 84.9384 C 41.498497 71.653061 44.881168 61.095718 51.675831 53.285049 C 58.682499 45.47438 67.858498 41.470383 79.249161 41.470383 C 92.427834 41.470383 102.407829 46.535721 109.006493 56.667725 L 115.421158 67.421051 L 121.837166 56.667725 C 128.434494 46.535721 138.414505 41.470383 151.594498 41.470383 C 162.983826 41.470383 172.159836 45.47438 179.167831 53.285049 C 185.961166 61.095718 189.343826 71.653061 189.343826 84.9384"/>
</svg>
