<svg width="596" height="581" viewBox="0 0 596 581" fill="none" xmlns="http://www.w3.org/2000/svg">
<path d="M589.003 580.331H6.00342C4.41175 580.329 2.88578 579.696 1.7603 578.571C0.634825 577.445 0.00176507 575.919 0 574.328V6.00342C0.00176507 4.41175 0.634825 2.88575 1.7603 1.76027C2.88578 0.634793 4.41175 0.00177005 6.00342 0H589.003C590.594 0.00174028 592.12 0.634786 593.246 1.76027C594.371 2.88576 595.004 4.41174 595.006 6.00342V574.328C595.004 575.919 594.371 577.445 593.246 578.571C592.12 579.696 590.594 580.329 589.003 580.331Z" fill="#F1F4F8"/>
<mask id="mask0_1466_30756" style="mask-type:alpha" maskUnits="userSpaceOnUse" x="63" y="52" width="469" height="366">
<path d="M525.633 52.0296H69.3726C67.7811 52.032 66.2555 52.6653 65.1302 53.7906C64.0048 54.916 63.3715 56.4415 63.3691 58.033V411.568C63.3715 413.159 64.0048 414.685 65.1302 415.81C66.2555 416.936 67.7811 417.569 69.3726 417.571H525.633C527.224 417.569 528.75 416.936 529.875 415.81C531.001 414.685 531.634 413.159 531.636 411.568V58.033C531.634 56.4415 531.001 54.916 529.875 53.7906C528.75 52.6653 527.224 52.032 525.633 52.0296Z" fill="white"/>
</mask>
<g mask="url(#mask0_1466_30756)">
<path d="M525.633 52.0296H69.3726C67.7811 52.032 66.2555 52.6653 65.1302 53.7906C64.0048 54.916 63.3715 56.4415 63.3691 58.033V411.568C63.3715 413.159 64.0048 414.685 65.1302 415.81C66.2555 416.936 67.7811 417.569 69.3726 417.571H525.633C527.224 417.569 528.75 416.936 529.875 415.81C531.001 414.685 531.634 413.159 531.636 411.568V58.033C531.634 56.4415 531.001 54.916 529.875 53.7906C528.75 52.6653 527.224 52.032 525.633 52.0296Z" fill="white"/>
<path d="M121.966 309.035L148.597 260.09L357.952 159.107L435.733 201.429L229.793 304.269L199.908 274.24L407.451 387.166L375.039 446.735L121.966 309.035ZM234.687 436.262L262.351 385.42L297.04 327.09L321.607 281.939L392.558 320.544L307.916 476.107L234.687 436.262Z" fill="#00B4A6"/>
</g>
<path d="M499.619 486.944H95.388C94.5037 486.943 93.656 486.592 93.0308 485.966C92.4055 485.341 92.0538 484.493 92.0527 483.609V464.932C92.0538 464.047 92.4055 463.2 93.0308 462.575C93.656 461.949 94.5037 461.598 95.388 461.597H499.619C500.503 461.598 501.35 461.949 501.976 462.575C502.601 463.2 502.953 464.047 502.954 464.932V483.609C502.953 484.493 502.601 485.341 501.976 485.966C501.35 486.592 500.503 486.943 499.619 486.944Z" fill="white"/>
<path d="M359.539 532.304H95.388C94.5037 532.303 93.656 531.951 93.0308 531.326C92.4055 530.7 92.0538 529.853 92.0527 528.968V510.291C92.0538 509.407 92.4055 508.559 93.0308 507.934C93.656 507.309 94.5037 506.957 95.388 506.956H359.539C360.423 506.957 361.271 507.309 361.896 507.934C362.521 508.559 362.873 509.407 362.874 510.291V528.968C362.873 529.853 362.521 530.7 361.896 531.326C361.271 531.951 360.423 532.303 359.539 532.304Z" fill="white"/>
</svg>
