<svg width="596" height="582" viewBox="0 0 596 582" fill="none" xmlns="http://www.w3.org/2000/svg">
<path d="M589.997 581.067H6.99737C5.40571 581.066 3.87964 580.433 2.75417 579.307C1.62869 578.182 0.995662 576.656 0.993896 575.064V6.73993C0.995662 5.14826 1.62869 3.62232 2.75417 2.49684C3.87964 1.37136 5.40571 0.738281 6.99737 0.736511H589.997C591.588 0.738252 593.114 1.3713 594.24 2.49678C595.365 3.62227 595.998 5.14826 596 6.73993V575.064C595.998 576.656 595.365 578.182 594.24 579.307C593.114 580.433 591.588 581.066 589.997 581.067Z" fill="#F1F4F8"/>
<mask id="mask0_1466_30764" style="mask-type:alpha" maskUnits="userSpaceOnUse" x="64" y="52" width="469" height="367">
<path d="M526.627 52.7673H70.3672C68.7758 52.7697 67.2502 53.403 66.1248 54.5284C64.9995 55.6537 64.3662 57.1793 64.3638 58.7708V412.306C64.3662 413.897 64.9995 415.423 66.1248 416.548C67.2502 417.673 68.7758 418.307 70.3672 418.309H526.627C528.219 418.307 529.745 417.673 530.87 416.548C531.995 415.423 532.629 413.897 532.631 412.306V58.7708C532.629 57.1793 531.995 55.6537 530.87 54.5284C529.745 53.403 528.219 52.7697 526.627 52.7673Z" fill="white"/>
</mask>
<g mask="url(#mask0_1466_30764)">
<path d="M526.627 52.7673H70.3672C68.7758 52.7697 67.2502 53.403 66.1248 54.5284C64.9995 55.6537 64.3662 57.1793 64.3638 58.7708V412.306C64.3662 413.897 64.9995 415.423 66.1248 416.548C67.2502 417.673 68.7758 418.307 70.3672 418.309H526.627C528.219 418.307 529.745 417.673 530.87 416.548C531.995 415.423 532.629 413.897 532.631 412.306V58.7708C532.629 57.1793 531.995 55.6537 530.87 54.5284C529.745 53.403 528.219 52.7697 526.627 52.7673Z" fill="white"/>
<path d="M130.182 261.021L133.349 205.39L279.493 24.6439L367.899 29.6779L225.637 210.645L185.787 196.261L421.681 209.694L417.826 277.4L130.182 261.021ZM286.454 327.894L289.744 270.107L296.187 202.548L299.109 151.229L379.753 155.821L369.685 332.634L286.454 327.894Z" fill="#00B4A6"/>
</g>
<path d="M500.612 487.681H96.3819C95.4977 487.68 94.65 487.328 94.0247 486.703C93.3995 486.078 93.0477 485.23 93.0466 484.346V465.668C93.0477 464.784 93.3995 463.936 94.0247 463.311C94.65 462.686 95.4977 462.334 96.3819 462.333H500.612C501.497 462.334 502.344 462.686 502.97 463.311C503.595 463.936 503.947 464.784 503.948 465.668V484.346C503.947 485.23 503.595 486.078 502.97 486.703C502.344 487.328 501.497 487.68 500.612 487.681Z" fill="white"/>
<path d="M360.533 533.04H96.3819C95.4977 533.039 94.65 532.687 94.0247 532.062C93.3995 531.437 93.0477 530.589 93.0466 529.705V511.028C93.0477 510.143 93.3995 509.296 94.0247 508.67C94.65 508.045 95.4977 507.693 96.3819 507.692H360.533C361.417 507.693 362.265 508.045 362.89 508.67C363.515 509.296 363.867 510.143 363.868 511.028V529.705C363.867 530.589 363.515 531.437 362.89 532.062C362.265 532.687 361.417 533.039 360.533 533.04Z" fill="white"/>
</svg>
