<svg width="751" height="740" viewBox="0 0 751 740" fill="none" xmlns="http://www.w3.org/2000/svg">
<path fill-rule="evenodd" clip-rule="evenodd" d="M288.821 259.605L306.339 224.478C269.705 200.68 214.613 202.097 211.632 202.173C211.548 202.176 211.505 202.177 211.505 202.176C108.065 205.188 90.4456 289.013 90.4456 289.013C90.4456 289.013 82.0424 319.829 84.9632 342.767C86.6677 356.436 90.0381 369.847 94.9996 382.7C99.9953 396.78 107.267 408.543 114.637 417.905L114.744 417.822C119.169 415.541 128.445 412.348 130.158 417.822C131.87 423.296 134.011 432.077 134.867 435.783L135.081 438.876C139.745 442.729 142.803 444.684 142.803 444.684C142.803 444.684 155.239 454.814 175.726 462.822C173.716 453.85 170.525 437.304 170.83 431.507C171.173 425.006 170.973 409.126 170.83 401.998C172.827 399.29 177.935 393.702 182.387 393.017C184.299 392.724 185.554 391.018 187.019 389.025C189.821 385.216 193.393 380.36 203.794 382.326C204.295 381.988 204.852 381.64 205.456 381.29C199.467 378.676 190.657 373.548 183.585 364.141C171.678 348.303 173.583 328.486 173.583 328.486C173.583 328.486 172.912 313.724 186.459 296.776C200.005 279.829 211.092 273.818 211.092 273.818C238.05 254.685 288.821 259.605 288.821 259.605ZM252.101 378.712C253.508 379.459 254.713 380.625 255.599 382.326C260.052 390.879 260.309 395.583 259.881 396.866L266.734 400.715C267.59 402.283 269.389 406.018 269.731 408.413C269.859 409.309 270.179 410.855 270.553 412.662C271.428 416.897 272.6 422.566 272.3 424.664C271.957 427.059 270.445 431.364 269.731 433.217L249.18 460.587L244.043 468.285L242.481 472.52C260.935 471.283 268.891 466.918 268.891 466.918C274.818 465.507 283.075 461.867 289.683 458.672L274.441 431.934V427.658C273.87 420.245 272.129 404.222 269.731 399.432L266.306 398.149L265.018 369.924C265.071 369.53 265.137 369.153 265.215 368.791C259.466 374.605 253.604 377.912 252.101 378.712ZM270.799 362.086C273.052 363.189 276.578 365.887 276.578 369.924L280.003 359.66C281.43 357.522 285.569 354.1 290.707 357.522C295.844 360.943 299.412 362.654 300.554 363.081C304.693 360.515 313.398 355.811 315.111 357.522C315.843 358.254 317.078 358.885 318.385 359.554C320.896 360.839 323.673 362.261 323.673 364.792C323.673 367.871 326.528 369.496 327.955 369.924C335.09 367.358 349.105 366.246 348.077 382.326V385.747C349.647 385.035 353.301 383.609 355.356 383.609C356.741 383.609 358.722 384.904 360.303 386.184C364.285 377.855 366.144 372.338 366.144 372.338L465.762 135.61C465.762 135.61 472.695 120.3 479.993 109.735C487.292 99.1697 500.615 92.9699 500.615 92.9699C530.9 78.7566 553.894 96.794 553.894 96.794C553.894 96.794 596.953 123.387 565.021 173.682C533.089 223.977 461.025 213.046 461.025 213.046L443.69 248.58C488.755 273.365 533.821 269.9 533.821 269.9C611.577 270.062 639.829 223.97 639.829 223.97C639.829 223.97 654.793 205.019 662.457 173.309C670.122 141.6 661.359 107.887 661.359 107.887C661.359 107.887 658.438 87.8937 637.458 57.8019C616.477 27.7102 582.722 13.1313 582.722 13.1313C582.722 13.1313 576.331 9.85543 557.722 4.38666C539.113 -1.08211 517.95 0.190326 517.95 0.190326C517.95 0.190326 500.974 -2.20565 469.957 10.0043C438.94 22.2143 426.165 36.7932 426.165 36.7932C405.734 51.7308 389.131 88.909 389.131 88.909L379.094 112.232L297.028 308.513L286.768 331.701C286.768 331.701 280.601 344.737 273.079 358.402C272.369 359.69 271.604 360.918 270.799 362.086Z" fill="#00B4A6"/>
<path d="M97.0873 738.873C91.9962 711.553 88.0718 581.36 86.746 519.679C97.5639 517.773 122.012 490.294 132.885 476.793C133.695 472.053 134.647 464.487 135.092 456.144M3.22404 734.898C0.837604 693.072 18.1759 634.041 23.9033 583.213C31.0626 519.679 28.6779 501.412 26.2906 483.94C24.3808 469.963 31.8587 446.349 35.8363 436.289C40.8744 425.171 54.1323 406.587 66.86 421.2M66.86 421.2C65.5342 429.406 63.0417 446.454 63.678 448.995C64.3144 451.536 62.8826 465.408 62.0871 472.026M66.86 421.2C69.7761 418.023 77.836 412.939 86.746 418.022M62.0871 472.026C71.3199 473.967 75.2095 473.536 77.2012 470.011M62.0871 472.026C61.3395 471.956 60.5494 471.828 59.7386 471.635M51.7459 436.289C40.72 460.624 51.3463 469.635 59.7386 471.635M86.746 418.022C84.8902 427.552 80.8604 449.154 79.5876 459.319C78.9685 464.264 78.4699 467.765 77.2012 470.011M86.746 418.022C92.3147 414.051 104.725 409.128 109.816 421.2M109.816 421.2C115.649 415.641 128.43 408.493 132.885 424.377C135.394 433.325 135.665 445.381 135.092 456.144M109.816 421.2C107.759 427.921 104.172 440.882 102.013 452.173M77.2012 470.011C79.5014 470.492 85.4801 471.051 90.9928 469.442M135.092 456.144C132.532 453.01 128.302 449.188 123.339 446.997M102.013 452.173C116.18 449.791 116.789 444.106 123.339 446.997M102.013 452.173C95.3984 452.967 87.4975 454.627 83.2863 457.166M97.8836 472.026C90.194 474.409 75.292 482.829 77.2012 497.442M97.8836 472.026C95.2557 471.135 92.9687 470.274 90.9928 469.442M97.8836 472.026C102.294 472.49 111.543 472.305 113.256 467.858M126.521 436.289L123.339 446.997M234.344 402.932C237.525 397.85 234.609 387.049 232.753 382.284M234.344 402.932C236.699 393.995 248.792 394.514 259.003 397.049M234.344 402.932C232.975 404.07 229.607 407.008 225.857 410.638M272.526 429.935C275.708 424.216 271.2 407.688 268.548 400.139C268.044 399.934 267.513 399.726 266.957 399.518M272.526 429.935C268.548 437.082 246.276 464.879 243.094 469.644C239.912 474.409 228.775 536.355 235.935 572.093C243.094 607.831 247.071 700.751 247.071 723.782M272.526 429.935C279.42 441.053 294.64 465.831 300.367 475.997C306.095 486.162 297.451 551.709 292.413 583.211C284.723 619.479 268.548 698.369 265.366 723.782M168.319 734.898C159.41 699.319 164.607 623.448 168.319 591.946C166.463 563.62 175.001 496.011 176.274 480.762C177.865 461.702 175.478 457.731 172.297 442.641C169.751 430.57 171.236 409.277 172.297 400.139C174.418 397.893 179.774 393.402 184.229 393.402M184.229 393.402C189.797 393.402 194.57 398.959 196.161 402.137C197.356 404.523 199.447 410.938 199.405 418.022M184.229 393.402C187.676 387.578 196.479 377.519 204.116 383.872M181.842 412.461C190.593 402.932 176.274 433.111 198.547 425.168C200.855 424.345 199.391 420.371 199.405 418.022M204.116 383.872C213.661 391.814 219.23 400.55 218.434 402.932C217.801 404.828 217.169 416.504 216.536 421.2M204.116 383.872C209.419 378.936 222.571 371.708 232.753 382.284M199.405 418.022C197.876 430.729 215.252 423.153 216.048 423.153C216.21 423.153 216.373 422.407 216.536 421.2M232.753 382.284C237.526 378.577 248.662 373.389 255.025 382.284C261.389 391.178 260.329 395.833 259.003 397.049M259.003 397.049C261.893 397.767 264.633 398.646 266.957 399.518M217.639 441.053C222.093 433.429 223.737 430.464 224.002 429.935C229.571 414.845 254.299 414.4 251.117 414.4C247.935 414.4 237.187 418.022 232.753 417.609M277.299 372.753C274.647 366.929 268.867 357.505 266.957 366.4C266.78 367.225 266.629 368.12 266.501 369.069M277.299 372.753C279.155 377.783 283.503 391.813 286.049 407.697C289.231 427.551 304.345 415.876 303.549 407.697M277.299 372.753C277.299 349.247 292.678 356.605 300.367 363.223M266.957 399.518C266.47 395.029 265.864 386.958 265.905 379.332M303.549 407.697C302.913 401.154 301.163 375.321 300.367 363.223M303.549 407.697C298.373 420.099 306.529 423.346 313.891 423.48M300.367 363.223C307.262 357.928 321.845 351.944 325.027 370.37M325.027 370.37C332.982 367.458 348.573 365.765 347.301 382.284C347.199 383.602 347.073 384.927 346.926 386.254M325.027 370.37C327.751 386.14 323.676 406.316 320.283 418.022M338.55 423.153C333.001 426.472 321.579 430.093 320.283 418.022M338.55 423.153C340.746 416.951 345.232 401.544 346.926 386.254M338.55 423.153C362.415 433.845 367.983 402.932 363.21 390.225M320.283 418.022C319.712 419.993 319.16 421.724 318.663 423.153C317.228 423.377 315.58 423.51 313.891 423.48M346.926 386.254C350.763 383.341 359.392 380.058 363.21 390.225M363.21 390.225C367.453 394.46 388.665 452.171 360.028 485.526C350.768 496.313 352.869 676.13 345.71 702.338M401.393 446.612C407.227 430.992 419.212 397.054 420.485 386.254C422.076 372.753 416.507 354.486 422.871 326.69C429.235 298.894 427.644 296.511 440.371 297.305C443.839 297.522 446.362 297.443 448.326 297.439M459.463 333.043C461.584 327.749 464.554 314.936 459.463 306.041C454.833 297.952 453.572 297.429 448.326 297.439M459.463 333.043C461.118 345.162 469.671 340.643 475.373 335.432M459.463 333.043C457.318 334.233 454.112 335.38 451.058 335.244C447.319 335.078 443.809 332.986 442.758 326.69C440.849 315.254 438.25 316.101 437.19 317.954M448.326 297.439C455.751 293.778 471.554 288.652 475.373 297.439M475.373 297.439C479.191 306.227 478.554 324.837 477.759 333.043C477.054 333.817 476.247 334.633 475.373 335.432M475.373 297.439C479.153 293.469 487.691 288.084 494.459 294.522M496.85 297.439C495.259 299.248 493.032 304.135 496.85 309.218M496.85 297.439C496.088 296.274 495.286 295.31 494.459 294.522M496.85 297.439L499.01 297.425M496.85 309.218C500.669 314.3 509.578 317.16 513.555 317.954C513.29 321.395 511.805 328.437 507.987 329.072C506.203 329.369 500.752 330.886 494.459 333.043M496.85 309.218C497.907 315.571 498.909 329.231 494.459 333.043M469.009 346.544C470.309 343.623 476.26 340.304 483.169 337.346M494.459 333.043C490.795 334.299 486.846 335.771 483.169 337.346M494.459 294.522C499.498 288.567 511.01 280.787 516.737 297.305M516.737 297.305C522.571 295.981 533.76 297.622 531.851 314.776C529.942 331.93 528.935 345.749 528.669 350.514C524.689 355.808 512.273 368.779 494.459 378.311C476.644 387.842 461.584 437.345 457.872 457.729M516.737 297.305L512.282 297.335M457.872 457.729C451.508 443.751 436.129 439.727 429.235 440.257M457.872 457.729C461.849 462.494 467.418 477.107 457.872 497.438C448.658 517.062 439.445 533.371 437.19 543.806C436.524 546.885 436.465 549.452 437.19 551.442C440.371 560.178 468.213 695.984 469.804 706.308M478.565 464.082C472.466 467.524 464.395 476.948 474.577 493.467C487.305 514.116 507.987 514.116 518.328 522.852C528.669 531.588 562.22 598.299 564.466 636.42C565.792 658.922 567.33 691.06 578.784 734.898M501.623 483.143C506.926 482.878 519.442 484.572 527.078 493.467M501.623 483.143C493.772 485.755 488.533 483.784 484.914 479.378M501.623 483.143C503.282 482.591 504.593 482.134 505.601 481.737M487.305 438.668C483.592 436.021 475.85 432.633 474.577 440.257C476.89 451.271 477.532 470.39 484.914 479.378M487.305 438.668C490.487 434.962 498.6 428.821 505.601 433.903M487.305 438.668C487.22 443.406 487.595 447.621 488.309 451.375M505.601 433.903C514.351 440.257 494.464 450.583 521.51 475.997C524.604 478.903 529.048 476.526 530.26 478.424M505.601 433.903C508.517 432.315 521.987 427.71 530.26 431.522C531.098 431.908 531.633 432.258 531.924 432.596M488.309 451.375C492.722 480.914 516.737 484.731 530.26 478.424M488.309 451.375C493.772 480.106 516.086 477.617 505.601 481.737M535.402 474.858C536.197 477.271 535.351 482.272 530.26 478.424M535.402 474.858C508.353 437.635 535.231 436.43 531.924 432.596M535.402 474.858C540.44 474.858 550.733 475.005 541.824 462.298C530.687 446.414 562.875 444.228 558.898 440.257M531.924 432.596C539.324 432.503 555.716 437.08 558.898 440.257M558.898 440.257C562.61 441.082 570.352 449.871 571.625 478.424C572.898 506.977 577.989 522.587 580.375 526.823C599.467 574.209 639.559 673.588 647.195 692.013M549.352 526.823C548.821 528.146 550.625 529.999 562.079 526.823M391.847 458.523C386.756 458.523 382.832 468.583 381.506 473.612C379.984 477.614 382.369 483.508 385.497 488.702M391.847 458.523C391.052 466.994 391.052 484.89 397.416 488.702M391.847 458.523C394.234 455.346 399.484 449.469 401.393 451.375M397.416 488.702C403.78 492.514 396.355 496.114 391.847 497.438C390.036 495.366 387.599 492.192 385.497 488.702M397.416 488.702C405.37 494.261 411.734 480.762 406.961 473.612M401.393 451.375C403.78 453.758 402.189 466.463 406.961 473.612M401.393 451.375C403.119 448.504 406.843 444.303 410.939 444.362M406.961 473.612C408.57 477.024 411.671 484.209 413.91 491.084M433.212 475.997C433.477 480.232 434.644 489.178 437.19 491.084M433.212 475.997C432.227 473.878 430.843 471.036 429.235 467.925M433.212 475.997C435.343 475.389 438.696 473.856 441.167 471.339M415.712 497.438C415.25 495.44 414.624 493.278 413.91 491.084M413.91 491.084C409.207 492.673 399.325 499.503 397.416 514.116M385.497 488.702C382.311 491.613 377.529 504.902 383.893 534.765C391.847 572.093 379.12 676.129 391.847 711.073M410.939 444.362C412.506 444.384 414.127 445.03 415.712 446.612C419.802 450.694 425.217 460.152 429.235 467.925M410.939 444.362C415.712 440.875 426.053 435.173 429.235 440.257M429.235 440.257C433.212 446.612 426.154 443.529 427.939 455.883C430.11 470.909 430.63 471.425 429.235 467.925M439.927 462.298C439.927 465.276 443.001 469.471 441.167 471.339M441.167 471.339V483.143M313.891 423.48C319.724 426.203 332.505 435.277 336.959 449.787M636.024 525.9C646.206 558.303 667.312 570.11 676.593 571.963C672.085 617.496 664.184 712.215 668.638 726.828M636.024 525.9C623.296 485.397 616.932 477.455 636.024 475.072C639.506 474.638 642.392 474.608 644.774 474.858M636.024 525.9C636.024 521.455 642.244 515.704 648.751 511.016M659.093 504.457L655.115 482.22C655.115 479.768 652.839 475.706 644.774 474.858M659.093 504.457C656.293 505.999 652.476 508.333 648.751 511.016M659.093 504.457C663.167 503.049 670.204 501.308 676.593 501.3M666.413 526.823C666.413 523.646 678.123 523.171 683.692 521.318C685.027 520.461 686.512 520.397 687.73 518.752M638.41 492.544L648.751 511.016M644.774 474.858C646.63 470.959 652.092 464.113 659.093 467.925C660.429 468.652 661.765 469.251 663.07 469.848M676.593 501.3C676.593 476.419 670.311 473.162 663.07 469.848M676.593 501.3C679.49 501.296 682.254 501.649 684.548 502.55M663.07 469.848C669.169 466.682 682.639 463.25 687.73 474.858M687.73 474.858C692.821 486.466 691.972 494.663 690.912 497.311M687.73 474.858C692.503 472.018 703.48 470.148 709.208 485.397M690.912 497.311C690.381 499.422 688.366 503.425 684.548 502.55M690.912 497.311C687.73 503.666 698.071 514.782 697.275 511.016C696.48 507.251 716.367 504.457 709.208 485.397M684.548 502.55C685.755 503.024 686.832 503.651 687.73 504.457C691.804 508.118 689.897 515.826 687.73 518.752M709.208 485.397C716.102 496.515 729.572 523.835 728.299 544.166C727.026 564.497 733.602 592.876 737.049 604.524L748.186 737.153M437.19 378.311C446.201 378.046 465.659 380.058 471.395 390.225M318.663 485.526C323.436 483.673 335.368 481.079 344.914 485.526M193.774 480.762C200.934 479.44 216.525 477.429 221.616 479.97M59.7386 471.635C63.5918 471.802 71.7265 475.384 73.439 488.385M48.6069 524.736C50.1768 525.164 56.3134 525.762 68.3014 524.736M59.7386 462.298C57.8833 461.443 54.1727 460.245 54.1727 462.298M68.3014 462.298C70.2019 462.155 74.4897 462.127 76.436 463.153M90.9928 469.442C78.4799 464.173 78.4395 460.087 83.2863 457.166M83.2863 457.166C84.2852 457.883 86.9683 459.319 89.7084 459.319C92.4484 459.319 95.4169 457.202 96.5586 456.144M193.774 418.022C192.195 417.969 189.037 418.198 189.037 419.532M204.116 415.683C205.797 416.824 210.187 418.42 214.297 415.683M216.536 421.2C219.959 422.356 227.994 423.255 232.753 417.609M232.753 417.609C228.041 417.17 223.481 416.266 223.11 414.4M223.11 414.4C222.999 413.844 223.261 413.202 224.002 412.461C224.626 411.838 225.246 411.229 225.857 410.638M223.11 414.4L220.291 415.683M225.857 410.638C226.886 411.95 229.707 413.787 232.753 410.638C235.799 407.49 235.082 406.132 234.344 405.847M249.405 400.139C248.337 398.443 245.238 395.791 243.094 395.791M265.905 379.332C267.255 379.332 269.955 378.905 269.955 377.194C269.955 375.484 267.653 371.064 266.501 369.069M265.905 379.332C265.925 375.658 266.095 372.086 266.501 369.069M290.934 402.932C292.287 401.07 295.808 397.905 299.069 400.139M310.2 404.137C311.375 402.569 314.219 400.63 316.194 405.42M327.754 407.697C330.18 406.158 335.118 404.575 335.461 410.551M346.926 412.69C348.527 412.053 351.73 411.503 351.73 414.4M403.535 483.143C404.563 485.05 401.822 487.643 401.393 488.702M393.688 496.822C393.688 495.233 393.945 492.057 394.972 492.057M481.884 483.143L484.914 479.378M497.726 480.687C498.469 479.933 500.289 478.424 501.623 478.424C502.958 478.424 504.831 480.633 505.601 481.737M518.328 479.378C518.025 478.711 518.019 477.354 520.417 477.266M527.078 474.858C527.584 474.621 528.929 474.333 530.26 475.072M538.827 471.772C539.112 470.49 540.111 468.309 541.824 469.848M695.954 501.3C698.637 500.248 704.106 498.774 704.517 501.3M680.541 495.655C682.937 495.476 687.73 495.556 687.73 497.311M665.128 499.077C667.126 498.316 671.465 497.251 672.835 499.077M651.856 502.55C653.169 501.746 656.036 500.62 656.994 502.55M674.119 508.913C674.483 510.728 675.895 514.023 678.829 514.767M678.829 514.767C679.351 514.9 679.921 514.952 680.541 514.9C684.651 514.558 684.925 510.766 684.548 508.913C685.718 507.202 685.765 504.294 676.593 506.347C667.421 508.4 674.262 512.816 678.829 514.767ZM687.73 518.752C693.284 520.035 705.847 526.45 711.67 541.846C718.948 561.091 708.37 568.357 712.652 574.344M475.373 335.432C475.831 336.924 478.031 339.395 483.169 337.346M448.326 329.072C449.094 330.362 451.401 332.555 454.483 331.007M463.903 333.043C463.882 333.839 464.873 335.432 469.009 335.432M481.884 333.043C482.741 334.367 486.08 336.22 492.588 333.043M500.294 326.69C501.387 327.674 504.455 329.052 507.987 326.69M499.01 297.425C498.872 298.925 499.535 302.012 503.291 302.354C507.048 302.696 510.851 300.216 512.282 298.933V297.335M499.01 297.425L512.282 297.335M409.529 460.16C412.954 459.68 418.348 460.232 417.663 457.729C416.807 454.6 413.91 447.758 410.939 448.185C408.562 448.527 407.715 449.326 406.104 449.896C406.389 453.435 408.501 458.732 409.529 460.16Z" stroke="black" stroke-width="5"/>
</svg>
