<svg width="518" height="443" viewBox="0 0 518 443" fill="none" xmlns="http://www.w3.org/2000/svg">
<path d="M518 266.507C518 363.942 439.014 442.928 341.58 442.928C244.145 442.928 165.159 363.942 165.159 266.507C165.159 169.073 244.145 90.087 341.58 90.087C439.014 90.087 518 169.073 518 266.507Z" fill="#AD898A"/>
<path fill-rule="evenodd" clip-rule="evenodd" d="M206.391 195.114C206.527 195.08 206.777 195.019 207.016 195.019C207.645 195.019 208.182 195.473 208.287 196.094C208.391 196.714 208.033 197.319 207.438 197.525L199.427 200.305C198.965 200.478 198.486 200.659 197.989 200.847C192.385 202.968 184.571 206.002 175.272 209.655C156.851 216.891 132.621 226.547 108.247 236.312C106.379 247.974 95.624 256.936 83.4079 263.382C70.8345 270.017 56.2514 274.236 46.6453 276.096C46.2676 276.169 45.8771 276.07 45.5803 275.825C45.2836 275.58 45.1117 275.216 45.1117 274.831V261.708C42.0014 262.964 39.0154 264.17 36.1755 265.318C35.5525 265.57 34.8406 265.301 34.5401 264.7L30.9708 257.561C30.805 257.229 30.7901 256.842 30.9299 256.499C31.0697 256.156 31.3507 255.889 31.701 255.767L41.0164 252.536L34.5424 239.72C34.3848 239.408 34.3607 239.045 34.4758 238.715C34.5908 238.384 34.8351 238.115 35.1526 237.969C71.8246 221.043 97.9124 225.022 107.174 229.583L198.551 197.881C200.686 197.079 202.445 196.432 203.775 195.963C204.586 195.677 205.249 195.453 205.744 195.299C205.991 195.223 206.21 195.16 206.391 195.114ZM138.605 221.406L33.9322 257.721L36.3129 262.483C39.3623 261.25 42.5727 259.953 45.918 258.603C63.6413 251.449 85.1536 242.789 106.598 234.197C117.451 229.848 128.286 225.517 138.605 221.406ZM103.523 230.85C93.4107 227.264 69.9324 225.079 37.4471 239.754L43.4732 251.683L103.523 230.85ZM47.6888 260.667V273.257C57.0924 271.295 70.5618 267.247 82.2051 261.103C93.7184 255.027 103.054 247.111 105.39 237.457C84.9943 245.632 64.6539 253.82 47.6888 260.667Z" fill="#434343"/>
<path fill-rule="evenodd" clip-rule="evenodd" d="M203.446 404.316C314.384 404.316 404.316 314.384 404.316 203.446C404.316 92.5094 314.384 2.57712 203.446 2.57712C92.5094 2.57712 2.57712 92.5094 2.57712 203.446C2.57712 314.384 92.5094 404.316 203.446 404.316ZM203.446 406.893C315.807 406.893 406.893 315.807 406.893 203.446C406.893 91.0861 315.807 0 203.446 0C91.0861 0 0 91.0861 0 203.446C0 315.807 91.0861 406.893 203.446 406.893Z" fill="#434343"/>
<path fill-rule="evenodd" clip-rule="evenodd" d="M252.963 54.745C224.632 44.1201 167.354 31.387 107.887 79.5263C48.4632 127.632 50.1029 198.638 58.3482 228.085L55.8665 228.78C47.4554 198.74 45.7639 126.501 106.266 77.5233C166.726 28.5793 225.09 41.5396 253.867 52.332C268.198 57.7063 291.606 67.6003 311.88 87.8744C332.185 108.179 349.275 138.825 351.072 185.552C352.866 232.203 340.31 274.469 315.087 305.098C289.843 335.75 251.993 354.644 203.446 354.644C125.678 354.644 82.2322 299.446 70.2023 271.777L72.5657 270.749C84.3307 297.809 127.023 352.067 203.446 352.067C251.268 352.067 288.371 333.484 313.097 303.459C337.843 273.41 350.272 231.8 348.497 185.651C346.725 139.578 329.907 109.546 310.058 89.6967C290.178 69.8167 267.186 60.0793 252.963 54.745Z" fill="#434343"/>
<path fill-rule="evenodd" clip-rule="evenodd" d="M203.447 304.377C259.189 304.377 304.377 259.189 304.377 203.447C304.377 147.704 259.189 102.516 203.447 102.516C147.704 102.516 102.516 147.704 102.516 203.447C102.516 259.189 147.704 304.377 203.447 304.377ZM203.447 306.954C260.612 306.954 306.954 260.612 306.954 203.447C306.954 146.281 260.612 99.9387 203.447 99.9387C146.281 99.9387 99.9387 146.281 99.9387 203.447C99.9387 260.612 146.281 306.954 203.447 306.954Z" fill="#434343"/>
<path fill-rule="evenodd" clip-rule="evenodd" d="M203.446 247.27C227.649 247.27 247.269 227.649 247.269 203.447C247.269 179.244 227.649 159.624 203.446 159.624C179.243 159.624 159.623 179.244 159.623 203.447C159.623 227.649 179.243 247.27 203.446 247.27ZM203.446 249.847C229.072 249.847 249.846 229.073 249.846 203.447C249.846 177.821 229.072 157.047 203.446 157.047C177.82 157.047 157.046 177.821 157.046 203.447C157.046 229.073 177.82 249.847 203.446 249.847Z" fill="#434343"/>
</svg>
