<svg width="25" height="24" viewBox="0 0 25 24" fill="none" xmlns="http://www.w3.org/2000/svg">
<path d="M22.8093 5.29403C22.0106 5.64794 21.1526 5.88708 20.2506 5.99516C21.1813 5.43827 21.8775 4.56178 22.2095 3.52925C21.3351 4.04863 20.3781 4.41422 19.3801 4.61012C18.709 3.89355 17.8201 3.4186 16.8514 3.259C15.8827 3.09941 14.8884 3.26409 14.0229 3.72749C13.1573 4.19089 12.469 4.92707 12.0648 5.82175C11.6605 6.71642 11.563 7.71953 11.7872 8.67534C10.0155 8.58638 8.28219 8.12586 6.69991 7.32368C5.11763 6.5215 3.7217 5.39558 2.60272 4.01899C2.22011 4.67899 2.00011 5.44421 2.00011 6.25916C1.99968 6.99281 2.18035 7.71522 2.52608 8.3623C2.87181 9.00938 3.37191 9.56112 3.98202 9.96856C3.27446 9.94604 2.58251 9.75485 1.96376 9.4109V9.4683C1.96369 10.4973 2.31962 11.4946 2.97115 12.291C3.62269 13.0874 4.5297 13.6339 5.53828 13.8377C4.8819 14.0153 4.19374 14.0415 3.52576 13.9142C3.81032 14.7996 4.36463 15.5738 5.11107 16.1285C5.85751 16.6832 6.75873 16.9906 7.68855 17.0076C6.11013 18.2467 4.16078 18.9188 2.15411 18.9159C1.79865 18.916 1.44348 18.8952 1.09045 18.8537C3.12735 20.1633 5.49844 20.8584 7.92002 20.8557C16.1174 20.8557 20.5987 14.0663 20.5987 8.17795C20.5987 7.98664 20.5939 7.79342 20.5853 7.60212C21.457 6.97175 22.2094 6.19115 22.8073 5.2969L22.8093 5.29403Z" fill="#6F7D7C"/>
</svg>
