<svg width="80" height="80" viewBox="0 0 80 80" fill="none" xmlns="http://www.w3.org/2000/svg">
<g clip-path="url(#clip0_1354_27394)">
<path d="M0 33.3333C0 31.1242 1.79086 29.3333 4 29.3333H56C58.2091 29.3333 60 31.1242 60 33.3333V70.6667C60 72.8758 58.2091 74.6667 56 74.6667H4C1.79086 74.6667 0 72.8758 0 70.6667V33.3333Z" fill="#00B4A6"/>
<path d="M13.3334 42V20.6667C13.3334 11.4619 20.7953 4 30 4C39.2048 4 46.6667 11.4619 46.6667 20.6667V29.35" stroke="#1A1A1A"/>
<mask id="path-3-outside-1_1354_27394" maskUnits="userSpaceOnUse" x="24.3334" y="41.6667" width="13" height="20" fill="black">
<rect fill="white" x="24.3334" y="41.6667" width="13" height="20"/>
<path fill-rule="evenodd" clip-rule="evenodd" d="M32.0947 53.14C34.3468 52.5157 36 50.4509 36 48C36 45.0545 33.6122 42.6667 30.6667 42.6667C27.7212 42.6667 25.3334 45.0545 25.3334 48C25.3334 50.4509 26.9866 52.5157 29.2387 53.14L25.7592 59.1667C25.3743 59.8333 25.8555 60.6667 26.6253 60.6667H34.7082C35.478 60.6667 35.9591 59.8333 35.5742 59.1667L32.0947 53.14Z"/>
</mask>
<path d="M32.0947 53.14L31.8276 52.1763L30.5828 52.5214L31.2287 53.64L32.0947 53.14ZM29.2387 53.14L30.1047 53.64L30.7506 52.5214L29.5059 52.1763L29.2387 53.14ZM25.7592 59.1667L26.6253 59.6667H26.6253L25.7592 59.1667ZM35.5742 59.1667L34.7082 59.6667V59.6667L35.5742 59.1667ZM35 48C35 49.9899 33.6579 51.669 31.8276 52.1763L32.3618 54.1037C35.0358 53.3624 37 50.9119 37 48H35ZM30.6667 43.6667C33.0599 43.6667 35 45.6068 35 48H37C37 44.5022 34.1645 41.6667 30.6667 41.6667V43.6667ZM26.3334 48C26.3334 45.6068 28.2735 43.6667 30.6667 43.6667V41.6667C27.1689 41.6667 24.3334 44.5022 24.3334 48H26.3334ZM29.5059 52.1763C27.6756 51.669 26.3334 49.9899 26.3334 48H24.3334C24.3334 50.9119 26.2976 53.3624 28.9716 54.1037L29.5059 52.1763ZM26.6253 59.6667L30.1047 53.64L28.3727 52.64L24.8932 58.6667L26.6253 59.6667ZM26.6253 59.6667H26.6253L24.8932 58.6667C24.1234 60 25.0857 61.6667 26.6253 61.6667V59.6667ZM34.7082 59.6667H26.6253V61.6667H34.7082V59.6667ZM34.7082 59.6667L34.7082 59.6667V61.6667C36.2478 61.6667 37.21 60 36.4402 58.6667L34.7082 59.6667ZM31.2287 53.64L34.7082 59.6667L36.4402 58.6667L32.9607 52.64L31.2287 53.64Z" fill="#1A1A1A" mask="url(#path-3-outside-1_1354_27394)"/>
</g>
<defs>
<clipPath id="clip0_1354_27394">
<rect width="80" height="80" fill="white"/>
</clipPath>
</defs>
</svg>
