<svg width="40" height="40" viewBox="0 0 40 40" fill="none" xmlns="http://www.w3.org/2000/svg">
<path d="M28.7377 9H36.2623V8H28.7377V9ZM36.2623 9C36.6697 9 37 8.77612 37 8.5C37 8.22388 36.6697 8 36.2623 8V9ZM28.7377 8C28.3302 8 28 8.22388 28 8.5C28 8.77612 28.3302 9 28.7377 9V8Z" fill="#434343"/>
<path d="M3.5 8.5H36.5V28C36.5 29.933 34.933 31.5 33 31.5H7C5.067 31.5 3.5 29.933 3.5 28V8.5Z" stroke="#1A1A1A"/>
<path d="M29.5 8.5H36.5V28C36.5 29.933 34.933 31.5 33 31.5C31.067 31.5 29.5 29.933 29.5 28V8.5Z" fill="#00B4A6" stroke="black"/>
<line x1="8" y1="15.5" x2="25" y2="15.5" stroke="black"/>
<line x1="8" y1="22.5" x2="19" y2="22.5" stroke="black"/>
</svg>
