<svg width="240" height="240" viewBox="0 0 240 240" fill="none" xmlns="http://www.w3.org/2000/svg">
<path d="M129.211 181.322C129.211 183.672 129.75 188.763 131.908 190.323C134.606 192.273 133.407 196.998 133.108 196.173C132.868 195.513 130.584 196.448 129.473 196.998M129.211 181.322V180.347M129.211 181.322C128.659 181.102 127.867 180.764 126.887 180.317M83.7918 177.121C83.8517 176.521 86.0153 175.071 87.0895 174.421C87.1609 174.39 87.236 174.357 87.3144 174.323M83.7918 177.121L84.991 177.643M83.7918 177.121L81.4684 176.071C81.2772 176.019 80.9746 176.025 80.8689 176.296M130.335 197.373C130.695 197.758 131.194 198.554 130.432 198.775M130.335 197.373L129.473 196.998M130.335 197.373C130.94 198.178 135.686 198.26 136.882 199.474M122.465 202.549C124.714 201.374 129.435 198.979 130.335 198.799C130.369 198.792 130.402 198.784 130.432 198.775M122.465 202.549C121.466 202.974 116.799 203.374 106.126 201.574C105.854 201.574 105.606 201.547 105.377 201.494M122.465 202.549L80.4189 184.997M84.991 177.643L86.4899 177.196M84.991 177.643L85.8154 178.002M86.4899 177.196C86.4924 177.396 86.451 177.827 86.2651 177.947C86.0792 178.067 85.8878 178.033 85.8154 178.002M86.4899 177.196C86.9315 176.902 88.0529 176.285 89.4338 175.846M85.8154 178.002L91.2117 180.35M90.2373 175.621C90.3122 175.671 90.417 175.786 90.2373 175.846C90.0577 175.906 90.1625 176.521 90.2373 176.821M90.2373 175.621C90.4021 175.581 90.5776 175.538 90.7618 175.491M90.2373 175.621C89.9622 175.688 89.6934 175.764 89.4338 175.846M109.124 176.296C107.426 175.796 103.593 174.571 101.854 173.671C99.6808 172.546 98.4067 173.446 97.4324 173.671C96.5319 173.879 93.0068 174.92 90.7618 175.491M105.077 172.245C106.492 172.283 108.168 172.264 109.649 172.096C112.287 171.796 113.996 173.021 114.521 173.671C115.058 174.005 115.593 174.33 116.122 174.646M105.077 172.245C103.971 172.215 103.024 172.151 102.454 172.096C101.515 171.809 99.9592 171.417 98.422 171.202M105.077 172.245L109.574 173.146M91.2117 180.35C91.3616 179.974 91.9162 179.282 92.9355 179.522C93.2268 179.59 93.5046 179.648 93.7599 179.697M91.2117 180.35L92.7106 181.002M95.109 179.897C96.508 180.048 99.426 180.35 99.9057 180.35C100.077 180.35 100.471 180.35 100.955 180.35M95.109 179.897C95.109 180.272 95.0191 181.037 94.6593 181.097C94.2995 181.157 93.4601 181.167 93.0854 181.165M95.109 179.897C94.8949 179.879 94.3979 179.818 93.7599 179.697M110.473 181.847C109.199 181.697 106.501 181.292 105.902 180.872C105.402 180.522 104.522 180.392 103.953 180.359M93.0854 181.165L92.7106 181.002M93.0854 181.165L103.653 185.764M92.261 179.522C92.3609 179.772 92.5458 180.332 92.4858 180.572C92.4258 180.812 92.6107 180.959 92.7106 181.002M103.653 185.764C104.777 186.206 106.886 186.949 108.525 187.294M103.653 185.764L109.649 188.373M112.047 186.722C112.022 186.922 111.613 187.352 110.174 187.472C109.762 187.507 109.181 187.432 108.525 187.294M108.525 187.294L109.649 188.373M109.649 188.373L129.473 196.998M93.7599 179.697C95.159 179.48 98.1669 179.112 99.0063 179.372M99.0063 179.372C99.8457 179.632 100.655 180.132 100.955 180.35M99.0063 179.372C99.4738 179.252 99.4508 178.772 99.3808 178.547M100.955 180.35C101.823 180.35 102.979 180.35 103.653 180.35C103.737 180.35 103.838 180.353 103.953 180.359M87.3144 174.323V175.096M87.3144 174.323C87.4321 174.272 87.5573 174.217 87.6891 174.16M87.6891 174.16L87.7641 174.646M87.6891 174.16C88.9956 173.595 90.9472 172.763 92.5986 172.096M94.9591 171.202C94.881 171.222 94.806 171.245 94.7343 171.271C94.1766 171.469 93.4252 171.762 92.5986 172.096M94.9591 171.202C94.8342 171.525 94.6893 172.216 95.109 172.396M94.9591 171.202C95.3064 171.109 95.7137 171.061 96.1583 171.048M96.1583 171.721V171.048M96.1583 171.048C96.6255 171.034 97.1339 171.059 97.6572 171.11M97.6572 171.721C97.7322 171.585 97.8371 171.291 97.6572 171.202C97.4774 171.112 97.5823 171.103 97.6572 171.11M97.6572 171.11C97.9097 171.135 98.1656 171.166 98.422 171.202M98.2568 172.096C98.4009 171.81 98.6355 171.23 98.422 171.202M98.5566 175.321C98.9064 175.246 99.7708 175.201 100.43 175.621M99.9057 174.796L102.304 175.846M93.3852 182.747H91.8862C88.2888 181.247 81.0488 178.198 80.8688 178.002C80.6438 177.757 81.0936 177.797 80.8688 176.821C80.8141 176.584 80.8227 176.415 80.8689 176.296M93.3852 182.747L130.432 198.775M93.3852 182.747C93.1402 183.138 92.8124 183.686 92.4858 184.273M130.432 198.775L131.908 199.474M80.8689 176.296L80.4189 176.007M79.8195 175.621L77.9458 175.096C77.7709 174.771 77.5261 174.046 77.9458 173.746C78.3655 173.446 73.7738 172.871 71.4255 172.621C71.1506 172.946 70.646 173.656 70.8259 173.896C71.0057 174.136 53.9622 171.346 45.418 169.921M79.8195 175.621L80.4189 176.007M79.8195 175.621V176.296C79.3947 177.721 78.2154 180.69 76.8963 181.165C75.5772 181.64 74.6978 180.798 74.423 180.317M45.418 169.921L45.1182 168.871L44.8184 167.971L38.8975 167.145L39.4971 168.196C39.4971 168.471 39.527 169.036 39.6469 169.096M45.418 169.921C43.5443 169.671 39.7669 169.156 39.6469 169.096M39.6469 169.096H39.1973M39.4971 167.971L44.6685 168.646M39.1973 169.096L34.4046 159.27M39.1973 169.096C40.2229 169.565 41.508 170.158 42.9447 170.824M39.1973 169.096C36.0269 167.243 29.4118 164.087 28.3137 166.283C25.1569 166.434 16.9765 171.452 9.5098 190.323M80.4189 176.007C80.3189 175.943 80.4788 175.805 81.9179 175.771C83.3569 175.737 83.3169 174.257 83.117 173.521C71.8498 150.069 49.1204 102.864 48.341 101.664C47.5615 100.464 46.3673 100.364 45.8677 100.464L12.5906 101.889C11.1416 101.889 8.25857 101.979 8.31853 102.339C8.37849 102.699 8.19361 103.139 8.09367 103.314C7.614 104.814 9.09298 107.74 9.89243 109.015L34.4046 159.27M82.8172 173.746C82.7423 174.021 82.4425 174.466 81.8429 174.046C81.6667 173.923 79.6093 169.75 76.5094 163.32M47.7414 102.714C55.5918 119.381 69.0605 147.869 76.5094 163.32M47.4416 101.964C47.3916 101.764 46.902 101.379 45.343 101.439C43.7841 101.499 20.1604 102.464 8.54338 102.939M76.5094 163.32C75.0226 164.745 74.7978 164.348 72.0247 164.07C68.4272 163.71 45.6955 160.695 34.4046 159.27M90.9866 176.596C91.0116 176.203 91.0016 175.431 90.7618 175.491M89.7125 176.596L89.4338 175.846M104.402 183.197C104.103 182.237 103.593 180.326 103.953 180.359M105.077 181.847L104.777 181.002M105.676 181.847V181.165M129.211 180.347C129.51 180.347 130.514 180.347 132.133 180.347C133.077 180.347 135.033 179.841 137.605 179.537M129.211 180.347C130.384 176.155 134.944 143.736 136.065 141.418C136.345 135.717 138.707 126.241 139.853 122.216M148.247 180.347C155.667 182.672 151.92 180.272 156.267 181.322C160.614 182.372 159.564 180.197 162.487 182.447C165.41 184.697 161.438 180.422 169.233 182.147M148.247 180.347C150.196 181.647 154.093 185.071 154.093 188.373M148.247 180.347C144.289 179.106 140.544 179.189 137.605 179.537M169.233 182.147C177.027 183.872 175.229 182.972 177.627 182.147M169.233 182.147L173.805 166.47M177.627 182.147C179.546 181.487 182.574 182.072 183.848 182.447C184.081 182.139 184.586 181.687 185.347 181.322M177.627 182.147L181.749 157.094M192.692 181.247C189.319 179.372 191.717 180.872 188.494 180.722C187.186 180.661 186.131 180.945 185.347 181.322M118.418 62.6602C118.513 63.5459 119.168 65.6783 121.013 67.3855M124.264 82.5371C122.765 82.9872 121.266 82.7621 120.891 81.487C120.591 80.4669 121.216 76.5615 121.566 74.7363C121.77 73.1518 121.554 69.2233 121.361 67.9857M124.264 82.5371C124.569 82.3841 125.029 82.1902 125.538 82.0358M124.264 82.5371C124.634 82.4259 124.954 82.2047 125.249 81.9371M130.934 77.8116C131.714 79.7918 130.26 80.3869 129.435 80.4369C129.435 80.3369 129.135 80.1069 127.936 79.9869C126.808 79.8739 126.146 81.1215 125.249 81.9371M127.936 81.9371C127.307 81.6406 126.359 81.7866 125.538 82.0358M119.842 63.7853C120.1 64.7958 121.171 66.5971 123.439 66.2119M123.439 66.2119C123.584 66.1873 123.734 66.1537 123.889 66.1105C127.112 65.2104 125.913 64.1603 129.435 64.1603C132.253 64.1603 134.557 63.1602 135.356 62.6602C133.857 62.5601 130.2 62.4201 127.561 62.6602C124.264 62.9602 123.214 65.9384 123.439 66.2119ZM121.013 67.3855C121.095 67.4615 121.179 67.5365 121.266 67.6106C121.295 67.6366 121.328 67.7704 121.361 67.9857M121.013 67.3855C120.674 67.3581 120.267 67.3079 119.842 67.2318M116.919 65.2853C117.443 63.5601 114.97 62.6601 115.57 57.4095C116.169 52.159 113.996 50.7339 115.795 46.6835M116.919 65.2853C117.443 65.3603 118.568 65.6304 118.867 66.1105C119.167 66.5906 119.492 67.0298 119.617 67.1894M116.919 65.2853C116.607 66.3093 118.164 66.9011 119.617 67.1894M115.795 46.6835C116.069 47.4586 117.159 48.5437 119.317 46.6835C122.015 44.3583 124.713 46.1584 125.763 43.7582C126.812 41.358 137.38 44.5083 138.729 50.5089C140.078 56.5095 147.723 53.2092 149.222 58.5347C150.721 63.8603 151.995 70.9109 150.121 71.886C148.247 72.8611 142.401 83.6622 138.579 83.3622C135.521 83.1222 132.558 82.3121 131.459 81.9371C130.16 81.8621 127.516 81.8771 127.337 82.5371C127.157 83.1972 126.062 82.4779 125.538 82.0358M115.795 46.6835C111.672 41.2828 111.593 37.6616 112.197 35.8075C113.321 32.3572 115.195 30.032 118.643 27.1067C122.09 24.1814 125.313 23.1313 126.062 22.5312C126.812 21.9312 130.035 21.1061 133.932 19.906C137.05 18.9459 140.178 19.306 141.352 19.606L138.129 21.1061C138.679 21.4562 140.093 21.9462 141.352 21.1061C142.926 20.056 146.299 20.806 149.446 20.281C152.594 19.7559 158.365 23.6563 161.663 25.2314C164.961 26.8066 163.237 27.4817 166.385 28.6818C169.533 29.8819 170.582 34.8324 172.156 37.0826C173.73 39.3328 174.029 46.0085 172.98 47.8087M125.249 81.9371C125.152 83.3872 125.018 86.3175 125.249 86.4375C125.396 86.5139 125.974 86.8431 126.564 87.1875M129.81 88.9127C129.985 89.0877 130.155 89.1378 130.634 89.1378C130.974 89.1378 132.583 88.5866 133.728 87.7877M128.66 88.0126C128.314 88.0739 128.047 88.0867 127.936 88.0126C127.715 87.8654 127.134 87.5194 126.564 87.1875M128.66 88.0126C129.715 87.8257 131.513 87.1875 131.908 87.1875C132.328 87.1875 134.132 86.9875 134.981 86.8875C134.645 87.1361 134.201 87.4574 133.728 87.7877M128.66 88.0126C128.294 89.3628 127.831 92.168 128.91 92.5881C129.193 92.6981 129.499 92.7653 129.81 92.7952M126.564 87.1875C126.372 86.8375 126.332 86.0924 127.711 85.9124C129.09 85.7324 132.733 86.0374 134.382 86.2125M129.81 92.7952C130.982 92.908 132.228 92.4902 132.583 91.838C133.222 91.1879 134.744 89.2877 135.716 86.8875M129.81 92.7952L130.934 93.9382M130.934 93.9382C131.809 93.7382 133.917 93.1881 135.356 92.5881C136.325 92.1841 137.837 91.6496 139.178 91.3361M130.934 93.9382C130.465 94.1073 129.777 94.393 129.037 94.7633M141.802 91.2379C142.776 91.838 143.076 93.7132 141.802 94.7633C140.782 95.6034 136.83 97.2635 134.981 97.9886L133.707 98.7387M141.802 91.2379C141.352 90.9611 140.328 91.0675 139.178 91.3361M141.802 91.2379L141.952 93.3382C141.704 93.5382 140.938 93.9382 139.853 93.9382C138.768 93.9382 138.951 92.2035 139.178 91.3361M133.707 98.7387L139.853 97.3886C141.481 97.0957 144.38 96.9583 146.053 97.9886M133.707 98.7387C133.496 98.7133 133.118 98.7481 132.583 98.8984M120.966 105.939C121.84 105.464 124.414 103.914 127.711 101.514C128.967 100.6 130.046 99.9685 130.934 99.5414M116 122.216C115.95 118.141 116.079 107.56 116.319 105.939C116.559 104.319 118.218 102.914 119.017 102.414C120.741 101.289 124.489 98.6637 125.688 97.1635C125.999 96.7741 126.418 96.3998 126.89 96.0512M116 122.216C113.302 125.466 107.906 132.162 107.906 132.942M116 122.216C116.013 122.703 116.149 121.47 116 122.216ZM116 122.216C115.866 122.889 115.639 123.525 115.27 123.866C114.49 124.586 114.096 128.867 113.996 130.917C113.596 133.867 116.904 141.223 117.443 142.543C119.242 142.543 123.539 139.493 125.463 137.968M125.463 137.968C126.137 137.393 127.367 136.017 126.887 135.117M125.463 137.968C125.588 136.842 126.197 134.457 127.636 133.917C127.983 133.787 128.328 133.538 128.66 133.218M130.934 114.04C131.176 113.775 131.412 113.525 131.64 113.29M141.21 110.215C141.668 110.918 141.831 111.868 141.952 112.39C142.131 113.17 141.377 113.815 140.977 114.04C138.579 113.665 134.682 118.091 134.307 118.091C133.932 118.091 133.332 119.891 133.407 120.566C133.467 121.106 131.833 126.791 131.009 129.567C130.611 130.497 129.703 132.21 128.66 133.218M141.21 110.215C140.811 109.604 140.189 109.18 139.178 109.39C137.44 109.75 136.255 109.89 135.881 109.915C135.514 110.042 134.652 110.538 133.407 111.611M141.21 110.215C141.607 109.565 141.832 107.725 139.553 105.564M139.553 105.564C139.078 105.314 137.56 104.694 135.281 104.214M139.553 105.564L141.21 102.581M135.281 104.214C133.089 103.752 128.916 107.189 126.89 109.165M135.281 104.214C137.102 103.914 140.791 103.194 140.977 102.714C140.999 102.657 141.081 102.614 141.21 102.581M126.662 109.39C126.735 109.317 126.811 109.242 126.89 109.165M129.66 113.74L130.934 113.016M133.407 111.611L130.934 113.016M133.407 111.611C132.883 112.063 132.291 112.618 131.64 113.29M130.934 113.016C130.98 113.199 131.185 113.509 131.64 113.29M124.788 109.165H126.89M147.13 99.1887C147.19 99.3295 147.238 99.4794 147.273 99.6388C147.352 100.005 147.347 100.321 147.273 100.595M147.13 99.1887C147.323 99.0448 147.523 98.8946 147.73 98.7387C150.711 96.4926 155.097 93.06 158.515 90.0772C161.166 87.764 161.344 86.744 164.471 84.891M147.13 99.1887C147.061 99.027 146.976 98.8772 146.877 98.7387M173.805 71.586C175.154 69.9358 175.379 67.4606 174.854 67.2356M167.809 62.2851C168.833 64.4853 170.897 69.0058 170.957 69.4858C171.032 70.0859 171.781 70.6109 172.231 69.9358C172.59 69.3958 174.129 67.3106 174.854 66.3355C174.979 65.6604 175.154 63.9653 174.854 62.5851C174.479 60.86 171.931 49.6088 172.98 47.8087M167.809 62.2851C167.209 63.9352 165.111 66.3355 163.612 68.1357C162.412 69.5759 160.364 69.0358 159.489 68.5858M167.809 62.2851C168.733 59.2098 169.593 52.6692 165.635 51.109C160.689 49.1589 160.164 52.8342 158.89 54.5594C157.266 54.8344 154.078 56.0144 154.318 58.5347C154.618 61.6851 157.391 72.5612 158.89 73.0112C160.389 73.4612 162.263 79.8368 159.489 83.3622C158.176 85.0314 157.866 86.7045 157.956 88.0126L146.877 98.7387M172.98 47.8087C173.111 45.1684 170.786 41.8081 169.608 40.458M117.293 43.7582C118.143 41.008 120.711 34.6074 124.189 31.0071C128.536 26.5066 132.958 23.8814 136.705 24.2564C137.999 24.3859 139.396 24.9579 140.677 25.6709M134.532 27.2567C136.69 25.1565 142.176 27.2317 144.65 28.5318C143.855 27.7929 142.365 26.6097 140.677 25.6709M117.293 33.9324C119.292 29.7819 124.908 21.5861 131.384 22.0062C137.859 22.4262 140.278 24.6243 140.677 25.6709M128.91 40.908C130.26 38.4078 134.187 33.6023 139.103 34.3824C144.02 35.1625 150.546 35.1575 153.194 35.0575C150.096 34.3324 143.256 32.7622 140.677 32.2822M130.185 67.3091L129.285 66.2605C129.187 66.1005 129.076 65.8617 129.061 65.6605M130.185 67.3091C130.644 67.3941 131.477 67.5232 132.133 67.5592M130.185 67.3091C129.81 67.6106 130.11 65.891 130.185 65.7188M129.061 65.6605C129.045 65.4529 129.131 65.2853 129.435 65.2853C130.185 65.2853 133.632 65.4355 134.906 64.9104C135.191 64.793 136.105 64.8106 136.065 64.9104M129.061 65.6605C129.365 65.6872 129.751 65.7093 130.185 65.7188M136.065 64.9104C135.928 65.2569 134.23 67.4176 133.706 67.5341C133.534 67.5725 132.441 67.5761 132.133 67.5592M136.065 64.9104C135.305 65.3576 133.302 65.5765 132.133 65.6681M132.133 65.6681C132.283 65.7323 132.493 66.8592 132.133 67.5592M132.133 65.6681C131.452 65.7216 130.774 65.7318 130.185 65.7188M128.611 65.6605C128.411 65.3604 128.551 64.7454 130.709 64.6854C132.868 64.6254 134.707 64.3103 135.356 64.1603C135.706 64.1353 136.51 64.2054 136.93 64.6854M119.617 67.1894C119.692 67.2043 119.767 67.2185 119.842 67.2318M119.842 67.2318C119.717 67.4581 119.317 67.8807 118.718 67.7607C117.968 67.6106 121.403 68.2107 121.361 67.9857M131.908 87.4126C131.759 87.4626 131.504 87.6077 131.684 87.7877C131.863 87.9676 132.108 88.3627 132.208 88.5377L133.728 87.7877M161.288 60.0349C161.018 59.4005 160.691 58.405 160.55 57.4095M165.635 63.7103C166.06 63.0602 167.029 61.4451 167.509 60.1849C168.109 58.6098 167.809 53.3593 166.385 52.5342C164.961 51.7091 162.712 53.1342 161.138 54.5594C160.471 55.1638 160.392 56.2866 160.55 57.4095M144.875 47.4337C148.422 46.1836 156.192 43.9383 158.89 44.9584C157.416 44.1583 153.599 42.798 150.121 43.7582C146.643 44.7184 145.024 44.1583 144.65 43.7582M143.825 24.2564C145.624 26.0816 150.016 29.987 153.194 31.0071C156.372 32.0272 158.015 31.6821 158.44 31.3821C157.791 32.1322 155.412 33.2873 151.095 31.9072M171.931 58.8348C172.131 59.6099 172.471 61.46 172.231 62.6602C172.256 61.7601 172.036 59.7349 170.957 58.8348C169.877 57.9347 169.608 56.1595 169.608 55.3845M146.053 97.9886H144.125C144.023 98.7535 144.149 100.35 145.474 100.614C146.799 100.878 147.225 100.711 147.273 100.595M146.053 97.9886C146.381 98.191 146.662 98.4385 146.877 98.7387M147.273 100.595C147.009 101.573 145.873 102.006 144.637 102.221M130.26 96.7135C129.978 95.9988 129.338 94.6081 129.037 94.7633M129.037 94.7633C128.319 95.1226 127.552 95.5616 126.89 96.0512M128.66 97.9886C127.921 97.647 126.533 96.7814 126.89 96.0512M130.934 99.5414C130.959 100.199 131.249 101.514 132.208 101.514M130.934 99.5414C131.588 99.2268 132.14 99.023 132.583 98.8984M132.583 98.8984C132.858 99.1703 133.407 99.9839 133.407 101.064M118.493 109.165C118.842 109.031 119.557 109.189 119.617 110.89M120.966 113.016C122.065 112.508 124.264 112.36 124.264 115.84M126.89 118.091C127.796 118.316 129.418 119.126 128.66 120.566M136.855 110.89C137.13 111.257 137.664 112.197 137.605 113.016M134.307 104.964C134.831 104.989 135.881 105.384 135.881 106.765M151.92 110.89L153.078 107.965H154.318C152.759 107.965 153.668 107.165 154.318 106.765M180.55 77.1378C180.521 76.8309 180.456 76.5028 180.364 76.1615M181.749 79.6869C207.157 89.1378 216.729 101.651 221.445 107.965M126.887 179.747V180.317M126.887 180.317C124.287 179.132 120.369 177.181 116.122 174.646M228.967 157.094C228.667 156.614 229.092 152.944 229.341 151.169C229.741 149.719 230.795 145.933 231.815 142.393C233.089 137.968 227.393 127.392 226.943 119.591C226.762 116.453 224.617 112.212 221.445 107.965M221.445 107.965C220.055 105.589 215.251 101.499 207.157 104.139C199.062 106.78 192.941 116.49 190.893 121.016M186.321 134.292C186.021 139.468 184.297 144.568 184.447 146.818M184.447 146.818C184.568 148.625 184.301 150.819 184.89 151.769M184.447 146.818L186.471 146.181L188.494 145.543M185.497 152.219C185.231 152.16 185.035 152.002 184.89 151.769M184.89 151.769C184.343 153.244 183.368 157.139 183.848 160.92C184.447 165.645 185.497 168.721 184.447 170.521C183.608 171.961 184.098 175.271 184.447 176.746L185.347 181.322M116.122 174.646C120.061 170.421 134.697 146.863 135.716 144.043M141.21 102.581C141.778 102.432 143.269 102.46 144.637 102.221M107.906 132.942C107.906 133.917 104.41 134.087 103.735 135.813C103.061 137.538 100.88 142.768 101.404 148.544M107.906 132.942C104.408 137.793 98.479 131.042 93.098 150.911C92.2121 154.182 86.6471 161.205 92.5986 172.096M107.906 132.942C107.081 136.911 106.891 143.968 112.047 148.544C117.204 153.12 121.688 149.3 123.285 146.818M110.998 166.47C122.465 157.094 120.758 150.475 123.285 146.818M128.66 133.218C130.058 135.294 121.566 145.543 124.264 145.543C124.462 145.543 123.768 146.12 123.285 146.818M160.55 57.4095C162.52 57.1846 166.295 57.3947 165.635 60.0349C164.811 63.3352 162.337 61.3101 161.813 63.7103C161.393 65.6304 160.089 64.8104 159.489 64.1603C160.139 63.6353 161.048 62.2701 159.489 61.01C157.931 59.7499 160.039 60.485 161.288 61.01M165.635 55.7595C166.709 56.8758 168.213 59.8188 165.635 62.6602M73.8984 184.997L74.7978 182.747C74.3731 182.327 73.7035 181.254 74.423 180.317M73.8984 184.997C80.5042 186.972 94.657 191.658 98.422 194.598C99.6628 195.567 100.577 196.51 101.304 197.373M73.8984 184.997C73.5605 184.878 73.1567 184.732 72.6992 184.562M74.423 180.317C75.1425 179.381 76.1138 177.246 76.5094 176.296L50.7474 172.096M42.9447 170.824L48.4473 171.721M42.9447 170.824C44.4004 171.499 46.0117 172.25 47.6664 173.027M50.7474 172.096L48.4473 171.721M50.7474 172.096V173.289M50.7474 174.482C49.7215 173.995 48.6857 173.506 47.6664 173.027M50.7474 174.482C54.1036 176.075 57.3551 177.65 59.5832 178.796M50.7474 174.482V173.289M48.4473 171.721L47.6664 173.027M101.304 197.373L110.998 199.474M101.304 197.373C103.086 199.486 103.753 201.122 105.377 201.494M91.2117 187.294C91.2117 186.723 91.8465 185.422 92.4858 184.273M92.4858 184.273L120.441 196.173M69.8512 183.464C66.9421 182.306 63.2987 180.744 60.2578 179.147C60.0452 179.035 59.82 178.918 59.5832 178.796M69.8512 183.464L70.3758 180.572L59.5832 178.796M69.8512 183.464C70.9223 183.891 71.8939 184.263 72.6992 184.562M50.7474 173.289L73.8984 177.121C73.3987 177.594 72.4594 179.033 72.6992 181.002C72.9391 182.972 72.7991 184.196 72.6992 184.562M12.1409 107.74L41.3708 106.54M45.8677 202.549L44.6685 209.15M105.377 201.494C111.073 201.082 122.465 204.677 122.465 209.15C122.465 213.622 127.661 209.913 130.26 209.15M86.4899 190.323C84.1194 190.348 79.13 190.819 78.1373 192.499M156.267 110.215C156.34 110.116 156.416 110.016 156.493 109.915M180.55 90.0772C172.407 91.2893 161.273 103.615 156.493 109.915M168.558 209.15C162.263 209.15 145.667 207.734 140.451 205.813C137.824 204.845 138.916 201.538 136.882 199.474M144.637 102.221L143.471 105.939C143.547 106.177 143.643 106.458 143.755 106.765M156.493 109.915C148.34 119.235 147.273 111.611 146.053 110.89C145.241 110.41 144.307 108.279 143.755 106.765M143.755 106.765L143.471 116.871M137.605 179.537C138.354 180.082 139.853 183.002 139.853 190.323C139.853 199.474 139.73 203.385 136.882 199.474" stroke="black" stroke-width="1.5"/>
<path d="M41.7712 152.191L39.7911 147.53C39.9771 147.129 40.6241 143.083 40.9244 141.11L42.0762 142.773L41.7712 152.191Z" fill="#00B4A6"/>
<path d="M39.1806 137.129C37.8509 135.211 36.7905 132.79 36.4265 131.819L35.3716 126.576C36.6053 130.673 38.4469 133.628 39.1384 134.872C39.3336 135.223 40.2572 136.496 41.0745 137.638C41.0509 137.568 41.029 137.501 41.0092 137.439L40.7078 133.421L40.288 130.575L39.7027 127.641C38.5842 126.677 36.8898 127.995 36.1824 128.775L35.2888 126.319C35.934 122.667 38.1148 124.163 39.1245 125.367L41.1838 129.956C42.6409 135.039 42.2422 138.071 41.9796 138.949C42.0357 139.054 42.2986 139.431 43.0644 140.42C44.0962 141.754 46.5169 143.913 47.5984 144.827L48.7669 149.891C46.1255 146.437 40.5104 139.048 39.1806 137.129Z" fill="#00B4A6"/>
<path d="M38.1802 135.746C37.3605 134.496 36.3955 132.567 36.0154 131.759C35.9428 131.925 36.899 135.118 37.1336 135.846C37.3213 136.429 40.2216 140.671 41.6483 142.719C41.5963 144.25 41.3154 149.576 41.1815 152.047L42.8832 154.492L42.891 144.4L48.7261 152.693L49.6428 153.864L48.5721 149.478C42.5795 142.372 39.2048 137.308 38.1802 135.746Z" fill="#FFE34F"/>
<path d="M36.8914 131.241C36.8171 131.189 36.1638 129.614 35.8464 128.833C36.5246 126.874 38.4851 127.069 39.3806 127.411L39.5048 127.797C39.8372 129.053 39.9322 129.962 39.9381 130.26C38.1516 129.179 36.9841 131.305 36.8914 131.241Z" fill="#FFE34F"/>
<path d="M41.731 138.955C41.7574 133.988 41.2034 130.783 40.9231 129.8C41.0808 130.16 41.5155 131.171 41.9932 132.342C42.4709 133.513 42.6754 135.67 42.7179 136.603L42.7868 140.223L41.731 138.955Z" fill="#FFE34F"/>
<path d="M40.4267 140.614C40.2931 142.36 40.1248 145.134 39.606 146.61L42.2864 152.215L42.8545 143.759M40.4267 140.614C39.3222 139.156 37.4142 136.05 37.0521 135.182C36.5994 134.098 35.4976 130.73 34.6962 125.926M40.4267 140.614L42.8545 143.759M34.6962 125.926C35.0557 124.469 35.826 122.041 38.8131 123.561M34.6962 125.926C35.0264 126.913 35.7198 129.424 36.674 131.328M38.8131 123.561C39.9607 125.667 42.895 130.097 43.2052 132.192C43.297 132.778 42.9011 136.096 43.0348 139.774M38.8131 123.561C39.3787 125.208 39.4494 128.418 39.7084 130.133M43.0348 139.774C43.9486 140.726 45.9697 142.231 47.9226 143.306L50.2405 154.122L42.8545 143.759M43.0348 139.774C42.1029 138.816 41.5551 138.437 40.5405 137.086C40.3518 136.835 40.1811 136.552 39.9838 136.225M36.674 131.328C37.3431 132.663 38.1074 133.523 38.9761 134.694C39.4237 135.298 39.7264 135.799 39.9838 136.225M36.674 131.328C37.1733 130.584 37.9715 129.292 39.7084 130.133M39.7084 130.133L39.9838 136.225" stroke="black" stroke-width="1.5"/>
<path d="M188.633 78.4392C189.984 78.0732 193.275 76.5726 195.633 73.498" stroke="black" stroke-width="1.5"/>
<path d="M149.102 119.344C148.601 117.098 147.533 115.205 146.433 113.206C146.163 112.715 146.22 112.291 146.22 111.688C146.22 111.102 146.86 110.878 147.15 110.423C147.578 109.75 147.67 109.005 147.73 108.227" stroke="black" stroke-width="1.5" stroke-linecap="round"/>
<path d="M148.827 119.619C148.807 119.891 147.802 122.798 148.384 122.776C148.805 122.76 149.101 121.09 149.101 120.717" stroke="black" stroke-width="1.5" stroke-linecap="round"/>
<path d="M154.315 122.087C153.812 121.936 153.626 121.414 154.224 121.294C154.499 121.239 154.519 121.67 154.582 121.889C154.72 122.373 153.746 121.864 153.644 121.721C152.98 120.786 153.052 119.673 153.11 118.58C153.206 116.79 153.716 115.197 153.423 113.379C153.233 112.2 153.354 110.93 153.354 109.734" stroke="black" stroke-width="1.5" stroke-linecap="round"/>
<path d="M159.941 88.8693C161.022 84.7117 173.337 69.7347 178.334 68.8301" stroke="black" stroke-width="1.5" stroke-linecap="round"/>
<path d="M175.541 64.4886C177.039 64.4886 178.505 64.1914 180.016 64.1914C181.193 64.1914 183.116 63.786 184.204 64.2574C187.139 65.4737 190.412 69.4221 180.016 75.4849C169.621 81.5478 165.136 84.5113 163.645 85.3038" stroke="black" stroke-width="1.5" stroke-linecap="round"/>
<path d="M175.039 59.2856C177.969 59.4285 183.648 59.0104 186.568 59.2855C189.542 59.5656 193.627 59.5593 196.207 61.3901C198.119 62.7472 200.344 68.395 198.25 70.3574C196.808 71.7095 195.537 72.9569 195.292 75.0851C195.081 76.916 194.811 79.0421 195.2 80.8803C195.688 83.1819 197.45 84.1632 197.823 86.401M183.274 75.0851C186.019 73.3669 191.016 69.2167 189.039 66.3618C187.063 63.5069 186.568 62.1069 175.863 64.0285" stroke="black" stroke-width="1.5" stroke-linecap="round"/>
<path fill-rule="evenodd" clip-rule="evenodd" d="M160.916 130.04C161.053 130.256 161.312 130.764 161.254 131.066L160.369 130.946L159.978 131.765L160.501 131.837L160.483 131.964L160.517 131.968L160.446 132.487L160.285 132.465L160.258 132.666L160.332 132.676L160.282 133.046L160.356 133.153C160.179 133.179 159.8 133.351 159.697 133.828C159.673 133.938 159.655 134.095 159.632 134.288C159.53 135.146 159.344 136.719 158.25 138.038L158.153 138.747L159.394 138.916C159.369 139.085 159.364 139.427 159.548 139.443C159.731 139.46 159.821 139.139 159.843 138.977L161.124 139.151L161.22 138.443C160.96 138.213 160.543 137.004 160.958 134C160.965 133.746 160.895 133.226 160.557 133.18L160.61 133.091L160.66 132.72L160.741 132.731L160.768 132.53L160.614 132.509L160.685 131.991L160.718 131.996L160.735 131.869L161.198 131.932L161.272 131.942C161.137 133.047 161.184 135.358 162.447 135.754L161.834 140.261C161.812 140.455 161.602 140.828 160.939 140.764L160.91 140.975L163.364 141.309L163.393 141.098C163.159 141.141 162.687 141.058 162.665 140.374L163.278 135.867C163.809 135.799 164.984 135.048 165.439 132.584L165.982 132.658L165.903 133.24L165.709 133.213L165.673 133.478L165.753 133.489L165.717 133.753L165.823 133.832L165.802 133.98C165.678 133.956 165.382 134.011 165.189 134.425C165.121 134.571 165.075 134.882 165.017 135.285C164.867 136.31 164.632 137.924 163.721 138.89L163.637 139.504L164.904 139.677C164.888 139.865 164.892 140.248 165.041 140.277C165.19 140.306 165.276 139.925 165.3 139.73L166.661 139.916L166.738 139.355C166.415 138.912 166.021 137.598 166.429 134.594C166.4 134.408 166.275 134.03 166.01 134.009L166.031 133.861L166.167 133.814L166.203 133.55L166.27 133.559L166.306 133.295L166.111 133.268L166.19 132.686L166.72 132.758L166.566 131.832L165.694 131.714C165.827 131.459 166.134 130.922 166.301 130.816L166.33 130.604C166.084 130.506 165.459 130.57 164.93 131.61L163.924 131.473C163.945 131.134 164.07 130.469 164.403 130.514L164.845 130.575L164.889 130.257L162.361 129.913L162.326 130.167L162.742 130.224C162.885 130.243 163.135 130.469 162.989 131.216L162.972 131.343L161.965 131.163C161.904 130.756 161.614 129.928 160.939 129.871L160.916 130.04ZM166.36 143.333L158.649 141.982C158.413 141.907 157.895 142.104 157.706 143.492C157.47 145.227 157.473 147.21 159.323 149.272C160.804 150.921 162.808 149.832 163.625 149.081C164.477 148.019 165.865 145.697 164.596 144.903C163.01 143.912 159.625 143.494 159.332 144.187C159.317 144.224 159.3 144.263 159.283 144.303C158.972 145.022 158.422 146.296 159.761 147.866C161.174 149.524 163.385 148.531 163.378 146.979C163.372 145.737 161.835 145.735 161.068 145.889L160.669 146.61C161.651 146.485 163.326 146.558 162.167 147.848C160.718 149.461 157.035 144.004 162.049 144.902C166.06 145.62 163.931 148.433 162.292 149.288C161.05 149.765 157.542 148.512 158.231 144.253C158.205 143.703 158.449 142.688 159.628 143.021L166.011 143.889L166.36 143.333ZM164.546 132.527L163.768 132.421L163.374 135.32L163.468 135.333C164.086 135.124 164.444 133.375 164.546 132.527ZM162.115 132.199L162.893 132.305L162.499 135.204L162.405 135.191C161.865 134.824 161.987 133.044 162.115 132.199Z" fill="#00B4A6"/>
<path d="M156.672 142.621C156.814 138.365 157.765 134.725 158.222 133.437C159.405 130.046 160.96 128.91 161.59 128.766C162.028 128.553 163.403 128.289 165.391 128.939C167.379 129.588 168.02 133.908 168.092 135.987C167.929 139.8 166.915 147.972 164.171 150.15C161.427 152.328 159.034 150.83 158.18 149.809C157.618 149.186 156.53 146.878 156.672 142.621Z" stroke="#00B4A6" stroke-width="1.5"/>
<path d="M131.852 66.1584C131.849 66.1681 131.845 66.1791 131.836 66.1892M131.836 66.1892C131.81 66.2219 131.749 66.2456 131.631 66.1892C131.439 66.0969 131.659 65.8507 131.824 66.1277L131.836 66.1892ZM131.228 66.1277C131.283 66.1687 130.856 66.6904 131.228 66.1277ZM131.228 66.1277C131.366 66.7984 130.652 66.1277 131.228 66.1277Z" stroke="black"/>
</svg>
