<svg width="60" height="60" viewBox="0 0 60 60" fill="none" xmlns="http://www.w3.org/2000/svg">
<g clip-path="url(#clip0_1250_14355)">
<path d="M22.0979 6.85411C22.6966 5.01149 25.3034 5.01148 25.9021 6.8541L30.0619 19.6565C30.3296 20.4806 31.0975 21.0385 31.964 21.0385L45.4253 21.0385C47.3627 21.0385 48.1683 23.5177 46.6008 24.6565L35.7104 32.5689C35.0095 33.0782 34.7161 33.9809 34.9839 34.805L39.1437 47.6074C39.7424 49.45 37.6334 50.9823 36.066 49.8435L25.1756 41.9311C24.4746 41.4218 23.5254 41.4218 22.8244 41.9311L11.934 49.8435C10.3666 50.9823 8.25764 49.45 8.85634 47.6074L13.0161 34.805C13.2839 33.9809 12.9905 33.0782 12.2896 32.5689L1.39915 24.6565C-0.168275 23.5177 0.637281 21.0385 2.57473 21.0385L16.036 21.0385C16.9025 21.0385 17.6704 20.4806 17.9381 19.6565L22.0979 6.85411Z" fill="#00B4A6"/>
<path d="M26.5 37C26.5 35.6193 27.6193 34.5 29 34.5H40.5023C41.3098 34.5 42.0677 34.8901 42.5369 35.5473L45.0346 39.0454C45.3373 39.4693 45.5 39.9772 45.5 40.4981V57C45.5 58.3807 44.3807 59.5 43 59.5H29C27.6193 59.5 26.5 58.3807 26.5 57V37Z" stroke="#1A1A1A"/>
</g>
<defs>
<clipPath id="clip0_1250_14355">
<rect width="60" height="60" fill="white"/>
</clipPath>
</defs>
</svg>
