<svg width="297" height="305" viewBox="0 0 297 305" fill="none" xmlns="http://www.w3.org/2000/svg">
<path d="M16.8665 298.68C10.059 291.964 8.96712 281.113 14.2664 273.153C17.3045 268.589 21.7922 265.705 26.6494 264.61C31.1641 263.592 35.3188 261.424 38.5209 258.157L0.577637 228.197L30.5372 190.254C33.8042 193.456 35.9727 197.611 36.9904 202.125C38.0853 206.983 40.9697 211.47 45.5332 214.508C53.4932 219.808 64.3447 218.716 71.0604 211.908C79.6887 203.162 78.6196 189.148 69.2501 181.75C65.3909 178.703 60.7694 177.295 56.212 177.417C51.7041 177.537 47.31 176.205 43.4933 173.845L73.4193 135.944L165.672 208.786L135.713 246.729C132.446 243.527 130.277 239.372 129.259 234.858C128.165 230 125.28 225.513 120.717 222.475C112.757 217.175 101.905 218.267 95.1895 225.075C86.5613 233.821 87.6303 247.835 96.9998 255.233C100.859 258.28 105.481 259.688 110.038 259.566C114.546 259.446 118.94 260.778 122.757 263.138L92.8306 301.039L54.9296 271.113C52.5699 274.929 51.2373 279.324 51.3579 283.831C51.4797 288.389 50.0722 293.01 47.0249 296.87C39.6269 306.239 25.6125 307.308 16.8665 298.68Z" fill="#243342"/>
<path d="M16.7783 298.68C9.97085 291.964 8.87892 281.113 14.1782 273.153C17.2163 268.589 21.704 265.705 26.5612 264.61C31.076 263.592 35.2306 261.424 38.4327 258.157L0.489441 228.197L30.449 190.254C33.716 193.456 35.8846 197.611 36.9022 202.125C37.9971 206.983 40.8815 211.47 45.445 214.508C53.405 219.808 64.2565 218.716 70.9722 211.908C79.6005 203.162 78.5314 189.148 69.1619 181.75C65.3027 178.703 60.6811 177.295 56.1238 177.417C51.6159 177.537 47.2218 176.205 43.4051 173.845L73.3311 135.944L165.584 208.786L135.625 246.729C132.357 243.527 130.189 239.372 129.171 234.858C128.076 230 125.192 225.513 120.629 222.475C112.669 217.175 101.817 218.267 95.1013 225.075C86.4731 233.821 87.5421 247.835 96.9116 255.233C100.771 258.28 105.392 259.688 109.95 259.566C114.458 259.446 118.852 260.778 122.668 263.138L92.7423 301.039L54.8414 271.113C52.4816 274.929 51.1491 279.324 51.2697 283.831C51.3915 288.389 49.984 293.01 46.9367 296.87C39.5387 306.239 25.5243 307.308 16.7783 298.68Z" fill="#1A1A1A"/>
<path d="M296.755 -7.84089L219.722 -50C219.722 -50 195.352 41.4681 121.375 148.341C115.583 156.708 99.5831 163.264 100.115 166.097C101.06 171.126 112.01 166.415 112.01 166.415L142.127 190.196C142.127 190.196 206.82 135.309 296.755 -7.84089Z" fill="#AAE6E1"/>
</svg>
