<svg width="1110" height="1115" viewBox="0 0 1110 1115" fill="none" xmlns="http://www.w3.org/2000/svg">
<path d="M793.175 487.457C801.104 482.879 808.053 476.784 813.627 469.521C819.2 462.257 823.289 453.967 825.658 445.123C828.028 436.28 828.632 427.056 827.437 417.979C826.242 408.902 823.271 400.149 818.693 392.22C814.116 384.291 808.021 377.341 800.757 371.768C793.494 366.194 785.204 362.106 776.36 359.736C767.516 357.367 758.293 356.762 749.215 357.957C740.138 359.152 731.385 362.123 723.456 366.701L793.175 487.457Z" fill="#00B4A6"/>
<path fill-rule="evenodd" clip-rule="evenodd" d="M313.624 626.919L295.931 637.134C272.357 650.744 264.28 680.889 277.89 704.463C291.501 728.038 321.646 736.115 345.22 722.504L362.913 712.29L364.413 714.888C387.649 755.135 439.114 768.925 479.361 745.688L512.148 726.758L590.581 862.608L645.763 830.749L567.33 694.899L646.013 649.471L836.393 638.044L614.663 253.995L509.577 413.156L342.924 509.373C302.677 532.609 288.887 584.073 312.124 624.321L313.624 626.919ZM614.834 248.292L841.419 640.748L646.9 652.423L571.428 695.997L649.861 831.847L589.483 866.707L511.05 730.856L480.861 748.286C439.179 772.351 385.88 758.07 361.815 716.388L346.72 725.102C321.711 739.542 289.731 730.973 275.292 705.963C260.853 680.954 269.422 648.975 294.431 634.536L309.526 625.821C285.461 584.139 299.742 530.84 341.424 506.775L507.463 410.912L614.834 248.292Z" fill="#1A1A1A"/>
<path fill-rule="evenodd" clip-rule="evenodd" d="M617.775 609.085L528.332 454.166L530.93 452.666L620.373 607.585L617.775 609.085Z" fill="#1A1A1A"/>
<path fill-rule="evenodd" clip-rule="evenodd" d="M346.08 688.115L325.339 652.191L327.937 650.691L348.678 686.615L346.08 688.115Z" fill="#1A1A1A"/>
</svg>
