<svg width="229" height="24" viewBox="0 0 229 24" fill="none" xmlns="http://www.w3.org/2000/svg">
<path d="M4.912 18.096C4.08 18.096 3.28 17.9627 2.512 17.696C1.75467 17.4187 1.168 17.0667 0.752 16.64L1.216 15.728C1.61067 16.112 2.13867 16.4373 2.8 16.704C3.472 16.96 4.176 17.088 4.912 17.088C5.616 17.088 6.18667 17.0027 6.624 16.832C7.072 16.6507 7.39733 16.4107 7.6 16.112C7.81333 15.8133 7.92 15.4827 7.92 15.12C7.92 14.6827 7.792 14.3307 7.536 14.064C7.29067 13.7973 6.96533 13.5893 6.56 13.44C6.15467 13.28 5.70667 13.1413 5.216 13.024C4.72533 12.9067 4.23467 12.784 3.744 12.656C3.25333 12.5173 2.8 12.336 2.384 12.112C1.97867 11.888 1.648 11.5947 1.392 11.232C1.14667 10.8587 1.024 10.3733 1.024 9.776C1.024 9.22133 1.168 8.71467 1.456 8.256C1.75467 7.78667 2.208 7.41333 2.816 7.136C3.424 6.848 4.20267 6.704 5.152 6.704C5.78133 6.704 6.40533 6.79467 7.024 6.976C7.64267 7.14667 8.176 7.38667 8.624 7.696L8.224 8.64C7.744 8.32 7.232 8.08533 6.688 7.936C6.15467 7.78667 5.63733 7.712 5.136 7.712C4.464 7.712 3.90933 7.80267 3.472 7.984C3.03467 8.16533 2.70933 8.41067 2.496 8.72C2.29333 9.01867 2.192 9.36 2.192 9.744C2.192 10.1813 2.31467 10.5333 2.56 10.8C2.816 11.0667 3.14667 11.2747 3.552 11.424C3.968 11.5733 4.42133 11.7067 4.912 11.824C5.40267 11.9413 5.888 12.0693 6.368 12.208C6.85867 12.3467 7.30667 12.528 7.712 12.752C8.128 12.9653 8.45867 13.2533 8.704 13.616C8.96 13.9787 9.088 14.4533 9.088 15.04C9.088 15.584 8.93867 16.0907 8.64 16.56C8.34133 17.0187 7.88267 17.392 7.264 17.68C6.656 17.9573 5.872 18.096 4.912 18.096ZM11.4278 18V9.6H12.5638V18H11.4278ZM12.0038 7.744C11.7691 7.744 11.5718 7.664 11.4118 7.504C11.2518 7.344 11.1718 7.152 11.1718 6.928C11.1718 6.704 11.2518 6.51733 11.4118 6.368C11.5718 6.208 11.7691 6.128 12.0038 6.128C12.2384 6.128 12.4358 6.20267 12.5958 6.352C12.7558 6.50133 12.8358 6.688 12.8358 6.912C12.8358 7.14667 12.7558 7.344 12.5958 7.504C12.4464 7.664 12.2491 7.744 12.0038 7.744ZM18.3806 18.08C17.5913 18.08 16.9833 17.8667 16.5566 17.44C16.13 17.0133 15.9166 16.4107 15.9166 15.632V7.744H17.0526V15.568C17.0526 16.0587 17.1753 16.4373 17.4206 16.704C17.6766 16.9707 18.0393 17.104 18.5086 17.104C19.01 17.104 19.426 16.96 19.7566 16.672L20.1566 17.488C19.9326 17.6907 19.6606 17.84 19.3406 17.936C19.0313 18.032 18.7113 18.08 18.3806 18.08ZM14.4126 10.544V9.6H19.6126V10.544H14.4126ZM25.4958 18.08C24.6211 18.08 23.8531 17.8987 23.1918 17.536C22.5304 17.1627 22.0131 16.656 21.6398 16.016C21.2664 15.3653 21.0798 14.624 21.0798 13.792C21.0798 12.96 21.2558 12.224 21.6078 11.584C21.9704 10.944 22.4611 10.4427 23.0798 10.08C23.7091 9.70667 24.4131 9.52 25.1918 9.52C25.9811 9.52 26.6798 9.70133 27.2878 10.064C27.9064 10.416 28.3918 10.9173 28.7438 11.568C29.0958 12.208 29.2718 12.9493 29.2718 13.792C29.2718 13.8453 29.2664 13.904 29.2558 13.968C29.2558 14.0213 29.2558 14.08 29.2558 14.144H21.9438V13.296H28.6478L28.1998 13.632C28.1998 13.024 28.0664 12.4853 27.7998 12.016C27.5438 11.536 27.1918 11.1627 26.7438 10.896C26.2958 10.6293 25.7784 10.496 25.1918 10.496C24.6158 10.496 24.0984 10.6293 23.6398 10.896C23.1811 11.1627 22.8238 11.536 22.5678 12.016C22.3118 12.496 22.1838 13.0453 22.1838 13.664V13.84C22.1838 14.48 22.3224 15.0453 22.5998 15.536C22.8878 16.016 23.2824 16.3947 23.7838 16.672C24.2958 16.9387 24.8771 17.072 25.5278 17.072C26.0398 17.072 26.5144 16.9813 26.9518 16.8C27.3998 16.6187 27.7838 16.3413 28.1038 15.968L28.7438 16.704C28.3704 17.152 27.9011 17.4933 27.3358 17.728C26.7811 17.9627 26.1678 18.08 25.4958 18.08ZM39.1155 18.08C38.3155 18.08 37.5955 17.8987 36.9555 17.536C36.3262 17.1733 35.8302 16.672 35.4675 16.032C35.1048 15.3813 34.9235 14.6347 34.9235 13.792C34.9235 12.9387 35.1048 12.192 35.4675 11.552C35.8302 10.912 36.3262 10.416 36.9555 10.064C37.5955 9.70133 38.3155 9.52 39.1155 9.52C39.8515 9.52 40.5075 9.68533 41.0835 10.016C41.6702 10.3467 42.1342 10.832 42.4755 11.472C42.8275 12.1013 43.0035 12.8747 43.0035 13.792C43.0035 14.6987 42.8328 15.472 42.4915 16.112C42.1502 16.752 41.6862 17.2427 41.0995 17.584C40.5235 17.9147 39.8622 18.08 39.1155 18.08ZM39.1955 17.072C39.7928 17.072 40.3262 16.9387 40.7955 16.672C41.2755 16.3947 41.6488 16.0107 41.9155 15.52C42.1928 15.0187 42.3315 14.4427 42.3315 13.792C42.3315 13.1307 42.1928 12.5547 41.9155 12.064C41.6488 11.5733 41.2755 11.1947 40.7955 10.928C40.3262 10.6507 39.7928 10.512 39.1955 10.512C38.6088 10.512 38.0808 10.6507 37.6115 10.928C37.1422 11.1947 36.7688 11.5733 36.4915 12.064C36.2142 12.5547 36.0755 13.1307 36.0755 13.792C36.0755 14.4427 36.2142 15.0187 36.4915 15.52C36.7688 16.0107 37.1422 16.3947 37.6115 16.672C38.0808 16.9387 38.6088 17.072 39.1955 17.072ZM42.3635 18V15.472L42.4755 13.776L42.3155 12.08V6.128H43.4515V18H42.3635ZM50.1833 18.08C49.3086 18.08 48.5406 17.8987 47.8793 17.536C47.2179 17.1627 46.7006 16.656 46.3273 16.016C45.9539 15.3653 45.7673 14.624 45.7673 13.792C45.7673 12.96 45.9433 12.224 46.2953 11.584C46.6579 10.944 47.1486 10.4427 47.7673 10.08C48.3966 9.70667 49.1006 9.52 49.8793 9.52C50.6686 9.52 51.3673 9.70133 51.9753 10.064C52.5939 10.416 53.0793 10.9173 53.4313 11.568C53.7833 12.208 53.9593 12.9493 53.9593 13.792C53.9593 13.8453 53.9539 13.904 53.9433 13.968C53.9433 14.0213 53.9433 14.08 53.9433 14.144H46.6313V13.296H53.3353L52.8873 13.632C52.8873 13.024 52.7539 12.4853 52.4873 12.016C52.2313 11.536 51.8793 11.1627 51.4313 10.896C50.9833 10.6293 50.4659 10.496 49.8793 10.496C49.3033 10.496 48.7859 10.6293 48.3273 10.896C47.8686 11.1627 47.5113 11.536 47.2553 12.016C46.9993 12.496 46.8713 13.0453 46.8713 13.664V13.84C46.8713 14.48 47.0099 15.0453 47.2873 15.536C47.5753 16.016 47.9699 16.3947 48.4713 16.672C48.9833 16.9387 49.5646 17.072 50.2153 17.072C50.7273 17.072 51.2019 16.9813 51.6393 16.8C52.0873 16.6187 52.4713 16.3413 52.7913 15.968L53.4313 16.704C53.0579 17.152 52.5886 17.4933 52.0233 17.728C51.4686 17.9627 50.8553 18.08 50.1833 18.08ZM58.5275 18.08C57.8342 18.08 57.1782 17.984 56.5595 17.792C55.9408 17.5893 55.4555 17.3387 55.1035 17.04L55.6155 16.144C55.9568 16.4 56.3942 16.624 56.9275 16.816C57.4608 16.9973 58.0208 17.088 58.6075 17.088C59.4075 17.088 59.9835 16.9653 60.3355 16.72C60.6875 16.464 60.8635 16.128 60.8635 15.712C60.8635 15.4027 60.7622 15.1627 60.5595 14.992C60.3675 14.8107 60.1115 14.6773 59.7915 14.592C59.4715 14.496 59.1142 14.416 58.7195 14.352C58.3248 14.288 57.9302 14.2133 57.5355 14.128C57.1515 14.0427 56.7995 13.92 56.4795 13.76C56.1595 13.5893 55.8982 13.36 55.6955 13.072C55.5035 12.784 55.4075 12.4 55.4075 11.92C55.4075 11.4613 55.5355 11.0507 55.7915 10.688C56.0475 10.3253 56.4208 10.0427 56.9115 9.84C57.4128 9.62667 58.0208 9.52 58.7355 9.52C59.2795 9.52 59.8235 9.59467 60.3675 9.744C60.9115 9.88267 61.3595 10.0693 61.7115 10.304L61.2155 11.216C60.8422 10.96 60.4422 10.7787 60.0155 10.672C59.5888 10.5547 59.1622 10.496 58.7355 10.496C57.9782 10.496 57.4182 10.6293 57.0555 10.896C56.7035 11.152 56.5275 11.4827 56.5275 11.888C56.5275 12.208 56.6235 12.4587 56.8155 12.64C57.0182 12.8213 57.2795 12.9653 57.5995 13.072C57.9302 13.168 58.2875 13.248 58.6715 13.312C59.0662 13.376 59.4555 13.456 59.8395 13.552C60.2342 13.6373 60.5915 13.76 60.9115 13.92C61.2422 14.0693 61.5035 14.288 61.6955 14.576C61.8982 14.8533 61.9995 15.2213 61.9995 15.68C61.9995 16.1707 61.8608 16.5973 61.5835 16.96C61.3168 17.312 60.9222 17.5893 60.3995 17.792C59.8875 17.984 59.2635 18.08 58.5275 18.08ZM64.084 18V9.6H65.22V18H64.084ZM64.66 7.744C64.4253 7.744 64.228 7.664 64.068 7.504C63.908 7.344 63.828 7.152 63.828 6.928C63.828 6.704 63.908 6.51733 64.068 6.368C64.228 6.208 64.4253 6.128 64.66 6.128C64.8947 6.128 65.092 6.20267 65.252 6.352C65.412 6.50133 65.492 6.688 65.492 6.912C65.492 7.14667 65.412 7.344 65.252 7.504C65.1027 7.664 64.9053 7.744 64.66 7.744ZM71.9649 21.184C71.1969 21.184 70.4609 21.072 69.7569 20.848C69.0529 20.624 68.4822 20.304 68.0449 19.888L68.6209 19.024C69.0155 19.376 69.5009 19.6533 70.0769 19.856C70.6635 20.0693 71.2822 20.176 71.9329 20.176C72.9995 20.176 73.7835 19.9253 74.2849 19.424C74.7862 18.9333 75.0369 18.1653 75.0369 17.12V15.024L75.1969 13.584L75.0849 12.144V9.6H76.1729V16.976C76.1729 18.4267 75.8155 19.488 75.1009 20.16C74.3969 20.8427 73.3515 21.184 71.9649 21.184ZM71.7569 17.68C70.9569 17.68 70.2369 17.5093 69.5969 17.168C68.9569 16.816 68.4502 16.3307 68.0769 15.712C67.7142 15.0933 67.5329 14.384 67.5329 13.584C67.5329 12.784 67.7142 12.08 68.0769 11.472C68.4502 10.8533 68.9569 10.3733 69.5969 10.032C70.2369 9.69067 70.9569 9.52 71.7569 9.52C72.5035 9.52 73.1755 9.67467 73.7729 9.984C74.3702 10.2933 74.8449 10.752 75.1969 11.36C75.5489 11.968 75.7249 12.7093 75.7249 13.584C75.7249 14.4587 75.5489 15.2 75.1969 15.808C74.8449 16.416 74.3702 16.88 73.7729 17.2C73.1755 17.52 72.5035 17.68 71.7569 17.68ZM71.8689 16.672C72.4875 16.672 73.0369 16.544 73.5169 16.288C73.9969 16.0213 74.3755 15.6587 74.6529 15.2C74.9302 14.7307 75.0689 14.192 75.0689 13.584C75.0689 12.976 74.9302 12.4427 74.6529 11.984C74.3755 11.5253 73.9969 11.168 73.5169 10.912C73.0369 10.6453 72.4875 10.512 71.8689 10.512C71.2609 10.512 70.7115 10.6453 70.2209 10.912C69.7409 11.168 69.3622 11.5253 69.0849 11.984C68.8182 12.4427 68.6849 12.976 68.6849 13.584C68.6849 14.192 68.8182 14.7307 69.0849 15.2C69.3622 15.6587 69.7409 16.0213 70.2209 16.288C70.7115 16.544 71.2609 16.672 71.8689 16.672ZM83.622 9.52C84.3047 9.52 84.902 9.65333 85.414 9.92C85.9367 10.176 86.342 10.5707 86.63 11.104C86.9287 11.6373 87.078 12.3093 87.078 13.12V18H85.942V13.232C85.942 12.3467 85.718 11.68 85.27 11.232C84.8327 10.7733 84.214 10.544 83.414 10.544C82.8167 10.544 82.294 10.6667 81.846 10.912C81.4087 11.1467 81.0673 11.4933 80.822 11.952C80.5873 12.4 80.47 12.944 80.47 13.584V18H79.334V9.6H80.422V11.904L80.246 11.472C80.5127 10.864 80.9393 10.3893 81.526 10.048C82.1127 9.696 82.8113 9.52 83.622 9.52ZM93.7145 18.08C92.8398 18.08 92.0718 17.8987 91.4105 17.536C90.7492 17.1627 90.2318 16.656 89.8585 16.016C89.4852 15.3653 89.2985 14.624 89.2985 13.792C89.2985 12.96 89.4745 12.224 89.8265 11.584C90.1892 10.944 90.6798 10.4427 91.2985 10.08C91.9278 9.70667 92.6318 9.52 93.4105 9.52C94.1998 9.52 94.8985 9.70133 95.5065 10.064C96.1252 10.416 96.6105 10.9173 96.9625 11.568C97.3145 12.208 97.4905 12.9493 97.4905 13.792C97.4905 13.8453 97.4852 13.904 97.4745 13.968C97.4745 14.0213 97.4745 14.08 97.4745 14.144H90.1625V13.296H96.8665L96.4185 13.632C96.4185 13.024 96.2852 12.4853 96.0185 12.016C95.7625 11.536 95.4105 11.1627 94.9625 10.896C94.5145 10.6293 93.9972 10.496 93.4105 10.496C92.8345 10.496 92.3172 10.6293 91.8585 10.896C91.3998 11.1627 91.0425 11.536 90.7865 12.016C90.5305 12.496 90.4025 13.0453 90.4025 13.664V13.84C90.4025 14.48 90.5412 15.0453 90.8185 15.536C91.1065 16.016 91.5012 16.3947 92.0025 16.672C92.5145 16.9387 93.0958 17.072 93.7465 17.072C94.2585 17.072 94.7332 16.9813 95.1705 16.8C95.6185 16.6187 96.0025 16.3413 96.3225 15.968L96.9625 16.704C96.5892 17.152 96.1198 17.4933 95.5545 17.728C94.9998 17.9627 94.3865 18.08 93.7145 18.08ZM103.147 18.08C102.347 18.08 101.627 17.8987 100.987 17.536C100.357 17.1733 99.8614 16.672 99.4988 16.032C99.1361 15.3813 98.9548 14.6347 98.9548 13.792C98.9548 12.9387 99.1361 12.192 99.4988 11.552C99.8614 10.912 100.357 10.416 100.987 10.064C101.627 9.70133 102.347 9.52 103.147 9.52C103.883 9.52 104.539 9.68533 105.115 10.016C105.701 10.3467 106.165 10.832 106.507 11.472C106.859 12.1013 107.035 12.8747 107.035 13.792C107.035 14.6987 106.864 15.472 106.523 16.112C106.181 16.752 105.717 17.2427 105.131 17.584C104.555 17.9147 103.893 18.08 103.147 18.08ZM103.227 17.072C103.824 17.072 104.357 16.9387 104.827 16.672C105.307 16.3947 105.68 16.0107 105.947 15.52C106.224 15.0187 106.363 14.4427 106.363 13.792C106.363 13.1307 106.224 12.5547 105.947 12.064C105.68 11.5733 105.307 11.1947 104.827 10.928C104.357 10.6507 103.824 10.512 103.227 10.512C102.64 10.512 102.112 10.6507 101.643 10.928C101.173 11.1947 100.8 11.5733 100.523 12.064C100.245 12.5547 100.107 13.1307 100.107 13.792C100.107 14.4427 100.245 15.0187 100.523 15.52C100.8 16.0107 101.173 16.3947 101.643 16.672C102.112 16.9387 102.64 17.072 103.227 17.072ZM106.395 18V15.472L106.507 13.776L106.347 12.08V6.128H107.483V18H106.395ZM119.17 18.08C118.434 18.08 117.773 17.9147 117.186 17.584C116.599 17.2427 116.135 16.752 115.794 16.112C115.453 15.472 115.282 14.6987 115.282 13.792C115.282 12.8747 115.453 12.1013 115.794 11.472C116.146 10.832 116.615 10.3467 117.202 10.016C117.789 9.68533 118.445 9.52 119.17 9.52C119.97 9.52 120.685 9.70133 121.314 10.064C121.954 10.416 122.455 10.912 122.818 11.552C123.181 12.192 123.362 12.9387 123.362 13.792C123.362 14.6347 123.181 15.3813 122.818 16.032C122.455 16.672 121.954 17.1733 121.314 17.536C120.685 17.8987 119.97 18.08 119.17 18.08ZM114.834 18V6.128H115.97V12.08L115.81 13.776L115.922 15.472V18H114.834ZM119.09 17.072C119.687 17.072 120.221 16.9387 120.69 16.672C121.159 16.3947 121.533 16.0107 121.81 15.52C122.087 15.0187 122.226 14.4427 122.226 13.792C122.226 13.1307 122.087 12.5547 121.81 12.064C121.533 11.5733 121.159 11.1947 120.69 10.928C120.221 10.6507 119.687 10.512 119.09 10.512C118.493 10.512 117.954 10.6507 117.474 10.928C117.005 11.1947 116.631 11.5733 116.354 12.064C116.087 12.5547 115.954 13.1307 115.954 13.792C115.954 14.4427 116.087 15.0187 116.354 15.52C116.631 16.0107 117.005 16.3947 117.474 16.672C117.954 16.9387 118.493 17.072 119.09 17.072ZM125.507 21.184C125.113 21.184 124.734 21.12 124.371 20.992C124.019 20.864 123.715 20.672 123.459 20.416L123.987 19.568C124.201 19.7707 124.43 19.9253 124.675 20.032C124.931 20.1493 125.214 20.208 125.523 20.208C125.897 20.208 126.217 20.1013 126.483 19.888C126.761 19.6853 127.022 19.3227 127.267 18.8L127.811 17.568L127.939 17.392L131.395 9.6H132.515L128.307 19.008C128.073 19.552 127.811 19.984 127.523 20.304C127.246 20.624 126.942 20.848 126.611 20.976C126.281 21.1147 125.913 21.184 125.507 21.184ZM127.747 18.24L123.875 9.6H125.059L128.483 17.312L127.747 18.24Z" fill="#6F7D7C"/>
<path d="M140.711 17.1426C139.531 15.9204 139 14.4654 139 12.7776C139 11.0898 139.531 9.57661 140.711 8.35441C141.833 7.13221 143.308 6.49201 145.137 6.49201C147.262 6.49201 148.914 7.30681 150.094 8.87821V3H151.216V18.6558H150.094V16.5606C148.914 18.132 147.262 18.9468 145.137 18.9468C143.308 18.9468 141.833 18.3648 140.711 17.1426ZM150.094 14.9892V10.5078C149.268 8.82001 147.38 7.53961 145.314 7.53961C143.839 7.53961 142.6 8.06341 141.597 9.05281C140.652 10.0422 140.18 11.2644 140.18 12.7776C140.18 14.2326 140.652 15.513 141.656 16.5024C142.659 17.4918 143.898 17.9574 145.373 17.9574C147.439 17.8992 149.327 16.7352 150.094 14.9892Z" fill="#1A1A1A"/>
<path d="M155.287 17.201C154.048 16.037 153.398 14.5238 153.398 12.7196C153.398 10.9154 153.93 9.46039 155.051 8.29639C156.172 7.13239 157.588 6.49219 159.359 6.49219C161.365 6.49219 162.958 7.36519 163.726 8.64559C164.552 9.92599 164.906 11.2064 164.906 12.4868V12.8942H154.52C154.52 14.4074 155.051 15.6296 156.113 16.5026C157.175 17.4338 158.473 17.8994 160.126 17.8994C161.542 17.8994 162.899 17.5502 164.021 16.7936V17.8994C163.076 18.5978 161.719 18.947 160.008 18.947C158.06 18.947 156.467 18.4232 155.287 17.201ZM163.785 11.9048C163.785 10.217 162.545 7.53979 159.359 7.53979C157.942 7.53979 156.821 8.00539 155.936 8.87839C155.11 9.75139 154.638 10.7408 154.52 11.9048H163.785Z" fill="#1A1A1A"/>
<path d="M167.031 18.656V6.78319H168.152V8.76199C169.097 7.48159 170.749 6.49219 172.755 6.49219C174.821 6.49219 176.119 7.36519 176.65 9.05299C177.594 7.59799 179.365 6.49219 181.489 6.49219C184.204 6.49219 185.738 8.17999 185.738 11.2646V18.656H184.617V11.4974C184.617 9.80959 184.145 8.70379 183.378 8.23819C182.61 7.71439 182.02 7.59799 181.253 7.59799C180.368 7.59799 179.542 7.88899 178.716 8.41279C177.949 8.93659 177.358 9.63499 176.945 10.3916C176.945 10.9736 177.004 11.4392 177.004 11.6138V18.656H175.883V11.4392C175.883 8.82019 174.762 7.53979 172.519 7.53979C171.693 7.53979 170.867 7.77259 170.041 8.29639C169.274 8.82019 168.684 9.46039 168.211 10.217V18.656H167.031Z" fill="#1A1A1A"/>
<path d="M189.456 17.1428C188.276 15.9206 187.686 14.4656 187.686 12.7196C187.686 11.0318 188.276 9.5186 189.456 8.29639C190.636 7.07419 192.17 6.49219 194 6.49219C195.357 6.49219 196.537 6.78319 197.659 7.42339V8.52919C196.537 7.88899 195.357 7.53979 194.177 7.53979C192.643 7.53979 191.403 8.06359 190.341 9.05299C189.338 10.0424 188.807 11.2646 188.807 12.7778C188.807 14.2328 189.338 15.5132 190.341 16.5026C191.403 17.492 192.643 17.9576 194.177 17.9576C195.593 17.9576 196.832 17.6084 197.895 16.8518V17.9576C196.832 18.656 195.534 19.0052 194 19.0052C192.17 18.947 190.636 18.365 189.456 17.1428Z" fill="#1A1A1A"/>
<path d="M201.375 18.6558H200.254V3H201.375V8.87822C202.437 7.59781 204.326 6.49201 206.509 6.49201C209.578 6.49201 211.171 8.29621 211.171 11.439V18.6558H210.05V11.6718C210.05 9.98402 209.519 8.76182 208.693 8.23801C207.866 7.71421 207.158 7.53961 206.214 7.53961C205.27 7.53961 204.385 7.83061 203.441 8.41261C202.555 8.93642 201.847 9.63482 201.375 10.3332V18.6558Z" fill="#1A1A1A"/>
<path d="M220.851 13.2426L220.91 12.2532L220.674 12.3696C220.083 12.777 219.375 13.0098 218.608 13.0098C217.782 13.0098 217.074 12.7188 216.484 12.195C215.953 11.6712 215.658 10.9728 215.658 10.158C215.658 9.34321 215.953 8.6448 216.484 8.121C217.074 7.539 217.782 7.3062 218.608 7.3062C219.316 7.3062 219.906 7.4808 220.556 7.83L220.733 7.9464V6.957L220.674 6.8988C220.024 6.5496 219.316 6.375 218.49 6.375C217.369 6.375 216.425 6.7242 215.717 7.4808C215.008 8.2374 214.654 9.11041 214.654 10.0998C214.654 11.1474 215.008 12.0204 215.717 12.777C216.425 13.4754 217.369 13.8828 218.431 13.8828C219.434 13.8828 220.201 13.65 220.851 13.2426Z" fill="#1A1A1A"/>
<path d="M227.932 7.4808C227.223 6.7242 226.279 6.375 225.158 6.375C224.037 6.375 223.093 6.7242 222.384 7.4808C221.676 8.1792 221.322 9.1104 221.322 10.0998C221.322 11.1474 221.676 12.0204 222.384 12.7188C223.093 13.4172 224.037 13.8246 225.158 13.8246C226.279 13.8246 227.223 13.4754 227.932 12.7188C228.64 11.9622 228.994 11.0892 228.994 10.0998C229.053 9.1104 228.699 8.2374 227.932 7.4808ZM225.217 7.248C226.043 7.248 226.751 7.539 227.283 8.0628C227.814 8.5866 228.109 9.285 228.109 10.0998C228.109 10.9146 227.814 11.613 227.283 12.1368C226.751 12.6606 226.043 12.9516 225.217 12.9516C224.391 12.9516 223.742 12.6606 223.152 12.1368C222.621 11.5548 222.325 10.9146 222.325 10.0998C222.325 9.285 222.621 8.5866 223.152 8.0628C223.683 7.539 224.391 7.248 225.217 7.248Z" fill="#1A1A1A"/>
<path d="M221.853 18.3074C220.2 18.3074 218.548 17.7837 217.014 16.6783L217.545 15.9219C220.318 17.9001 223.387 17.9001 226.161 15.9219L226.692 16.6783C225.157 17.7256 223.505 18.3074 221.853 18.3074Z" fill="#1A1A1A"/>
</svg>
