<svg width="1920" height="225" viewBox="0 0 1920 225" fill="none" xmlns="http://www.w3.org/2000/svg">
<path d="M747.85 166L713.05 61H733.3L764.35 155.95H754.3L786.55 61H804.55L835.9 155.95H826.15L857.95 61H876.55L841.75 166H821.05L792.4 80.35H797.8L768.7 166H747.85ZM922.28 167.05C913.38 167.05 905.58 165.3 898.88 161.8C892.28 158.2 887.13 153.3 883.43 147.1C879.83 140.9 878.03 133.85 878.03 125.95C878.03 117.95 879.78 110.9 883.28 104.8C886.88 98.6 891.78 93.75 897.98 90.25C904.28 86.75 911.43 85 919.43 85C927.23 85 934.18 86.7 940.28 90.1C946.38 93.5 951.18 98.3 954.68 104.5C958.18 110.7 959.93 118 959.93 126.4C959.93 127.2 959.88 128.1 959.78 129.1C959.78 130.1 959.73 131.05 959.63 131.95H892.88V119.5H949.73L942.38 123.4C942.48 118.8 941.53 114.75 939.53 111.25C937.53 107.75 934.78 105 931.28 103C927.88 101 923.93 100 919.43 100C914.83 100 910.78 101 907.28 103C903.88 105 901.18 107.8 899.18 111.4C897.28 114.9 896.33 119.05 896.33 123.85V126.85C896.33 131.65 897.43 135.9 899.63 139.6C901.83 143.3 904.93 146.15 908.93 148.15C912.93 150.15 917.53 151.15 922.73 151.15C927.23 151.15 931.28 150.45 934.88 149.05C938.48 147.65 941.68 145.45 944.48 142.45L954.53 154C950.93 158.2 946.38 161.45 940.88 163.75C935.48 165.95 929.28 167.05 922.28 167.05ZM1068.75 166V149.8L1067.7 146.35V118C1067.7 112.5 1066.05 108.25 1062.75 105.25C1059.45 102.15 1054.45 100.6 1047.75 100.6C1043.25 100.6 1038.8 101.3 1034.4 102.7C1030.1 104.1 1026.45 106.05 1023.45 108.55L1016.1 94.9C1020.4 91.6 1025.5 89.15 1031.4 87.55C1037.4 85.85 1043.6 85 1050 85C1061.6 85 1070.55 87.8 1076.85 93.4C1083.25 98.9 1086.45 107.45 1086.45 119.05V166H1068.75ZM1043.55 167.05C1037.55 167.05 1032.3 166.05 1027.8 164.05C1023.3 161.95 1019.8 159.1 1017.3 155.5C1014.9 151.8 1013.7 147.65 1013.7 143.05C1013.7 138.55 1014.75 134.5 1016.85 130.9C1019.05 127.3 1022.6 124.45 1027.5 122.35C1032.4 120.25 1038.9 119.2 1047 119.2H1070.25V131.65H1048.35C1041.95 131.65 1037.65 132.7 1035.45 134.8C1033.25 136.8 1032.15 139.3 1032.15 142.3C1032.15 145.7 1033.5 148.4 1036.2 150.4C1038.9 152.4 1042.65 153.4 1047.45 153.4C1052.05 153.4 1056.15 152.35 1059.75 150.25C1063.45 148.15 1066.1 145.05 1067.7 140.95L1070.85 152.2C1069.05 156.9 1065.8 160.55 1061.1 163.15C1056.5 165.75 1050.65 167.05 1043.55 167.05ZM1110.51 166V85.9H1128.36V107.95L1126.26 101.5C1128.66 96.1 1132.41 92 1137.51 89.2C1142.71 86.4 1149.16 85 1156.86 85V102.85C1156.06 102.65 1155.31 102.55 1154.61 102.55C1153.91 102.45 1153.21 102.4 1152.51 102.4C1145.41 102.4 1139.76 104.5 1135.56 108.7C1131.36 112.8 1129.26 118.95 1129.26 127.15V166H1110.51ZM1209.68 167.05C1200.78 167.05 1192.98 165.3 1186.28 161.8C1179.68 158.2 1174.53 153.3 1170.83 147.1C1167.23 140.9 1165.43 133.85 1165.43 125.95C1165.43 117.95 1167.18 110.9 1170.68 104.8C1174.28 98.6 1179.18 93.75 1185.38 90.25C1191.68 86.75 1198.83 85 1206.83 85C1214.63 85 1221.58 86.7 1227.68 90.1C1233.78 93.5 1238.58 98.3 1242.08 104.5C1245.58 110.7 1247.33 118 1247.33 126.4C1247.33 127.2 1247.28 128.1 1247.18 129.1C1247.18 130.1 1247.13 131.05 1247.03 131.95H1180.28V119.5H1237.13L1229.78 123.4C1229.88 118.8 1228.93 114.75 1226.93 111.25C1224.93 107.75 1222.18 105 1218.68 103C1215.28 101 1211.33 100 1206.83 100C1202.23 100 1198.18 101 1194.68 103C1191.28 105 1188.58 107.8 1186.58 111.4C1184.68 114.9 1183.73 119.05 1183.73 123.85V126.85C1183.73 131.65 1184.83 135.9 1187.03 139.6C1189.23 143.3 1192.33 146.15 1196.33 148.15C1200.33 150.15 1204.93 151.15 1210.13 151.15C1214.63 151.15 1218.68 150.45 1222.28 149.05C1225.88 147.65 1229.08 145.45 1231.88 142.45L1241.93 154C1238.33 158.2 1233.78 161.45 1228.28 163.75C1222.88 165.95 1216.68 167.05 1209.68 167.05ZM1340.7 167.05C1333 167.05 1326.05 165.35 1319.85 161.95C1313.75 158.45 1308.95 153.65 1305.45 147.55C1301.95 141.45 1300.2 134.25 1300.2 125.95C1300.2 117.65 1301.95 110.45 1305.45 104.35C1308.95 98.25 1313.75 93.5 1319.85 90.1C1326.05 86.7 1333 85 1340.7 85C1347.4 85 1353.4 86.5 1358.7 89.5C1364 92.4 1368.2 96.85 1371.3 102.85C1374.4 108.85 1375.95 116.55 1375.95 125.95C1375.95 135.25 1374.45 142.95 1371.45 149.05C1368.45 155.05 1364.3 159.55 1359 162.55C1353.7 165.55 1347.6 167.05 1340.7 167.05ZM1342.95 151C1347.45 151 1351.45 150 1354.95 148C1358.55 146 1361.4 143.1 1363.5 139.3C1365.7 135.5 1366.8 131.05 1366.8 125.95C1366.8 120.75 1365.7 116.3 1363.5 112.6C1361.4 108.8 1358.55 105.9 1354.95 103.9C1351.45 101.9 1347.45 100.9 1342.95 100.9C1338.45 100.9 1334.4 101.9 1330.8 103.9C1327.3 105.9 1324.45 108.8 1322.25 112.6C1320.15 116.3 1319.1 120.75 1319.1 125.95C1319.1 131.05 1320.15 135.5 1322.25 139.3C1324.45 143.1 1327.3 146 1330.8 148C1334.4 150 1338.45 151 1342.95 151ZM1367.25 166V147.1L1368 125.8L1366.5 104.5V54.7H1385.1V166H1367.25ZM1445.78 167.05C1437.58 167.05 1430.28 165.3 1423.88 161.8C1417.48 158.2 1412.43 153.3 1408.73 147.1C1405.03 140.9 1403.18 133.85 1403.18 125.95C1403.18 117.95 1405.03 110.9 1408.73 104.8C1412.43 98.6 1417.48 93.75 1423.88 90.25C1430.28 86.75 1437.58 85 1445.78 85C1454.08 85 1461.43 86.75 1467.83 90.25C1474.33 93.75 1479.38 98.55 1482.98 104.65C1486.68 110.75 1488.53 117.85 1488.53 125.95C1488.53 133.85 1486.68 140.9 1482.98 147.1C1479.38 153.3 1474.33 158.2 1467.83 161.8C1461.43 165.3 1454.08 167.05 1445.78 167.05ZM1445.78 151C1450.38 151 1454.48 150 1458.08 148C1461.68 146 1464.48 143.1 1466.48 139.3C1468.58 135.5 1469.63 131.05 1469.63 125.95C1469.63 120.75 1468.58 116.3 1466.48 112.6C1464.48 108.8 1461.68 105.9 1458.08 103.9C1454.48 101.9 1450.43 100.9 1445.93 100.9C1441.33 100.9 1437.23 101.9 1433.63 103.9C1430.13 105.9 1427.33 108.8 1425.23 112.6C1423.13 116.3 1422.08 120.75 1422.08 125.95C1422.08 131.05 1423.13 135.5 1425.23 139.3C1427.33 143.1 1430.13 146 1433.63 148C1437.23 150 1441.28 151 1445.78 151ZM1506.46 166V85.9H1525.21V166H1506.46ZM1515.91 72.7C1512.41 72.7 1509.51 71.6 1507.21 69.4C1505.01 67.2 1503.91 64.55 1503.91 61.45C1503.91 58.25 1505.01 55.6 1507.21 53.5C1509.51 51.3 1512.41 50.2 1515.91 50.2C1519.41 50.2 1522.26 51.25 1524.46 53.35C1526.76 55.35 1527.91 57.9 1527.91 61C1527.91 64.3 1526.81 67.1 1524.61 69.4C1522.41 71.6 1519.51 72.7 1515.91 72.7ZM1595.27 85C1601.67 85 1607.37 86.25 1612.37 88.75C1617.47 91.25 1621.47 95.1 1624.37 100.3C1627.27 105.4 1628.72 112 1628.72 120.1V166H1609.97V122.5C1609.97 115.4 1608.27 110.1 1604.87 106.6C1601.57 103.1 1596.92 101.35 1590.92 101.35C1586.52 101.35 1582.62 102.25 1579.22 104.05C1575.82 105.85 1573.17 108.55 1571.27 112.15C1569.47 115.65 1568.57 120.1 1568.57 125.5V166H1549.82V85.9H1567.67V107.5L1564.52 100.9C1567.32 95.8 1571.37 91.9 1576.67 89.2C1582.07 86.4 1588.27 85 1595.27 85ZM1688.95 196.15C1681.55 196.15 1674.3 195.15 1667.2 193.15C1660.2 191.25 1654.45 188.45 1649.95 184.75L1658.35 170.65C1661.85 173.55 1666.25 175.85 1671.55 177.55C1676.95 179.35 1682.4 180.25 1687.9 180.25C1696.7 180.25 1703.15 178.2 1707.25 174.1C1711.35 170.1 1713.4 164.05 1713.4 155.95V141.7L1714.9 123.55L1714.3 105.4V85.9H1732.15V153.85C1732.15 168.35 1728.45 179 1721.05 185.8C1713.65 192.7 1702.95 196.15 1688.95 196.15ZM1686.55 162.4C1678.95 162.4 1672.05 160.8 1665.85 157.6C1659.75 154.3 1654.9 149.75 1651.3 143.95C1647.8 138.15 1646.05 131.35 1646.05 123.55C1646.05 115.85 1647.8 109.1 1651.3 103.3C1654.9 97.5 1659.75 93 1665.85 89.8C1672.05 86.6 1678.95 85 1686.55 85C1693.35 85 1699.45 86.35 1704.85 89.05C1710.25 91.75 1714.55 95.95 1717.75 101.65C1721.05 107.35 1722.7 114.65 1722.7 123.55C1722.7 132.45 1721.05 139.8 1717.75 145.6C1714.55 151.3 1710.25 155.55 1704.85 158.35C1699.45 161.05 1693.35 162.4 1686.55 162.4ZM1689.4 146.5C1694.1 146.5 1698.3 145.55 1702 143.65C1705.7 141.65 1708.55 138.95 1710.55 135.55C1712.65 132.05 1713.7 128.05 1713.7 123.55C1713.7 119.05 1712.65 115.1 1710.55 111.7C1708.55 108.2 1705.7 105.55 1702 103.75C1698.3 101.85 1694.1 100.9 1689.4 100.9C1684.7 100.9 1680.45 101.85 1676.65 103.75C1672.95 105.55 1670.05 108.2 1667.95 111.7C1665.95 115.1 1664.95 119.05 1664.95 123.55C1664.95 128.05 1665.95 132.05 1667.95 135.55C1670.05 138.95 1672.95 141.65 1676.65 143.65C1680.45 145.55 1684.7 146.5 1689.4 146.5ZM1842.65 167.05C1835.85 167.05 1829.8 165.55 1824.5 162.55C1819.2 159.55 1815 155.05 1811.9 149.05C1808.9 142.95 1807.4 135.25 1807.4 125.95C1807.4 116.55 1808.95 108.85 1812.05 102.85C1815.25 96.85 1819.5 92.4 1824.8 89.5C1830.2 86.5 1836.15 85 1842.65 85C1850.55 85 1857.5 86.7 1863.5 90.1C1869.6 93.5 1874.4 98.25 1877.9 104.35C1881.5 110.45 1883.3 117.65 1883.3 125.95C1883.3 134.25 1881.5 141.45 1877.9 147.55C1874.4 153.65 1869.6 158.45 1863.5 161.95C1857.5 165.35 1850.55 167.05 1842.65 167.05ZM1798.25 166V54.7H1817V104.5L1815.5 125.8L1816.1 147.1V166H1798.25ZM1840.55 151C1845.05 151 1849.05 150 1852.55 148C1856.15 146 1859 143.1 1861.1 139.3C1863.2 135.5 1864.25 131.05 1864.25 125.95C1864.25 120.75 1863.2 116.3 1861.1 112.6C1859 108.8 1856.15 105.9 1852.55 103.9C1849.05 101.9 1845.05 100.9 1840.55 100.9C1836.05 100.9 1832 101.9 1828.4 103.9C1824.8 105.9 1821.95 108.8 1819.85 112.6C1817.75 116.3 1816.7 120.75 1816.7 125.95C1816.7 131.05 1817.75 135.5 1819.85 139.3C1821.95 143.1 1824.8 146 1828.4 148C1832 150 1836.05 151 1840.55 151ZM1938.74 167.05C1929.84 167.05 1922.04 165.3 1915.34 161.8C1908.74 158.2 1903.59 153.3 1899.89 147.1C1896.29 140.9 1894.49 133.85 1894.49 125.95C1894.49 117.95 1896.24 110.9 1899.74 104.8C1903.34 98.6 1908.24 93.75 1914.44 90.25C1920.74 86.75 1927.89 85 1935.89 85C1943.69 85 1950.64 86.7 1956.74 90.1C1962.84 93.5 1967.64 98.3 1971.14 104.5C1974.64 110.7 1976.39 118 1976.39 126.4C1976.39 127.2 1976.34 128.1 1976.24 129.1C1976.24 130.1 1976.19 131.05 1976.09 131.95H1909.34V119.5H1966.19L1958.84 123.4C1958.94 118.8 1957.99 114.75 1955.99 111.25C1953.99 107.75 1951.24 105 1947.74 103C1944.34 101 1940.39 100 1935.89 100C1931.29 100 1927.24 101 1923.74 103C1920.34 105 1917.64 107.8 1915.64 111.4C1913.74 114.9 1912.79 119.05 1912.79 123.85V126.85C1912.79 131.65 1913.89 135.9 1916.09 139.6C1918.29 143.3 1921.39 146.15 1925.39 148.15C1929.39 150.15 1933.99 151.15 1939.19 151.15C1943.69 151.15 1947.74 150.45 1951.34 149.05C1954.94 147.65 1958.14 145.45 1960.94 142.45L1970.99 154C1967.39 158.2 1962.84 161.45 1957.34 163.75C1951.94 165.95 1945.74 167.05 1938.74 167.05ZM2024.55 167.05C2015.75 167.05 2008.95 164.8 2004.15 160.3C1999.35 155.7 1996.95 148.95 1996.95 140.05V68.2H2015.7V139.6C2015.7 143.4 2016.65 146.35 2018.55 148.45C2020.55 150.55 2023.3 151.6 2026.8 151.6C2031 151.6 2034.5 150.5 2037.3 148.3L2042.55 161.65C2040.35 163.45 2037.65 164.8 2034.45 165.7C2031.25 166.6 2027.95 167.05 2024.55 167.05ZM1983.75 101.5V86.5H2037.15V101.5H1983.75ZM2086.22 167.05C2077.42 167.05 2070.62 164.8 2065.82 160.3C2061.02 155.7 2058.62 148.95 2058.62 140.05V68.2H2077.37V139.6C2077.37 143.4 2078.32 146.35 2080.22 148.45C2082.22 150.55 2084.97 151.6 2088.47 151.6C2092.67 151.6 2096.17 150.5 2098.97 148.3L2104.22 161.65C2102.02 163.45 2099.32 164.8 2096.12 165.7C2092.92 166.6 2089.62 167.05 2086.22 167.05ZM2045.42 101.5V86.5H2098.82V101.5H2045.42ZM2154.65 167.05C2145.75 167.05 2137.95 165.3 2131.25 161.8C2124.65 158.2 2119.5 153.3 2115.8 147.1C2112.2 140.9 2110.4 133.85 2110.4 125.95C2110.4 117.95 2112.15 110.9 2115.65 104.8C2119.25 98.6 2124.15 93.75 2130.35 90.25C2136.65 86.75 2143.8 85 2151.8 85C2159.6 85 2166.55 86.7 2172.65 90.1C2178.75 93.5 2183.55 98.3 2187.05 104.5C2190.55 110.7 2192.3 118 2192.3 126.4C2192.3 127.2 2192.25 128.1 2192.15 129.1C2192.15 130.1 2192.1 131.05 2192 131.95H2125.25V119.5H2182.1L2174.75 123.4C2174.85 118.8 2173.9 114.75 2171.9 111.25C2169.9 107.75 2167.15 105 2163.65 103C2160.25 101 2156.3 100 2151.8 100C2147.2 100 2143.15 101 2139.65 103C2136.25 105 2133.55 107.8 2131.55 111.4C2129.65 114.9 2128.7 119.05 2128.7 123.85V126.85C2128.7 131.65 2129.8 135.9 2132 139.6C2134.2 143.3 2137.3 146.15 2141.3 148.15C2145.3 150.15 2149.9 151.15 2155.1 151.15C2159.6 151.15 2163.65 150.45 2167.25 149.05C2170.85 147.65 2174.05 145.45 2176.85 142.45L2186.9 154C2183.3 158.2 2178.75 161.45 2173.25 163.75C2167.85 165.95 2161.65 167.05 2154.65 167.05ZM2210.31 166V85.9H2228.16V107.95L2226.06 101.5C2228.46 96.1 2232.21 92 2237.31 89.2C2242.51 86.4 2248.96 85 2256.66 85V102.85C2255.86 102.65 2255.11 102.55 2254.41 102.55C2253.71 102.45 2253.01 102.4 2252.31 102.4C2245.21 102.4 2239.56 104.5 2235.36 108.7C2231.16 112.8 2229.06 118.95 2229.06 127.15V166H2210.31Z" fill="#FFDFD9"/>
<path d="M-941.15 166L-975.95 61H-955.7L-924.65 155.95H-934.7L-902.45 61H-884.45L-853.1 155.95H-862.85L-831.05 61H-812.45L-847.25 166H-867.95L-896.6 80.35H-891.2L-920.3 166H-941.15ZM-766.72 167.05C-775.62 167.05 -783.42 165.3 -790.12 161.8C-796.72 158.2 -801.87 153.3 -805.57 147.1C-809.17 140.9 -810.97 133.85 -810.97 125.95C-810.97 117.95 -809.22 110.9 -805.72 104.8C-802.12 98.6 -797.22 93.75 -791.02 90.25C-784.72 86.75 -777.57 85 -769.57 85C-761.77 85 -754.82 86.7 -748.72 90.1C-742.62 93.5 -737.82 98.3 -734.32 104.5C-730.82 110.7 -729.07 118 -729.07 126.4C-729.07 127.2 -729.12 128.1 -729.22 129.1C-729.22 130.1 -729.27 131.05 -729.37 131.95H-796.12V119.5H-739.27L-746.62 123.4C-746.52 118.8 -747.47 114.75 -749.47 111.25C-751.47 107.75 -754.22 105 -757.72 103C-761.12 101 -765.07 100 -769.57 100C-774.17 100 -778.22 101 -781.72 103C-785.12 105 -787.82 107.8 -789.82 111.4C-791.72 114.9 -792.67 119.05 -792.67 123.85V126.85C-792.67 131.65 -791.57 135.9 -789.37 139.6C-787.17 143.3 -784.07 146.15 -780.07 148.15C-776.07 150.15 -771.47 151.15 -766.27 151.15C-761.77 151.15 -757.72 150.45 -754.12 149.05C-750.52 147.65 -747.32 145.45 -744.52 142.45L-734.47 154C-738.07 158.2 -742.62 161.45 -748.12 163.75C-753.52 165.95 -759.72 167.05 -766.72 167.05ZM-620.254 166V149.8L-621.304 146.35V118C-621.304 112.5 -622.954 108.25 -626.254 105.25C-629.554 102.15 -634.554 100.6 -641.254 100.6C-645.754 100.6 -650.204 101.3 -654.604 102.7C-658.904 104.1 -662.554 106.05 -665.554 108.55L-672.904 94.9C-668.604 91.6 -663.504 89.15 -657.604 87.55C-651.604 85.85 -645.404 85 -639.004 85C-627.404 85 -618.454 87.8 -612.154 93.4C-605.754 98.9 -602.554 107.45 -602.554 119.05V166H-620.254ZM-645.454 167.05C-651.454 167.05 -656.704 166.05 -661.204 164.05C-665.704 161.95 -669.204 159.1 -671.704 155.5C-674.104 151.8 -675.304 147.65 -675.304 143.05C-675.304 138.55 -674.254 134.5 -672.154 130.9C-669.954 127.3 -666.404 124.45 -661.504 122.35C-656.604 120.25 -650.104 119.2 -642.004 119.2H-618.754V131.65H-640.654C-647.054 131.65 -651.354 132.7 -653.554 134.8C-655.754 136.8 -656.854 139.3 -656.854 142.3C-656.854 145.7 -655.504 148.4 -652.804 150.4C-650.104 152.4 -646.354 153.4 -641.554 153.4C-636.954 153.4 -632.854 152.35 -629.254 150.25C-625.554 148.15 -622.904 145.05 -621.304 140.95L-618.154 152.2C-619.954 156.9 -623.204 160.55 -627.904 163.15C-632.504 165.75 -638.354 167.05 -645.454 167.05ZM-578.491 166V85.9H-560.641V107.95L-562.741 101.5C-560.341 96.1 -556.591 92 -551.491 89.2C-546.291 86.4 -539.841 85 -532.141 85V102.85C-532.941 102.65 -533.691 102.55 -534.391 102.55C-535.091 102.45 -535.791 102.4 -536.491 102.4C-543.591 102.4 -549.241 104.5 -553.441 108.7C-557.641 112.8 -559.741 118.95 -559.741 127.15V166H-578.491ZM-479.318 167.05C-488.218 167.05 -496.018 165.3 -502.718 161.8C-509.318 158.2 -514.468 153.3 -518.168 147.1C-521.768 140.9 -523.568 133.85 -523.568 125.95C-523.568 117.95 -521.818 110.9 -518.318 104.8C-514.718 98.6 -509.818 93.75 -503.618 90.25C-497.318 86.75 -490.168 85 -482.168 85C-474.368 85 -467.418 86.7 -461.318 90.1C-455.218 93.5 -450.418 98.3 -446.918 104.5C-443.418 110.7 -441.668 118 -441.668 126.4C-441.668 127.2 -441.718 128.1 -441.818 129.1C-441.818 130.1 -441.868 131.05 -441.968 131.95H-508.718V119.5H-451.868L-459.218 123.4C-459.118 118.8 -460.068 114.75 -462.068 111.25C-464.068 107.75 -466.818 105 -470.318 103C-473.718 101 -477.668 100 -482.168 100C-486.768 100 -490.818 101 -494.318 103C-497.718 105 -500.418 107.8 -502.418 111.4C-504.318 114.9 -505.268 119.05 -505.268 123.85V126.85C-505.268 131.65 -504.168 135.9 -501.968 139.6C-499.768 143.3 -496.668 146.15 -492.668 148.15C-488.668 150.15 -484.068 151.15 -478.868 151.15C-474.368 151.15 -470.318 150.45 -466.718 149.05C-463.118 147.65 -459.918 145.45 -457.118 142.45L-447.068 154C-450.668 158.2 -455.218 161.45 -460.718 163.75C-466.118 165.95 -472.318 167.05 -479.318 167.05ZM-348.302 167.05C-356.002 167.05 -362.952 165.35 -369.152 161.95C-375.252 158.45 -380.052 153.65 -383.552 147.55C-387.052 141.45 -388.802 134.25 -388.802 125.95C-388.802 117.65 -387.052 110.45 -383.552 104.35C-380.052 98.25 -375.252 93.5 -369.152 90.1C-362.952 86.7 -356.002 85 -348.302 85C-341.602 85 -335.602 86.5 -330.302 89.5C-325.002 92.4 -320.802 96.85 -317.702 102.85C-314.602 108.85 -313.052 116.55 -313.052 125.95C-313.052 135.25 -314.552 142.95 -317.552 149.05C-320.552 155.05 -324.702 159.55 -330.002 162.55C-335.302 165.55 -341.402 167.05 -348.302 167.05ZM-346.052 151C-341.552 151 -337.552 150 -334.052 148C-330.452 146 -327.602 143.1 -325.502 139.3C-323.302 135.5 -322.202 131.05 -322.202 125.95C-322.202 120.75 -323.302 116.3 -325.502 112.6C-327.602 108.8 -330.452 105.9 -334.052 103.9C-337.552 101.9 -341.552 100.9 -346.052 100.9C-350.552 100.9 -354.602 101.9 -358.202 103.9C-361.702 105.9 -364.552 108.8 -366.752 112.6C-368.852 116.3 -369.902 120.75 -369.902 125.95C-369.902 131.05 -368.852 135.5 -366.752 139.3C-364.552 143.1 -361.702 146 -358.202 148C-354.602 150 -350.552 151 -346.052 151ZM-321.752 166V147.1L-321.002 125.8L-322.502 104.5V54.7H-303.902V166H-321.752ZM-243.223 167.05C-251.423 167.05 -258.723 165.3 -265.123 161.8C-271.523 158.2 -276.573 153.3 -280.273 147.1C-283.973 140.9 -285.823 133.85 -285.823 125.95C-285.823 117.95 -283.973 110.9 -280.273 104.8C-276.573 98.6 -271.523 93.75 -265.123 90.25C-258.723 86.75 -251.423 85 -243.223 85C-234.923 85 -227.573 86.75 -221.173 90.25C-214.673 93.75 -209.623 98.55 -206.023 104.65C-202.323 110.75 -200.473 117.85 -200.473 125.95C-200.473 133.85 -202.323 140.9 -206.023 147.1C-209.623 153.3 -214.673 158.2 -221.173 161.8C-227.573 165.3 -234.923 167.05 -243.223 167.05ZM-243.223 151C-238.623 151 -234.523 150 -230.923 148C-227.323 146 -224.523 143.1 -222.523 139.3C-220.423 135.5 -219.373 131.05 -219.373 125.95C-219.373 120.75 -220.423 116.3 -222.523 112.6C-224.523 108.8 -227.323 105.9 -230.923 103.9C-234.523 101.9 -238.573 100.9 -243.073 100.9C-247.673 100.9 -251.773 101.9 -255.373 103.9C-258.873 105.9 -261.673 108.8 -263.773 112.6C-265.873 116.3 -266.923 120.75 -266.923 125.95C-266.923 131.05 -265.873 135.5 -263.773 139.3C-261.673 143.1 -258.873 146 -255.373 148C-251.773 150 -247.723 151 -243.223 151ZM-182.544 166V85.9H-163.794V166H-182.544ZM-173.094 72.7C-176.594 72.7 -179.494 71.6 -181.794 69.4C-183.994 67.2 -185.094 64.55 -185.094 61.45C-185.094 58.25 -183.994 55.6 -181.794 53.5C-179.494 51.3 -176.594 50.2 -173.094 50.2C-169.594 50.2 -166.744 51.25 -164.544 53.35C-162.244 55.35 -161.094 57.9 -161.094 61C-161.094 64.3 -162.194 67.1 -164.394 69.4C-166.594 71.6 -169.494 72.7 -173.094 72.7ZM-93.7344 85C-87.3344 85 -81.6344 86.25 -76.6344 88.75C-71.5344 91.25 -67.5344 95.1 -64.6344 100.3C-61.7344 105.4 -60.2844 112 -60.2844 120.1V166H-79.0344V122.5C-79.0344 115.4 -80.7344 110.1 -84.1344 106.6C-87.4344 103.1 -92.0844 101.35 -98.0844 101.35C-102.484 101.35 -106.384 102.25 -109.784 104.05C-113.184 105.85 -115.834 108.55 -117.734 112.15C-119.534 115.65 -120.434 120.1 -120.434 125.5V166H-139.184V85.9H-121.334V107.5L-124.484 100.9C-121.684 95.8 -117.634 91.9 -112.334 89.2C-106.934 86.4 -100.734 85 -93.7344 85ZM-0.0523436 196.15C-7.45234 196.15 -14.7023 195.15 -21.8023 193.15C-28.8023 191.25 -34.5523 188.45 -39.0523 184.75L-30.6523 170.65C-27.1523 173.55 -22.7523 175.85 -17.4523 177.55C-12.0523 179.35 -6.60234 180.25 -1.10234 180.25C7.69766 180.25 14.1477 178.2 18.2477 174.1C22.3477 170.1 24.3977 164.05 24.3977 155.95V141.7L25.8977 123.55L25.2977 105.4V85.9H43.1477V153.85C43.1477 168.35 39.4477 179 32.0477 185.8C24.6477 192.7 13.9477 196.15 -0.0523436 196.15ZM-2.45234 162.4C-10.0523 162.4 -16.9523 160.8 -23.1523 157.6C-29.2523 154.3 -34.1023 149.75 -37.7023 143.95C-41.2023 138.15 -42.9523 131.35 -42.9523 123.55C-42.9523 115.85 -41.2023 109.1 -37.7023 103.3C-34.1023 97.5 -29.2523 93 -23.1523 89.8C-16.9523 86.6 -10.0523 85 -2.45234 85C4.34766 85 10.4477 86.35 15.8477 89.05C21.2477 91.75 25.5477 95.95 28.7477 101.65C32.0477 107.35 33.6977 114.65 33.6977 123.55C33.6977 132.45 32.0477 139.8 28.7477 145.6C25.5477 151.3 21.2477 155.55 15.8477 158.35C10.4477 161.05 4.34766 162.4 -2.45234 162.4ZM0.39766 146.5C5.09766 146.5 9.29766 145.55 12.9977 143.65C16.6977 141.65 19.5477 138.95 21.5477 135.55C23.6477 132.05 24.6977 128.05 24.6977 123.55C24.6977 119.05 23.6477 115.1 21.5477 111.7C19.5477 108.2 16.6977 105.55 12.9977 103.75C9.29766 101.85 5.09766 100.9 0.39766 100.9C-4.30234 100.9 -8.55234 101.85 -12.3523 103.75C-16.0523 105.55 -18.9523 108.2 -21.0523 111.7C-23.0523 115.1 -24.0523 119.05 -24.0523 123.55C-24.0523 128.05 -23.0523 132.05 -21.0523 135.55C-18.9523 138.95 -16.0523 141.65 -12.3523 143.65C-8.55234 145.55 -4.30234 146.5 0.39766 146.5ZM153.653 167.05C146.853 167.05 140.803 165.55 135.503 162.55C130.203 159.55 126.003 155.05 122.903 149.05C119.903 142.95 118.403 135.25 118.403 125.95C118.403 116.55 119.953 108.85 123.053 102.85C126.253 96.85 130.503 92.4 135.803 89.5C141.203 86.5 147.153 85 153.653 85C161.553 85 168.503 86.7 174.503 90.1C180.603 93.5 185.403 98.25 188.903 104.35C192.503 110.45 194.303 117.65 194.303 125.95C194.303 134.25 192.503 141.45 188.903 147.55C185.403 153.65 180.603 158.45 174.503 161.95C168.503 165.35 161.553 167.05 153.653 167.05ZM109.253 166V54.7H128.003V104.5L126.503 125.8L127.103 147.1V166H109.253ZM151.553 151C156.053 151 160.053 150 163.553 148C167.153 146 170.003 143.1 172.103 139.3C174.203 135.5 175.253 131.05 175.253 125.95C175.253 120.75 174.203 116.3 172.103 112.6C170.003 108.8 167.153 105.9 163.553 103.9C160.053 101.9 156.053 100.9 151.553 100.9C147.053 100.9 143.003 101.9 139.403 103.9C135.803 105.9 132.953 108.8 130.853 112.6C128.753 116.3 127.703 120.75 127.703 125.95C127.703 131.05 128.753 135.5 130.853 139.3C132.953 143.1 135.803 146 139.403 148C143.003 150 147.053 151 151.553 151ZM249.735 167.05C240.835 167.05 233.035 165.3 226.335 161.8C219.735 158.2 214.585 153.3 210.885 147.1C207.285 140.9 205.485 133.85 205.485 125.95C205.485 117.95 207.235 110.9 210.735 104.8C214.335 98.6 219.235 93.75 225.435 90.25C231.735 86.75 238.885 85 246.885 85C254.685 85 261.635 86.7 267.735 90.1C273.835 93.5 278.635 98.3 282.135 104.5C285.635 110.7 287.385 118 287.385 126.4C287.385 127.2 287.335 128.1 287.235 129.1C287.235 130.1 287.185 131.05 287.085 131.95H220.335V119.5H277.185L269.835 123.4C269.935 118.8 268.985 114.75 266.985 111.25C264.985 107.75 262.235 105 258.735 103C255.335 101 251.385 100 246.885 100C242.285 100 238.235 101 234.735 103C231.335 105 228.635 107.8 226.635 111.4C224.735 114.9 223.785 119.05 223.785 123.85V126.85C223.785 131.65 224.885 135.9 227.085 139.6C229.285 143.3 232.385 146.15 236.385 148.15C240.385 150.15 244.985 151.15 250.185 151.15C254.685 151.15 258.735 150.45 262.335 149.05C265.935 147.65 269.135 145.45 271.935 142.45L281.985 154C278.385 158.2 273.835 161.45 268.335 163.75C262.935 165.95 256.735 167.05 249.735 167.05ZM335.546 167.05C326.746 167.05 319.946 164.8 315.146 160.3C310.346 155.7 307.946 148.95 307.946 140.05V68.2H326.696V139.6C326.696 143.4 327.646 146.35 329.546 148.45C331.546 150.55 334.296 151.6 337.796 151.6C341.996 151.6 345.496 150.5 348.296 148.3L353.546 161.65C351.346 163.45 348.646 164.8 345.446 165.7C342.246 166.6 338.946 167.05 335.546 167.05ZM294.746 101.5V86.5H348.146V101.5H294.746ZM397.216 167.05C388.416 167.05 381.616 164.8 376.816 160.3C372.016 155.7 369.616 148.95 369.616 140.05V68.2H388.366V139.6C388.366 143.4 389.316 146.35 391.216 148.45C393.216 150.55 395.966 151.6 399.466 151.6C403.666 151.6 407.166 150.5 409.966 148.3L415.216 161.65C413.016 163.45 410.316 164.8 407.116 165.7C403.916 166.6 400.616 167.05 397.216 167.05ZM356.416 101.5V86.5H409.816V101.5H356.416ZM465.653 167.05C456.753 167.05 448.953 165.3 442.253 161.8C435.653 158.2 430.503 153.3 426.803 147.1C423.203 140.9 421.403 133.85 421.403 125.95C421.403 117.95 423.153 110.9 426.653 104.8C430.253 98.6 435.153 93.75 441.353 90.25C447.653 86.75 454.803 85 462.803 85C470.603 85 477.553 86.7 483.653 90.1C489.753 93.5 494.553 98.3 498.053 104.5C501.553 110.7 503.303 118 503.303 126.4C503.303 127.2 503.253 128.1 503.153 129.1C503.153 130.1 503.103 131.05 503.003 131.95H436.253V119.5H493.103L485.753 123.4C485.853 118.8 484.903 114.75 482.903 111.25C480.903 107.75 478.153 105 474.653 103C471.253 101 467.303 100 462.803 100C458.203 100 454.153 101 450.653 103C447.253 105 444.553 107.8 442.553 111.4C440.653 114.9 439.703 119.05 439.703 123.85V126.85C439.703 131.65 440.803 135.9 443.003 139.6C445.203 143.3 448.303 146.15 452.303 148.15C456.303 150.15 460.903 151.15 466.103 151.15C470.603 151.15 474.653 150.45 478.253 149.05C481.853 147.65 485.053 145.45 487.853 142.45L497.903 154C494.303 158.2 489.753 161.45 484.253 163.75C478.853 165.95 472.653 167.05 465.653 167.05ZM521.314 166V85.9H539.164V107.95L537.064 101.5C539.464 96.1 543.214 92 548.314 89.2C553.514 86.4 559.964 85 567.664 85V102.85C566.864 102.65 566.114 102.55 565.414 102.55C564.714 102.45 564.014 102.4 563.314 102.4C556.214 102.4 550.564 104.5 546.364 108.7C542.164 112.8 540.064 118.95 540.064 127.15V166H521.314Z" fill="#FFDFD9"/>
<path d="M635.294 100.798C637.09 95.2705 644.91 95.2705 646.706 100.798L649.254 108.639C650.325 111.936 653.397 114.167 656.862 114.167H665.107C670.919 114.167 673.336 121.605 668.634 125.021L661.964 129.867C659.16 131.904 657.987 135.515 659.058 138.812L661.605 146.652C663.401 152.18 657.074 156.777 652.372 153.361L645.702 148.515C642.898 146.478 639.102 146.478 636.298 148.515L629.628 153.361C624.926 156.777 618.599 152.18 620.395 146.652L622.942 138.812C624.013 135.515 622.84 131.904 620.036 129.867L613.366 125.021C608.664 121.605 611.081 114.167 616.893 114.167H625.138C628.603 114.167 631.675 111.936 632.746 108.639L635.294 100.798Z" stroke="#FFDFD9" stroke-width="2"/>
</svg>
