<svg width="80" height="80" viewBox="0 0 80 80" fill="none" xmlns="http://www.w3.org/2000/svg">
<g clip-path="url(#clip0_1404_17373)">
<circle cx="40" cy="40" r="28" fill="#00B4A6"/>
<circle cx="13.3333" cy="9.33333" r="8.83333" stroke="#1A1A1A"/>
<path d="M0.5 30.6666C0.5 23.579 6.24568 17.8333 13.3333 17.8333C20.421 17.8333 26.1667 23.579 26.1667 30.6666V36.8333H0.5V30.6666Z" stroke="#1A1A1A"/>
<circle cx="66.6666" cy="9.33333" r="8.83333" stroke="#1A1A1A"/>
<path d="M53.8333 30.6666C53.8333 23.579 59.5789 17.8333 66.6666 17.8333C73.7542 17.8333 79.4999 23.579 79.4999 30.6666V36.8333H53.8333V30.6666Z" stroke="#1A1A1A"/>
<circle cx="40.0001" cy="52" r="8.83333" stroke="#1A1A1A"/>
<path d="M27.1667 73.3333C27.1667 66.2457 32.9124 60.5 40.0001 60.5C47.0877 60.5 52.8334 66.2457 52.8334 73.3333V79.5H27.1667V73.3333Z" stroke="#1A1A1A"/>
</g>
<defs>
<clipPath id="clip0_1404_17373">
<rect width="80" height="80" fill="white"/>
</clipPath>
</defs>
</svg>
