<svg width="540" height="416" viewBox="0 0 540 416" fill="none" xmlns="http://www.w3.org/2000/svg">
<path d="M255.982 207.748C255.982 264.967 242.198 316.721 219.966 354.137C197.721 391.573 167.131 414.495 133.537 414.495C99.9432 414.495 69.3538 391.573 47.1087 354.137C24.8763 316.721 11.093 264.967 11.093 207.748C11.093 150.528 24.8763 98.7741 47.1087 61.3587C69.3538 23.9218 99.9432 1 133.537 1C167.131 1 197.721 23.9218 219.966 61.3587C242.198 98.7741 255.982 150.528 255.982 207.748Z" stroke="#1A1A1A" stroke-width="2"/>
<path d="M539 207.748C539 264.967 525.217 316.721 502.984 354.137C480.739 391.573 450.15 414.495 416.556 414.495C382.962 414.495 352.372 391.573 330.127 354.137C307.895 316.721 294.112 264.967 294.112 207.748C294.112 150.528 307.895 98.7741 330.127 61.3587C352.372 23.9218 382.962 1 416.556 1C450.15 1 480.739 23.9218 502.984 61.3587C525.217 98.7741 539 150.528 539 207.748Z" stroke="#1A1A1A" stroke-width="2"/>
<ellipse cx="99.9771" cy="222.802" rx="72.2601" ry="78.2817" fill="#AAE6E1"/>
<ellipse cx="382.996" cy="222.802" rx="72.2601" ry="78.2817" fill="#AAE6E1"/>
<circle cx="57.2059" cy="225.813" r="57.2059" fill="#1A1A1A"/>
<circle cx="340.224" cy="225.813" r="57.2059" fill="#1A1A1A"/>
</svg>
