<svg width="80" height="80" viewBox="0 0 80 80" fill="none" xmlns="http://www.w3.org/2000/svg">
<g clip-path="url(#clip0_192_3354)">
<path d="M65.0537 22.6893C64.0194 20.3366 62.5279 18.2046 60.6628 16.4127C58.7963 14.6154 56.5957 13.1872 54.1806 12.2056C51.6763 11.1837 48.9902 10.6606 46.2784 10.6667C42.474 10.6667 38.7622 11.6901 35.5365 13.6231C34.7648 14.0855 34.0317 14.5934 33.3372 15.1468C32.6426 14.5934 31.9095 14.0855 31.1378 13.6231C27.9121 11.6901 24.2003 10.6667 20.3959 10.6667C17.6563 10.6667 15.0017 11.1822 12.4937 12.2056C10.0706 13.191 7.8867 14.6085 6.01149 16.4127C4.14397 18.2026 2.65214 20.3351 1.62056 22.6893C0.547902 25.1377 0 27.7378 0 30.4137C0 32.938 0.524752 35.5684 1.56654 38.2442C2.43855 40.4804 3.68869 42.8001 5.2861 45.1424C7.81725 48.8492 11.2976 52.7152 15.6191 56.6343C22.7804 63.1307 29.8722 67.6183 30.1732 67.8002L32.0021 68.9524C32.8124 69.4603 33.8542 69.4603 34.6645 68.9524L36.4934 67.8002C36.7943 67.6107 43.8785 63.1307 51.0475 56.6343C55.369 52.7152 58.8493 48.8492 61.3805 45.1424C62.9779 42.8001 64.2357 40.4804 65.1 38.2442C66.1418 35.5684 66.6666 32.938 66.6666 30.4137C66.6743 27.7378 66.1264 25.1377 65.0537 22.6893Z" fill="#EFCCCD"/>
<path d="M61.0911 67.0913L60.9021 66.971L60.6865 67.032C57.9304 67.8118 55.0802 68.209 52.216 68.2123C36.8732 68.212 24.5 57.3003 24.5 44.0228C24.5 30.7451 36.8735 19.8333 52.2166 19.8333C67.5606 19.8333 79.9306 30.7449 79.845 44.019C79.8193 47.0098 79.1956 49.9653 78.0107 52.7115C76.8256 55.4578 75.1032 57.9393 72.9447 60.01L72.7908 60.1576V60.3708V72.2385C72.7904 72.4652 72.7291 72.6875 72.6133 72.8823C72.4974 73.0771 72.3313 73.2372 72.1323 73.3457C71.9334 73.4542 71.7089 73.5072 71.4824 73.4992C71.2559 73.4911 71.0357 73.4223 70.845 73.2999L70.8435 73.299L61.0911 67.0913Z" stroke="black"/>
</g>
<defs>
<clipPath id="clip0_192_3354">
<rect width="80" height="80" fill="white"/>
</clipPath>
</defs>
</svg>
