<svg width="40" height="40" viewBox="0 0 40 40" fill="none" xmlns="http://www.w3.org/2000/svg">
<path fill-rule="evenodd" clip-rule="evenodd" d="M19.9663 1.33325C9.67153 1.33325 1.33325 9.67153 1.33325 19.9663C1.33325 28.2114 6.66695 35.1755 14.0736 37.6443C15.0052 37.8074 15.3546 37.2484 15.3546 36.7593C15.3546 36.3167 15.3313 34.8494 15.3313 33.2889C10.6498 34.1506 9.43861 32.1476 9.06595 31.0995C8.85633 30.5638 7.94797 28.9101 7.15607 28.4676C6.50391 28.1182 5.57226 27.2564 7.13278 27.2331C8.60013 27.2099 9.64823 28.584 9.9976 29.143C11.6746 31.9613 14.3531 31.1694 15.4245 30.6802C15.5875 29.4691 16.0766 28.6539 16.6123 28.1881C12.4665 27.7223 8.1343 26.1152 8.1343 18.988C8.1343 16.9617 8.85633 15.2847 10.0442 13.9804C9.85786 13.5146 9.2057 11.6047 10.2305 9.04266C10.2305 9.04266 11.791 8.55355 15.3546 10.9525C16.8452 10.5333 18.429 10.3237 20.0128 10.3237C21.5967 10.3237 23.1805 10.5333 24.6711 10.9525C28.2347 8.53025 29.7952 9.04266 29.7952 9.04266C30.82 11.6047 30.1678 13.5146 29.9815 13.9804C31.1694 15.2847 31.8914 16.9384 31.8914 18.988C31.8914 26.1385 27.5359 27.7223 23.3901 28.1881C24.0655 28.7704 24.6478 29.8883 24.6478 31.6352C24.6478 34.1274 24.6245 36.1304 24.6245 36.7593C24.6245 37.2484 24.9739 37.8307 25.9055 37.6443C29.6045 36.3955 32.8187 34.0182 35.0957 30.847C37.3728 27.6758 38.5982 23.8703 38.5993 19.9663C38.5993 9.67153 30.261 1.33325 19.9663 1.33325Z" fill="#1A1A1A"/>
</svg>
