<svg width="319" height="520" viewBox="0 0 319 520" fill="none" xmlns="http://www.w3.org/2000/svg">
<path fill-rule="evenodd" clip-rule="evenodd" d="M84.3928 125.729C83.7804 125.842 83.4685 126.032 83.3334 126.182L83.3273 126.189C83.2821 126.238 83.1768 126.387 83.0202 126.697C82.8716 126.992 82.7029 127.378 82.5159 127.856C82.1423 128.812 81.7163 130.08 81.251 131.597C80.3215 134.629 79.2538 138.595 78.1562 142.92C75.9617 151.565 73.6604 161.59 72.1244 168.317L72.1221 168.327L72.1196 168.337C71.7017 170.009 71.3614 171.499 71.0844 172.713L71.0718 172.768C70.8051 173.937 70.5887 174.885 70.42 175.454C69.6759 178.457 67.4325 182.131 65.2026 185.311C63.4882 187.756 61.7086 190.008 60.5005 191.536C60.1242 192.012 59.8033 192.418 59.5571 192.738C58.5761 194.081 56.895 196.618 55.4619 199.613C54.0171 202.633 52.8721 206.022 52.8721 209.085C52.8721 215.751 51.0552 228.543 49.362 238.279C47.6561 248.088 40.3324 275.358 36.9375 286.073C35.3068 291.22 35.3668 297.935 35.9602 304.132C36.3754 308.469 37.0347 312.428 37.5256 315.375C37.7376 316.647 37.9182 317.732 38.0341 318.576L38.0344 318.579C38.4131 321.391 39.1822 335.247 39.7638 349.879C40.3456 364.518 40.7462 380.091 40.3718 386.348C40.008 392.429 40.972 401.659 42.3333 409.999C43.0121 414.158 43.7855 418.07 44.5322 421.225C45.2878 424.419 45.994 426.739 46.5173 427.786C47.2325 429.216 47.3072 430.959 47.0173 432.891C46.7259 434.833 46.0466 437.089 45.1191 439.631C44.0568 442.543 42.6272 445.935 41.014 449.763C39.8282 452.577 38.5431 455.627 37.2318 458.894C34.1248 466.768 25.5522 481.934 17.8064 495.06C13.9236 501.639 10.2335 507.731 7.51412 512.178C6.15438 514.401 5.03719 516.214 4.25981 517.47C4.16622 517.622 4.07754 517.765 3.99397 517.9H141.122C141.148 517.886 141.177 517.87 141.208 517.853C141.411 517.741 141.715 517.57 142.115 517.338C142.915 516.874 144.096 516.164 145.612 515.187C148.643 513.231 153.011 510.206 158.331 505.939C163.581 501.729 173.872 490.347 185.129 476.111C196.365 461.9 208.489 444.94 217.408 429.636C226.339 414.311 234.852 397.364 241.136 384.242C244.277 377.682 246.859 372.081 248.655 368.121C249.554 366.141 250.256 364.571 250.733 363.497C250.771 363.409 250.809 363.326 250.844 363.245H126.972C112.613 363.245 100.972 351.604 100.972 337.245V136.636C100.972 134.743 100.09 132.977 98.603 131.399C97.1135 129.819 95.0675 128.486 92.8983 127.497C90.7303 126.509 88.4982 125.891 86.6752 125.7C85.7623 125.605 84.9882 125.62 84.3928 125.729ZM252.378 362.245C253.295 362.645 253.294 362.645 253.294 362.645L253.294 362.646L253.189 362.887C253.165 362.94 253.138 363.002 253.107 363.073C253.019 363.273 252.9 363.543 252.752 363.877C252.693 364.011 252.629 364.154 252.561 364.308C252.081 365.387 251.377 366.962 250.477 368.947C248.675 372.918 246.087 378.531 242.939 385.105C236.645 398.25 228.105 415.251 219.136 430.643C210.154 446.055 197.97 463.095 186.698 477.351C175.447 491.58 165.03 503.13 159.582 507.499C154.205 511.812 149.781 514.877 146.696 516.867C145.153 517.862 143.945 518.589 143.119 519.068C142.706 519.308 142.389 519.486 142.173 519.604C142.13 519.628 142.091 519.65 142.056 519.669C142.004 519.697 141.961 519.72 141.927 519.739L141.862 519.773L141.845 519.782L141.84 519.785L141.839 519.786C141.838 519.786 141.838 519.786 141.374 518.9L141.838 519.786L141.62 519.9H0.392944L1.3475 518.371L2.19584 518.9C1.3475 518.371 1.3473 518.371 1.3475 518.371L1.34872 518.369L1.35248 518.363L1.66203 517.865C1.86799 517.534 2.171 517.046 2.55891 516.418C3.33474 515.164 4.45013 513.355 5.80789 511.134C8.52356 506.694 12.208 500.611 16.0839 494.043C23.855 480.875 32.3351 465.855 35.3717 458.159L35.3739 458.153C36.721 454.797 38.0175 451.722 39.2041 448.907C40.7949 445.134 42.188 441.83 43.2403 438.945C44.1531 436.443 44.778 434.336 45.0394 432.594C45.3023 430.842 45.1783 429.58 44.7284 428.68C44.0866 427.396 43.3364 424.858 42.586 421.686C41.8266 418.477 41.0443 414.517 40.3594 410.321C38.9933 401.952 37.9978 392.541 38.3754 386.229C38.7425 380.093 38.3486 364.633 37.7654 349.958C37.1819 335.279 36.4153 321.544 36.0525 318.847C35.9477 318.084 35.7766 317.056 35.5721 315.826C35.0789 312.863 34.3912 308.729 33.9693 304.323C33.371 298.075 33.2721 291.02 35.0309 285.469C38.4149 274.788 45.7081 247.616 47.3916 237.936C49.0878 228.183 50.8721 215.554 50.8721 209.085C50.8721 205.582 52.1633 201.874 53.6578 198.75C55.1605 195.609 56.917 192.961 57.9495 191.548L57.9568 191.538L57.9643 191.528C58.2305 191.182 58.5694 190.753 58.962 190.257C60.1706 188.727 61.8886 186.554 63.5651 184.163C65.8043 180.97 67.8445 177.558 68.4836 174.953L68.4896 174.928L68.4969 174.904C68.6436 174.415 68.8462 173.531 69.1286 172.294L69.1355 172.264C69.4117 171.054 69.755 169.55 70.1768 167.862C71.7124 161.137 74.0175 151.096 76.2176 142.428C77.3178 138.093 78.395 134.089 79.3389 131.011C79.8104 129.473 80.2533 128.151 80.6533 127.128C80.8532 126.617 81.0475 126.167 81.2348 125.796C81.4134 125.442 81.6158 125.098 81.8475 124.844C82.4008 124.229 83.2093 123.913 84.0319 123.762C84.873 123.608 85.8499 123.603 86.8833 123.711C88.9529 123.927 91.3945 124.613 93.728 125.677C96.0604 126.741 98.3439 128.208 100.058 130.027C101.775 131.849 102.972 134.081 102.972 136.636V337.245C102.972 350.5 113.717 361.245 126.972 361.245H253.905L253.294 362.645L252.378 362.245Z" fill="#0C121C"/>
<path fill-rule="evenodd" clip-rule="evenodd" d="M141.217 362.618C141.479 362.531 141.762 362.673 141.849 362.935L141.374 363.092L140.9 363.25C140.813 362.987 140.955 362.705 141.217 362.618ZM141.374 363.092C140.9 363.25 140.899 363.249 140.9 363.25L140.902 363.256L140.908 363.275L140.934 363.354C140.957 363.425 140.99 363.53 141.034 363.669C141.122 363.947 141.25 364.36 141.41 364.895C141.73 365.965 142.178 367.524 142.688 369.481C143.707 373.394 144.974 378.892 145.964 385.227C147.946 397.913 148.806 413.891 144.395 427.229C144.308 427.491 144.45 427.774 144.713 427.86C144.975 427.947 145.258 427.805 145.344 427.542C149.831 413.976 148.942 397.808 146.952 385.073C145.956 378.698 144.681 373.167 143.655 369.229C143.142 367.26 142.691 365.688 142.368 364.608C142.207 364.068 142.077 363.651 141.988 363.368C141.943 363.227 141.909 363.119 141.885 363.046L141.858 362.964L141.851 362.943L141.849 362.935C141.849 362.935 141.849 362.935 141.374 363.092Z" fill="#0C121C"/>
<path fill-rule="evenodd" clip-rule="evenodd" d="M101.999 252.649C102.275 252.663 102.486 252.899 102.471 253.175C102.421 254.109 102.363 255.412 102.293 256.987C102.119 260.888 101.871 266.461 101.478 272.247C100.927 280.361 100.086 288.97 98.7484 294.054C98.6782 294.321 98.4047 294.481 98.1376 294.41C97.8706 294.34 97.7111 294.067 97.7814 293.8C99.0914 288.821 99.9281 280.306 100.48 272.179C100.873 266.405 101.119 260.863 101.293 256.964C101.363 255.381 101.422 254.068 101.473 253.121C101.488 252.845 101.723 252.634 101.999 252.649Z" fill="black"/>
<path d="M276.739 25C276.739 11.1929 265.546 0 251.739 0H125.913C112.106 0 100.913 11.1929 100.913 25V338.304C100.913 352.111 112.106 363.304 125.913 363.304H251.739C265.547 363.304 276.739 352.111 276.739 338.304V25Z" fill="white"/>
<path fill-rule="evenodd" clip-rule="evenodd" d="M251.739 0C265.546 0 276.739 11.1929 276.739 25V338.304C276.739 352.111 265.547 363.304 251.739 363.304H125.913C112.106 363.304 100.913 352.111 100.913 338.304V25C100.913 11.1929 112.106 0 125.913 0H251.739Z" fill="#00B4A6"/>
<path fill-rule="evenodd" clip-rule="evenodd" d="M110.387 335.771V26.4736C110.387 17.0847 117.998 9.47357 127.387 9.47357H142.458C144.115 9.47357 145.458 10.8167 145.458 12.4736V14.1839C145.458 18.6022 149.04 22.1839 153.458 22.1839H224.194C228.612 22.1839 232.194 18.6022 232.194 14.1839V12.4736C232.194 10.8167 233.537 9.47357 235.194 9.47357H250.266C259.655 9.47357 267.266 17.0847 267.266 26.4736V335.771C267.266 345.16 259.655 352.771 250.266 352.771H127.387C117.998 352.771 110.387 345.16 110.387 335.771ZM109.387 26.4736V335.771C109.387 345.713 117.445 353.771 127.387 353.771H250.266C260.207 353.771 268.266 345.713 268.266 335.771V26.4736C268.266 16.5324 260.207 8.47357 250.266 8.47357H235.194C232.985 8.47357 231.194 10.2644 231.194 12.4736V14.1839C231.194 18.0499 228.06 21.1839 224.194 21.1839H153.458C149.592 21.1839 146.458 18.0499 146.458 14.1839V12.4736C146.458 10.2644 144.667 8.47357 142.458 8.47357H127.387C117.445 8.47357 109.387 16.5324 109.387 26.4736Z" fill="black"/>
<path d="M275.68 134.518C275.68 134.518 299.618 134.518 306.291 138.119C313.07 141.72 317.201 144.898 317.201 148.499C317.201 152.101 319.743 165.023 292.31 174.344L283.995 176.674C283.995 176.674 293.051 178.898 296.758 183.453C300.465 187.901 303.219 190.655 303.749 197.54C303.749 202.73 304.914 225.503 303.219 229.316L306.926 234.082C310.422 238.743 311.163 250.076 310.104 255.796C309.617 258.476 307.605 264.833 305.44 271.154C305.44 271.154 307.986 274.332 310.422 278.251C312.858 282.17 314.447 288.313 312.752 295.092C311.057 301.871 305.973 312.251 300.889 319.559C295.699 326.762 292.521 329.728 289.132 330.045C286.378 330.363 278.222 326.126 273.774 321.89C270.384 318.818 269.643 316.276 272.079 310.133C273.252 307.224 274.425 304.191 275.68 301.346V281.885C272.401 277.37 271.648 271.084 273.244 264.799C273.75 262.818 274.591 260.335 275.68 257.769V227.727V203.366V179.004V134.518Z" fill="white"/>
<path fill-rule="evenodd" clip-rule="evenodd" d="M275.68 133.518L275.68 134.518C275.68 133.518 275.68 133.518 275.68 133.518L275.751 133.518C275.798 133.518 275.866 133.518 275.956 133.519C276.134 133.52 276.397 133.521 276.732 133.525C277.404 133.532 278.369 133.546 279.549 133.574C281.906 133.631 285.122 133.744 288.549 133.97C291.973 134.196 295.625 134.536 298.85 135.05C302.037 135.557 304.932 136.25 306.763 137.238C310.168 139.047 312.984 140.787 314.957 142.566C316.925 144.34 318.201 146.284 318.201 148.499C318.201 148.72 318.212 148.988 318.225 149.299C318.313 151.366 318.48 155.315 315.909 159.776C312.95 164.909 306.477 170.586 292.631 175.29L292.606 175.299L287.525 176.723C288.098 176.928 288.72 177.164 289.368 177.431C292.121 178.567 295.51 180.338 297.53 182.817C297.805 183.147 298.078 183.471 298.346 183.79C299.85 185.576 301.231 187.217 302.311 189.082C303.609 191.326 304.47 193.882 304.746 197.463L304.749 197.502V197.54C304.749 198.704 304.806 200.708 304.877 203.182C304.965 206.273 305.075 210.098 305.12 213.933C305.159 217.348 305.146 220.737 305.016 223.519C304.951 224.909 304.856 226.162 304.72 227.198C304.626 227.921 304.506 228.587 304.345 229.134L307.721 233.475L307.726 233.482C309.641 236.035 310.722 240.259 311.216 244.424C311.714 248.625 311.64 252.992 311.088 255.975C310.598 258.67 308.653 264.834 306.562 270.964C306.595 271.007 306.631 271.053 306.668 271.102C306.949 271.466 307.348 271.992 307.824 272.642C308.775 273.939 310.036 275.735 311.271 277.723C313.84 281.855 315.487 288.275 313.722 295.335C311.99 302.263 306.842 312.754 301.71 320.13L301.705 320.137L301.7 320.144C299.097 323.757 296.954 326.371 295.005 328.127C293.046 329.891 291.213 330.852 289.235 331.04C288.311 331.143 287.109 330.871 285.872 330.447C284.589 330.007 283.124 329.351 281.622 328.56C278.63 326.983 275.401 324.818 273.093 322.622C271.335 321.028 270.115 319.438 269.756 317.331C269.404 315.265 269.913 312.881 271.149 309.764L271.151 309.759C271.429 309.069 271.708 308.37 271.989 307.666C272.86 305.486 273.748 303.259 274.68 301.135V282.204C271.346 277.412 270.657 270.925 272.275 264.553L272.275 264.552C272.783 262.564 273.613 260.105 274.68 257.566V133.518L275.68 133.518ZM276.68 253.3C278.025 250.722 279.587 248.26 281.287 246.341L281.307 246.319L281.328 246.297L282.035 247.004C281.328 246.297 281.328 246.298 281.328 246.297L281.329 246.297L281.33 246.295L281.333 246.293L281.34 246.286L281.361 246.265C281.378 246.249 281.402 246.226 281.432 246.198C281.492 246.143 281.577 246.067 281.683 245.978C281.893 245.802 282.194 245.569 282.556 245.346C283.237 244.926 284.337 244.411 285.515 244.647L285.123 246.608C284.712 246.526 284.17 246.7 283.606 247.048C283.347 247.208 283.125 247.379 282.967 247.511C282.889 247.576 282.829 247.631 282.79 247.666C282.777 247.678 282.767 247.688 282.759 247.696C280.384 250.386 278.225 254.333 276.601 258.16C275.528 260.686 274.705 263.121 274.213 265.045C272.669 271.124 273.429 277.083 276.489 281.297C276.674 281.552 276.868 281.8 277.07 282.042C281.14 286.528 285.093 289.624 290.186 290.724C293.051 291.316 294.772 290.823 295.917 290.042C297.115 289.225 297.837 287.999 298.536 286.762C298.859 286.19 299.701 284.111 300.813 281.142C301.907 278.218 303.227 274.531 304.494 270.83C306.667 264.486 308.649 258.207 309.12 255.617L309.121 255.614C309.628 252.877 309.712 248.719 309.23 244.66C308.745 240.568 307.71 236.798 306.132 234.689L303.356 231.12C302.322 232.631 300.776 233.827 298.597 234.519C295.827 235.399 292.088 235.45 287.129 234.426L287.117 234.424C282.196 233.342 279.16 231.868 277.328 230.619C277.092 230.458 276.877 230.301 276.68 230.15V253.3ZM276.68 227.411C276.731 227.475 276.798 227.555 276.883 227.648C277.169 227.96 277.663 228.426 278.455 228.966C280.038 230.047 282.826 231.432 287.54 232.469C292.323 233.456 295.678 233.348 297.991 232.613C300.26 231.892 301.574 230.555 302.305 228.91C302.454 228.575 302.608 227.926 302.737 226.939C302.862 225.98 302.954 224.788 303.018 223.425C303.146 220.702 303.159 217.359 303.12 213.956C303.076 210.225 302.967 206.378 302.878 203.252C302.808 200.764 302.75 198.733 302.749 197.579C302.492 194.296 301.713 192.042 300.58 190.084C299.596 188.383 298.344 186.895 296.839 185.105C296.564 184.779 296.281 184.442 295.99 184.093L295.983 184.084C294.295 182.011 291.304 180.394 288.605 179.28C287.276 178.732 286.059 178.321 285.173 178.048C284.731 177.912 284.373 177.81 284.127 177.743C284.083 177.731 284.042 177.72 284.005 177.71L276.68 179.762V227.411ZM276.68 177.685L292.014 173.388C305.583 168.773 311.55 163.333 314.176 158.777C316.437 154.855 316.307 151.49 316.226 149.41C316.213 149.071 316.201 148.767 316.201 148.499C316.201 147.113 315.411 145.668 313.618 144.052C311.833 142.442 309.194 140.794 305.822 139.002L305.816 138.999C304.31 138.186 301.712 137.53 298.536 137.025C295.396 136.525 291.812 136.19 288.417 135.966C285.026 135.742 281.84 135.63 279.501 135.574C278.332 135.546 277.375 135.532 276.711 135.525C276.701 135.525 276.69 135.525 276.68 135.525V177.685ZM276.68 284.558C280.527 288.577 284.566 291.558 289.768 292.68L289.777 292.682C293.052 293.359 295.356 292.846 297.044 291.694C298.673 290.583 299.593 288.955 300.271 287.757L300.277 287.746C300.697 287.003 301.601 284.74 302.686 281.843C303.613 279.366 304.699 276.349 305.779 273.24C305.914 273.42 306.058 273.615 306.211 273.824C307.142 275.095 308.372 276.847 309.573 278.779C311.876 282.484 313.406 288.352 311.782 294.849C310.125 301.476 305.108 311.741 300.073 318.981C297.489 322.567 295.449 325.035 293.666 326.641C291.894 328.237 290.446 328.918 289.039 329.05L289.028 329.051L289.017 329.052C288.566 329.104 287.721 328.967 286.52 328.555C285.361 328.157 283.992 327.549 282.555 326.791C279.672 325.272 276.603 323.204 274.463 321.165L274.454 321.157L274.445 321.149C272.818 319.674 271.977 318.459 271.727 316.995C271.471 315.487 271.808 313.529 273.008 310.504C273.291 309.8 273.574 309.092 273.857 308.383C274.751 306.144 275.648 303.895 276.595 301.749C278.167 298.188 279.83 295.019 281.738 292.774L280.214 291.479C278.918 293.003 277.754 294.875 276.68 296.928V284.558Z" fill="#0C121C"/>
<path fill-rule="evenodd" clip-rule="evenodd" d="M92.0156 129.328C90.7096 127.244 88.8568 126.07 87.1119 125.572L87.3866 124.61C89.3489 125.171 91.4152 126.487 92.863 128.798C94.3118 131.11 95.1172 134.379 94.631 138.809C94.467 140.313 93.8864 142.713 93.0954 145.476C92.3014 148.25 91.2858 151.423 90.2379 154.487C89.1901 157.551 88.1084 160.511 87.1814 162.859C86.7181 164.034 86.2921 165.058 85.9273 165.869C85.568 166.667 85.2533 167.291 85.0117 167.638C84.0422 169.032 82.2467 169.642 80.5425 169.938C79.1636 170.176 77.7341 170.225 76.6647 170.261C76.3986 170.27 76.1548 170.278 75.9397 170.289L75.9169 170.29L71.0219 170.077L71.0653 169.078L75.915 169.289C76.1446 169.278 76.396 169.269 76.6642 169.26C77.7324 169.224 79.069 169.178 80.3718 168.952C82.0306 168.665 83.4656 168.11 84.1908 167.067C84.3729 166.806 84.654 166.261 85.0154 165.458C85.3714 164.668 85.7911 163.658 86.2513 162.492C87.1713 160.161 88.2477 157.216 89.2918 154.163C90.3358 151.11 91.3459 147.954 92.1341 145.201C92.9253 142.436 93.4832 140.11 93.637 138.7C94.1041 134.445 93.3208 131.412 92.0156 129.328Z" fill="#0C121C"/>
<path fill-rule="evenodd" clip-rule="evenodd" d="M295.218 298.266C296.935 299.286 299.023 300.816 300.316 302.818C301.632 304.855 302.115 307.378 300.589 310.261L300.589 310.262C299.726 311.879 298.2 314.154 296.67 316.423C296.608 316.514 296.546 316.606 296.485 316.697C295.006 318.89 293.543 321.058 292.639 322.664L292.638 322.667C291.231 325.129 288.054 325.967 285.684 324.429C285.683 324.428 285.683 324.428 285.682 324.427L277.849 319.453C277.849 319.452 277.849 319.453 277.849 319.453C275.626 318.048 274.79 315.22 276.089 312.857L276.091 312.855C277.364 310.573 279.274 307.257 281.027 304.403C281.902 302.976 282.742 301.66 283.445 300.645C283.796 300.137 284.117 299.699 284.393 299.358C284.656 299.034 284.914 298.752 285.141 298.599C286.121 297.909 287.738 297.277 289.542 297.084C291.354 296.89 293.405 297.135 295.218 298.266ZM289.648 298.078C287.986 298.256 286.534 298.84 285.713 299.419L285.702 299.427C285.613 299.486 285.436 299.659 285.17 299.988C284.916 300.301 284.611 300.716 284.267 301.214C283.579 302.207 282.751 303.506 281.879 304.926C280.136 307.765 278.234 311.068 276.965 313.341C275.935 315.214 276.582 317.47 278.383 318.607L278.384 318.608L286.227 323.589C288.094 324.802 290.634 324.157 291.769 322.172C292.693 320.53 294.175 318.333 295.641 316.159C295.708 316.061 295.774 315.962 295.841 315.864C297.382 313.578 298.874 311.353 299.706 309.792C301.039 307.273 300.623 305.136 299.476 303.36C298.307 301.55 296.374 300.116 294.702 299.123L294.692 299.117C293.117 298.132 291.304 297.901 289.648 298.078Z" fill="#0C121C"/>
<path fill-rule="evenodd" clip-rule="evenodd" d="M290.301 251.499C292.616 250.884 295.85 251.712 300.537 254.961C303.961 257.318 304.727 260.881 304.659 263.778C304.625 265.228 304.383 266.53 304.15 267.468C304.033 267.938 303.918 268.318 303.832 268.583C303.789 268.715 303.753 268.819 303.728 268.89C303.715 268.926 303.705 268.954 303.697 268.973L303.689 268.995L303.687 269.002L303.686 269.004C303.686 269.004 303.685 269.005 303.219 268.824C303.684 269.01 303.683 269.01 303.683 269.01L303.516 269.427C303.408 269.696 303.252 270.083 303.059 270.56C302.673 271.514 302.14 272.826 301.55 274.257C300.372 277.115 298.965 280.463 298.058 282.382C297.181 284.259 294.834 284.854 293.121 283.875L293.117 283.873C292.078 283.267 290.69 282.381 288.965 281.28C288.561 281.023 288.139 280.753 287.698 280.473L287.691 280.468C282.924 277.308 281.016 274.574 280.375 272.282C279.883 270.521 280.168 269.023 280.359 268.016C280.412 267.734 280.459 267.491 280.479 267.291L280.479 267.289C280.512 266.97 280.638 266.557 280.805 266.11C280.977 265.652 281.206 265.119 281.472 264.544C282.004 263.395 282.691 262.058 283.368 260.79C284.046 259.521 284.717 258.316 285.218 257.428C285.468 256.985 285.677 256.62 285.822 256.366C285.895 256.239 285.952 256.14 285.992 256.072L286.033 256C286.786 254.129 287.979 252.117 290.301 251.499ZM286.916 256.471L286.901 256.496L286.857 256.572C286.819 256.639 286.762 256.738 286.69 256.864C286.545 257.116 286.338 257.478 286.089 257.92C285.59 258.803 284.923 260.001 284.251 261.261C283.577 262.522 282.9 263.84 282.38 264.964C282.12 265.527 281.901 266.035 281.742 266.46C281.579 266.896 281.493 267.208 281.474 267.392C281.443 267.693 281.385 268.006 281.323 268.339C281.136 269.336 280.917 270.505 281.339 272.013C281.889 273.983 283.582 276.544 288.239 279.632C288.683 279.915 289.107 280.185 289.512 280.443C291.234 281.542 292.599 282.413 293.619 283.008C294.871 283.722 296.546 283.258 297.152 281.958L297.153 281.956C298.047 280.063 299.446 276.738 300.625 273.876C301.214 272.448 301.746 271.138 302.132 270.185C302.324 269.709 302.48 269.322 302.588 269.054L302.752 268.645L302.753 268.643L302.754 268.64L302.761 268.623C302.766 268.608 302.775 268.584 302.786 268.553C302.809 268.49 302.842 268.396 302.881 268.274C302.961 268.029 303.069 267.671 303.179 267.227C303.4 266.338 303.627 265.111 303.659 263.754C303.724 261.037 303.007 257.875 299.97 255.784L299.969 255.783C295.336 252.571 292.427 251.969 290.558 252.466C288.711 252.957 287.679 254.579 286.948 256.405L286.935 256.439L286.916 256.471ZM303.219 268.824L303.683 269.01L303.685 269.005L303.219 268.824Z" fill="#0C121C"/>
<path fill-rule="evenodd" clip-rule="evenodd" d="M295.658 198.183C300.736 201.497 301.915 207.433 302.34 211.681C302.662 214.582 302.554 220.651 302.448 224.24C302.441 225.497 300.785 225.883 300.23 224.773C299.717 223.747 298.995 222.611 298.168 221.578C297.674 220.96 296.547 219.925 295.089 218.677C293.672 217.464 291.982 216.082 290.342 214.741L290.245 214.662C288.579 213.3 286.971 211.984 285.779 210.949C285.184 210.432 284.684 209.977 284.33 209.618C284.154 209.439 284.003 209.273 283.893 209.128C283.839 209.056 283.786 208.978 283.745 208.897C283.709 208.828 283.654 208.704 283.654 208.556C283.654 207.549 284.192 202.953 285.148 198.494C285.415 197.248 286.067 196.439 286.978 196.016C287.859 195.606 288.915 195.589 289.956 195.763C292.036 196.109 294.299 197.259 295.658 198.183ZM287.4 196.923C286.808 197.198 286.335 197.726 286.126 198.704C285.2 203.022 284.682 207.411 284.655 208.474C284.664 208.488 284.676 208.504 284.691 208.525C284.762 208.619 284.878 208.749 285.042 208.916C285.368 209.247 285.845 209.681 286.435 210.194C287.613 211.217 289.208 212.523 290.878 213.888L290.98 213.971C292.616 215.308 294.314 216.697 295.74 217.917C297.181 219.151 298.385 220.248 298.949 220.954C299.818 222.039 300.579 223.234 301.124 224.326C301.152 224.38 301.183 224.402 301.208 224.413C301.238 224.426 301.276 224.43 301.316 224.421C301.356 224.411 301.388 224.39 301.409 224.365C301.427 224.344 301.448 224.305 301.448 224.232V224.224L301.448 224.217C301.555 220.604 301.658 214.606 301.345 211.788L301.345 211.783L301.345 211.783C300.922 207.558 299.771 202.059 295.108 199.018L295.1 199.013L295.1 199.013C293.811 198.136 291.681 197.064 289.791 196.749C288.846 196.591 288.022 196.634 287.4 196.923ZM284.634 208.44C284.63 208.433 284.631 208.433 284.634 208.44Z" fill="#0C121C"/>
<path d="M99.8537 50.7822C99.8537 50.2299 100.301 49.7822 100.854 49.7822H103.031V63.5517H100.854C100.301 63.5517 99.8537 63.104 99.8537 62.5517V50.7822Z" fill="white"/>
<path fill-rule="evenodd" clip-rule="evenodd" d="M103.031 49.7822H100.854C100.301 49.7822 99.8537 50.2299 99.8537 50.7822V62.5517C99.8537 63.104 100.301 63.5517 100.854 63.5517H103.031V49.7822ZM102.031 62.5517H100.854L100.854 50.7822L102.031 50.7822V62.5517Z" fill="black"/>
<path d="M99.8537 77.2621C99.8537 76.7098 100.301 76.2621 100.854 76.2621H103.031V101.683H100.854C100.301 101.683 99.8537 101.235 99.8537 100.683V77.2621Z" fill="white"/>
<path fill-rule="evenodd" clip-rule="evenodd" d="M103.031 76.2621H100.854C100.301 76.2621 99.8537 76.7098 99.8537 77.2621V100.683C99.8537 101.235 100.301 101.683 100.854 101.683H103.031V76.2621ZM102.031 100.683H100.854L100.854 77.2621H102.031V100.683Z" fill="black"/>
<path d="M274.621 83.6765H276.799C277.351 83.6765 277.799 84.1242 277.799 84.6765V126.103C277.799 126.656 277.351 127.103 276.799 127.103H274.621V83.6765Z" fill="white"/>
<path fill-rule="evenodd" clip-rule="evenodd" d="M275.621 84.6765H276.799L276.799 126.103H275.621V84.6765ZM276.799 83.6765C277.351 83.6765 277.799 84.1242 277.799 84.6765V126.103C277.799 126.656 277.351 127.103 276.799 127.103H274.621V83.6765H276.799Z" fill="black"/>
<path d="M99.8537 110.097C99.8537 109.545 100.301 109.097 100.854 109.097H103.031V134.518L100.094 131.092C99.9391 130.91 99.8537 130.679 99.8537 130.441V110.097Z" fill="white"/>
<path fill-rule="evenodd" clip-rule="evenodd" d="M103.031 109.097H100.854C100.301 109.097 99.8537 109.545 99.8537 110.097V130.441C99.8537 130.679 99.9391 130.91 100.094 131.092L103.031 134.518V109.097ZM102.031 131.815L100.854 130.441L100.854 110.097L102.031 110.097V131.815Z" fill="black"/>
<path fill-rule="evenodd" clip-rule="evenodd" d="M198.477 10.5328H179.175C178.623 10.5328 178.175 10.9805 178.175 11.5328V11.7696C178.175 12.3218 178.623 12.7696 179.175 12.7696H198.477C199.03 12.7696 199.477 12.3218 199.477 11.7696V11.5328C199.477 10.9805 199.03 10.5328 198.477 10.5328ZM179.175 9.53278C178.07 9.53278 177.175 10.4282 177.175 11.5328V11.7696C177.175 12.8741 178.07 13.7696 179.175 13.7696H198.477C199.582 13.7696 200.477 12.8741 200.477 11.7696V11.5328C200.477 10.4282 199.582 9.53278 198.477 9.53278H179.175Z" fill="black"/>
<path fill-rule="evenodd" clip-rule="evenodd" d="M207.892 12.7696C208.509 12.7696 209.01 12.2688 209.01 11.6512C209.01 11.0335 208.509 10.5328 207.892 10.5328C207.274 10.5328 206.773 11.0335 206.773 11.6512C206.773 12.2688 207.274 12.7696 207.892 12.7696ZM207.892 13.7696C209.062 13.7696 210.01 12.8211 210.01 11.6512C210.01 10.4812 209.062 9.53278 207.892 9.53278C206.722 9.53278 205.773 10.4812 205.773 11.6512C205.773 12.8211 206.722 13.7696 207.892 13.7696Z" fill="black"/>
</svg>
