<svg width="80" height="80" viewBox="0 0 80 80" fill="none" xmlns="http://www.w3.org/2000/svg">
<g clip-path="url(#clip0_192_3350)">
<path d="M0 4C0 1.79086 1.79086 0 4 0H38.6267C39.8995 0 41.0963 0.605744 41.85 1.6314L49.89 12.5727C50.3946 13.2593 50.6667 14.0892 50.6667 14.9413V60C50.6667 62.2091 48.8758 64 46.6667 64H4C1.79086 64 0 62.2091 0 60V4Z" fill="#00B4A6"/>
<path d="M67.7736 25.2582L67.7736 25.2583L67.7799 25.2599L68.8333 25.5316V41.3188C68.8333 54.1268 62.4934 62.9458 56.0934 68.5798C52.8924 71.3978 49.6815 73.4135 47.2547 74.7243C46.0417 75.3794 45.0264 75.8575 44.3088 76.1708C43.9498 76.3275 43.6665 76.4425 43.4712 76.5175C43.3731 76.5552 43.2994 76.5819 43.2507 76.5986C43.2487 76.5993 43.2467 76.5999 43.2448 76.6006H43.2272L43.1452 76.6301L42.6667 76.802L42.1933 76.6319C42.193 76.6318 42.1926 76.6316 42.1922 76.6315C41.9009 76.5195 35.5582 74.0805 29.2467 68.5359C22.8442 62.9113 16.5 54.1166 16.5 41.3188V25.5316L17.5535 25.2599L17.5535 25.2599L17.5588 25.2585C21.9064 24.086 26.1544 22.5595 30.2616 20.6939C34.2949 18.9122 38.1884 16.8192 41.9081 14.4329L41.9081 14.433L41.9135 14.4294L42.6731 13.9281L43.4443 14.4136C43.4449 14.414 43.4456 14.4144 43.4462 14.4148C47.1651 16.8004 51.0579 18.893 55.0904 20.6743C59.1907 22.5455 63.4321 24.0785 67.7736 25.2582Z" stroke="#1A1A1A"/>
</g>
<defs>
<clipPath id="clip0_192_3350">
<rect width="80" height="80" fill="white"/>
</clipPath>
</defs>
</svg>
