<svg width="25" height="24" viewBox="0 0 25 24" fill="none" xmlns="http://www.w3.org/2000/svg">
<path fill-rule="evenodd" clip-rule="evenodd" d="M7.75541 1.066C8.92841 1.012 9.30241 1 12.2904 1C15.2784 1 15.6524 1.013 16.8244 1.066C17.9964 1.119 18.7964 1.306 19.4964 1.577C20.2294 1.854 20.8944 2.287 21.4444 2.847C22.0044 3.396 22.4364 4.06 22.7124 4.794C22.9844 5.494 23.1704 6.294 23.2244 7.464C23.2784 8.639 23.2904 9.013 23.2904 12C23.2904 14.988 23.2774 15.362 23.2244 16.535C23.1714 17.705 22.9844 18.505 22.7124 19.205C22.4364 19.9391 22.0037 20.6042 21.4444 21.154C20.8944 21.714 20.2294 22.146 19.4964 22.422C18.7964 22.694 17.9964 22.88 16.8264 22.934C15.6524 22.988 15.2784 23 12.2904 23C9.30241 23 8.92841 22.987 7.75541 22.934C6.58541 22.881 5.78541 22.694 5.08541 22.422C4.35133 22.146 3.68623 21.7133 3.13641 21.154C2.57679 20.6047 2.14372 19.9399 1.86741 19.206C1.59641 18.506 1.41041 17.706 1.35641 16.536C1.30241 15.361 1.29041 14.987 1.29041 12C1.29041 9.012 1.30341 8.638 1.35641 7.466C1.40941 6.294 1.59641 5.494 1.86741 4.794C2.14413 4.06008 2.57752 3.39531 3.13741 2.846C3.68645 2.2865 4.35088 1.85344 5.08441 1.577C5.78441 1.306 6.58441 1.12 7.75441 1.066H7.75541ZM16.7354 3.046C15.5754 2.993 15.2274 2.982 12.2904 2.982C9.35341 2.982 9.00541 2.993 7.84541 3.046C6.77241 3.095 6.19041 3.274 5.80241 3.425C5.28941 3.625 4.92241 3.862 4.53741 4.247C4.17245 4.60205 3.89159 5.03428 3.71541 5.512C3.56441 5.9 3.38541 6.482 3.33641 7.555C3.28341 8.715 3.27241 9.063 3.27241 12C3.27241 14.937 3.28341 15.285 3.33641 16.445C3.38541 17.518 3.56441 18.1 3.71541 18.488C3.89141 18.965 4.17241 19.398 4.53741 19.753C4.89241 20.118 5.32541 20.399 5.80241 20.575C6.19041 20.726 6.77241 20.905 7.84541 20.954C9.00541 21.007 9.35241 21.018 12.2904 21.018C15.2284 21.018 15.5754 21.007 16.7354 20.954C17.8084 20.905 18.3904 20.726 18.7784 20.575C19.2914 20.375 19.6584 20.138 20.0434 19.753C20.4084 19.398 20.6894 18.965 20.8654 18.488C21.0164 18.1 21.1954 17.518 21.2444 16.445C21.2974 15.285 21.3084 14.937 21.3084 12C21.3084 9.063 21.2974 8.715 21.2444 7.555C21.1954 6.482 21.0164 5.9 20.8654 5.512C20.6654 4.999 20.4284 4.632 20.0434 4.247C19.6883 3.88207 19.2561 3.60121 18.7784 3.425C18.3904 3.274 17.8084 3.095 16.7354 3.046ZM10.8854 15.391C11.6701 15.7176 12.5438 15.7617 13.3573 15.5157C14.1709 15.2697 14.8738 14.7489 15.346 14.0422C15.8182 13.3356 16.0305 12.4869 15.9465 11.6411C15.8624 10.7953 15.4874 10.005 14.8854 9.405C14.5016 9.02148 14.0376 8.72781 13.5267 8.54515C13.0159 8.36248 12.4708 8.29536 11.9309 8.34862C11.391 8.40187 10.8696 8.57418 10.4042 8.85313C9.93886 9.13208 9.54115 9.51075 9.23971 9.96185C8.93827 10.413 8.74059 10.9253 8.66092 11.462C8.58125 11.9986 8.62156 12.5463 8.77895 13.0655C8.93633 13.5847 9.20689 14.0626 9.57113 14.4647C9.93537 14.8668 10.3842 15.1832 10.8854 15.391ZM8.29241 8.002C8.81743 7.47698 9.44073 7.0605 10.1267 6.77636C10.8127 6.49222 11.5479 6.34597 12.2904 6.34597C13.0329 6.34597 13.7681 6.49222 14.4541 6.77636C15.1401 7.0605 15.7634 7.47698 16.2884 8.002C16.8134 8.52703 17.2299 9.15032 17.514 9.8363C17.7982 10.5223 17.9444 11.2575 17.9444 12C17.9444 12.7425 17.7982 13.4777 17.514 14.1637C17.2299 14.8497 16.8134 15.473 16.2884 15.998C15.2281 17.0583 13.7899 17.654 12.2904 17.654C10.7909 17.654 9.35274 17.0583 8.29241 15.998C7.23207 14.9377 6.63638 13.4995 6.63638 12C6.63638 10.5005 7.23207 9.06234 8.29241 8.002ZM19.1984 7.188C19.3285 7.06527 19.4327 6.91768 19.5047 6.75397C19.5768 6.59027 19.6152 6.41377 19.6178 6.23493C19.6204 6.05609 19.5871 5.87855 19.5199 5.71281C19.4527 5.54707 19.3528 5.39651 19.2264 5.27004C19.0999 5.14357 18.9493 5.04376 18.7836 4.97652C18.6179 4.90928 18.4403 4.87598 18.2615 4.87858C18.0826 4.88119 17.9061 4.91965 17.7424 4.9917C17.5787 5.06374 17.4311 5.1679 17.3084 5.298C17.0697 5.55103 16.939 5.88712 16.9441 6.23493C16.9492 6.58274 17.0896 6.91488 17.3356 7.16084C17.5815 7.40681 17.9137 7.54723 18.2615 7.5523C18.6093 7.55737 18.9454 7.42669 19.1984 7.188Z" fill="#6F7D7C"/>
</svg>
