<svg width="324" height="358" viewBox="0 0 324 358" fill="none" xmlns="http://www.w3.org/2000/svg">
<path d="M206.389 152.516C201.283 159.154 196.126 175.341 216.347 186.983C230.644 203.834 266.44 241.366 295.24 256.685C324.039 272.004 323.069 290.131 318.984 297.28" stroke="#434343"/>
<path d="M283.75 168.601C279.665 174.473 270.729 188.515 267.665 197.707C264.602 206.898 258.729 217.877 256.176 222.217L254.644 226.813" stroke="#434343"/>
<path d="M220.941 134.898V151.749C217.877 160.43 210.83 177.945 207.154 178.557" stroke="#434343"/>
<path d="M106.811 223.748C101.45 232.684 89.3477 251.935 83.8329 257.45C78.318 262.965 77.45 267.407 77.7053 268.939C74.6413 273.535 67.4411 282.726 63.1518 282.726C58.8624 282.726 58.8114 283.748 59.322 284.258M98.3866 239.067C100.429 258.982 103.595 300.037 99.9185 304.939" stroke="#434343"/>
<path d="M147.411 304.941C155.07 302.898 169.776 301.571 167.325 312.6V320.259" stroke="#434343"/>
<path d="M165.027 134.133C167.58 135.665 173.605 138.729 177.282 138.729C181.878 138.729 194.133 144.857 198.729 140.261" stroke="#434343"/>
<path d="M178.046 113.453C178.046 115.495 177.586 119.58 175.748 119.58C173.91 119.58 173.961 121.623 174.216 122.644C175.493 122.389 178.046 122.338 178.046 124.176C178.046 126.474 184.173 130.303 187.236 126.474C189.687 123.41 191.322 124.176 191.832 124.942C192.853 124.686 194.59 123.716 193.364 121.878C192.139 120.04 190.811 115.495 190.3 113.453" stroke="#434343"/>
<path d="M114.476 285.026L132.092 304.175M114.476 285.026C114.476 278.899 120.092 278.899 122.9 279.664M114.476 285.026L103.751 262.048M132.092 304.175H124.433L112.944 309.537C108.348 309.026 98.5438 307.239 96.0927 304.175C88.4333 302.898 67.7526 294.677 46.3061 272.005C42.221 270.473 33.5913 267.869 31.753 269.707C30.2198 271.241 8.22524 272.092 2.40462 282.728M132.092 304.175L151.24 309.537M148.942 350.898C150.78 352.736 145.112 354.727 142.048 355.493H124.433C114.63 359.17 105.539 352.43 102.219 348.6L88.4319 338.643C72.0921 339.664 33.5913 334.813 10.3065 307.239C0.621515 295.77 -0.498016 288.032 2.40462 282.728M148.942 350.898L127.495 344.77M148.942 350.898C152.516 350.387 159.052 348.447 156.601 344.77M156.601 344.77C154.15 341.094 138.219 335.579 130.559 333.281M156.601 344.77C160.14 344.107 165.938 341.719 164.64 337.11M151.24 309.537C157.367 312.6 169.622 320.413 169.622 327.153C169.622 328.116 169.466 328.871 169.188 329.451M151.24 309.537L122.9 279.664M122.9 279.664L103.751 262.048M103.751 262.048C105.027 257.963 109.419 250.252 116.772 252.09L120.602 255.92M103.751 262.048C98.6441 262.558 89.1967 265.724 92.2616 274.303L94.5595 278.132M120.602 255.92V259.75L124.433 255.92H120.602ZM94.5595 278.132V282.728L98.3892 278.132H94.5595ZM169.188 329.451C167.514 332.935 161.416 330.108 158.133 327.919L147.41 319.494L132.092 318.728L148.942 325.621C152.006 326.132 159.206 328.685 163.495 334.813C164.069 335.633 164.439 336.398 164.64 337.11M169.188 329.451L174.218 334.813M174.218 334.813C172.541 335.068 169.188 336.497 169.188 340.174M174.218 334.813L177.282 340.557M169.188 340.174L164.64 337.11M169.188 340.174L174.767 343.238M174.767 343.238L180.346 346.302L177.282 340.557M174.767 343.238L177.282 340.557M2.40462 282.728C0.697729 274.558 3.10516 254.541 26.39 239.835L31.753 221.452C34.3057 217.367 40.3303 209.35 44.0068 209.963C47.6834 210.576 46.0494 200.516 44.7728 195.41L56.262 169.367L60.8577 170.899C62.1343 165.282 68.9768 150.678 86.134 137.197V132.602L127.495 128.006C128.006 126.729 129.64 124.176 132.091 124.176C134.542 124.176 143.325 121.112 147.41 119.581M147.41 119.581C147.41 117.283 147.257 111.155 146.644 105.028M147.41 119.581C146.554 123.87 151.649 138.219 154.303 144.857M146.644 105.028C144.601 102.985 140.67 98.2872 141.282 95.8361C142.048 92.7723 141.282 88.9426 141.282 85.1128C141.282 82.049 140.772 76.1768 140.516 73.6236C141.027 70.8151 142.967 66.2705 146.644 70.5598M146.644 105.028C146.07 103.831 145.851 99.8697 145.834 94.8773M146.644 70.5598C146.133 65.1981 145.725 52.7895 148.176 46.0491C150.627 39.3088 148.687 37.1131 147.41 36.8578L160.431 23.0707C157.878 22.3047 153.538 20.3133 156.601 18.475C156.601 18.9856 157.367 20.1601 160.431 20.7728C163.495 21.3856 164.771 16.4325 165.027 13.8793L176.516 10.8155C180.09 10.5602 186.78 9.2836 184.941 6.2198C183.103 3.156 180.09 1.87942 178.814 1.62411C181.622 0.602841 188.158 0.0922088 191.835 6.2198C195.512 12.3474 205.622 11.8368 210.218 10.8155L224.771 18.475H234.728C232.43 19.7516 228.754 22.7644 232.43 24.6027C236.107 26.441 238.047 29.4537 238.558 30.7303L246.217 40.6876C247.494 41.7089 250.047 42.6791 250.047 38.3898L246.217 56.0066L238.558 83.5807L236.26 88.1764M146.644 70.5598C146.393 74.7453 146.101 80.7747 145.945 86.6445M236.26 88.1764C239.579 84.602 245.911 80.0574 244.685 90.4743C243.46 100.891 236.515 112.176 233.196 116.517C230.643 117.283 226.15 117.895 228.601 114.219M236.26 88.1764L234.683 93.5381M228.601 114.219L226.303 121.878M228.601 114.219L234.683 93.5381M226.303 121.878C234.728 121.878 252.958 123.41 258.473 129.538L290.642 137.197C292.685 136.431 297.23 135.818 299.068 139.495C300.906 143.172 299.834 149.197 299.068 151.75C302.387 156.091 309.025 166.303 309.025 172.431C309.025 180.09 315.153 192.346 312.855 203.835C314.897 202.813 318.523 202.916 316.685 211.494C314.846 220.073 312.344 226.303 311.323 228.345L318.983 239.068C319.748 247.75 320.821 266.031 318.983 269.707C320.514 270.984 323.425 275.374 322.812 282.727C322.2 290.081 317.961 300.6 315.919 304.94L304.43 324.089C301.366 326.387 291.868 329.144 278.387 321.791C264.907 314.438 239.579 281.962 228.601 266.643C219.409 248.26 199.801 211.188 194.899 209.962C189.997 208.737 184.686 206.899 182.644 206.133L161.197 186.218C160.176 188.26 157.674 191.886 155.835 190.048M226.303 121.878L222.473 129.538C216.345 141.027 203.58 154.899 193.367 161.069M155.835 190.048C153.997 188.209 154.048 184.175 154.303 182.388L150.474 179.324H145.112L144.346 182.388C145.623 182.388 147.87 183.001 146.644 185.452M155.835 190.048C148.482 196.175 146.644 189.537 146.644 185.452M146.644 185.452C145.418 187.903 143.07 188.516 142.048 188.516L137.453 182.388C136.687 178.558 136.074 170.899 139.75 170.899C140.404 170.638 141.187 170.358 142.048 170.093M154.303 170.899C152.271 167.85 146.234 168.805 142.048 170.093M142.048 170.093C142.301 168.962 143.018 167.308 144.346 166M161.197 160.176L150.474 164.005C149.758 163.926 149.094 163.931 148.48 164.005M148.48 164.005C147.358 161.452 149.708 155.274 168.091 150.984M148.48 164.005C146.708 164.22 145.352 165.011 144.346 166M154.303 144.857C150.218 149.25 142.508 159.63 144.346 166M154.303 144.857C157.112 143.835 165.793 142.712 178.048 146.389L193.367 161.069M196.431 164.005L193.367 161.069M145.945 86.6445L149.708 88.9424C159.92 89.9638 180.805 92.7725 182.644 95.8361C184.482 98.8998 188.516 98.6444 190.303 98.1338C199.494 97.7763 219.256 97.7355 224.771 100.432L236.26 86.6445L234.683 93.5381M145.945 86.6445C145.869 89.5039 145.825 92.3253 145.834 94.8773M234.683 93.5381L228.601 105.028L224.771 107.325C222.984 111.155 219.103 118.968 217.877 119.581C216.345 120.346 197.963 124.176 191.835 115.751L188.005 105.028C186.729 104.262 183.869 103.189 182.644 105.028C181.418 106.866 179.069 110.389 178.048 111.921C172.686 114.985 159.512 118.202 149.708 106.559L147.41 95.8361L145.834 94.8773M158.899 93.5381C159.665 96.0912 163.495 100.432 172.686 97.3678" stroke="#434343"/>
<path d="M199.493 102.729C202.557 104.516 209.757 107.018 214.046 102.729" stroke="#434343"/>
<path d="M197.964 95.0699C202.049 93.538 211.752 91.3934 217.879 95.0699C224.007 98.7465 224.007 98.6444 223.241 98.1338H197.964V95.0699ZM155.837 86.6445C159.922 85.8786 169.624 85.5722 175.752 90.4743L177.284 92.0059L155.071 89.7081L155.837 86.6445Z" stroke="#434343"/>
</svg>
