<?xml version="1.0" standalone="no"?>
<!DOCTYPE svg PUBLIC "-//W3C//DTD SVG 20010904//EN"
 "http://www.w3.org/TR/2001/REC-SVG-20010904/DTD/svg10.dtd">
<svg version="1.0" xmlns="http://www.w3.org/2000/svg"
 width="1323.000000pt" height="690.000000pt" viewBox="0 0 1323.000000 690.000000"
 preserveAspectRatio="xMidYMid meet">

<g transform="translate(0.000000,690.000000) scale(0.100000,-0.100000)"
fill="#000000" stroke="none">
<path d="M6515 5509 c-165 -21 -339 -81 -456 -158 -89 -59 -222 -194 -283
-288 -126 -196 -208 -436 -258 -756 -32 -205 -32 -580 0 -782 43 -275 97 -456
188 -635 192 -376 489 -561 929 -577 172 -6 301 12 455 63 142 47 243 107 347
207 189 182 313 436 383 785 44 222 54 328 54 547 -1 645 -201 1176 -530 1411
-209 149 -532 220 -829 183z m425 -69 c122 -25 260 -79 345 -135 133 -88 271
-257 352 -432 137 -297 214 -769 184 -1128 -44 -517 -168 -863 -395 -1104
-299 -316 -927 -376 -1332 -126 -91 57 -226 197 -292 304 -197 321 -300 883
-248 1356 70 628 283 1026 640 1190 88 41 232 81 337 95 108 13 290 4 409 -20z"/>
<path d="M6410 5241 c0 -5 18 -11 41 -15 84 -13 129 -58 129 -126 l0 -30 -104
0 -105 0 -49 48 c-77 75 -222 142 -222 102 0 -6 20 -36 45 -68 25 -31 45 -63
45 -69 0 -10 -25 -13 -90 -13 l-90 0 -25 -56 c-14 -31 -25 -58 -25 -60 0 -2
25 -4 55 -4 l55 0 0 -40 c0 -33 -3 -40 -20 -40 -21 0 -28 -24 -10 -35 6 -3 10
-15 10 -25 0 -10 6 -20 13 -23 6 -2 -11 -16 -39 -30 -28 -14 -55 -34 -58 -44
-4 -10 -14 -86 -21 -168 -22 -233 -33 -270 -128 -398 -56 -77 -80 -133 -66
-158 7 -14 33 -18 148 -24 133 -7 139 -8 150 -31 14 -33 57 -33 72 0 11 22 16
23 146 28 159 6 174 13 155 75 -7 21 -32 65 -58 98 -94 124 -117 193 -134 407
-7 79 -17 154 -23 168 -7 14 -31 34 -54 45 -37 17 -42 22 -36 45 3 14 10 29
14 34 16 17 10 36 -12 36 -17 0 -20 5 -17 38 l3 37 62 3 61 3 12 -58 c51 -256
110 -345 271 -410 l69 -28 -2 -317 -3 -317 -29 -30 c-18 -18 -44 -33 -65 -37
-55 -9 -71 -15 -71 -25 0 -5 110 -9 270 -9 170 0 270 4 270 10 0 5 -10 12 -22
14 -91 17 -103 22 -124 53 -20 30 -22 50 -29 255 -3 123 -5 263 -3 312 l3 88
61 22 c164 60 232 148 276 359 25 117 25 117 106 117 l42 0 0 -45 c0 -39 -3
-45 -21 -45 -16 0 -19 -4 -14 -17 4 -10 10 -27 13 -38 3 -11 10 -23 15 -27 6
-3 -11 -16 -37 -28 -25 -13 -51 -30 -55 -39 -5 -9 -16 -91 -25 -183 -17 -182
-39 -268 -86 -333 -80 -112 -102 -148 -107 -181 -4 -25 -2 -39 8 -45 8 -5 73
-9 144 -9 l130 0 17 -30 c22 -39 53 -39 73 0 l16 30 132 0 c72 0 138 4 146 9
27 17 5 79 -59 166 -96 133 -110 177 -130 420 -13 146 -22 168 -85 198 -21 10
-34 22 -28 25 6 4 13 24 17 45 6 30 4 37 -9 37 -11 0 -15 11 -15 45 l0 44 55
3 54 3 -26 58 -26 57 -94 0 -94 0 16 31 c9 16 32 47 51 68 41 47 43 61 6 61
-44 0 -131 -49 -191 -107 l-55 -53 -114 0 c-103 0 -113 2 -108 18 2 9 7 32 11
49 9 45 54 80 115 88 116 16 36 25 -220 25 -148 0 -270 -4 -270 -9z m170 -506
l0 -215 -25 12 c-55 25 -100 128 -130 302 -21 117 -22 116 83 116 l72 0 0
-215z m375 205 c9 -14 -43 -256 -67 -312 -19 -44 -76 -108 -97 -108 -5 0 -11
10 -15 23 -8 30 -8 392 1 400 10 11 171 8 178 -3z"/>
<path d="M5990 3531 c-106 -7 -146 -26 -177 -84 -25 -48 -29 -179 -8 -271 55
-249 298 -523 562 -635 123 -53 186 -65 328 -65 113 1 141 4 211 27 85 28 214
102 313 179 117 92 231 259 247 364 4 32 1 58 -11 89 -29 76 -87 104 -280 135
-368 59 -759 68 -931 21 -74 -20 -102 -45 -120 -107 -45 -155 58 -315 268
-419 258 -126 518 -113 651 34 69 76 88 150 51 193 -44 50 -174 79 -347 77
-148 -1 -165 -6 -196 -61 -14 -25 -23 -49 -19 -53 3 -3 51 -1 107 5 55 7 139
10 185 9 73 -4 88 -7 110 -28 35 -33 33 -47 -12 -91 -49 -49 -118 -70 -232
-70 -278 0 -486 171 -402 330 43 80 152 111 392 110 374 0 623 -75 645 -194
12 -62 -42 -163 -131 -246 -143 -134 -330 -210 -512 -210 -249 0 -577 211
-693 446 -56 113 -56 284 -1 353 55 69 6 66 827 51 812 -15 785 -16 813 43 8
16 12 30 10 31 -3 3 -978 30 -1408 39 -80 2 -188 1 -240 -2z"/>
<path d="M2900 1645 c0 -168 1 -175 20 -175 18 0 20 7 20 80 0 73 2 83 25 106
17 17 34 24 53 22 l27 -3 3 -102 c2 -95 4 -103 22 -103 19 0 20 7 20 103 0
121 -9 141 -64 141 -24 0 -44 -8 -61 -24 l-25 -23 0 76 c0 70 -2 77 -20 77
-19 0 -20 -7 -20 -175z"/>
<path d="M3560 1645 c0 -168 1 -175 20 -175 18 0 20 7 20 63 l1 62 58 -62 c44
-48 65 -63 86 -63 26 0 26 2 -29 61 -31 33 -56 64 -56 68 0 5 21 32 46 60 42
47 44 51 22 51 -16 0 -40 -18 -75 -57 l-52 -58 -1 113 c0 105 -1 112 -20 112
-19 0 -20 -7 -20 -175z"/>
<path d="M6500 1645 l0 -175 25 0 c25 0 25 1 25 84 0 79 2 86 26 105 15 12 34
21 43 21 33 0 41 -22 41 -117 0 -86 1 -93 20 -93 19 0 20 7 20 104 0 101 -1
105 -26 125 -33 26 -50 26 -91 1 l-33 -20 0 70 c0 68 -1 70 -25 70 l-25 0 0
-175z"/>
<path d="M9482 1790 c-33 -15 -47 -29 -62 -62 -40 -88 -14 -209 52 -244 35
-19 123 -24 171 -11 26 7 27 10 27 72 0 63 -1 65 -25 65 -24 0 -25 -3 -25 -55
l0 -55 -50 0 c-41 0 -56 5 -82 29 -28 25 -32 35 -36 93 -3 47 0 74 12 96 24
46 49 55 128 49 61 -5 68 -4 68 12 0 34 -112 41 -178 11z"/>
<path d="M2620 1635 c0 -158 1 -165 20 -165 18 0 20 7 20 83 l1 82 32 -35 c17
-19 51 -57 74 -83 32 -38 47 -48 67 -45 24 3 21 7 -49 88 l-73 84 65 78 c58
70 62 78 41 78 -17 0 -41 -22 -88 -80 l-65 -80 -3 80 c-3 72 -5 80 -22 80 -19
0 -20 -8 -20 -165z"/>
<path d="M3810 1780 c0 -13 7 -20 20 -20 13 0 20 7 20 20 0 13 -7 20 -20 20
-13 0 -20 -7 -20 -20z"/>
<path d="M4250 1635 l0 -165 25 0 c25 0 25 1 25 80 l0 80 80 0 80 0 0 -80 c0
-73 2 -80 20 -80 19 0 20 7 20 165 0 158 -1 165 -20 165 -18 0 -20 -7 -20 -70
l0 -70 -80 0 -80 0 0 70 c0 68 -1 70 -25 70 l-25 0 0 -165z"/>
<path d="M5860 1635 c0 -158 1 -165 20 -165 18 0 20 7 20 70 0 68 1 70 25 70
20 0 34 -15 71 -70 40 -59 51 -70 75 -70 l29 0 -55 76 -54 75 31 27 c42 38 44
94 4 128 -23 20 -38 24 -97 24 l-69 0 0 -165z m115 125 c52 -20 45 -83 -12
-106 -52 -22 -63 -14 -63 49 0 30 3 57 7 60 9 10 38 9 68 -3z"/>
<path d="M6130 1780 c0 -13 7 -20 20 -20 13 0 20 7 20 20 0 13 -7 20 -20 20
-13 0 -20 -7 -20 -20z"/>
<path d="M7250 1636 l0 -166 25 0 c24 0 25 2 25 64 l0 64 47 7 c66 10 103 49
103 108 0 65 -22 81 -121 86 l-79 3 0 -166z m119 123 c17 -6 32 -18 33 -27 5
-59 -19 -92 -69 -92 l-33 0 0 65 c0 72 5 76 69 54z"/>
<path d="M8660 1780 c0 -13 7 -20 20 -20 13 0 20 7 20 20 0 13 -7 20 -20 20
-13 0 -20 -7 -20 -20z"/>
<path d="M6770 1735 c0 -16 -6 -25 -15 -25 -8 0 -15 -7 -15 -15 0 -8 7 -15 15
-15 12 0 15 -16 15 -88 0 -73 3 -92 18 -105 24 -22 82 -23 82 -2 0 8 -8 15
-18 15 -33 0 -42 21 -42 102 l0 78 30 0 c20 0 30 5 30 15 0 10 -10 15 -30 15
-25 0 -30 4 -30 25 0 18 -5 25 -20 25 -15 0 -20 -7 -20 -25z"/>
<path d="M7917 1753 c-4 -3 -7 -15 -7 -25 0 -10 -7 -18 -15 -18 -8 0 -15 -7
-15 -15 0 -8 7 -15 15 -15 12 0 15 -14 16 -67 0 -38 5 -84 12 -103 11 -32 16
-35 55 -38 32 -2 42 0 42 12 0 9 -11 16 -27 18 -28 3 -28 3 -31 91 l-3 87 31
0 c20 0 30 5 30 15 0 10 -10 15 -30 15 -25 0 -30 4 -30 25 0 18 -5 25 -18 25
-10 0 -22 -3 -25 -7z"/>
<path d="M8510 1735 c0 -16 -6 -25 -15 -25 -8 0 -15 -7 -15 -15 0 -8 7 -15 15
-15 12 0 15 -16 15 -83 0 -103 13 -127 71 -127 28 0 39 4 39 15 0 9 -9 15 -25
15 -33 0 -45 31 -45 116 l0 64 35 0 c46 0 49 27 3 32 -25 2 -34 8 -36 26 -5
32 -42 30 -42 -3z"/>
<path d="M3193 1709 c-19 -6 -33 -16 -33 -25 0 -10 6 -14 18 -10 56 17 70 17
86 1 9 -9 16 -27 16 -41 0 -20 -5 -24 -29 -24 -69 0 -111 -31 -111 -83 0 -51
73 -75 124 -42 21 14 24 14 29 0 4 -9 19 -15 38 -15 l32 0 -21 23 c-19 20 -22
35 -22 103 0 85 -3 95 -37 113 -25 13 -45 13 -90 0z m87 -154 c0 -24 -6 -37
-19 -45 -28 -14 -56 -13 -71 5 -25 30 13 73 68 74 19 1 22 -4 22 -34z"/>
<path d="M3467 1700 c-30 -24 -37 -25 -37 -5 0 8 -9 15 -20 15 -19 0 -20 -7
-20 -120 0 -113 1 -120 20 -120 18 0 20 7 20 79 0 69 3 81 25 105 13 14 33 26
45 26 13 0 20 7 20 20 0 11 -6 20 -14 20 -7 0 -25 -9 -39 -20z"/>
<path d="M4913 1700 c-27 -16 -33 -17 -33 -5 0 9 -10 15 -25 15 l-25 0 0 -120
0 -120 25 0 c25 0 25 1 25 83 0 75 2 86 24 106 15 14 33 21 48 19 22 -3 23 -7
26 -105 3 -102 3 -103 27 -103 25 0 25 1 25 83 0 75 2 86 24 106 15 14 33 21
48 19 22 -3 23 -7 26 -105 l3 -103 25 0 26 0 -4 106 c-3 98 -5 108 -28 126
-28 23 -74 18 -103 -11 -18 -18 -19 -18 -42 5 -29 29 -50 30 -92 4z"/>
<path d="M5273 1709 c-34 -10 -49 -45 -15 -35 9 2 27 7 39 11 34 9 63 -11 63
-44 0 -26 -3 -29 -46 -34 -78 -8 -115 -63 -78 -115 18 -26 73 -30 108 -7 21
14 24 14 29 0 4 -9 19 -15 37 -15 35 0 38 10 10 28 -17 11 -20 23 -20 95 0 51
-5 90 -13 100 -15 22 -71 29 -114 16z m87 -154 c0 -24 -6 -37 -19 -45 -28 -14
-56 -13 -71 5 -25 30 13 73 68 74 19 1 22 -4 22 -34z"/>
<path d="M5553 1700 c-27 -16 -33 -17 -33 -5 0 9 -10 15 -25 15 l-25 0 0 -120
0 -120 25 0 c25 0 25 1 25 84 0 79 2 86 26 105 15 12 34 21 43 21 33 0 41 -22
41 -117 0 -86 1 -93 20 -93 19 0 20 7 20 100 0 94 -2 103 -25 125 -29 30 -50
31 -92 5z"/>
<path d="M6274 1701 c-58 -36 -71 -146 -23 -197 30 -32 86 -32 124 -2 l28 22
-6 -38 c-10 -63 -32 -79 -99 -73 -44 4 -58 2 -58 -8 0 -18 23 -25 84 -25 97 0
116 36 116 218 0 104 -1 112 -19 112 -11 0 -21 -5 -23 -11 -2 -6 -14 -5 -33 5
-39 21 -53 20 -91 -3z m109 -39 c14 -12 17 -28 15 -66 -3 -47 -6 -52 -39 -70
-35 -19 -38 -19 -63 -3 -23 15 -26 24 -26 72 0 46 4 56 27 74 28 23 54 21 86
-7z"/>
<path d="M6951 1707 c-64 -32 -52 -88 27 -130 28 -16 52 -34 52 -41 0 -27 -29
-39 -76 -32 -40 5 -45 4 -42 -12 5 -28 110 -30 138 -2 40 40 20 92 -46 120
-74 32 -70 75 6 72 28 -1 40 2 40 12 0 25 -60 33 -99 13z"/>
<path d="M7580 1713 c-8 -3 -23 -12 -32 -21 -16 -14 -18 -13 -18 1 0 10 -8 17
-20 17 -19 0 -20 -7 -20 -120 0 -113 1 -120 20 -120 18 0 20 7 20 83 0 74 3
86 23 105 13 12 33 22 45 22 15 0 22 6 22 20 0 20 -11 23 -40 13z"/>
<path d="M7704 1711 c-28 -12 -61 -55 -69 -91 -9 -41 11 -106 42 -129 28 -23
100 -29 134 -11 42 23 63 113 39 174 -17 47 -97 78 -146 57z m70 -32 c47 -22
59 -117 19 -161 -23 -26 -78 -24 -97 4 -18 26 -21 100 -5 129 8 16 28 30 56
38 1 1 13 -4 27 -10z"/>
<path d="M8115 1711 c-76 -32 -92 -158 -27 -218 22 -21 34 -23 86 -21 46 2 62
7 64 19 2 13 -6 15 -51 11 -49 -4 -56 -2 -75 23 -12 15 -22 36 -22 46 0 17 8
19 75 19 74 0 75 0 75 25 0 38 -27 85 -56 95 -30 12 -42 12 -69 1z m65 -41
c36 -36 26 -50 -35 -50 -39 0 -55 4 -55 13 0 25 32 53 63 56 4 1 16 -8 27 -19z"/>
<path d="M8343 1705 c-69 -30 -85 -146 -27 -206 26 -27 34 -30 84 -27 42 2 56
7 58 20 3 14 -3 15 -38 11 -58 -8 -90 23 -90 87 0 68 20 90 81 90 35 0 49 4
49 14 0 27 -66 33 -117 11z"/>
<path d="M8824 1710 c-79 -32 -95 -166 -27 -220 28 -22 101 -27 134 -10 46 25
64 122 33 181 -23 46 -90 69 -140 49z m70 -31 c47 -22 59 -117 19 -161 -23
-26 -78 -24 -97 4 -18 26 -21 100 -5 129 8 16 28 30 56 38 1 1 13 -4 27 -10z"/>
<path d="M9106 1695 c-34 -23 -36 -23 -36 -5 0 13 -7 20 -20 20 -19 0 -20 -7
-20 -120 0 -113 1 -120 20 -120 18 0 20 7 20 76 0 70 2 78 29 105 34 34 66 37
81 10 5 -11 10 -58 10 -105 0 -79 2 -86 20 -86 19 0 20 7 20 100 0 94 -2 103
-25 125 -31 31 -53 31 -99 0z"/>
<path d="M9815 1708 c-11 -6 -26 -18 -32 -26 -11 -14 -13 -13 -13 6 0 15 -6
22 -20 22 -19 0 -20 -7 -20 -120 0 -113 1 -120 20 -120 18 0 20 7 20 80 0 73
3 83 25 105 13 14 33 25 45 25 13 0 20 7 20 20 0 22 -15 25 -45 8z"/>
<path d="M9940 1703 c-19 -10 -40 -29 -47 -43 -28 -56 -8 -156 36 -180 11 -5
40 -10 64 -10 57 0 93 28 108 83 29 110 -66 199 -161 150z m103 -45 c22 -26
23 -105 1 -136 -19 -28 -74 -30 -97 -4 -24 26 -31 74 -18 115 19 57 75 69 114
25z"/>
<path d="M10492 1695 c-31 -26 -32 -26 -32 -6 0 14 -6 21 -20 21 -19 0 -20 -7
-20 -165 0 -158 1 -165 20 -165 18 0 20 7 20 55 0 51 10 69 25 45 3 -5 26 -10
50 -10 36 0 48 5 68 30 89 105 -11 279 -111 195z m82 -37 c9 -12 16 -43 16
-68 0 -59 -21 -90 -62 -90 -49 0 -68 24 -68 86 0 45 4 56 26 73 35 27 69 27
88 -1z"/>
<path d="M3810 1590 c0 -113 1 -120 20 -120 19 0 20 7 20 120 0 113 -1 120
-20 120 -19 0 -20 -7 -20 -120z"/>
<path d="M3883 1697 c3 -8 23 -63 44 -121 34 -97 40 -106 61 -104 20 3 30 21
68 116 24 63 44 115 44 118 0 2 -8 4 -18 4 -13 0 -26 -24 -52 -90 -19 -49 -38
-86 -42 -82 -4 4 -20 43 -36 87 -24 65 -34 81 -52 83 -17 3 -21 0 -17 -11z"/>
<path d="M4570 1607 c0 -88 3 -106 18 -120 26 -24 81 -21 109 5 l23 21 0 -21
c0 -17 6 -22 25 -22 l25 0 0 120 0 120 -25 0 c-25 0 -25 -1 -25 -84 0 -79 -2
-86 -26 -105 -15 -12 -34 -21 -43 -21 -33 0 -41 22 -41 117 0 86 -1 93 -20 93
-19 0 -20 -7 -20 -103z"/>
<path d="M6130 1590 c0 -113 1 -120 20 -120 19 0 20 7 20 120 0 113 -1 120
-20 120 -19 0 -20 -7 -20 -120z"/>
<path d="M8660 1590 c0 -113 1 -120 20 -120 19 0 20 7 20 120 0 113 -1 120
-20 120 -19 0 -20 -7 -20 -120z"/>
<path d="M10150 1618 c0 -117 11 -142 64 -146 28 -2 47 3 68 18 28 21 28 21
28 0 0 -13 7 -20 20 -20 19 0 20 7 20 120 0 113 -1 120 -20 120 -18 0 -20 -7
-20 -79 0 -77 -1 -80 -31 -106 -18 -14 -41 -25 -53 -23 -20 3 -21 10 -24 106
-3 101 -3 102 -27 102 -25 0 -25 -1 -25 -92z"/>
</g>
</svg>
