<svg width="40" height="40" viewBox="0 0 40 40" fill="none" xmlns="http://www.w3.org/2000/svg">
<path fill-rule="evenodd" clip-rule="evenodd" d="M2.66663 5.5073C2.66663 4.75394 2.9659 4.03143 3.4986 3.49873C4.03131 2.96602 4.75381 2.66675 5.50717 2.66675H33.823C34.1963 2.66614 34.5661 2.73918 34.9112 2.88167C35.2563 3.02417 35.5699 3.23333 35.834 3.49718C36.0981 3.76103 36.3076 4.07439 36.4505 4.41931C36.5934 4.76424 36.6668 5.13395 36.6666 5.5073V33.8231C36.667 34.1965 36.5938 34.5663 36.4511 34.9114C36.3085 35.2565 36.0992 35.5701 35.8352 35.8342C35.5712 36.0983 35.2578 36.3078 34.9127 36.4507C34.5677 36.5935 34.1979 36.6669 33.8245 36.6667H5.50717C5.13402 36.6667 4.76452 36.5932 4.41978 36.4504C4.07505 36.3075 3.76185 36.0981 3.49806 35.8342C3.23427 35.5703 3.02507 35.257 2.88241 34.9122C2.73975 34.5673 2.66642 34.1978 2.66663 33.8246V5.5073ZM16.1244 15.63H20.7283V17.942C21.3929 16.6129 23.0929 15.4167 25.6475 15.4167C30.5451 15.4167 31.7057 18.0641 31.7057 22.9215V31.9191H26.7494V24.028C26.7494 21.2617 26.0849 19.7007 24.3973 19.7007C22.0559 19.7007 21.0823 21.3837 21.0823 24.028V31.9191H16.1244V15.63ZM7.62444 31.7074H12.5823V15.4167H7.62444V31.7058V31.7074ZM13.2916 10.1035C13.301 10.528 13.2254 10.9501 13.0694 11.345C12.9135 11.7399 12.6802 12.0996 12.3833 12.4032C12.0863 12.7067 11.7318 12.9478 11.3404 13.1125C10.949 13.2771 10.5287 13.3619 10.1041 13.3619C9.67953 13.3619 9.25921 13.2771 8.86783 13.1125C8.47645 12.9478 8.12191 12.7067 7.82499 12.4032C7.52808 12.0996 7.29479 11.7399 7.1388 11.345C6.98281 10.9501 6.90728 10.528 6.91662 10.1035C6.93497 9.27025 7.27886 8.47734 7.87463 7.89454C8.4704 7.31174 9.2707 6.9854 10.1041 6.9854C10.9376 6.9854 11.7378 7.31174 12.3336 7.89454C12.9294 8.47734 13.2733 9.27025 13.2916 10.1035Z" fill="#1A1A1A"/>
</svg>
