<svg width="252" height="375" viewBox="0 0 252 375" fill="none" xmlns="http://www.w3.org/2000/svg">
<path d="M158.505 358.45C157.978 359.501 173.211 361.078 176.942 362.392C182.869 365.019 187.479 362.83 192.747 365.676C198.893 367.866 211.712 372.377 213.819 372.903C215.926 373.428 220.625 374.654 223.04 373.559C223.259 373.34 223.435 372.114 222.381 368.961C221.328 365.808 217.333 362.611 214.479 363.049C219.308 364.581 229.097 367.91 229.624 368.961C239.106 368.961 237.965 364.581 236.209 362.392C245.691 362.392 239.282 353.633 234.892 349.253C239.501 348.596 237.526 344.655 236.867 343.998C236.341 343.472 233.136 337.647 231.599 334.801C237.394 335.326 234.453 331.954 232.258 330.202L219.746 319.691L210.528 315.093M158.505 358.45C159.164 357.136 145.334 371.589 140.065 355.822V351.881M158.505 358.45C153.238 357.136 155.211 327.575 165.089 318.378M140.065 351.881C128.432 352.538 100.423 353.457 81.4574 351.881C78.1649 351.443 68.4188 349.253 55.7753 343.998C52.2632 342.465 44.1854 337.954 39.9709 332.173M140.065 351.881C140.065 336.64 145.334 322.319 147.968 317.064M39.9709 332.173L39.3124 341.37C34.7028 339.837 25.0884 335.72 23.508 331.516C22.2774 328.242 18.2361 321.655 15.3632 307.784C13.6241 299.388 12.3132 288.322 12.3132 273.707C12.3132 234.948 7.04507 226.408 14.2888 203.415M39.9709 332.173C34.7029 318.377 66.3115 296.699 65.653 297.356M14.2888 203.415C5.94738 194.219 -7.04768 173.46 7.70309 164C22.4539 154.54 33.166 137.285 36.6782 129.84C36.4587 123.271 37.9953 111.052 45.8975 114.73C45.678 106.847 49.7169 90.9497 67.6285 90.4242C68.5065 84.9498 73.6869 71.8989 87.384 63.4902C82.7744 54.7312 83.5646 31.3009 123.602 7.65154C138.748 1.30125 174.045 -6.14391 194.064 14.8777C203.722 20.1332 223.038 34.3229 223.038 49.038C224.794 57.1401 230.941 74.0012 241.477 76.6289C241.696 80.1325 241.74 88.8477 240.16 95.6798C241.916 97.4316 245.296 99.6213 244.77 94.3659C244.111 87.7967 255.964 106.848 241.477 124.585C246.087 129.84 252.54 142.716 241.477 152.175M14.2888 203.415C14.9472 199.912 16.3959 192.248 16.9227 189.62C17.4496 186.992 25.0444 185.022 28.776 184.365C23.0689 186.336 14.4204 186.204 25.4835 169.912C27.2395 166.19 32.5954 160.19 39.9708 165.971C47.6535 165.533 61.8336 163.343 57.0923 158.088C65.8725 161.153 76.0576 169.65 46.556 179.109C45.239 180.423 43.2634 183.314 45.8975 184.365C45.678 183.051 46.1609 180.555 49.8486 181.08C53.5363 181.606 65.8725 176.92 71.5796 174.511C73.3357 172.759 76.0575 168.599 72.8967 165.971C69.7358 163.343 89.3596 145.606 108.457 147.577L123.602 150.205M241.477 152.175C247.404 161.372 256.623 186.467 246.087 213.27C235.55 240.072 232.916 261.663 232.916 269.108C232.381 278.905 229.058 297.713 220.181 307.784C218.145 310.095 215.816 311.946 213.162 313.122L210.528 315.093M241.477 152.175C238.404 149.767 231.994 144.949 230.941 144.949M210.528 315.093C205.148 314.198 196.918 313.277 188.796 313.225M165.089 318.378C163.333 314.436 157.45 308.655 147.968 317.064M165.089 318.378C166.909 316.683 169.672 315.491 172.991 314.682M147.968 317.064C140.943 315.969 122.812 313.779 106.481 313.779L72.8967 302.611C70.2626 301.079 65.1262 297.882 65.653 297.356M65.653 297.356C67.6285 282.466 71.0528 246.641 68.9456 222.466M230.941 144.949C229.887 144.949 231.38 142.759 232.258 141.665L230.941 138.38L232.258 136.409C232.477 135.314 232.521 132.73 230.941 131.154C229.36 129.577 223.697 121.738 221.063 118.015C218.868 117.139 214.346 115.913 213.819 118.015C213.161 120.643 223.697 100.935 207.234 89.7674L208.551 77.9428M230.941 144.949C215.795 151.518 184.186 181.737 182.21 185.022C180.63 187.649 184.186 203.635 186.162 211.299C187.479 220.496 193.537 244.276 207.234 265.824C220.931 287.371 200.649 306.403 188.796 313.225M208.551 77.9428C204.337 75.3151 195.82 80.3515 192.088 83.1982M208.551 77.9428L205.917 73.8135M226.99 129.84L218.429 121.3L209.868 122.614C208.771 123.052 206.18 124.453 204.6 126.555C203.02 128.657 209.21 130.059 212.502 130.497C214.478 129.84 218.034 128.92 216.453 130.497C214.478 132.468 223.038 138.38 223.038 137.066C223.038 136.015 219.965 137.504 218.429 138.38C219.087 134.438 213.819 132.468 209.868 130.497C206.707 128.92 203.283 132.03 201.966 133.781C200.429 134.219 197.751 135.884 199.332 139.037C201.307 142.978 208.551 136.409 207.234 138.38C206.18 139.957 209.429 141.665 211.185 142.322C211.405 141.446 208.946 141.008 197.356 146.263C182.869 152.832 189.454 159.402 171.016 158.745C167.936 158.635 164.839 157.792 161.796 156.453M161.796 156.453C146.621 149.77 132.82 130.715 129.529 128.526C128.251 127.676 126.628 123.869 125.151 119.329M161.796 156.453C159.162 159.187 154.026 165.839 154.553 170.569C155.08 175.299 153.894 189.182 153.236 195.533C153.236 212.394 154.553 253.342 159.821 282.247C165.089 311.151 170.796 315.914 172.991 314.682M172.991 314.682C177.544 313.574 183.144 313.189 188.796 313.225M190.771 81.2274L192.088 83.1982M192.088 83.1982C187.04 86.7018 180.762 98.5702 196.039 118.015C196.259 120.205 194.195 124.453 184.186 123.928M190.113 81.2274C194.503 78.0366 203.81 72.0867 205.917 73.8135M205.917 73.8135L199.332 63.4904C198.893 54.2934 191.166 36.1623 163.772 37.2134C136.378 38.2644 130.846 60.4247 131.505 71.3735L134.797 79.2566C131.505 81.4464 125.183 87.6653 126.237 95.0228C127.29 102.38 128.871 100.278 129.529 98.3075C128.432 101.592 125.446 106.848 122.285 101.592C119.613 97.1483 122.063 109.839 125.151 119.329M163.772 89.1105C159.162 89.1105 149.548 90.6871 147.968 96.9936C148.797 95.9598 149.924 94.799 151.26 93.7395M151.26 93.7395V94.3659C151.746 95.2386 152.404 95.9161 153.176 96.4336M151.26 93.7395C151.86 93.2641 152.501 92.8091 153.176 92.3951M160.479 91.0813C161.139 93.0041 161.734 97.0611 158.835 97.907M158.835 97.907C161.203 97.9377 163.548 97.4741 165.089 96.9936H167.723H171.016L167.723 94.3659C162.87 88.8328 157.37 89.823 153.176 92.3951M158.835 97.907C156.802 97.8806 154.752 97.4902 153.176 96.4336M153.176 92.3951C152.979 93.6235 152.704 96.1509 153.176 96.4336M198.397 83.1982C199.881 82.7644 201.533 82.6746 203.283 83.1982C208.551 84.7748 205.917 87.3587 203.941 88.4536C203.676 88.9838 202.622 89.8351 200.312 90.4244M198.397 83.1982C200.24 83.8551 203.203 86.22 200.312 90.4244M198.397 83.1982C196.218 83.8355 194.403 85.2153 193.183 86.4828M200.312 90.4244C199.197 90.7086 197.791 90.9319 196.039 91.0288M193.183 86.4828C192.734 86.9503 192.365 87.4026 192.088 87.7967L190.771 93.0521L194.064 91.0813C194.766 91.0813 195.424 91.0629 196.039 91.0288M193.183 86.4828C193.257 87.5427 193.932 89.9358 196.039 91.0288M123.602 150.205L125.151 119.329M123.602 150.205C132.123 159.621 149.967 178.058 153.176 176.482M171.016 84.512C164.723 84.0741 149.723 85.0376 140.065 92.3951C142.919 88.0156 152.841 79.7822 169.699 81.8843L171.016 84.512ZM181.552 81.8843C180.674 82.9792 179.576 85.3003 182.21 85.8259C184.845 86.3514 182.869 83.4171 181.552 81.8843ZM161.796 133.781C163.772 134.657 168.908 135.884 173.65 133.781C176.503 132.906 182.737 131.417 184.844 132.468C187.259 131.592 192.483 130.103 194.064 131.154C195.644 132.205 198.887 128.526 200.312 126.555C197.57 136.409 186.03 151.65 161.796 133.781Z" stroke="#434343"/>
<path d="M169.126 121.352C164.838 123.802 155.712 130.723 153.507 138.808" stroke="#434343"/>
</svg>
