<svg width="689" height="672" viewBox="0 0 689 672" fill="none" xmlns="http://www.w3.org/2000/svg">
<path d="M681.54 671.697H7.31326C5.47253 671.695 3.70774 670.962 2.40615 669.661C1.10455 668.359 0.372403 666.595 0.370361 664.754V7.49837C0.372403 5.65764 1.10455 3.89292 2.40615 2.59133C3.70774 1.28973 5.47253 0.557583 7.31326 0.555542H681.54C683.381 0.557555 685.145 1.28966 686.447 2.59126C687.749 3.89286 688.481 5.65763 688.483 7.49837V664.754C688.481 666.595 687.749 668.359 686.447 669.661C685.145 670.962 683.381 671.695 681.54 671.697V671.697Z" fill="#EBEEF2"/>
<mask id="mask0_1466_30772" style="mask-type:alpha" maskUnits="userSpaceOnUse" x="73" y="60" width="543" height="424">
<path d="M608.255 60.7281H80.5994C78.7589 60.7309 76.9945 61.4633 75.6931 62.7647C74.3916 64.0662 73.6593 65.8305 73.6565 67.671V476.527C73.6593 478.368 74.3916 480.132 75.6931 481.433C76.9945 482.735 78.7589 483.467 80.5994 483.47H608.255C610.096 483.467 611.86 482.735 613.161 481.433C614.463 480.132 615.195 478.368 615.198 476.527V67.671C615.195 65.8305 614.463 64.0662 613.161 62.7647C611.86 61.4633 610.096 60.7309 608.255 60.7281Z" fill="white"/>
</mask>
<g mask="url(#mask0_1466_30772)">
<path d="M608.255 60.7281H80.5994C78.7589 60.7309 76.9945 61.4633 75.6931 62.7647C74.3916 64.0662 73.6593 65.8305 73.6565 67.671V476.527C73.6593 478.368 74.3916 480.132 75.6931 481.433C76.9945 482.735 78.7589 483.467 80.5994 483.47H608.255C610.096 483.467 611.86 482.735 613.161 481.433C614.463 480.132 615.195 478.368 615.198 476.527V67.671C615.195 65.8305 614.463 64.0662 613.161 62.7647C611.86 61.4633 610.096 60.7309 608.255 60.7281Z" fill="white"/>
<path d="M375.47 356.266C347.159 361.046 320.852 358.532 296.548 348.724C272.56 338.863 252.123 322.255 235.238 298.9C218.353 275.545 206.829 245.622 200.668 209.133C194.507 172.644 195.566 140.597 203.846 112.992C212.126 85.388 225.977 62.9902 245.398 45.799C265.133 28.5546 289.156 17.5422 317.467 12.7618C345.463 8.03446 371.456 10.6014 395.445 20.4627C419.748 30.2708 440.342 46.8524 457.227 70.2075C474.112 93.5625 485.636 123.485 491.797 159.974C497.958 196.464 496.899 228.511 488.619 256.115C480.339 283.719 466.331 306.144 446.595 323.388C427.175 340.579 403.466 351.538 375.47 356.266ZM362.563 279.827C372.629 278.127 380.905 273.494 387.392 265.928C394.194 258.309 398.629 247.207 400.695 232.623C402.709 217.724 401.777 198.792 397.9 175.829C393.969 152.552 388.633 134.364 381.892 121.267C375.151 108.17 367.318 99.1394 358.391 94.176C349.779 89.1595 340.44 87.5011 330.374 89.2008C320.308 90.9006 311.874 95.56 305.073 103.179C298.585 110.745 294.151 121.847 291.77 136.485C289.703 151.069 290.635 170 294.565 193.278C298.443 216.241 303.779 234.429 310.573 247.84C317.628 260.884 325.462 269.915 334.074 274.931C343 279.895 352.497 281.526 362.563 279.827Z" fill="#00B4A6"/>
</g>
<path d="M578.169 563.697H110.684C109.662 563.696 108.682 563.289 107.958 562.566C107.235 561.843 106.829 560.863 106.827 559.84V538.24C106.829 537.217 107.235 536.237 107.958 535.514C108.682 534.791 109.662 534.384 110.684 534.383H578.169C579.192 534.384 580.172 534.791 580.895 535.514C581.618 536.237 582.025 537.217 582.026 538.24V559.84C582.025 560.863 581.618 561.843 580.895 562.566C580.172 563.289 579.192 563.696 578.169 563.697V563.697Z" fill="white"/>
<path d="M416.169 616.154H110.684C109.662 616.153 108.682 615.746 107.958 615.023C107.235 614.3 106.829 613.319 106.827 612.297V590.697C106.829 589.674 107.235 588.694 107.958 587.971C108.682 587.248 109.662 586.841 110.684 586.84H416.169C417.192 586.841 418.172 587.248 418.896 587.971C419.619 588.694 420.025 589.674 420.027 590.697V612.297C420.025 613.319 419.619 614.3 418.896 615.023C418.172 615.746 417.192 616.153 416.169 616.154V616.154Z" fill="white"/>
</svg>
