<svg width="207" height="30" viewBox="0 0 207 30" fill="none" xmlns="http://www.w3.org/2000/svg">
<path d="M85.8843 24.067L95.4255 2.66052H100.318L109.89 24.067H104.691L96.8628 5.16815H98.8199L90.9607 24.067H85.8843ZM90.6549 19.4799L91.9698 15.7185H102.979L104.324 19.4799H90.6549Z" fill="#00B4A6"/>
<path d="M111.775 24.067V7.6146H116.331V12.2629L115.689 10.9173C116.178 9.75526 116.963 8.87861 118.044 8.28738C119.124 7.67577 120.439 7.36996 121.989 7.36996V11.7736C121.785 11.7532 121.601 11.743 121.438 11.743C121.275 11.7226 121.102 11.7124 120.918 11.7124C119.614 11.7124 118.553 12.0896 117.738 12.8439C116.943 13.5778 116.545 14.7297 116.545 16.2995V24.067H111.775Z" fill="#00B4A6"/>
<path d="M132.657 24.3117C130.883 24.3117 129.303 23.9549 127.917 23.2414C126.53 22.5074 125.44 21.4983 124.645 20.2139C123.87 18.9295 123.483 17.4718 123.483 15.8408C123.483 14.1895 123.87 12.7318 124.645 11.4678C125.44 10.1834 126.53 9.18441 127.917 8.47086C129.303 7.73693 130.883 7.36996 132.657 7.36996C134.39 7.36996 135.898 7.73693 137.183 8.47086C138.467 9.18441 139.415 10.214 140.027 11.5595L136.326 13.5473C135.898 12.7726 135.358 12.2017 134.706 11.8347C134.074 11.4678 133.381 11.2843 132.626 11.2843C131.811 11.2843 131.077 11.4678 130.424 11.8347C129.772 12.2017 129.252 12.7216 128.865 13.3944C128.498 14.0671 128.314 14.8826 128.314 15.8408C128.314 16.799 128.498 17.6145 128.865 18.2873C129.252 18.9601 129.772 19.4799 130.424 19.8469C131.077 20.2139 131.811 20.3974 132.626 20.3974C133.381 20.3974 134.074 20.2241 134.706 19.8775C135.358 19.5105 135.898 18.9295 136.326 18.1344L140.027 20.1527C139.415 21.4779 138.467 22.5074 137.183 23.2414C135.898 23.9549 134.39 24.3117 132.657 24.3117Z" fill="#00B4A6"/>
<path d="M152.684 7.36996C153.989 7.36996 155.151 7.63499 156.17 8.16506C157.21 8.67474 158.025 9.46984 158.616 10.5504C159.208 11.6105 159.503 12.9764 159.503 14.6482V24.067H154.733V15.3821C154.733 14.0569 154.437 13.0784 153.846 12.4464C153.275 11.8144 152.46 11.4984 151.399 11.4984C150.645 11.4984 149.962 11.6615 149.351 11.9876C148.759 12.2935 148.29 12.7726 147.944 13.4249C147.618 14.0773 147.455 14.9132 147.455 15.9326V24.067H142.684V1.37613H147.455V12.1711L146.384 10.795C146.975 9.69409 147.821 8.84803 148.922 8.2568C150.023 7.66557 151.277 7.36996 152.684 7.36996Z" fill="#00B4A6"/>
<path d="M163.828 24.067V7.6146H168.598V24.067H163.828ZM166.213 5.32105C165.336 5.32105 164.623 5.06621 164.072 4.55653C163.522 4.04685 163.247 3.41485 163.247 2.66052C163.247 1.9062 163.522 1.2742 164.072 0.76452C164.623 0.25484 165.336 0 166.213 0C167.09 0 167.803 0.244646 168.354 0.733939C168.904 1.20284 169.179 1.81446 169.179 2.56878C169.179 3.36388 168.904 4.02646 168.354 4.55653C167.824 5.06621 167.11 5.32105 166.213 5.32105Z" fill="#00B4A6"/>
<path d="M177.491 24.067L170.579 7.6146H175.503L181.252 21.7735H178.806L184.769 7.6146H189.356L182.414 24.067H177.491Z" fill="#00B4A6"/>
<path d="M199.02 24.3117C197.144 24.3117 195.493 23.9447 194.066 23.2108C192.659 22.4768 191.568 21.4779 190.793 20.2139C190.019 18.9295 189.631 17.4718 189.631 15.8408C189.631 14.1895 190.008 12.7318 190.763 11.4678C191.538 10.1834 192.587 9.18441 193.913 8.47086C195.238 7.73693 196.736 7.36996 198.408 7.36996C200.019 7.36996 201.466 7.71654 202.75 8.4097C204.055 9.08248 205.085 10.0611 205.839 11.3455C206.593 12.6095 206.971 14.1283 206.971 15.902C206.971 16.0855 206.96 16.2995 206.94 16.5442C206.92 16.7684 206.899 16.9825 206.879 17.1864H193.515V14.4035H204.371L202.536 15.2292C202.536 14.3729 202.363 13.6288 202.017 12.9968C201.67 12.3648 201.191 11.8755 200.579 11.5289C199.968 11.162 199.254 10.9785 198.439 10.9785C197.623 10.9785 196.899 11.162 196.267 11.5289C195.656 11.8755 195.177 12.375 194.83 13.0274C194.483 13.6594 194.31 14.4137 194.31 15.2904V16.0243C194.31 16.9213 194.504 17.7164 194.891 18.4096C195.299 19.0824 195.86 19.6023 196.573 19.9692C197.307 20.3158 198.163 20.4891 199.142 20.4891C200.019 20.4891 200.783 20.3566 201.435 20.0915C202.108 19.8265 202.72 19.429 203.27 18.8989L205.809 21.6512C205.054 22.5074 204.106 23.17 202.965 23.6389C201.823 24.0874 200.508 24.3117 199.02 24.3117Z" fill="#00B4A6"/>
<path d="M11.743 24.4339C10.0509 24.4339 8.48106 24.1587 7.03357 23.6082C5.60647 23.0578 4.36285 22.2831 3.30272 21.2841C2.26297 20.2851 1.44749 19.1129 0.856261 17.7673C0.28542 16.4218 0 14.9539 0 13.3637C0 11.7735 0.28542 10.3056 0.856261 8.96006C1.44749 7.61451 2.27317 6.44224 3.3333 5.44327C4.39343 4.4443 5.63705 3.66959 7.06415 3.11914C8.49125 2.56868 10.0407 2.29346 11.7124 2.29346C13.4046 2.29346 14.954 2.56868 16.3607 3.11914C17.7878 3.66959 19.0212 4.4443 20.061 5.44327C21.1211 6.44224 21.9468 7.61451 22.538 8.96006C23.1292 10.2852 23.4248 11.7531 23.4248 13.3637C23.4248 14.9539 23.1292 16.432 22.538 17.7979C21.9468 19.1434 21.1211 20.3157 20.061 21.3147C19.0212 22.2933 17.7878 23.0578 16.3607 23.6082C14.954 24.1587 13.4147 24.4339 11.743 24.4339ZM11.7124 20.2138C12.6706 20.2138 13.5473 20.0507 14.3424 19.7245C15.1579 19.3983 15.8714 18.9294 16.483 18.3178C17.0946 17.7061 17.5635 16.9824 17.8897 16.1465C18.2363 15.3107 18.4096 14.383 18.4096 13.3637C18.4096 12.3443 18.2363 11.4167 17.8897 10.5808C17.5635 9.74496 17.0946 9.02122 16.483 8.4096C15.8918 7.79799 15.1884 7.32908 14.3729 7.00289C13.5575 6.6767 12.6706 6.5136 11.7124 6.5136C10.7542 6.5136 9.86738 6.6767 9.0519 7.00289C8.2568 7.32908 7.55344 7.79799 6.94183 8.4096C6.33021 9.02122 5.85111 9.74496 5.50453 10.5808C5.17834 11.4167 5.01524 12.3443 5.01524 13.3637C5.01524 14.3627 5.17834 15.2903 5.50453 16.1465C5.85111 16.9824 6.32002 17.7061 6.91125 18.3178C7.52286 18.9294 8.23641 19.3983 9.0519 19.7245C9.86738 20.0507 10.7542 20.2138 11.7124 20.2138Z" fill="#1A1A1A"/>
<path d="M36.5363 24.3116C35.15 24.3116 33.937 24.0058 32.8972 23.3942C31.8575 22.7826 31.042 21.8549 30.4508 20.6113C29.8799 19.3473 29.5945 17.7571 29.5945 15.8407C29.5945 13.9039 29.8697 12.3137 30.4202 11.0701C30.9706 9.82651 31.7657 8.8989 32.8055 8.28728C33.8452 7.67567 35.0888 7.36986 36.5363 7.36986C38.0858 7.36986 39.4721 7.72663 40.6953 8.44018C41.9389 9.13335 42.9175 10.1119 43.6311 11.3759C44.365 12.6399 44.732 14.1282 44.732 15.8407C44.732 17.5736 44.365 19.0721 43.6311 20.3361C42.9175 21.6001 41.9389 22.5787 40.6953 23.2718C39.4721 23.965 38.0858 24.3116 36.5363 24.3116ZM26.8117 29.9996V7.6145H31.3682V10.9784L31.2764 15.8713L31.5823 20.7336V29.9996H26.8117ZM35.7107 20.3973C36.5058 20.3973 37.2091 20.2138 37.8207 19.8468C38.4527 19.4798 38.9522 18.96 39.3192 18.2872C39.7065 17.594 39.9002 16.7785 39.9002 15.8407C39.9002 14.8825 39.7065 14.067 39.3192 13.3943C38.9522 12.7215 38.4527 12.2016 37.8207 11.8346C37.2091 11.4677 36.5058 11.2842 35.7107 11.2842C34.9156 11.2842 34.202 11.4677 33.57 11.8346C32.938 12.2016 32.4385 12.7215 32.0715 13.3943C31.7046 14.067 31.5211 14.8825 31.5211 15.8407C31.5211 16.7785 31.7046 17.594 32.0715 18.2872C32.4385 18.96 32.938 19.4798 33.57 19.8468C34.202 20.2138 34.9156 20.3973 35.7107 20.3973Z" fill="#1A1A1A"/>
<path d="M56.0906 24.3116C54.2149 24.3116 52.5636 23.9446 51.1365 23.2107C49.7298 22.4767 48.6391 21.4778 47.8643 20.2138C47.0896 18.9294 46.7023 17.4717 46.7023 15.8407C46.7023 14.1894 47.0794 12.7317 47.8338 11.4677C48.6085 10.1833 49.6584 9.18432 50.9836 8.47077C52.3087 7.73683 53.8072 7.36986 55.479 7.36986C57.0895 7.36986 58.537 7.71644 59.8214 8.4096C61.1262 9.08238 62.1557 10.061 62.9101 11.3454C63.6644 12.6094 64.0416 14.1282 64.0416 15.9019C64.0416 16.0854 64.0314 16.2994 64.011 16.5441C63.9906 16.7683 63.9702 16.9824 63.9498 17.1863H50.586V14.4034H61.4422L59.6073 15.2291C59.6073 14.3728 59.4341 13.6287 59.0875 12.9967C58.7409 12.3647 58.2618 11.8754 57.6502 11.5288C57.0386 11.1619 56.325 10.9784 55.5095 10.9784C54.694 10.9784 53.9703 11.1619 53.3383 11.5288C52.7267 11.8754 52.2476 12.3749 51.901 13.0273C51.5544 13.6593 51.3811 14.4136 51.3811 15.2903V16.0242C51.3811 16.9212 51.5748 17.7163 51.9622 18.4095C52.3699 19.0823 52.9306 19.6022 53.6441 19.9691C54.378 20.3157 55.2343 20.489 56.2129 20.489C57.0895 20.489 57.8541 20.3565 58.5064 20.0914C59.1792 19.8264 59.7908 19.4289 60.3413 18.8988L62.8795 21.6511C62.1252 22.5073 61.1772 23.1699 60.0355 23.6388C58.8938 24.0873 57.5788 24.3116 56.0906 24.3116Z" fill="#1A1A1A"/>
<path d="M77.2176 7.36986C78.5223 7.36986 79.6844 7.63489 80.7038 8.16496C81.7435 8.67464 82.559 9.46974 83.1502 10.5503C83.7414 11.6104 84.0371 12.9763 84.0371 14.6481V24.0669H79.2665V15.382C79.2665 14.0568 78.9708 13.0783 78.3796 12.4463C77.8088 11.8143 76.9933 11.4983 75.9332 11.4983C75.1788 11.4983 74.4959 11.6614 73.8843 11.9876C73.293 12.2934 72.8241 12.7725 72.4775 13.4248C72.1513 14.0772 71.9882 14.9131 71.9882 15.9325V24.0669H67.2177V7.6145H71.7742V12.171L70.9179 10.7949C71.5091 9.69399 72.3552 8.84793 73.4561 8.2567C74.557 7.66547 75.8108 7.36986 77.2176 7.36986Z" fill="#1A1A1A"/>
</svg>
