<svg width="906" height="692" viewBox="0 0 906 692" fill="none" xmlns="http://www.w3.org/2000/svg">
<path d="M905.681 581.033C905.678 578.402 905.556 481.403 905.363 328.587L905.681 328.906C809.969 328.925 692.53 328.95 565.803 328.976H565.775L566.164 328.587C566.15 419.27 566.137 505.186 566.126 581.032L565.775 580.681C767.031 580.889 902.577 581.029 905.681 581.033C902.579 581.036 767.032 581.176 565.775 581.384L565.423 581.385V581.032C565.412 505.186 565.399 419.27 565.386 328.587V328.198H565.775H565.803C692.53 328.225 809.969 328.249 905.681 328.269H906L906 328.587C905.807 481.403 905.685 578.404 905.681 581.033Z" fill="#1A1A1A"/>
<path d="M905.681 365.993C905.681 366.208 829.751 366.382 736.109 366.382C642.434 366.382 566.52 366.208 566.52 365.993C566.52 365.779 642.434 365.604 736.109 365.604C829.751 365.604 905.681 365.779 905.681 365.993Z" fill="#F1F4F8"/>
<path d="M586.419 347.141C586.419 349.968 584.127 352.259 581.3 352.259C578.474 352.259 576.182 349.968 576.182 347.141C576.182 344.314 578.474 342.023 581.3 342.023C584.127 342.023 586.419 344.314 586.419 347.141Z" fill="#F1F4F8"/>
<path d="M601.841 347.141C601.841 349.968 599.55 352.259 596.723 352.259C593.896 352.259 591.605 349.968 591.605 347.141C591.605 344.314 593.896 342.023 596.723 342.023C599.55 342.023 601.841 344.314 601.841 347.141Z" fill="#F1F4F8"/>
<path d="M617.264 347.141C617.264 349.968 614.972 352.259 612.146 352.259C609.319 352.259 607.028 349.968 607.028 347.141C607.028 344.314 609.319 342.023 612.146 342.023C614.972 342.023 617.264 344.314 617.264 347.141Z" fill="#F1F4F8"/>
<path d="M749.137 309.761C747.611 306.424 743.778 304.306 740.14 304.789C736.075 301.226 729.459 301.023 725.183 304.33C722.084 302.28 717.899 301.991 714.548 303.598C711.197 305.204 708.801 308.647 708.458 312.347C704.775 311.572 700.693 313.384 698.797 316.635C696.902 319.886 697.335 324.331 699.824 327.155C695.718 328.266 692.835 332.751 693.528 336.947C694.221 341.144 698.393 344.464 702.638 344.197L747.016 319.819C749.76 317.383 750.664 313.098 749.137 309.761Z" fill="white"/>
<path d="M701.317 345.349C703.807 326.317 720.495 312.392 739.665 313.344L741.57 313.439C762.05 315.659 771.605 334.293 768.819 354.703L762.447 422.951L762.104 426.264L714.236 433.411L715.169 415.981C715.169 415.981 695.576 411.929 696.313 392.176C696.669 382.636 699.001 363.05 701.317 345.349Z" fill="#FFC8A0"/>
<path d="M715.007 415.944C715.007 415.944 727.576 417.329 741.25 409.658C741.25 409.658 734.461 423.563 714.85 420.807L715.007 415.944Z" fill="#FFC8A0"/>
<path d="M705.598 364.545C705.471 366.03 706.626 367.363 708.175 367.524C709.722 367.684 711.081 366.613 711.208 365.126C711.334 363.64 710.181 362.306 708.634 362.145C707.084 361.985 705.725 363.059 705.598 364.545Z" fill="#1A1A1A"/>
<path d="M705.082 355.219C705.412 355.604 707.626 354.129 710.66 354.288C713.692 354.403 715.841 356.075 716.188 355.72C716.359 355.563 716.035 354.881 715.101 354.128C714.182 353.377 712.588 352.613 710.698 352.527C708.808 352.444 707.184 353.06 706.234 353.727C705.266 354.397 704.917 355.046 705.082 355.219Z" fill="#1A1A1A"/>
<path d="M732.373 366.364C732.246 367.85 733.4 369.182 734.95 369.343C736.497 369.504 737.856 368.432 737.982 366.945C738.109 365.46 736.954 364.125 735.408 363.965C733.858 363.804 732.499 364.878 732.373 366.364Z" fill="#1A1A1A"/>
<path d="M734.873 357.266C735.204 357.651 737.422 356.177 740.453 356.336C743.484 356.451 745.634 358.122 745.981 357.767C746.151 357.611 745.831 356.929 744.893 356.175C743.974 355.425 742.381 354.661 740.49 354.575C738.6 354.491 736.976 355.108 736.027 355.774C735.061 356.444 734.71 357.093 734.873 357.266Z" fill="#1A1A1A"/>
<path d="M722.745 379.218C722.768 379.046 720.898 378.626 717.862 378.084C717.092 377.966 716.366 377.775 716.262 377.24C716.107 376.671 716.472 375.852 716.893 374.969C717.714 373.131 718.574 371.204 719.477 369.184C723.076 360.943 725.721 354.152 725.388 354.01C725.055 353.868 721.868 360.432 718.27 368.673C717.401 370.706 716.57 372.644 715.78 374.498C715.443 375.364 714.889 376.337 715.227 377.518C715.407 378.108 715.955 378.556 716.444 378.714C716.934 378.891 717.369 378.921 717.751 378.962C720.818 379.281 722.725 379.389 722.745 379.218Z" fill="#1A1A1A"/>
<path d="M731.569 381.759C731.077 381.706 730.907 384.998 727.973 387.196C725.042 389.401 721.55 388.857 721.502 389.316C721.446 389.52 722.252 389.994 723.732 390.108C725.182 390.23 727.328 389.869 729.124 388.525C730.914 387.177 731.749 385.301 731.928 383.956C732.122 382.585 731.795 381.751 731.569 381.759Z" fill="#1A1A1A"/>
<path d="M734.68 345.338C734.939 346.178 737.987 345.937 741.524 346.544C745.075 347.078 747.894 348.263 748.403 347.547C748.63 347.203 748.169 346.402 747.048 345.546C745.937 344.692 744.14 343.842 742.015 343.499C739.89 343.159 737.917 343.401 736.594 343.864C735.261 344.325 734.571 344.941 734.68 345.338Z" fill="#F1F4F8"/>
<path d="M706.632 346.494C707.132 347.21 709.257 346.598 711.772 346.69C714.29 346.693 716.39 347.383 716.915 346.687C717.148 346.348 716.847 345.64 715.95 344.942C715.066 344.247 713.559 343.639 711.83 343.606C710.101 343.575 708.573 344.125 707.663 344.787C706.741 345.451 706.413 346.147 706.632 346.494Z" fill="#F1F4F8"/>
<path d="M703.665 336.389C703.665 336.389 709.487 324.285 715.591 321.696C722.982 318.562 725.695 326.638 732.668 325.057C739.642 323.477 746.698 320.468 753.462 326.134C760.866 332.335 757.059 336.238 757.099 345.022C757.262 380.631 763.248 390.996 765.924 374.359C766.217 372.537 771.375 371.332 772.514 363.627C773.99 353.635 774.982 341.463 773.095 334.227C771.504 328.127 768.287 323.808 762.374 318.928C753.04 311.226 739.733 310.409 730.646 310.87C721.56 311.33 703.611 320.869 703.665 336.389Z" fill="white"/>
<path d="M764.693 373.761C764.969 370.72 767.714 368.444 770.735 368.884C774.399 369.417 778.393 371.711 777.772 379.307C776.67 392.783 763.368 388.897 763.377 388.509C763.383 388.245 764.182 379.395 764.693 373.761Z" fill="#FFC8A0"/>
<path d="M766.723 383.678C766.786 383.64 766.945 383.862 767.327 384.076C767.699 384.284 768.354 384.461 769.078 384.255C770.544 383.849 771.928 381.687 772.192 379.264C772.326 378.04 772.165 376.851 771.809 375.849C771.478 374.83 770.898 374.089 770.191 373.903C769.492 373.68 768.949 374.067 768.753 374.433C768.542 374.795 768.605 375.071 768.532 375.089C768.492 375.119 768.262 374.839 768.415 374.291C768.493 374.028 768.677 373.723 769.015 373.491C769.359 373.254 769.846 373.159 770.341 373.254C771.374 373.41 772.231 374.443 772.622 375.543C773.07 376.653 773.28 377.991 773.129 379.365C772.82 382.074 771.223 384.501 769.229 384.905C768.261 385.075 767.494 384.724 767.111 384.373C766.721 384.006 766.675 383.698 766.723 383.678Z" fill="#FFC8A0"/>
<path d="M765.728 347.597C763.916 348.707 762.003 349.848 759.881 349.952C757.758 350.057 755.403 348.724 755.151 346.614C755.037 345.666 755.321 344.587 754.74 343.831C754.046 342.928 752.672 343.132 751.535 343.195C747.591 343.417 743.71 340.442 742.901 336.575C741.826 338.023 739.493 337.842 738.027 336.791C736.561 335.739 735.665 334.093 734.547 332.676C733.429 331.26 731.826 329.964 730.03 330.129C729.025 330.221 728.061 330.768 727.062 330.629C725.297 330.384 724.535 328.265 724.354 326.493C724.173 324.721 724.067 322.658 722.613 321.627C721.267 320.672 719.438 321.094 717.794 321.254C716.151 321.413 714.063 320.925 713.725 319.309C713.547 318.461 713.95 317.599 714.45 316.891C716.716 313.687 721.372 312.445 724.933 314.095C726.475 309.7 730.818 306.437 735.468 306.179C740.118 305.92 744.796 308.683 746.815 312.88C749.797 310.433 753.995 309.553 757.708 310.597C761.421 311.639 764.547 314.578 765.818 318.219C769.144 317.518 772.823 318.974 774.77 321.76C776.716 324.547 776.817 328.502 775.014 331.384C777.372 332.891 779.329 335.405 779.24 338.201C779.152 340.997 776.292 343.645 773.633 342.776C774.614 345.005 773.581 347.914 771.413 349.024C769.245 350.134 766.282 349.274 765.046 347.175" fill="white"/>
<path d="M774.624 342.796C774.672 342.762 774.816 343.943 773.654 345.348C773.08 346.014 772.122 346.689 770.869 346.827C769.643 346.971 768.168 346.598 767.077 345.517L767.652 345.46C766.927 346.589 765.987 347.729 764.791 348.692C764.021 349.305 763.175 349.819 762.255 350.099C761.352 350.408 760.343 350.391 759.526 350.217C757.825 349.943 756.378 348.95 755.742 347.789C755.077 346.652 754.901 345.616 754.789 344.926C754.686 344.229 754.693 343.838 754.739 343.831C754.799 343.821 754.894 344.197 755.085 344.862C755.281 345.519 755.546 346.503 756.205 347.491C757.387 349.491 761.507 350.686 764.306 348.084C765.417 347.191 766.325 346.114 767.031 345.057L767.289 344.672L767.607 345C768.49 345.912 769.75 346.282 770.81 346.199C771.885 346.126 772.749 345.595 773.316 345.033C774.461 343.857 774.508 342.755 774.624 342.796Z" fill="white"/>
<path d="M750.653 310.704C750.658 310.751 750.296 310.781 749.681 311.006C749.08 311.235 748.185 311.699 747.496 312.684L747.322 312.933L747.148 312.674C745.97 310.919 743.963 308.638 740.884 307.066C739.354 306.294 737.56 305.728 735.628 305.635C733.706 305.53 731.666 305.985 729.832 306.985C728.405 307.76 727.185 308.826 726.268 310.041C725.37 311.272 724.789 312.657 724.582 314.037L724.518 314.462L724.114 314.329C722.114 313.671 720.028 313.963 718.471 314.733C716.891 315.503 715.849 316.744 715.239 317.869C714.033 320.189 714.337 321.851 714.199 321.825C714.168 321.829 714.076 321.444 714.091 320.713C714.113 319.99 714.258 318.901 714.852 317.67C715.436 316.456 716.507 315.077 718.2 314.197C719.864 313.321 722.115 312.95 724.338 313.647L723.871 313.939C724.075 312.435 724.693 310.92 725.655 309.589C726.633 308.272 727.937 307.129 729.46 306.301C731.414 305.234 733.613 304.754 735.668 304.884C737.724 305 739.609 305.626 741.196 306.461C744.388 308.165 746.386 310.59 747.503 312.448L747.155 312.437C747.968 311.39 748.961 310.966 749.613 310.793C750.283 310.626 750.653 310.674 750.653 310.704Z" fill="white"/>
<path d="M736.113 383.955C735.894 383.945 735.881 382.519 734.792 381.286C733.745 380.017 732.339 379.78 732.363 379.562C732.367 379.466 732.75 379.372 733.359 379.507C733.962 379.637 734.761 380.054 735.383 380.781C736.003 381.51 736.29 382.364 736.323 382.981C736.361 383.603 736.208 383.966 736.113 383.955Z" fill="#FFC8A0"/>
<path d="M737.495 380.285C737.301 380.391 736.834 379.897 736.133 379.542C735.442 379.167 734.77 379.063 734.747 378.843C734.702 378.637 735.57 378.366 736.494 378.853C737.42 379.337 737.691 380.206 737.495 380.285Z" fill="#FFC8A0"/>
<path d="M752.044 412.666C752.036 412.602 752.244 412.573 752.422 412.329C752.598 412.094 752.745 411.629 752.513 411.138C752.319 410.616 751.731 410.137 751.355 409.243C751.169 408.818 751.135 408.159 751.449 407.671C751.732 407.195 752.128 406.89 752.372 406.562C753.469 405.264 750.461 404.204 750.922 402.502C751.022 401.784 751.413 401.318 751.718 401.095C752.036 400.873 752.255 400.857 752.272 400.9C752.353 400.985 751.523 401.39 751.471 402.546C751.438 403.118 751.763 403.616 752.396 404.183C752.693 404.473 753.051 404.835 753.257 405.346C753.505 405.85 753.368 406.621 752.991 407.034C752.651 407.467 752.287 407.751 752.104 408.06C751.917 408.35 751.917 408.657 752.03 409.001C752.252 409.672 752.832 410.258 753.031 410.953C753.27 411.667 752.957 412.311 752.635 412.545C752.292 412.805 752.031 412.703 752.044 412.666Z" fill="#FFC8A0"/>
<path d="M756.254 412.224C756.192 412.213 756.197 412.022 756.099 411.729C756.005 411.431 755.762 411.052 755.402 410.563C755.228 410.315 755.025 410.036 754.86 409.673C754.696 409.319 754.584 408.824 754.724 408.345C754.995 407.383 755.815 406.813 756.221 406.128C756.675 405.456 756.324 404.856 755.773 404.244C755.518 403.936 755.251 403.611 755.09 403.222C754.931 402.837 754.9 402.45 754.929 402.114C755.109 400.71 756.07 400.34 756.067 400.439C756.161 400.52 755.475 401.024 755.479 402.137C755.478 402.699 755.741 403.204 756.313 403.773C756.576 404.069 756.91 404.4 757.102 404.918C757.306 405.436 757.173 406.091 756.887 406.529C756.322 407.403 755.593 407.917 755.414 408.541C755.207 409.127 755.586 409.749 755.868 410.271C756.168 410.793 756.386 411.296 756.397 411.674C756.412 412.052 756.294 412.236 756.254 412.224Z" fill="#FFC8A0"/>
<path d="M789.458 521.24L807.375 538.507L801.587 505.48L837.954 493.977C837.954 493.977 847.612 539.302 849.292 550.022C852.306 569.259 848.605 596.601 830.68 598.525C811.288 600.606 796.645 581.481 787.327 568.93C780.163 559.28 768.602 542.41 768.602 542.41L789.458 521.24Z" fill="white"/>
<path d="M650.913 491.867C645.077 510.244 636.919 513.02 633.697 565.659C633.068 575.923 635.283 589.62 645.02 592.929C655.837 596.605 672.391 589.909 677.584 581.033V544.782L650.913 491.867Z" fill="white"/>
<path d="M675.02 568.751C674.824 568.811 673.82 565.078 671.439 561.016C669.091 556.933 666.347 554.211 666.496 554.071C666.552 554.013 667.31 554.619 668.378 555.766C669.445 556.909 670.793 558.62 671.998 560.692C673.198 562.764 674.017 564.783 674.481 566.277C674.947 567.772 675.097 568.731 675.02 568.751Z" fill="#1A1A1A"/>
<path d="M642.124 513.052C642.43 511.963 660.38 463.107 666.106 452.413C672.956 439.621 687.357 433.962 696.297 433.411C705.237 432.861 800.899 440.484 800.899 440.484C800.899 440.484 827.695 447.215 833.116 471.46C839.915 501.864 845.385 531.846 845.385 531.846L797.439 542.199L791.798 527.995L701.709 548.095L679.71 515.555L642.124 513.052Z" fill="white"/>
<path d="M807.219 443.27L769.853 426.796L765.666 410.681L722.049 431.301L712.913 421.208L709.088 432.584L699.53 435.708L680.726 472.793L677.26 558.716L677.583 581.032L806.492 581.891L805.446 545.349L807.219 443.27Z" fill="white"/>
<path d="M765.666 410.681C765.666 410.681 760.789 412.092 748.265 418.775C735.995 425.322 722.049 431.301 722.049 431.301L723.11 450.996L769.527 427.693" fill="#F1F4F8"/>
<path d="M712.913 421.208L722.049 431.302L717.166 452.414L709.029 433.332" fill="#F1F4F8"/>
<path d="M721.879 433.48C721.475 433.782 718.938 457.844 718.938 457.844L765.465 429.732L723.109 450.996L721.879 433.48Z" fill="#1A1A1A"/>
<path d="M722.303 581.33C722.303 581.33 721.346 545.649 722.194 523.284C722.893 504.88 719.992 457.927 719.992 457.927L713.927 456.95C713.927 456.95 702.598 502.594 698.367 558.524C696.655 581.159 696.655 581.159 696.655 581.159" fill="#FFDFD9"/>
<path d="M796.171 486.661C796.215 486.654 796.367 487.332 796.603 488.563C796.847 489.91 797.165 491.668 797.549 493.786C798.327 498.312 799.366 504.357 800.514 511.039C801.688 517.776 802.69 523.89 803.346 528.324C803.677 530.54 803.932 532.336 804.091 533.579C804.252 534.823 804.32 535.513 804.276 535.52C804.232 535.528 804.08 534.85 803.843 533.619C803.599 532.273 803.279 530.515 802.895 528.397C802.103 523.873 801.046 517.83 799.878 511.149C798.715 504.41 797.757 498.292 797.097 493.859C796.796 491.727 796.547 489.958 796.355 488.603C796.195 487.359 796.127 486.668 796.171 486.661Z" fill="#1A1A1A"/>
<path d="M810.001 446.116C810.073 446.207 808.741 447.244 806.857 449.185C804.971 451.119 802.606 454.041 800.648 457.669C798.702 461.305 797.568 464.89 796.996 467.53C796.417 470.172 796.287 471.855 796.171 471.845C796.127 471.842 796.125 471.42 796.161 470.656C796.186 469.891 796.312 468.789 796.548 467.44C797.012 464.744 798.096 461.065 800.079 457.363C802.072 453.669 804.542 450.735 806.535 448.861C807.529 447.92 808.379 447.207 809.004 446.764C809.621 446.313 809.974 446.081 810.001 446.116Z" fill="#1A1A1A"/>
<path d="M722.195 440.718L718.041 439.098L714.102 445.853L713.391 456.95L718.939 457.843L723.11 450.996L722.195 440.718Z" fill="#FFDFD9"/>
<path d="M677.261 473.732C677.439 473.732 677.584 497.754 677.584 527.38C677.584 557.016 677.439 581.032 677.261 581.032C677.082 581.032 676.937 557.016 676.937 527.38C676.937 497.754 677.082 473.732 677.261 473.732Z" fill="#1A1A1A"/>
<path d="M722.488 431.13C722.567 431.185 721.593 432.677 720.118 435.144C718.645 437.61 716.696 441.07 714.837 445.036C714.685 445.361 714.535 445.685 714.395 445.987L714.105 446.612L713.811 445.992C712.02 442.223 710.728 438.717 709.927 436.156C709.524 434.876 709.236 433.834 709.058 433.109C708.881 432.384 708.809 431.979 708.849 431.967C708.938 431.942 709.436 433.503 710.346 436.014C711.252 438.526 712.606 441.978 714.393 445.714L713.808 445.719C713.949 445.415 714.1 445.089 714.252 444.761C716.124 440.767 718.151 437.317 719.731 434.902C720.52 433.693 721.194 432.739 721.677 432.092C722.162 431.447 722.452 431.105 722.488 431.13Z" fill="#1A1A1A"/>
<path d="M769.853 426.797C769.863 426.817 769.643 426.948 769.216 427.179C768.723 427.437 768.1 427.763 767.334 428.164C765.619 429.052 763.269 430.269 760.399 431.756C754.549 434.799 746.537 439.134 737.659 443.877C732.253 446.758 727.132 449.428 722.677 451.656L722.266 451.862L722.261 451.406C722.205 445.628 722.157 440.759 722.123 437.238C722.126 435.584 722.129 434.249 722.131 433.245C722.142 432.322 722.164 431.827 722.195 431.827C722.226 431.826 722.265 432.319 722.31 433.242C722.348 434.245 722.398 435.579 722.461 437.232C722.554 440.752 722.682 445.619 722.833 451.396L722.418 451.145C726.847 448.877 731.951 446.187 737.356 443.307C746.23 438.565 754.283 434.29 760.191 431.349C763.143 429.874 765.549 428.717 767.223 427.938C768.011 427.581 768.652 427.292 769.159 427.062C769.605 426.869 769.844 426.776 769.853 426.797Z" fill="#1A1A1A"/>
<path d="M682.873 441.974C682.966 442.03 682.236 443.268 681.296 445.372C680.353 447.473 679.273 450.481 678.633 453.933C678.003 457.388 677.942 460.584 678.076 462.882C678.206 465.184 678.448 466.6 678.341 466.619C678.297 466.628 678.196 466.282 678.05 465.646C677.896 465.012 677.744 464.079 677.62 462.918C677.367 460.599 677.355 457.336 677.997 453.816C678.649 450.299 679.821 447.254 680.883 445.177C681.412 444.136 681.885 443.318 682.255 442.78C682.617 442.237 682.835 441.95 682.873 441.974Z" fill="#1A1A1A"/>
<path d="M717.924 458.562C717.829 458.713 716.774 458.218 715.568 457.456C714.362 456.695 713.462 455.955 713.557 455.804C713.652 455.653 714.707 456.148 715.913 456.91C717.119 457.671 718.02 458.411 717.924 458.562Z" fill="#1A1A1A"/>
<path d="M719.919 455.851C719.756 455.923 718.493 453.408 717.099 450.234C715.704 447.059 714.706 444.427 714.869 444.355C715.033 444.284 716.295 446.799 717.69 449.974C719.085 453.148 720.083 455.78 719.919 455.851Z" fill="#1A1A1A"/>
<path d="M746.198 554.117C745.953 553.095 745.642 551.973 744.76 551.401C743.217 550.398 741.288 551.718 739.707 552.66C735.551 555.136 730.409 555.048 725.576 554.837C711.001 554.202 696.421 553.12 682.035 550.705C674.988 549.522 667.885 547.981 661.583 544.614C655.281 541.246 649.794 535.815 647.768 528.963L644.402 527.134C647.011 532.702 646.742 548.467 647.678 554.544C648.614 560.621 651.306 564.952 657.157 566.841C659.508 567.6 662.039 567.486 664.506 567.364C688.497 566.175 712.705 567.255 736.696 566.066C740.125 565.896 744.088 565.432 745.934 562.538C747.489 560.101 746.87 556.928 746.198 554.117Z" fill="#1A1A1A"/>
<path d="M836.346 567.82C836.338 567.824 836.282 567.728 836.181 567.539C836.07 567.324 835.926 567.045 835.745 566.694C835.553 566.31 835.322 565.848 835.051 565.308C834.706 564.793 834.311 564.203 833.868 563.54C832.048 560.899 828.91 557.391 824.556 553.423C820.22 549.434 814.716 544.946 808.527 539.815C805.449 537.229 802.17 534.514 798.888 531.492C795.613 528.469 792.241 525.226 789.216 521.431L789.682 521.454C783.856 527.547 777.54 534.152 770.998 540.994C770.143 541.887 769.292 542.776 768.502 543.601L768.534 543.195C775.598 553.521 782.019 563.515 788.773 571.893C792.12 576.104 795.57 579.864 798.935 583.251C802.283 586.647 805.559 589.656 808.815 592.049C815.271 596.923 821.758 599.018 826.266 598.907C826.827 598.907 827.359 598.931 827.856 598.913C828.35 598.86 828.813 598.81 829.245 598.763C829.674 598.718 830.071 598.675 830.437 598.637C830.79 598.557 831.113 598.484 831.405 598.418C831.96 598.298 832.396 598.203 832.723 598.132C833.022 598.071 833.176 598.045 833.179 598.055C833.183 598.066 833.034 598.113 832.741 598.194C832.416 598.281 831.983 598.396 831.433 598.543C831.141 598.618 830.818 598.701 830.464 598.792C830.097 598.84 829.699 598.893 829.268 598.95C828.833 599.005 828.367 599.065 827.869 599.129C827.368 599.158 826.831 599.144 826.263 599.153C821.706 599.344 815.09 597.281 808.549 592.411C805.249 590.021 801.937 587.014 798.561 583.622C795.173 580.246 791.686 576.477 788.315 572.262C781.509 563.873 775.058 553.869 768.003 543.562L767.854 543.344L768.035 543.155C768.825 542.33 769.676 541.44 770.531 540.547C777.08 533.712 783.402 527.113 789.235 521.026L789.481 520.77L789.702 521.049C792.683 524.804 796.029 528.042 799.281 531.064C802.539 534.086 805.804 536.811 808.866 539.409C815.026 544.567 820.508 549.098 824.82 553.139C829.15 557.156 832.263 560.727 834.04 563.424C834.471 564.101 834.854 564.703 835.189 565.23C835.444 565.783 835.661 566.256 835.842 566.649C836.004 567.01 836.132 567.297 836.231 567.519C836.316 567.716 836.355 567.817 836.346 567.82Z" fill="#1A1A1A"/>
<path d="M772.889 549.223L770.855 548.605C772.611 558.695 778.142 572.953 783.142 581.891H797.713C792.194 574.987 772.889 549.223 772.889 549.223Z" fill="#1A1A1A"/>
<path d="M786.587 524.086L757.086 491.866L739.397 488.509L719.325 491.052C719.325 491.052 718.477 494.231 721.868 495.926L714.451 496.35C714.451 496.35 712.968 500.164 717.206 501.86L711.908 502.79C711.908 502.79 714.239 508.217 720.172 507.157C726.106 506.098 735.854 506.098 735.854 506.098L746.238 511.82L730.768 511.184L719.537 513.303C719.537 513.303 718.053 516.175 720.596 516.858C723.139 517.541 732.887 516.858 732.887 516.858L746.907 521.306C746.907 521.306 752.386 529.082 754.293 531.201C756.2 533.32 765.31 537.249 765.31 537.249L769.799 541.268L786.587 524.086Z" fill="#FFC8A0"/>
<path d="M714.451 496.35C714.468 496.508 716.669 496.415 720.213 496.137C723.758 495.859 728.646 495.396 734.037 494.815C735.836 494.614 737.571 494.419 739.212 494.236L738.999 494.217C743.011 495.349 746.496 496.287 748.987 496.91C751.478 497.534 752.975 497.843 753.012 497.716C753.049 497.589 751.62 497.048 749.183 496.238C746.745 495.429 743.301 494.352 739.307 493.156L739.206 493.125L739.094 493.137C737.451 493.308 735.714 493.488 733.915 493.675C728.523 494.256 723.649 494.847 720.127 495.331C716.604 495.815 714.434 496.193 714.451 496.35Z" fill="#FFC8A0"/>
<path d="M713.173 502.569C713.196 502.725 715.19 502.578 718.396 502.214C721.601 501.849 726.018 501.267 730.886 500.554C732.571 500.299 734.195 500.054 735.731 499.822L735.447 499.788C742.411 502.505 747.546 504.325 747.643 504.082C747.741 503.839 742.77 501.61 735.857 498.765L735.723 498.71L735.572 498.731C734.033 498.95 732.407 499.18 730.719 499.419C725.852 500.133 721.453 500.842 718.278 501.412C715.103 501.981 713.15 502.412 713.173 502.569Z" fill="#FFC8A0"/>
<path d="M638.093 497.558L653.047 554.052C653.876 557.183 656.739 559.342 659.977 559.279L737.415 557.758C741.821 557.671 745.061 553.596 744.152 549.284L732.747 495.178C732.062 491.928 729.194 489.601 725.873 489.601H644.217C640.06 489.601 637.029 493.538 638.093 497.558Z" fill="#1A1A1A"/>
<path d="M688.703 512.371C690.803 513.403 691.761 515.752 690.844 517.618C689.927 519.483 687.482 520.159 685.383 519.127C683.283 518.096 682.324 515.747 683.241 513.881C684.158 512.015 686.604 511.339 688.703 512.371Z" fill="white"/>
<path d="M632.474 509.928C630.963 508.262 631.095 505.505 632.443 503.705C633.791 501.905 636.094 501.001 638.341 500.918C640.588 500.834 642.8 501.477 644.9 502.279C647.493 503.27 649.989 504.516 652.34 505.991C654.001 507.034 655.721 508.391 656.046 510.324C656.371 512.258 654.27 514.465 652.566 513.495C654.78 514.428 657.012 516.769 657.368 519.216C657.723 521.663 656.416 522.978 654.046 523.683C655.849 524.384 657.001 526.648 656.176 528.398C655.308 530.237 652.772 530.742 650.872 530.015C648.973 529.289 647.57 527.684 646.249 526.138C647.601 528.457 648.078 531.272 647.568 533.907C642.337 532.12 638.322 527.19 637.631 521.706C635.065 519.776 634.208 515.899 635.722 513.068C633.612 512.409 631.221 509.192 631.386 506.987" fill="#FFC8A0"/>
<path d="M653.999 523.706C653.94 523.772 653.115 523.053 651.735 521.976C650.356 520.928 648.349 519.479 645.772 518.925C644.497 518.655 643.229 518.655 642.144 518.929C641.055 519.199 640.152 519.712 639.496 520.252C638.167 521.357 637.871 522.478 637.772 522.426C637.743 522.417 637.775 522.137 637.974 521.672C638.17 521.209 638.563 520.571 639.229 519.947C639.894 519.33 640.841 518.74 642.01 518.418C643.179 518.092 644.539 518.077 645.892 518.364C648.623 518.955 650.664 520.524 651.992 521.662C653.324 522.835 654.047 523.655 653.999 523.706Z" fill="#FFC8A0"/>
<path d="M653.421 513.732C653.389 513.808 652.319 513.394 650.673 512.586C649.846 512.193 648.869 511.715 647.748 511.308C646.632 510.918 645.333 510.575 643.985 510.334C642.631 510.102 641.315 510.072 640.164 510.296C639.013 510.518 638.04 510.996 637.333 511.526C635.885 512.603 635.581 513.788 635.484 513.732C635.455 513.724 635.49 513.432 635.703 512.95C635.92 512.473 636.351 511.816 637.082 511.208C637.805 510.599 638.826 510.047 640.056 509.779C641.284 509.509 642.677 509.528 644.08 509.768C645.485 510.021 646.771 510.377 647.933 510.813C649.083 511.262 650.053 511.785 650.858 512.226C652.459 513.126 653.45 513.662 653.421 513.732Z" fill="#FFC8A0"/>
<path d="M620.537 386.738L601.634 386.311C598 379.33 592.453 373.235 585.203 368.902C564.35 356.438 537.343 363.239 524.88 384.091C512.417 404.944 519.218 431.951 540.07 444.414C560.922 456.877 587.929 450.076 600.393 429.224C605.597 420.517 607.43 410.738 606.296 401.392L606.305 401.415L620.537 386.738Z" fill="#F1F4F8"/>
<path d="M620.537 386.737C619.866 387.438 615.399 392.107 606.403 401.508L606.258 401.66L606.18 401.464L606.171 401.441L606.431 401.375C606.812 404.526 606.914 408.089 606.471 411.94C606.003 415.782 605.024 419.918 603.239 424.064C602.338 426.129 601.298 428.227 599.967 430.225C599.294 431.219 598.643 432.252 597.924 433.255C597.138 434.21 596.341 435.177 595.534 436.158C592.134 439.93 587.897 443.332 582.929 445.898C577.971 448.467 572.291 450.194 566.275 450.705C560.271 451.215 553.921 450.529 547.869 448.367C541.83 446.199 536.091 442.649 531.333 437.879C526.601 433.111 522.739 427.179 520.638 420.5L519.863 417.943C519.595 417.094 519.486 416.208 519.291 415.346C519.14 414.475 518.889 413.621 518.821 412.741L518.549 410.118C518.425 409.248 518.43 408.372 518.429 407.5C518.423 406.627 518.417 405.756 518.411 404.888C518.486 404.023 518.561 403.16 518.636 402.3C518.728 401.441 518.748 400.575 518.946 399.736C520.047 392.948 522.715 386.601 526.464 381.251C530.21 375.897 535.015 371.503 540.344 368.456C545.662 365.382 551.408 363.544 557.024 362.832C562.648 362.111 568.134 362.514 573.12 363.714C578.121 364.934 582.518 367.084 586.385 369.415C590.204 371.85 593.36 374.696 595.886 377.604C598.415 380.517 600.31 383.489 601.749 386.25L601.637 386.18C613.709 386.536 619.61 386.71 620.537 386.737C619.61 386.723 613.707 386.63 601.631 386.44L601.555 386.439L601.518 386.37C600.069 383.636 598.169 380.694 595.644 377.815C593.123 374.941 589.979 372.132 586.184 369.732C582.339 367.436 577.975 365.32 573.019 364.126C568.078 362.953 562.646 362.568 557.083 363.293C551.527 364.011 545.848 365.84 540.595 368.887C535.33 371.908 530.589 376.257 526.892 381.551C523.193 386.843 520.562 393.115 519.478 399.82C519.281 400.649 519.263 401.505 519.173 402.352C519.099 403.203 519.025 404.055 518.951 404.909C518.958 405.767 518.964 406.627 518.971 407.489C518.971 408.351 518.966 409.216 519.089 410.076L519.358 412.666C519.425 413.535 519.674 414.379 519.823 415.239C520.017 416.091 520.124 416.966 520.389 417.804L521.154 420.33C523.229 426.929 527.043 432.787 531.714 437.499C536.411 442.212 542.079 445.726 548.044 447.874C554.022 450.016 560.296 450.702 566.234 450.207C572.182 449.711 577.804 448.013 582.714 445.482C587.635 442.954 591.837 439.598 595.214 435.872C596.017 434.903 596.809 433.947 597.59 433.004C598.305 432.012 598.953 430.991 599.624 430.009C600.95 428.032 601.987 425.956 602.888 423.914C604.672 419.81 605.661 415.712 606.144 411.901C606.602 408.081 606.521 404.542 606.162 401.408L606.045 400.383L606.422 401.341L606.431 401.364L606.208 401.32C615.329 392.038 619.858 387.428 620.537 386.737Z" fill="#1A1A1A"/>
<path d="M549.597 405.539C549.597 408.007 547.596 410.008 545.129 410.008C542.66 410.008 540.66 408.007 540.66 405.539C540.66 403.071 542.66 401.071 545.129 401.071C547.596 401.071 549.597 403.071 549.597 405.539Z" fill="#1A1A1A"/>
<path d="M567.48 405.539C567.48 408.007 565.479 410.008 563.012 410.008C560.543 410.008 558.543 408.007 558.543 405.539C558.543 403.071 560.543 401.071 563.012 401.071C565.479 401.071 567.48 403.071 567.48 405.539Z" fill="#1A1A1A"/>
<path d="M585.316 403.305C586.55 405.442 585.818 408.175 583.681 409.409C581.543 410.643 578.81 409.911 577.576 407.773C576.343 405.636 577.075 402.903 579.212 401.669C581.349 400.435 584.082 401.167 585.316 403.305Z" fill="#1A1A1A"/>
<path d="M766.582 277.767C766.578 275.151 766.457 179.846 766.264 29.2679L766.582 29.585C671.199 29.6052 553.642 29.63 426.703 29.6567H426.675L427.064 29.2679C427.051 118.426 427.038 202.945 427.027 277.767L426.675 277.415C627.774 277.624 763.465 277.764 766.582 277.767C763.467 277.771 627.774 277.911 426.675 278.12L426.323 278.12L426.323 277.767C426.312 202.945 426.299 118.426 426.286 29.2679L426.286 28.8789H426.675H426.703C553.642 28.9056 671.199 28.9304 766.582 28.9506L766.899 28.9508L766.899 29.2679C766.707 179.846 766.585 275.153 766.582 277.767Z" fill="#1A1A1A"/>
<path d="M767.734 65.432C767.734 65.647 691.804 65.821 598.161 65.821C504.486 65.821 428.573 65.647 428.573 65.432C428.573 65.2174 504.486 65.0432 598.161 65.0432C691.804 65.0432 767.734 65.2174 767.734 65.432Z" fill="#F1F4F8"/>
<path d="M448.471 46.58C448.471 49.4068 446.179 51.6983 443.352 51.6983C440.526 51.6983 438.234 49.4068 438.234 46.58C438.234 43.7534 440.526 41.4619 443.352 41.4619C446.179 41.4619 448.471 43.7534 448.471 46.58Z" fill="#F1F4F8"/>
<path d="M463.893 46.58C463.893 49.4068 461.602 51.6983 458.775 51.6983C455.949 51.6983 453.657 49.4068 453.657 46.58C453.657 43.7534 455.949 41.4619 458.775 41.4619C461.602 41.4619 463.893 43.7534 463.893 46.58Z" fill="#F1F4F8"/>
<path d="M479.317 46.58C479.317 49.4068 477.025 51.6983 474.199 51.6983C471.372 51.6983 469.08 49.4068 469.08 46.58C469.08 43.7534 471.372 41.4619 474.199 41.4619C477.025 41.4619 479.317 43.7534 479.317 46.58Z" fill="#F1F4F8"/>
<path d="M448.771 127.639L450.915 126.275C454.851 123.772 460.072 125.127 462.318 129.216C465.769 135.498 470.049 144.271 470.049 144.271L460.993 158.61L457.955 158.7C454.66 160.8 446.961 156.557 441.751 153.397C436.541 150.237 439.106 147.052 439.106 147.052C435.841 142.552 440.343 140.696 440.343 140.696C437.573 136.603 441.666 133.832 441.666 133.832" fill="#FFC8A0"/>
<path d="M444.256 82.3084L378.767 94.8582L396.34 186.558L461.829 174.008L444.256 82.3084Z" fill="white"/>
<path d="M396.341 186.558C396.335 186.566 396.302 186.428 396.241 186.148C396.176 185.838 396.09 185.424 395.979 184.889C395.748 183.737 395.416 182.082 394.988 179.943C394.126 175.564 392.876 169.21 391.296 161.184C388.149 144.986 383.69 122.043 378.421 94.9253L378.353 94.5783L378.701 94.5114C398.485 90.7093 420.731 86.4339 444.175 81.9282L444.183 81.9267L444.565 81.8535L444.638 82.2358C451.19 116.573 457.251 148.331 462.139 173.949L462.198 174.26L461.888 174.318C441.97 178.066 425.562 181.152 414.101 183.308C408.433 184.359 403.99 185.183 400.931 185.75C399.449 186.018 398.303 186.226 397.497 186.372C396.724 186.508 396.341 186.558 396.341 186.558C396.341 186.558 396.761 186.455 397.55 186.292C398.366 186.127 399.527 185.892 401.029 185.589C404.097 184.982 408.553 184.1 414.238 182.975C425.637 180.75 441.957 177.565 461.77 173.699L461.519 174.068C456.59 148.458 450.481 116.709 443.874 82.3821L444.329 82.6907L444.322 82.6922C420.872 87.173 398.623 91.4245 378.835 95.2057L379.115 94.7922C384.226 121.844 388.55 144.732 391.603 160.89C393.11 168.965 394.302 175.357 395.124 179.763C395.522 181.939 395.83 183.622 396.045 184.794C396.142 185.349 396.218 185.779 396.274 186.1C396.324 186.396 396.346 186.55 396.341 186.558Z" fill="#1A1A1A"/>
<path d="M389.699 115.865C389.659 115.654 400.469 113.405 413.842 110.843C427.22 108.279 438.093 106.373 438.134 106.584C438.174 106.795 427.366 109.043 413.989 111.607C400.616 114.169 389.74 116.076 389.699 115.865Z" fill="#1A1A1A"/>
<path d="M390.94 122.341C390.899 122.13 401.71 119.881 415.083 117.318C428.46 114.754 439.334 112.848 439.375 113.059C439.415 113.27 428.607 115.518 415.229 118.082C401.856 120.644 390.98 122.551 390.94 122.341Z" fill="#1A1A1A"/>
<path d="M392.181 128.816C392.14 128.605 402.951 126.356 416.324 123.793C429.702 121.23 440.575 119.323 440.616 119.534C440.656 119.745 429.848 121.994 416.47 124.557C403.098 127.12 392.221 129.027 392.181 128.816Z" fill="#1A1A1A"/>
<path d="M393.422 135.291C393.382 135.08 404.192 132.831 417.565 130.268C430.943 127.705 441.816 125.798 441.857 126.009C441.897 126.22 431.089 128.469 417.711 131.032C404.339 133.595 393.462 135.502 393.422 135.291Z" fill="#1A1A1A"/>
<path d="M394.663 141.766C394.622 141.555 405.433 139.306 418.806 136.743C432.183 134.18 443.057 132.273 443.097 132.484C443.138 132.695 432.329 134.944 418.952 137.507C405.579 140.07 394.703 141.977 394.663 141.766Z" fill="#1A1A1A"/>
<path d="M395.903 148.241C395.863 148.03 406.673 145.781 420.046 143.218C433.424 140.655 444.298 138.748 444.338 138.959C444.379 139.17 433.57 141.419 420.193 143.982C406.82 146.545 395.944 148.452 395.903 148.241Z" fill="#1A1A1A"/>
<path d="M397.144 154.716C397.104 154.505 407.914 152.256 421.287 149.693C434.665 147.13 445.539 145.223 445.579 145.434C445.62 145.645 434.811 147.894 421.434 150.457C408.061 153.02 397.185 154.927 397.144 154.716Z" fill="#1A1A1A"/>
<path d="M398.385 161.192C398.345 160.981 409.155 158.732 422.528 156.169C435.906 153.605 446.779 151.699 446.82 151.91C446.86 152.121 436.052 154.369 422.675 156.933C409.302 159.496 398.426 161.403 398.385 161.192Z" fill="#1A1A1A"/>
<path d="M399.626 167.668C399.586 167.457 410.396 165.208 423.769 162.645C437.147 160.081 448.02 158.175 448.061 158.386C448.101 158.597 437.293 160.845 423.916 163.409C410.543 165.972 399.666 167.878 399.626 167.668Z" fill="#1A1A1A"/>
<path d="M435.238 87.4198C435.291 87.4098 435.455 87.9912 435.705 89.0514C435.975 90.2782 436.305 91.7821 436.694 93.5549C436.794 94.0366 436.898 94.5358 437.006 95.0519C437.116 95.6188 437.096 96.2414 436.911 96.8418C436.553 98.0408 435.448 99.1248 434.025 99.3537C432.621 99.6217 430.991 98.9311 430.215 97.5557C430.023 97.2165 429.875 96.8462 429.797 96.4572C429.728 96.1063 429.659 95.7527 429.589 95.3966C429.452 94.6864 429.313 93.9664 429.173 93.2378C428.896 91.7797 428.626 90.3571 428.365 88.9787C428.237 88.2916 428.11 87.6156 427.986 86.9523C427.866 86.3137 427.712 85.5985 427.78 84.8999C427.885 83.5079 428.601 82.2803 429.555 81.5155C430.512 80.7361 431.675 80.4233 432.702 80.4427C434.824 80.5088 436.159 81.8643 436.662 82.8238C436.937 83.3159 437.05 83.7414 437.103 84.0274C437.149 84.317 437.156 84.4679 437.128 84.4733C437.051 84.4952 436.985 83.8661 436.403 82.9809C435.855 82.1251 434.574 80.9793 432.697 80.9927C431.787 81.0101 430.779 81.3164 429.967 82.0115C429.156 82.695 428.566 83.7648 428.495 84.9514C428.446 85.5426 428.58 86.1328 428.716 86.8125C428.846 87.4746 428.979 88.1492 429.113 88.8351C429.38 90.2128 429.655 91.6342 429.937 93.0914C430.076 93.8203 430.213 94.5406 430.349 95.251C430.416 95.6044 430.483 95.9553 430.55 96.3036C430.611 96.6139 430.727 96.907 430.876 97.1776C431.484 98.2728 432.776 98.8449 433.91 98.6461C435.059 98.4796 435.976 97.6235 436.298 96.6423C436.461 96.1517 436.493 95.6391 436.415 95.1615C436.325 94.6434 436.238 94.1421 436.154 93.6584C435.86 91.8673 435.611 90.3477 435.408 89.1083C435.249 88.0306 435.186 87.43 435.238 87.4198Z" fill="#1A1A1A"/>
<path d="M454.725 125.037C454.233 125.085 434.831 128.095 434.831 128.095C434.488 129.881 435.536 132.412 440.105 132.485C444.435 132.553 448.347 132.192 448.347 132.192C448.347 132.192 453.148 142.202 457.866 143.314C462.585 144.425 460.266 133.702 460.266 133.702L454.725 125.037Z" fill="#FFC8A0"/>
<path d="M677.089 61.8525C678.769 57.9324 680.477 53.893 680.635 49.6123C680.792 45.3316 679.038 40.6947 675.342 38.7515C671.927 36.9559 667.73 37.7978 664.105 36.5082C659.634 34.9173 656.81 30.409 654.825 25.9794C652.841 21.5499 655.599 19.9344 652.245 16.4957C647.795 11.9338 644.901 11.2769 639.266 14.0649C635.213 11.1932 621.134 5.99128 617.072 5.86641C611.047 5.68148 604.189 6.16142 599.984 10.4791C596.721 13.8292 594.649 18.0892 590.643 20.5024C585.133 23.8218 578.11 20.9991 571.681 21.2344C570.37 21.2825 568.843 21.6168 568.302 22.8121C567.834 23.8457 568.33 25.0379 568.82 26.0606C570.476 29.5171 572.131 32.9735 573.787 36.4298C571.091 37.6798 567.816 37.5999 565.185 36.2202C565.472 42.9892 568.229 49.6265 572.821 54.6076C571.68 53.7994 569.963 54.6336 569.395 55.9106C568.827 57.1878 569.088 58.6701 569.453 60.0196C571.691 68.2983 577.651 75.4944 585.367 79.236C593.084 82.9775 602.425 83.1998 610.311 79.8299L645.743 82.4994C646.723 85.2628 649.086 87.4574 651.852 88.1746C655.821 85.2378 656.455 83.589 656.455 83.589C658.897 85.4057 656.978 84.4908 658.897 85.4057C663.289 87.5008 669.787 85.0144 670.777 80.1207C671.191 78.0742 671.761 76.1108 673.133 74.7188C674.538 73.2942 676.54 72.7462 678.309 71.8544C681.097 70.4497 683.417 68.0742 684.798 65.2081C681.929 65.2347 679.071 63.9905 677.089 61.8525Z" fill="#1A1A1A"/>
<path d="M652.017 46.6611L652.925 119.798C653.08 132.235 650.765 150.537 631.09 149.884C614.062 148.031 609.545 131.911 609.412 120.305C609.35 114.799 609.286 110.208 609.242 109.643C609.242 109.643 590.602 108.123 589.029 89.7115C588.269 80.8146 588.195 62.3614 588.322 45.6669C588.457 27.7372 602.361 12.9264 620.243 11.6207L622.021 11.4909C641.275 11.2105 652.269 27.4065 652.017 46.6611Z" fill="#FFC8A0"/>
<path d="M609.243 109.642C609.243 109.642 620.908 109.475 632.718 100.797C632.718 100.797 627.848 114.684 609.339 114.367L609.243 109.642Z" fill="#FFC8A0"/>
<path d="M619.798 53.2118C620.164 53.5843 622.29 51.8728 625.375 51.7902C628.455 51.6614 630.763 53.2206 631.087 52.8236C631.246 52.6468 630.865 51.9663 629.86 51.2602C628.869 50.5565 627.195 49.8938 625.274 49.9593C623.353 50.0274 621.757 50.7994 620.849 51.5694C619.92 52.3432 619.618 53.0458 619.798 53.2118Z" fill="#1A1A1A"/>
<path d="M619.241 60.0692C619.291 61.3872 620.447 62.4317 621.825 62.4054C623.199 62.3788 624.276 61.2916 624.227 59.9736C624.177 58.6559 623.02 57.6097 621.645 57.6357C620.268 57.662 619.191 58.7514 619.241 60.0692Z" fill="#1A1A1A"/>
<path d="M612.071 74.6694C612.073 74.5075 610.29 74.3317 607.411 74.1754C606.683 74.1536 605.988 74.06 605.83 73.5754C605.622 73.0654 605.867 72.2637 606.156 71.3968C606.709 69.5973 607.286 67.711 607.893 65.7342C610.29 57.6776 611.969 51.0746 611.644 50.9807C611.318 50.8869 609.111 57.3411 606.714 65.3978C606.14 67.3831 605.591 69.2761 605.07 71.0864C604.857 71.9283 604.454 72.895 604.902 73.9523C605.136 74.4779 605.696 74.8315 606.168 74.9223C606.642 75.0301 607.05 75.0082 607.409 75.0034C610.291 74.9481 612.072 74.8313 612.071 74.6694Z" fill="#1A1A1A"/>
<path d="M621.11 41.6143C621.408 42.2987 623.878 41.7835 626.835 41.9353C629.794 42.0246 632.222 42.7393 632.565 42.0813C632.716 41.7669 632.257 41.1366 631.252 40.5262C630.255 39.9171 628.696 39.3822 626.922 39.3082C625.149 39.2379 623.559 39.6443 622.525 40.1709C621.481 40.6977 620.98 41.2888 621.11 41.6143Z" fill="#1A1A1A"/>
<path d="M591.815 47.3301C592.138 47.8878 594.545 47.2685 597.462 47.1786C600.379 47.0358 602.8 47.4621 603.108 46.8791C603.243 46.6013 602.762 46.1013 601.746 45.6581C600.738 45.2151 599.18 44.877 597.431 44.9453C595.682 45.017 594.136 45.4792 593.142 46.0018C592.138 46.5254 591.672 47.0634 591.815 47.3301Z" fill="#1A1A1A"/>
<path d="M651.508 60.4159C651.812 60.2571 663.896 55.7465 664.414 68.3739C664.931 81.0019 652.147 78.9164 652.11 78.5552C652.073 78.194 651.508 60.4159 651.508 60.4159Z" fill="#FFC8A0"/>
<path d="M655.771 73.6132C655.825 73.5705 655.998 73.7583 656.376 73.9135C656.746 74.0643 657.374 74.1534 658.022 73.8799C659.336 73.3354 660.372 71.1714 660.341 68.893C660.326 67.7429 660.04 66.6581 659.596 65.7689C659.172 64.8609 658.548 64.2401 657.872 64.1482C657.197 64.0211 656.738 64.4426 656.598 64.8041C656.443 65.1641 656.534 65.4128 656.468 65.4376C656.434 65.4705 656.188 65.2371 656.269 64.7112C656.31 64.4585 656.446 64.1543 656.733 63.8996C657.026 63.6411 657.466 63.4969 657.936 63.5285C658.913 63.5558 659.826 64.4157 660.314 65.392C660.856 66.3709 661.205 67.5886 661.221 68.8805C661.245 71.4285 660.039 73.8627 658.236 74.4653C657.357 74.7334 656.605 74.4959 656.21 74.2134C655.806 73.9177 655.728 73.6377 655.771 73.6132Z" fill="#FFC8A0"/>
<path d="M615.051 83.4127C614.913 83.0938 617.387 82.3527 619.126 80.0319C619.996 78.8895 620.497 77.6441 620.874 76.7342C621.242 75.8177 621.521 75.2421 621.657 75.2844C621.786 75.3243 621.754 75.9449 621.551 76.9425C621.34 77.9286 620.91 79.3387 619.926 80.6361C618.957 81.9469 617.656 82.7298 616.701 83.1057C615.736 83.4964 615.084 83.5208 615.051 83.4127Z" fill="#1A1A1A"/>
<path d="M668.298 39.9722C665.667 35.5185 665.054 30.2045 663.616 25.235C662.178 20.2658 659.41 15.1175 654.537 13.3808L654.427 13.4287C650.052 11.6697 644.658 11.6439 641.065 14.6812C640.175 8.11836 634.422 2.92122 628.016 1.24017C621.61 -0.440577 611.335 0.561867 605.191 3.03534C600.441 4.94717 595.849 8.86373 590.268 14.618C587.917 17.0425 585.75 19.6512 583.825 22.4264L578.255 39.628C577.654 40.0686 577.128 40.6027 576.689 41.2018C574.473 44.2225 578.612 48.0115 581.421 45.5334C581.438 45.5186 581.454 45.5041 581.471 45.489C582.044 46.4644 582.475 47.4524 582.929 48.4385L582.929 48.4617L583.027 48.6479C583.312 49.262 583.608 49.875 583.965 50.4825L583.968 50.4412L588.271 69.4506C588.543 64.2664 588.166 46.2341 588.438 41.0499C596.438 40.7055 603.675 37.4763 609.041 31.5337C611.873 28.3977 614.099 24.4685 617.885 22.5946C622.768 20.1789 628.588 21.9369 633.733 23.7241L633.515 23.5279C636.193 24.7656 638.629 26.5238 640.647 28.6754C639.489 38.8804 640.553 49.3331 643.759 59.0914C644.242 60.5617 645.559 63.5899 647.002 64.1478C649.838 65.2438 650.601 62.3565 652.308 60.8222C653.564 59.6929 655.428 59.5473 657.466 59.5528C658.663 56.4036 659.896 51.0965 660.932 46.449C662.644 46.9684 664.469 47.1099 666.232 46.8029C665.689 45.5016 665.146 44.2001 664.602 42.899C665.309 43.3462 666.043 43.8041 666.87 43.9255C667.698 44.0468 668.65 43.7381 669.022 42.9886C669.502 42.0195 668.849 40.9035 668.298 39.9722Z" fill="#1A1A1A"/>
<path d="M635.27 16.7957C635.233 16.843 636.041 17.2826 637.117 18.4851C638.183 19.6821 639.379 21.7655 639.944 24.6C640.234 26.0091 640.416 27.585 640.415 29.2806C640.422 30.9767 640.286 32.7928 640.156 34.707C640.032 36.6211 639.895 38.6431 640.018 40.7465C640.079 41.7965 640.206 42.865 640.433 43.9327C640.665 44.9819 640.941 46.1209 641.733 47.023C642.364 47.7582 643.418 48.0843 644.332 47.8969C645.252 47.7338 646.071 47.2439 646.67 46.5759C647.856 45.1928 648.151 43.4386 648.445 41.8929L648.059 41.9396C648.69 43.3291 649.339 44.7019 650.299 45.798C651.244 46.9006 652.552 47.6302 653.882 47.7491C654.545 47.8085 655.212 47.7025 655.781 47.4164C656.361 47.1341 656.783 46.6528 657.071 46.1458C657.347 45.6283 657.491 45.0605 657.462 44.5131C657.431 43.9665 657.218 43.4477 656.871 43.0807L656.676 43.2549C658.096 44.8724 659.595 45.7418 660.632 46.2232C661.155 46.4642 661.574 46.6083 661.858 46.6993C662.144 46.7843 662.294 46.8195 662.297 46.8082C662.301 46.7959 662.158 46.7377 661.882 46.6313C661.608 46.5188 661.201 46.3545 660.693 46.0967C659.687 45.5818 658.236 44.6899 656.875 43.0847L656.679 43.2591C657.299 43.9156 657.335 45.0686 656.801 45.9956C656.533 46.4524 656.145 46.8808 655.635 47.1202C655.127 47.3689 654.519 47.4617 653.914 47.4006C652.693 47.279 651.473 46.5952 650.588 45.5464C649.682 44.4993 649.054 43.1626 648.431 41.7709L648.166 41.1802L648.044 41.8179C647.749 43.3617 647.435 45.0459 646.354 46.2924C645.817 46.8909 645.067 47.3338 644.261 47.4739C643.454 47.6297 642.602 47.3638 642.052 46.7338C641.359 45.953 641.076 44.8748 640.852 43.8422C640.628 42.8009 640.502 41.7544 640.439 40.7215C640.312 38.6534 640.439 36.6448 640.552 34.7325C640.671 32.8191 640.795 30.9948 640.772 29.2771C640.757 27.5598 640.555 25.9628 640.242 24.5354C639.629 21.664 638.365 19.555 637.242 18.373C636.107 17.1843 635.27 16.7957 635.27 16.7957Z" fill="#00B4A6"/>
<path d="M578.295 34.7153C578.291 34.7212 578.341 34.7637 578.443 34.8413C578.567 34.9321 578.718 35.0422 578.903 35.1769C579.104 35.3273 579.36 35.5031 579.683 35.677C580.001 35.8595 580.363 36.0812 580.803 36.2667C582.514 37.0795 585.257 37.887 588.687 37.685C592.084 37.4938 596.161 36.2905 599.802 33.5802C603.481 30.9345 606.71 27.0371 609.351 22.5741C610.69 20.344 611.782 18.0577 612.986 15.9463C614.181 13.8338 615.502 11.8809 617.101 10.3396C618.682 8.78981 620.517 7.64442 622.408 7.11863C623.351 6.8384 624.301 6.77507 625.207 6.79628C626.115 6.84438 626.976 7.02826 627.769 7.28846C629.357 7.82098 630.637 8.6981 631.609 9.60016C632.584 10.5106 633.238 11.472 633.687 12.2964C634.525 13.9892 634.571 15.076 634.638 15.0578C634.645 15.0569 634.64 14.9916 634.623 14.8645C634.599 14.7119 634.571 14.5268 634.536 14.3006C634.446 13.8073 634.233 13.0927 633.837 12.2209C633.403 11.3699 632.756 10.3736 631.775 9.42555C630.797 8.48629 629.497 7.56809 627.868 7.00047C627.054 6.72279 626.166 6.52308 625.224 6.46452C624.287 6.43196 623.289 6.49215 622.313 6.77432C620.348 7.3043 618.45 8.47673 616.825 10.0546C615.18 11.6252 613.829 13.612 612.62 15.7376C611.401 17.8641 610.309 20.1446 608.981 22.3539C606.36 26.7833 603.178 30.6374 599.569 33.2592C595.995 35.9454 592.013 37.1512 588.667 37.381C585.295 37.6185 582.585 36.8705 580.873 36.1141C579.148 35.3452 578.328 34.6629 578.295 34.7153Z" fill="#00B4A6"/>
<path d="M576.619 26.6227C576.604 26.6484 576.839 26.8103 577.279 27.0826C577.715 27.363 578.384 27.7085 579.235 28.0759C580.085 28.4507 581.138 28.8004 582.332 29.0927C583.53 29.3638 584.872 29.5646 586.292 29.6177C587.712 29.6554 589.065 29.5408 590.278 29.3474C591.488 29.1318 592.562 28.8503 593.434 28.5306C594.307 28.2183 594.996 27.9165 595.449 27.6647C595.906 27.4209 596.151 27.2744 596.137 27.2479C596.102 27.1752 595.084 27.6983 593.338 28.2414C592.468 28.5197 591.406 28.7653 590.216 28.9554C589.022 29.1239 587.697 29.2241 586.306 29.1874C584.915 29.135 583.6 28.9503 582.419 28.7058C581.244 28.4398 580.2 28.1267 579.349 27.7934C577.641 27.1396 576.659 26.5525 576.619 26.6227Z" fill="#00B4A6"/>
<path d="M591.677 54.374C592.043 54.7466 594.169 53.035 597.254 52.9523C600.334 52.8237 602.642 54.3828 602.966 53.9859C603.125 53.8089 602.744 53.1285 601.739 52.4226C600.749 51.7189 599.074 51.056 597.153 51.1214C595.232 51.1895 593.636 51.9616 592.728 52.7317C591.8 53.5054 591.498 54.2081 591.677 54.374Z" fill="#1A1A1A"/>
<path d="M593.419 60.4885C593.469 61.8064 594.625 62.8508 596.003 62.8246C597.377 62.7981 598.454 61.7108 598.404 60.3928C598.355 59.0753 597.198 58.0289 595.823 58.0549C594.446 58.0811 593.369 59.1707 593.419 60.4885Z" fill="#1A1A1A"/>
<path d="M579.433 128.887L512.815 172.482L472.224 140.827L459.577 160.852C459.577 160.852 483.212 188.198 491.97 197.487C500.729 206.776 506.568 211.735 513.468 210.848C520.368 209.961 578.052 187.553 578.052 187.553L586.798 126.401L583.132 127.287C581.817 127.605 580.565 128.146 579.433 128.887Z" fill="#00B4A6"/>
<path d="M653.786 113.997C638.881 123.363 623.86 126.886 608.647 120.821L585.777 126.662L574.66 145.988C572.912 149.027 572.117 152.521 572.379 156.018L576.747 229.995L563.278 276.984L695.198 278.13L688.698 243.216L672.344 117.772L653.786 113.997Z" fill="#00B4A6"/>
<path d="M673.952 174.064L669.825 117.423C669.825 117.423 700.876 120.304 711.151 142.21C719.81 160.671 745.797 214.336 748.356 221.934C755.863 244.23 742.05 276.76 693.701 274.985L688.189 244.674L673.952 174.064Z" fill="#00B4A6"/>
<path d="M698.754 221.226C698.709 221.244 698.993 222.1 699.526 223.455C700.058 224.811 700.85 226.66 701.759 228.685C702.647 230.657 703.449 232.441 704.09 233.865C704.684 235.191 705.054 236.012 705.104 235.992C705.15 235.974 704.865 235.118 704.332 233.763C703.8 232.407 703.008 230.558 702.099 228.533C701.212 226.561 700.409 224.777 699.769 223.353C699.175 222.027 698.804 221.207 698.754 221.226Z" fill="#1A1A1A"/>
<path d="M681.571 176.646C681.674 176.646 681.757 173.056 681.757 168.629C681.757 164.199 681.674 160.61 681.571 160.61C681.468 160.61 681.385 164.199 681.385 168.629C681.385 173.056 681.468 176.646 681.571 176.646Z" fill="#1A1A1A"/>
<path d="M686.14 152.527C686.165 152.533 686.265 152.214 686.424 151.633C686.577 151.052 686.826 150.217 687.163 149.198C687.833 147.159 688.957 144.402 690.614 141.577C692.279 138.755 694.144 136.433 695.601 134.857C696.328 134.068 696.937 133.445 697.371 133.029C697.801 132.608 698.031 132.366 698.014 132.346C697.998 132.327 697.735 132.533 697.273 132.922C696.807 133.307 696.167 133.905 695.41 134.676C693.894 136.216 691.976 138.538 690.294 141.388C688.62 144.242 687.522 147.046 686.912 149.119C686.605 150.155 686.394 151.005 686.283 151.599C686.167 152.192 686.115 152.522 686.14 152.527Z" fill="#1A1A1A"/>
<path d="M576.589 149.024C576.643 149.023 576.703 149.681 576.766 150.874C576.839 152.068 576.856 153.798 576.824 155.934C576.77 160.208 576.328 166.095 575.808 172.573C575.29 179.055 575.038 184.926 575.15 189.177C575.199 191.301 575.275 193.022 575.371 194.208C575.453 195.395 575.473 196.057 575.419 196.064C575.366 196.071 575.245 195.422 575.07 194.239C574.881 193.057 574.72 191.332 574.6 189.197C574.346 184.924 574.514 179.006 575.033 172.514C575.553 166.024 576.08 160.167 576.274 155.915C576.377 153.79 576.444 152.068 576.463 150.877C576.493 149.687 576.536 149.026 576.589 149.024Z" fill="#1A1A1A"/>
<path d="M718.539 231.64C718.564 231.694 717.795 232.096 716.414 232.834C715.031 233.566 713.052 234.663 710.651 236.101C708.246 237.529 705.411 239.309 702.103 241.019C700.451 241.874 698.691 242.723 696.835 243.53C694.967 244.302 693.037 245.1 691.059 245.918C690.451 246.167 689.847 246.415 689.284 246.646L689.522 246.225C690.791 254.244 691.887 261.426 692.64 266.607C692.986 269.098 693.272 271.158 693.491 272.733C693.675 274.177 693.752 274.977 693.702 274.985C693.65 274.993 693.476 274.209 693.203 272.779C692.923 271.213 692.556 269.167 692.113 266.691C691.222 261.532 690.036 254.364 688.755 246.347L688.707 246.044L688.994 245.926C689.556 245.695 690.158 245.447 690.765 245.198C692.739 244.387 694.667 243.596 696.531 242.83C698.378 242.04 700.129 241.211 701.776 240.381C705.072 238.722 707.927 236.998 710.375 235.625C712.819 234.244 714.85 233.214 716.279 232.562C716.989 232.227 717.555 231.997 717.937 231.84C718.321 231.685 718.528 231.616 718.539 231.64Z" fill="#1A1A1A"/>
<path d="M725.573 221.934C725.599 222.07 724.009 222.37 721.59 223.27C719.172 224.161 715.96 225.78 712.921 228.276C709.891 230.785 707.691 233.631 706.357 235.835C705.013 238.039 704.416 239.542 704.287 239.491C704.237 239.472 704.347 239.082 704.59 238.389C704.821 237.691 705.257 236.717 705.881 235.559C707.117 233.241 709.313 230.253 712.426 227.675C715.548 225.111 718.898 223.524 721.41 222.751C722.665 222.359 723.704 222.116 724.433 222.022C725.16 221.915 725.563 221.881 725.573 221.934Z" fill="#1A1A1A"/>
<path d="M675.317 277.522L707.732 199.315C709.211 195.746 707.356 192.853 703.588 192.853H697.066C694.405 192.853 692.591 191.387 692.42 189.099L692.204 186.223C692.031 183.934 690.214 182.469 687.55 182.469H656.561C654.146 182.469 651.418 183.676 649.386 185.643L646.87 188.08C644.84 190.048 642.114 191.255 639.701 191.255H600.231C596.463 191.255 592.242 194.148 590.805 197.717L558.671 277.522H675.317Z" fill="#FFDFD9"/>
<path d="M675.317 277.522L707.732 199.315C709.211 195.746 707.356 192.853 703.588 192.853H697.066C694.405 192.853 692.591 191.387 692.42 189.099L692.204 186.223C692.031 183.934 690.214 182.469 687.55 182.469H656.561C654.146 182.469 651.418 183.676 649.386 185.643L646.87 188.08C644.84 190.048 642.114 191.255 639.701 191.255H600.231C596.463 191.255 592.242 194.148 590.805 197.717L558.671 277.522H675.317Z" fill="#1A1A1A"/>
<path d="M680.675 250.961L692.9 203.694C693.705 200.582 691.666 197.459 688.83 197.459H593.004C591.11 197.459 589.445 198.896 588.923 200.98L571.128 272.125C570.346 275.249 571.595 277.122 574.435 277.087L670.85 277.116C672.718 277.093 674.353 275.675 674.877 273.624L680.675 250.961Z" fill="#F1F4F8"/>
<path d="M674.052 275.383L679.259 200.947C679.444 198.307 677.352 196.063 674.706 196.063H575.419V275.383H674.052Z" fill="#6F7D7C"/>
<path d="M675.163 277.087L663.351 200.349C662.806 197.849 660.556 196.063 657.952 196.063H557.513C553.545 196.063 550.873 200.049 552.442 203.627L574.13 273.853L675.163 277.087Z" fill="#F1F4F8"/>
<path d="M675.317 277.487L650.958 205.617C649.943 202.623 647.228 200.621 644.183 200.621H540.638C537.301 200.621 534.949 204.037 536.014 207.335L558.671 277.522L675.317 277.487Z" fill="#FFDFD9"/>
<path d="M625.253 265.455C625.253 265.455 629.163 265.634 630.965 265.757C639.548 266.342 648.267 264.796 656.124 261.294C658.561 260.208 661.138 258.676 661.875 256.112C662.7 253.241 660.841 250.253 658.574 248.308C656.307 246.362 653.551 244.976 651.582 242.729C649.614 240.482 648.683 236.844 650.621 234.572L651.157 234.964C652.559 238.513 656.459 240.225 659.689 242.256C665.688 246.026 670.263 252.005 672.333 258.781C673.47 262.502 673.774 266.842 671.518 270.012C669.917 272.261 667.297 273.539 664.709 274.499C656.876 277.404 648.503 277.513 640.148 277.522C637.509 277.525 629.408 277.414 629.408 277.414C626.861 276.721 626.02 275.395 624.487 273.246C623.079 271.273 623.387 267.001 625.253 265.455Z" fill="#1A1A1A"/>
<path d="M625.254 265.455L652.26 261.395L662.745 255.362C664.126 254.567 665.071 253.145 665.155 251.553C665.157 251.523 665.158 251.494 665.159 251.464C665.241 249.475 664.026 247.666 662.192 246.894C658.865 245.492 653.596 243.627 651.349 239.691C648.119 234.033 651.349 232.859 651.349 232.859L673.901 241.874L689.865 252.739L693.077 270.857L670.802 278.132C670.802 278.132 645.981 279.531 639.132 278.762C632.283 277.994 632.283 274.804 632.283 274.804C631.012 274.406 628.44 272.148 628.442 270.044C625.118 266.926 625.254 265.455 625.254 265.455Z" fill="#FFC8A0"/>
<path d="M659.796 273.253C659.787 273.222 659.391 273.3 658.683 273.465C657.977 273.637 656.951 273.864 655.679 274.117C653.137 274.628 649.586 275.158 645.633 275.316C641.679 275.466 638.097 275.215 635.523 274.903C634.236 274.75 633.194 274.603 632.478 274.487C631.759 274.377 631.358 274.331 631.352 274.362C631.345 274.393 631.734 274.499 632.444 274.663C633.153 274.834 634.191 275.03 635.48 275.226C638.057 275.621 641.666 275.927 645.651 275.775C649.635 275.616 653.209 275.03 655.747 274.435C657.017 274.139 658.036 273.863 658.73 273.638C659.425 273.419 659.805 273.283 659.796 273.253Z" fill="#FFC8A0"/>
<path d="M657.33 269.077C657.321 269.047 656.918 269.125 656.2 269.293C655.484 269.466 654.441 269.693 653.148 269.941C650.565 270.445 646.954 270.943 642.94 271.069C638.924 271.188 635.289 270.919 632.676 270.599C631.368 270.441 630.312 270.291 629.584 270.173C628.855 270.061 628.448 270.013 628.441 270.044C628.435 270.075 628.83 270.182 629.551 270.349C630.271 270.521 631.323 270.721 632.632 270.921C635.247 271.326 638.908 271.648 642.954 271.529C646.998 271.401 650.633 270.848 653.214 270.259C654.506 269.969 655.542 269.693 656.246 269.465C656.953 269.244 657.338 269.108 657.33 269.077Z" fill="#FFC8A0"/>
<path d="M486.939 653.054C486.936 650.424 486.814 553.425 486.621 400.609L486.939 400.927C391.227 400.947 273.788 400.972 147.061 400.998H147.033L147.422 400.609C147.408 491.292 147.396 577.207 147.384 653.054L147.033 652.703C348.29 652.911 483.835 653.051 486.939 653.054C483.837 653.058 348.29 653.198 147.033 653.406L146.681 653.406L146.681 653.054C146.67 577.207 146.657 491.292 146.644 400.609L146.644 400.22H147.033H147.061C273.788 400.247 391.227 400.271 486.939 400.291H487.258L487.258 400.609C487.065 553.425 486.943 650.426 486.939 653.054Z" fill="#1A1A1A"/>
<path d="M486.94 434.152C486.94 434.367 410.831 434.542 316.967 434.542C223.071 434.542 146.979 434.367 146.979 434.152C146.979 433.938 223.071 433.764 316.967 433.764C410.831 433.764 486.94 433.938 486.94 434.152Z" fill="#F1F4F8"/>
<path d="M161.42 420.733C164.182 420.733 166.421 418.494 166.421 415.732C166.421 412.97 164.182 410.731 161.42 410.731C158.658 410.731 156.419 412.97 156.419 415.732C156.419 418.494 158.658 420.733 161.42 420.733Z" fill="#F1F4F8"/>
<path d="M176.49 420.733C179.252 420.733 181.491 418.494 181.491 415.732C181.491 412.97 179.252 410.731 176.49 410.731C173.728 410.731 171.489 412.97 171.489 415.732C171.489 418.494 173.728 420.733 176.49 420.733Z" fill="#F1F4F8"/>
<path d="M191.56 420.733C194.322 420.733 196.561 418.494 196.561 415.732C196.561 412.97 194.322 410.731 191.56 410.731C188.798 410.731 186.559 412.97 186.559 415.732C186.559 418.494 188.798 420.733 191.56 420.733Z" fill="#F1F4F8"/>
<path d="M449.513 602.248C449.513 602.248 457.807 591.397 461.706 590.968C465.606 590.539 490.017 591.397 493.449 590.968C496.88 590.539 516.183 582.389 516.183 582.389C516.183 582.389 519.615 583.544 519.186 586.612C518.757 589.681 497.309 601.263 494.736 601.691C492.162 602.12 471.572 603.634 471.572 603.634L466.399 612.967L449.513 602.248Z" fill="#AD898A"/>
<path d="M378.446 465.546C382.628 463.673 385.654 459.439 386.074 454.875C386.493 450.311 384.289 445.597 380.518 442.993L365.459 437.934C363.283 457.37 360.974 476.793 358.534 496.198C362.581 495.987 366.77 495.314 370.096 492.999C373.422 490.684 375.622 486.349 374.38 482.492C377.662 481.385 380.288 478.511 381.096 475.143C381.904 471.775 380.868 468.023 378.446 465.546Z" fill="#1A1A1A"/>
<path d="M304.61 454.146L305.179 447.226L347.464 443.57C360.392 443.523 372.914 457.753 372.412 470.671C371.855 485.023 370.608 502.524 367.833 512.992C362.251 534.041 345.574 535.09 345.574 535.09L344.079 556.302C342.959 568.665 332.285 570.323 319.922 569.218C307.835 568.137 298.784 557.664 299.466 545.549L304.61 454.146Z" fill="#AD898A"/>
<path d="M365.709 485.894C365.613 487.349 364.301 488.466 362.781 488.393C361.263 488.32 360.108 487.085 360.205 485.63C360.302 484.176 361.613 483.057 363.13 483.13C364.651 483.203 365.806 484.44 365.709 485.894Z" fill="#1A1A1A"/>
<path d="M366.96 479.298C366.584 479.621 364.661 477.871 361.708 477.577C358.762 477.242 356.44 478.539 356.157 478.145C356.015 477.969 356.428 477.358 357.442 476.768C358.44 476.179 360.092 475.675 361.931 475.871C363.769 476.068 365.247 476.903 366.065 477.687C366.903 478.476 367.144 479.155 366.96 479.298Z" fill="#1A1A1A"/>
<path d="M338.125 484.158C338.029 485.612 336.717 486.729 335.197 486.656C333.679 486.583 332.524 485.348 332.621 483.893C332.717 482.439 334.029 481.32 335.547 481.393C337.067 481.466 338.222 482.703 338.125 484.158Z" fill="#1A1A1A"/>
<path d="M337.88 476.886C337.502 477.209 335.578 475.459 332.627 475.165C329.681 474.83 327.359 476.127 327.075 475.733C326.935 475.557 327.344 474.946 328.361 474.356C329.36 473.766 331.012 473.263 332.85 473.458C334.688 473.656 336.166 474.491 336.985 475.275C337.82 476.064 338.063 476.743 337.88 476.886Z" fill="#1A1A1A"/>
<path d="M346.36 499.878C346.364 499.708 348.232 499.579 351.245 499.502C352.006 499.501 352.735 499.424 352.915 498.923C353.148 498.396 352.916 497.551 352.64 496.636C352.117 494.739 351.57 492.751 350.996 490.668C348.734 482.177 347.179 475.227 347.521 475.139C347.864 475.051 349.976 481.861 352.238 490.351C352.777 492.443 353.294 494.437 353.784 496.345C353.982 497.231 354.373 498.253 353.873 499.344C353.613 499.887 353.017 500.239 352.52 500.32C352.022 500.418 351.597 500.383 351.222 500.367C348.213 500.223 346.354 500.047 346.36 499.878Z" fill="#1A1A1A"/>
<path d="M345.559 535.145C345.559 535.145 330.344 534.486 316.959 524.458C316.959 524.458 322.657 540.177 345.001 540.478L345.559 535.145Z" fill="#AD898A"/>
<path d="M339.394 468.615C339.02 469.389 336.111 468.706 332.604 468.77C329.096 468.764 326.199 469.493 325.813 468.726C325.643 468.361 326.207 467.655 327.416 466.993C328.614 466.331 330.476 465.776 332.58 465.757C334.682 465.742 336.553 466.266 337.762 466.908C338.981 467.55 339.557 468.247 339.394 468.615Z" fill="#1A1A1A"/>
<path d="M367.905 469.163C367.317 469.78 365.353 468.876 362.911 468.594C360.478 468.226 358.348 468.583 357.942 467.833C357.769 467.471 358.163 466.832 359.133 466.29C360.089 465.749 361.634 465.384 363.309 465.606C364.984 465.831 366.379 466.588 367.159 467.361C367.954 468.139 368.167 468.859 367.905 469.163Z" fill="#1A1A1A"/>
<path d="M381.878 452.282C386.476 449.805 389.107 444.27 388.452 439.088C387.796 433.907 384.059 429.316 379.241 427.301C378.26 426.891 377.238 426.611 376.2 426.404C374.306 425.022 372.075 424.102 369.745 423.822C369.7 421.033 367.453 418.644 364.848 417.647C362.243 416.65 359.35 416.785 356.582 417.126C354.197 413.447 350.002 411.007 345.625 410.753C341.249 410.499 336.799 412.438 334.005 415.816C331.145 413.698 327.269 413.023 323.862 414.05C320.454 415.076 317.596 417.778 316.38 421.123C313.28 420.888 310.102 422.004 307.828 424.124C306.973 424.921 306.252 425.856 305.685 426.878C304.59 428.026 303.731 429.393 303.225 430.899C297.979 430.94 292.939 434.513 291.164 439.45C289.389 444.387 291 450.351 295.019 453.723C292.163 456.013 290.476 459.69 290.603 463.349C290.73 467.007 292.669 470.558 295.677 472.644C294.036 476.377 294.019 480.791 295.63 484.537C296.326 486.154 297.481 487.732 299.039 488.426C299.085 488.715 299.154 488.998 299.287 489.263C300.358 491.397 303.599 490.848 305.609 489.559C310.497 486.425 313.501 481.032 315.36 475.532C317.22 470.032 318.127 464.249 319.933 458.731C319.973 458.608 320.016 458.478 320.061 458.341C320.822 456.03 322.11 453.96 323.782 452.251C325.334 453.587 326.845 454.976 328.574 456.065C334.734 459.948 343.469 459.123 348.793 454.155C352.822 458.308 358.339 460.986 364.095 461.582C369.851 462.178 375.658 461.685 380.453 458.446C381.359 457.834 382.627 456.719 383.326 455.105C383.761 454.102 382.887 452.704 381.878 452.282Z" fill="#1A1A1A"/>
<path d="M305.169 482.788C304.902 482.61 294.131 477.214 292.39 488.889C290.648 500.564 302.728 499.904 302.799 499.573C302.869 499.241 305.169 482.788 305.169 482.788Z" fill="#AD898A"/>
<path d="M299.892 494.617C299.846 494.572 299.667 494.729 299.3 494.836C298.942 494.938 298.35 494.959 297.775 494.64C296.609 494.003 295.863 491.89 296.12 489.777C296.249 488.71 296.622 487.732 297.124 486.95C297.607 486.149 298.249 485.635 298.886 485.618C299.526 485.567 299.91 486.004 300.004 486.354C300.111 486.704 300.003 486.926 300.061 486.955C300.09 486.989 300.341 486.797 300.319 486.3C300.305 486.062 300.209 485.766 299.969 485.501C299.722 485.231 299.328 485.053 298.888 485.035C297.979 484.964 297.045 485.671 296.494 486.529C295.893 487.383 295.448 488.48 295.303 489.677C295.027 492.041 295.903 494.422 297.518 495.162C298.307 495.499 299.029 495.353 299.424 495.131C299.829 494.896 299.929 494.644 299.892 494.617Z" fill="#5E1618"/>
<path d="M388.056 437.089C388.067 437.087 388.091 437.185 388.129 437.379C388.17 437.572 388.206 437.863 388.231 438.246C388.274 439.008 388.241 440.164 387.78 441.549C387.328 442.917 386.42 444.55 384.77 445.809C383.151 447.062 380.804 447.938 378.217 447.675L378.449 447.518C377.539 450.825 375.541 454.33 372.397 457.132C370.822 458.516 368.951 459.736 366.787 460.412C364.638 461.143 362.215 461.11 359.93 460.615C357.66 460.133 355.542 459.27 353.619 458.211C351.706 457.142 349.936 455.906 348.594 454.314L348.947 454.357C345.613 456.807 341.942 458.35 338.485 458.659C335.012 458.919 332 457.991 329.761 456.878C327.502 455.749 325.986 454.4 325.037 453.429C324.565 452.937 324.219 452.54 324.006 452.257C323.787 451.977 323.68 451.828 323.691 451.819C323.724 451.791 324.182 452.37 325.156 453.308C326.134 454.233 327.663 455.524 329.9 456.593C332.111 457.647 335.091 458.513 338.445 458.228C341.791 457.9 345.391 456.361 348.638 453.952L348.832 453.807L348.991 453.995C350.258 455.486 352.002 456.709 353.875 457.746C355.759 458.78 357.837 459.622 360.042 460.09C362.27 460.568 364.568 460.601 366.627 459.906C368.703 459.263 370.522 458.09 372.061 456.75C375.135 454.037 377.118 450.616 378.034 447.405L378.084 447.228L378.265 447.248C380.721 447.523 382.987 446.715 384.562 445.534C386.165 444.349 387.075 442.791 387.549 441.469C388.033 440.132 388.106 439.002 388.104 438.25C388.095 437.493 388.025 437.093 388.056 437.089Z" fill="#00B4A6"/>
<path d="M304.955 430.451C305.037 430.491 304.137 431.782 303.419 434.339C302.717 436.85 302.315 440.814 303.981 444.994L304.052 445.174L303.89 445.283C302.39 446.288 301.052 447.793 300.178 449.643C299.305 451.489 298.923 453.688 299.308 455.861C299.805 458.715 301.443 461.211 303.508 462.711L303.708 462.856L303.568 463.063C302.035 465.34 301.344 467.908 301.282 470.195C301.179 472.493 301.648 474.515 302.251 476.083C303.496 479.251 305.158 480.58 305.047 480.654C305.036 480.664 304.941 480.582 304.766 480.413C304.599 480.238 304.321 480.002 304.027 479.638C303.419 478.929 302.621 477.795 301.954 476.202C301.296 474.614 300.774 472.549 300.846 470.18C300.879 467.826 301.561 465.158 303.147 462.773L303.207 463.125C301.025 461.559 299.302 458.952 298.779 455.953C298.373 453.665 298.782 451.346 299.705 449.42C300.63 447.487 302.042 445.921 303.626 444.883L303.536 445.172C301.861 440.843 302.354 436.79 303.146 434.259C303.543 432.972 304.006 432.013 304.354 431.382C304.526 431.064 304.684 430.835 304.783 430.678C304.886 430.522 304.944 430.445 304.955 430.451Z" fill="#00B4A6"/>
<path d="M296.633 498.35C296.725 498.391 296.21 499.115 296.126 500.42C296.097 501.053 296.21 501.859 296.712 502.505C297.198 503.143 298.112 503.622 299.023 503.501C299.945 503.386 300.553 502.563 300.737 501.765C300.945 500.954 300.804 500.173 300.615 499.546C300.204 498.293 299.783 497.544 299.871 497.503C299.916 497.481 300.446 498.137 300.974 499.424C301.22 500.063 301.43 500.932 301.218 501.879C301.111 502.344 300.914 502.831 300.553 503.239C300.202 503.646 299.675 503.958 299.098 504.033C297.936 504.178 296.885 503.585 296.316 502.803C295.735 501.997 295.668 501.08 295.747 500.388C295.947 498.969 296.607 498.312 296.633 498.35Z" fill="#1A1A1A"/>
<path d="M338.684 503.374C337.363 504.505 336.642 506.3 336.813 508.029C336.985 509.76 338.045 511.378 339.562 512.227C340.167 512.566 340.866 512.789 341.552 512.685C342.762 512.501 343.583 511.393 344.265 510.376C344.832 509.531 345.4 508.685 345.966 507.84C346.157 507.556 346.357 507.227 346.277 506.894C346.191 506.536 345.822 506.333 345.491 506.174C343.317 505.132 341.144 504.09 338.97 503.048" fill="#AD898A"/>
<path d="M341.474 512.318C341.453 512.385 340.213 512.267 338.434 511.259C337.575 510.739 336.585 509.831 336.172 508.45C335.955 507.784 335.98 506.927 336.208 506.233C336.412 505.515 336.741 504.794 337.223 504.151C337.687 503.529 338.269 503.016 338.897 502.64L339.114 502.51L339.326 502.64C343.534 505.218 346.921 506.791 346.842 506.978C346.769 507.172 343.204 505.895 338.898 503.348H339.325C338.791 503.68 338.299 504.121 337.899 504.656C337.114 505.774 336.603 507.151 336.922 508.243C337.222 509.386 338.012 510.224 338.766 510.763C340.325 511.822 341.538 512.173 341.474 512.318Z" fill="#1A1A1A"/>
<path d="M185.269 653.137C185.269 653.137 227.761 576.95 234.831 564.638C243.149 550.152 250.392 544.887 256.918 541.73C263.751 538.425 271.299 536.866 278.89 536.81L299.967 536.653C299.967 536.653 307.972 548.634 318.832 550.982C333.795 554.218 345.009 543.109 345.009 543.109L375.279 555.517L369.2 611.463C367.669 625.557 362.524 639.016 354.265 650.538L352.264 653.137L240.678 653.04L253.617 612.786L229.707 653.137H185.269Z" fill="#00B4A6"/>
<path d="M375.279 555.517C375.279 555.517 384.074 560.672 390.705 582.097C397.337 603.521 411.63 641.622 411.63 641.622L447.458 600.945L468.727 614.445C468.727 614.445 434.413 674.01 428.964 681.058C420.836 691.57 400.297 697.581 388.245 683.609C379.484 673.452 358.534 624.313 358.534 624.313L375.279 555.517Z" fill="#00B4A6"/>
<path d="M362.375 586.568C362.399 586.557 362.514 586.778 362.709 587.208C362.896 587.641 363.198 588.27 363.509 589.111C364.172 590.778 365.01 593.243 365.785 596.361C367.357 602.568 368.405 611.569 366.921 621.309C365.446 631.053 361.772 639.338 358.429 644.799C356.762 647.546 355.23 649.651 354.103 651.046C353.556 651.756 353.081 652.267 352.774 652.625C352.46 652.978 352.285 653.154 352.264 653.137C352.216 653.098 352.816 652.309 353.862 650.863C354.91 649.418 356.363 647.28 357.954 644.52C361.15 639.032 364.695 630.816 366.152 621.192C367.617 611.573 366.672 602.676 365.25 596.486C364.549 593.378 363.797 590.905 363.225 589.214C362.656 587.522 362.317 586.591 362.375 586.568Z" fill="#1A1A1A"/>
<path d="M260.556 579.727C260.582 579.731 260.564 579.999 260.503 580.506C260.422 581.099 260.323 581.83 260.202 582.717C259.93 584.635 259.47 587.401 258.843 590.809C257.593 597.624 255.57 606.991 252.767 617.19C249.953 627.39 246.896 636.473 244.481 642.967C243.276 646.215 242.255 648.827 241.506 650.613C241.156 651.437 240.868 652.116 240.634 652.667C240.426 653.133 240.305 653.373 240.28 653.363C240.255 653.353 240.327 653.094 240.488 652.61C240.685 652.045 240.929 651.349 241.224 650.505C241.909 648.572 242.836 645.96 243.963 642.781C246.242 636.249 249.21 627.16 252.017 616.983C254.814 606.807 256.917 597.481 258.303 590.703C258.962 587.395 259.503 584.677 259.903 582.666C260.082 581.789 260.229 581.067 260.349 580.48C260.459 579.982 260.53 579.722 260.556 579.727Z" fill="#1A1A1A"/>
<path d="M207.191 653.069C207.191 653.069 211.248 647.554 213.247 646.508C215.245 645.462 217.995 645.495 219.205 646.579C220.414 647.662 220.414 647.662 220.414 647.662C220.414 647.662 226.712 644.834 229.743 647.009C229.743 647.009 235.735 644.177 238.6 647.419C238.6 647.419 243.219 644.418 245.174 647.039C247.13 649.66 246.924 654.088 245.981 656.369C245.037 658.65 243.264 666.421 241.887 666.557C241.887 666.557 238.205 666.95 237.714 664.959C237.223 662.967 237.013 662.009 237.013 662.009C237.013 662.009 235.606 669.052 233.911 669.4C232.215 669.747 228.982 669.562 228.871 666.472C228.871 666.472 227.299 668.806 225.763 668.126C224.227 667.446 222.328 666.321 222.498 664.411C222.667 662.501 222.69 660.589 222.69 660.589C222.69 660.589 221.848 663.374 220.458 662.769C219.068 662.164 217.669 662.295 216.888 659.932C216.107 657.57 214.17 653.069 214.17 653.069H207.191Z" fill="#AD898A"/>
<path d="M222.576 660.436C222.489 660.391 222.854 659.673 223.177 658.445C223.504 657.226 223.731 655.457 223.38 653.566C223.03 651.676 222.184 650.105 221.442 649.084C220.7 648.053 220.102 647.514 220.167 647.44C220.209 647.385 220.918 647.812 221.782 648.818C222.643 649.81 223.608 651.444 223.981 653.455C224.354 655.466 224.039 657.337 223.59 658.572C223.144 659.82 222.635 660.473 222.576 660.436Z" fill="#5E1618"/>
<path d="M230.133 647.05C230.202 647.03 230.592 648.068 230.94 649.823C231.29 651.574 231.541 654.055 231.36 656.787C231.173 659.518 230.593 661.944 230.011 663.632C229.432 665.325 228.906 666.301 228.841 666.272C228.647 666.209 230.417 662.127 230.751 656.745C231.14 651.369 229.933 647.086 230.133 647.05Z" fill="#5E1618"/>
<path d="M238.746 647.51C238.898 647.49 239.318 650.844 238.836 654.959C238.373 659.079 237.205 662.249 237.061 662.195C236.884 662.144 237.775 658.942 238.229 654.89C238.704 650.842 238.562 647.52 238.746 647.51Z" fill="#5E1618"/>
<path d="M262.319 649.104C262.061 648.448 261.41 648.018 260.734 647.821C259.157 647.362 257.425 647.992 256.165 649.044C254.905 650.097 253.684 651.755 252.828 653.156L261.754 653.137C261.668 651.772 262.819 650.377 262.319 649.104Z" fill="#AD898A"/>
<path d="M492.879 525.206H540.794C540.794 551.491 519.164 573.121 492.879 573.121C466.594 573.121 444.964 551.491 444.964 525.206C444.964 498.956 466.538 477.342 492.788 477.292L492.879 525.206Z" fill="#FFDFD9"/>
<path d="M501.405 517.51L501.251 469.596C501.303 469.596 501.353 469.596 501.405 469.596C527.587 469.596 549.169 491.056 549.318 517.238L501.405 517.51Z" fill="#FFDFD9"/>
<path d="M272.444 505.251L263.112 488.806C267.24 482.106 269.626 474.218 269.626 465.771C269.626 441.477 249.933 421.784 225.64 421.784C201.347 421.784 181.654 441.477 181.654 465.771C181.654 490.063 201.347 509.757 225.64 509.757C235.784 509.757 245.118 506.314 252.559 500.545L252.544 500.565L272.444 505.251Z" fill="#F1F4F8"/>
<path d="M272.444 505.251C271.498 505.035 265.199 503.595 252.513 500.697L252.309 500.65L252.437 500.482L252.452 500.463L252.642 500.652C250.133 502.596 247.128 504.512 243.594 506.108C240.056 507.676 236.003 508.958 231.529 509.553C229.295 509.838 226.96 510.022 224.562 509.905C223.364 509.837 222.143 509.808 220.913 509.705C219.691 509.521 218.451 509.333 217.195 509.143C212.213 508.16 207.119 506.269 202.368 503.321C197.619 500.383 193.223 496.393 189.698 491.492C186.18 486.599 183.51 480.797 182.262 474.493C181.024 468.197 181.127 461.449 182.781 454.918C184.446 448.411 187.556 442.052 192.212 436.822L194.009 434.845C194.6 434.18 195.305 433.632 195.945 433.022C196.615 432.445 197.219 431.791 197.939 431.281L200.051 429.703C200.735 429.15 201.489 428.705 202.238 428.257C202.983 427.803 203.728 427.352 204.47 426.901C205.251 426.522 206.03 426.143 206.807 425.766C207.591 425.405 208.345 424.977 209.166 424.717C215.558 422.18 222.375 421.214 228.891 421.687C235.408 422.156 241.645 424.026 246.995 427.037C252.361 430.025 256.887 434.014 260.38 438.469C263.883 442.926 266.352 447.843 267.88 452.738C269.398 457.657 269.809 462.535 269.792 467.05C269.661 471.576 268.837 475.746 267.637 479.406C266.434 483.071 264.855 486.223 263.223 488.874L263.226 488.742C269.114 499.287 271.992 504.441 272.444 505.251C271.981 504.448 269.032 499.334 262.999 488.87L262.961 488.804L263.002 488.738C264.605 486.09 266.156 482.95 267.332 479.306C268.505 475.668 269.304 471.528 269.416 467.039C269.415 462.561 268.993 457.73 267.474 452.863C265.947 448.019 263.49 443.16 260.014 438.757C256.548 434.356 252.064 430.419 246.753 427.473C241.459 424.504 235.294 422.665 228.853 422.208C222.412 421.748 215.679 422.708 209.367 425.217C208.555 425.473 207.811 425.897 207.037 426.254C206.27 426.627 205.5 427.001 204.729 427.375C203.996 427.821 203.261 428.268 202.525 428.715C201.785 429.158 201.04 429.598 200.365 430.145L198.279 431.704C197.568 432.208 196.971 432.854 196.309 433.424C195.678 434.026 194.981 434.568 194.398 435.224L192.623 437.178C188.023 442.344 184.951 448.623 183.303 455.05C181.667 461.5 181.559 468.168 182.775 474.39C184.003 480.621 186.633 486.357 190.105 491.2C193.582 496.052 197.923 500.006 202.615 502.923C207.309 505.85 212.346 507.735 217.277 508.723C218.52 508.914 219.747 509.103 220.957 509.29C222.176 509.395 223.385 509.428 224.572 509.499C226.948 509.623 229.262 509.449 231.478 509.174C235.916 508.601 239.941 507.347 243.46 505.807C246.974 504.24 249.97 502.354 252.476 500.438L253.296 499.812L252.667 500.628L252.652 500.647L252.575 500.433C265.222 503.5 271.502 505.023 272.444 505.251Z" fill="#1A1A1A"/>
<path d="M213.243 465.756C213.243 468.224 211.243 470.224 208.775 470.224C206.307 470.224 204.306 468.224 204.306 465.756C204.306 463.288 206.307 461.288 208.775 461.288C211.243 461.288 213.243 463.288 213.243 465.756Z" fill="#1A1A1A"/>
<path d="M231.126 465.756C231.126 468.224 229.125 470.224 226.658 470.224C224.189 470.224 222.189 468.224 222.189 465.756C222.189 463.288 224.189 461.288 226.658 461.288C229.125 461.288 231.126 463.288 231.126 465.756Z" fill="#1A1A1A"/>
<path d="M248.962 463.522C250.196 465.659 249.464 468.392 247.326 469.626C245.189 470.859 242.456 470.128 241.222 467.99C239.989 465.853 240.721 463.12 242.858 461.886C244.995 460.652 247.728 461.384 248.962 463.522Z" fill="#1A1A1A"/>
<path d="M348.261 370.647C348.257 368.017 348.135 268.688 347.942 112.287L348.26 112.605C250.306 112.625 130.115 112.649 0.418096 112.676H0.389117L0.777936 112.287C0.764492 205.094 0.751795 293.023 0.740592 370.647L0.389117 370.296C206.367 370.504 345.156 370.644 348.261 370.647C345.158 370.651 206.367 370.791 0.389114 370.999L0.0373405 370.999V370.647C0.0261403 293.023 0.0134436 205.094 0 112.287V111.898H0.389117H0.418096C130.115 111.924 250.306 111.948 348.26 111.968H348.579L348.579 112.287C348.386 268.688 348.264 368.019 348.261 370.647Z" fill="#1A1A1A"/>
<path d="M365.626 148.403C365.626 148.618 288.517 148.792 193.42 148.792C98.2901 148.792 21.1974 148.618 21.1974 148.403C21.1974 148.188 98.2901 148.014 193.42 148.014C288.517 148.014 365.626 148.188 365.626 148.403Z" fill="#F1F4F8"/>
<path d="M41.0953 129.551C41.0953 132.378 38.8038 134.669 35.9771 134.669C33.1504 134.669 30.8589 132.378 30.8589 129.551C30.8589 126.724 33.1504 124.433 35.9771 124.433C38.8038 124.433 41.0953 126.724 41.0953 129.551Z" fill="#F1F4F8"/>
<path d="M56.5178 129.551C56.5178 132.378 54.2262 134.669 51.3996 134.669C48.5729 134.669 46.2814 132.378 46.2814 129.551C46.2814 126.724 48.5729 124.433 51.3996 124.433C54.2262 124.433 56.5178 126.724 56.5178 129.551Z" fill="#F1F4F8"/>
<path d="M71.941 129.551C71.941 132.378 69.6495 134.669 66.8229 134.669C63.9961 134.669 61.7046 132.378 61.7046 129.551C61.7046 126.724 63.9961 124.433 66.8229 124.433C69.6495 124.433 71.941 126.724 71.941 129.551Z" fill="#F1F4F8"/>
<path d="M210.852 106.517C209.688 102.311 207.406 98.1874 203.637 95.9882C201.849 94.9447 199.816 94.3841 197.998 93.3931C195.804 92.1977 193.993 90.4164 191.939 88.9939C186.888 85.4946 180.301 84.303 174.344 85.8103C168.387 87.3178 163.16 91.4983 160.38 96.9791C156.139 93.7455 148.783 95.1118 143.765 96.9186C138.747 98.7253 134.549 104.707 133.342 109.902L156.887 117.023C161.599 122.168 166.833 126.943 172.969 130.264C179.104 133.585 186.229 135.379 193.127 134.339C200.025 133.298 206.604 129.172 209.719 122.929C212.223 117.91 212.347 111.923 210.852 106.517Z" fill="#1A1A1A"/>
<path d="M227.557 184.425C233.54 180.242 234.978 170.842 230.521 165.06C229.194 163.34 227.379 161.784 227.08 159.632C226.897 158.309 227.333 156.991 227.652 155.693C229.771 147.064 226.255 137.323 219.114 132.036C218.99 127.209 216.285 117.008 210.162 113.107L182.345 117.016C183.61 146.311 183.525 175.664 182.09 204.95C181.87 209.44 181.705 214.272 184.161 218.036C187.642 223.374 194.906 224.483 201.277 224.646C207.37 224.803 213.583 224.541 219.335 222.526C225.087 220.51 230.381 216.523 232.79 210.924C236.501 202.302 232.672 192.296 227.557 184.425Z" fill="#1A1A1A"/>
<path d="M142.716 125.167L141.874 118.932L178.581 107.477C190.012 104.922 203.859 115.08 205.927 126.609C208.223 139.417 210.523 155.146 210.102 164.949C209.254 184.66 194.701 188.83 194.701 188.83L196.19 200.515C197.698 212.342 189.335 223.152 177.509 224.663H177.509C165.712 226.171 154.917 217.855 153.365 206.064L142.716 125.167Z" fill="#FFC8A0"/>
<path d="M203.413 141.101C203.61 142.406 202.667 143.65 201.307 143.881C199.95 144.111 198.688 143.243 198.491 141.937C198.294 140.632 199.237 139.387 200.594 139.156C201.953 138.925 203.216 139.795 203.413 141.101Z" fill="#1A1A1A"/>
<path d="M202.779 135.302C202.508 135.661 200.467 134.486 197.796 134.8C195.124 135.076 193.322 136.676 192.994 136.382C192.835 136.254 193.081 135.633 193.864 134.913C194.633 134.198 195.997 133.431 197.662 133.247C199.327 133.064 200.797 133.516 201.674 134.051C202.568 134.586 202.914 135.14 202.779 135.302Z" fill="#1A1A1A"/>
<path d="M178.473 144.494C178.671 145.799 177.727 147.043 176.368 147.274C175.01 147.504 173.749 146.636 173.551 145.33C173.354 144.025 174.297 142.779 175.654 142.549C177.014 142.317 178.276 143.188 178.473 144.494Z" fill="#1A1A1A"/>
<path d="M176.577 138.821C176.306 139.18 174.262 138.006 171.594 138.319C168.922 138.595 167.12 140.195 166.792 139.901C166.633 139.773 166.877 139.153 167.662 138.433C168.431 137.716 169.795 136.95 171.459 136.766C173.125 136.583 174.595 137.035 175.472 137.569C176.364 138.106 176.711 138.659 176.577 138.821Z" fill="#1A1A1A"/>
<path d="M188.551 157.518C188.521 157.367 190.149 156.89 192.8 156.236C193.474 156.087 194.104 155.877 194.166 155.398C194.269 154.887 193.899 154.185 193.477 153.429C192.646 151.851 191.776 150.199 190.862 148.467C187.21 141.393 184.483 135.545 184.769 135.401C185.055 135.256 188.248 140.872 191.9 147.946C192.784 149.692 193.629 151.356 194.433 152.949C194.781 153.694 195.326 154.522 195.096 155.585C194.97 156.116 194.512 156.544 194.088 156.712C193.666 156.895 193.284 156.947 192.948 157.006C190.257 157.463 188.579 157.669 188.551 157.518Z" fill="#1A1A1A"/>
<path d="M194.698 188.882C194.698 188.882 181.106 191.257 167.313 184.985C167.313 184.985 175.41 197.787 195.241 193.71L194.698 188.882Z" fill="#FFC8A0"/>
<path d="M188.161 164.086C187.054 162.926 185.292 162.422 183.64 162.794C182.496 163.052 181.388 163.746 180.793 164.771C180.197 165.796 180.204 167.153 180.948 167.98C181.785 168.911 183.318 168.971 184.551 168.463C185.785 167.953 186.786 166.988 187.732 166.032C187.993 165.767 188.26 165.492 188.404 165.154C188.547 164.817 188.538 164.397 188.285 164.16" fill="#FFC8A0"/>
<path d="M180.901 160.27C181.333 160.195 181.672 163.094 184.391 164.866C187.105 166.646 190.159 165.965 190.229 166.368C190.29 166.545 189.605 167.01 188.304 167.196C187.03 167.387 185.114 167.191 183.45 166.107C181.791 165.018 180.946 163.409 180.71 162.231C180.46 161.031 180.701 160.276 180.901 160.27Z" fill="#1A1A1A"/>
<path d="M176.063 128.273C175.883 129.029 173.176 128.992 170.085 129.73C166.979 130.407 164.558 131.615 164.067 131.011C163.846 130.721 164.208 129.987 165.148 129.166C166.08 128.347 167.62 127.494 169.477 127.068C171.335 126.646 173.093 126.747 174.287 127.08C175.491 127.411 176.136 127.915 176.063 128.273Z" fill="#1A1A1A"/>
<path d="M200.907 127.683C200.506 128.344 198.594 127.926 196.377 128.151C194.154 128.298 192.338 129.028 191.833 128.444C191.609 128.157 191.834 127.515 192.587 126.847C193.328 126.181 194.623 125.559 196.149 125.43C197.675 125.303 199.057 125.701 199.898 126.234C200.751 126.768 201.08 127.363 200.907 127.683Z" fill="#1A1A1A"/>
<path d="M146.88 105.726C143.076 106.976 138.775 117.36 139.892 121.205C141.009 125.051 144.593 127.842 148.474 128.827C152.356 129.811 156.483 129.222 160.314 128.059C165.733 126.413 171.45 122.679 171.836 117.029C177.118 122.35 185.298 124.597 192.557 122.72C199.817 120.844 205.195 109.742 207.236 102.528L146.88 105.726Z" fill="#1A1A1A"/>
<path d="M184.45 144.598C184.362 144.603 184.406 143.62 183.96 141.955C183.519 140.322 182.409 137.931 179.948 136.092C178.729 135.194 177.2 134.433 175.44 134.133C173.693 133.844 171.725 133.907 169.857 134.626C167.989 135.301 166.207 136.576 164.942 138.335C163.64 140.072 162.909 142.299 162.887 144.596C162.908 146.894 163.639 149.122 164.941 150.859C166.206 152.62 167.988 153.894 169.857 154.57C171.726 155.289 173.694 155.352 175.441 155.063C177.2 154.762 178.73 154.002 179.949 153.103C182.409 151.264 183.519 148.874 183.96 147.241C184.406 145.576 184.362 144.593 184.45 144.598C184.477 144.598 184.491 144.839 184.493 145.302C184.504 145.764 184.447 146.453 184.254 147.314C183.891 149.014 182.825 151.548 180.282 153.541C179.023 154.514 177.42 155.349 175.559 155.697C173.711 156.033 171.617 155.991 169.613 155.244C167.609 154.541 165.693 153.191 164.327 151.311C162.924 149.456 162.129 147.061 162.109 144.596C162.13 142.133 162.925 139.738 164.328 137.884C165.693 136.005 167.61 134.655 169.613 133.952C171.617 133.205 173.711 133.163 175.559 133.499C177.42 133.847 179.023 134.681 180.282 135.654C182.824 137.647 183.891 140.181 184.254 141.881C184.447 142.743 184.504 143.431 184.493 143.893C184.491 144.357 184.477 144.598 184.45 144.598Z" fill="#00B4A6"/>
<path d="M211.939 139.645C211.851 139.65 211.895 138.667 211.449 137.002C211.008 135.368 209.898 132.978 207.437 131.139C206.218 130.24 204.688 129.48 202.929 129.18C201.182 128.891 199.214 128.954 197.346 129.673C195.477 130.348 193.696 131.622 192.431 133.382C191.129 135.119 190.397 137.346 190.375 139.643C190.397 141.941 191.128 144.169 192.43 145.906C193.695 147.667 195.477 148.941 197.346 149.617C199.214 150.336 201.182 150.399 202.93 150.109C204.689 149.809 206.219 149.049 207.438 148.15C209.898 146.311 211.008 143.92 211.449 142.288C211.895 140.623 211.851 139.639 211.939 139.645C211.966 139.645 211.98 139.886 211.982 140.349C211.993 140.811 211.936 141.5 211.743 142.361C211.38 144.061 210.313 146.595 207.771 148.588C206.512 149.561 204.909 150.396 203.048 150.744C201.2 151.08 199.106 151.038 197.102 150.291C195.098 149.588 193.181 148.237 191.816 146.357C190.413 144.503 189.618 142.108 189.598 139.643C189.618 137.18 190.414 134.785 191.816 132.931C193.182 131.052 195.099 129.702 197.102 128.999C199.106 128.252 201.2 128.21 203.048 128.546C204.909 128.894 206.511 129.728 207.771 130.701C210.313 132.694 211.38 135.228 211.743 136.928C211.936 137.79 211.993 138.478 211.982 138.94C211.98 139.404 211.966 139.645 211.939 139.645Z" fill="#00B4A6"/>
<path d="M182.81 138.556C182.717 138.537 182.702 138.028 183.068 137.311C183.42 136.607 184.229 135.72 185.439 135.339C186.651 134.965 187.821 135.235 188.51 135.615C189.219 135.996 189.496 136.424 189.43 136.492C189.354 136.583 188.965 136.33 188.296 136.121C187.637 135.909 186.655 135.778 185.67 136.082C184.687 136.391 183.954 137.057 183.532 137.606C183.099 138.158 182.923 138.587 182.81 138.556Z" fill="#00B4A6"/>
<path d="M162.118 147.193C162.194 147.394 160.302 148.213 157.892 149.021C155.482 149.83 153.479 150.318 153.419 150.112C153.358 149.906 155.25 149.087 157.645 148.284C160.039 147.481 162.042 146.992 162.118 147.193Z" fill="#00B4A6"/>
<path d="M352.399 180.649C355.609 179.408 354.282 176.07 354.282 176.07L342.349 179.665C342.349 179.665 348.683 177.098 351.928 174.443C355.173 171.788 353.555 169.478 353.555 169.478L341.258 174.225L334.309 178.319L316.903 204.889C316.903 204.889 330.505 211.54 332.913 209.622C337.145 206.251 339.456 198.722 340.399 194.896C342.105 194.402 347.477 192.803 348.927 191.836C350.658 190.682 351.482 188.952 351.482 188.952L342.005 190.757C343.379 190.356 352.165 187.346 352.861 186.271C354.087 184.381 353.317 183.54 353.317 183.54L341.413 185.396L342.64 184.502C342.64 184.502 349.306 181.845 352.399 180.649Z" fill="#FFC8A0"/>
<path d="M308.565 208.312L268.517 244.978C263.544 243.832 202.565 207.378 202.565 207.378L192.926 254.284C192.926 254.284 255.336 282.976 272.51 279.494C275.314 278.926 279.927 278.568 282.818 274.852C296.557 257.195 325.705 213.511 325.705 213.511L308.565 208.312Z" fill="#FFC8A0"/>
<path d="M335.775 206.473L328.551 202.986L333.772 193.526L337.861 184.868L344.207 173.087L334.536 176.717C333.393 177.206 332.39 177.972 331.618 178.946L315.705 200.921L308.65 208.111L315.458 226.427L323.458 213.937C323.458 213.937 323.458 213.937 328.138 212.847C332.817 211.756 335.775 206.473 335.775 206.473Z" fill="#FFC8A0"/>
<path d="M324.154 191.591C327.478 189.925 330.955 188.566 334.528 187.537C335.695 187.201 336.912 186.897 338.113 187.073C339.315 187.249 340.508 188.018 340.829 189.189C341.195 190.52 340.326 191.932 339.169 192.686C338.012 193.439 336.616 193.703 335.28 194.052C333.944 194.401 332.564 194.896 331.678 195.954C330.844 196.951 330.578 198.286 330.139 199.509C328.712 203.494 325.082 206.608 320.926 207.414" fill="#FFC8A0"/>
<path d="M320.927 207.414C320.913 207.351 321.568 207.219 322.67 206.779C323.762 206.334 325.32 205.539 326.832 204.064C327.583 203.33 328.329 202.44 328.938 201.368C329.577 200.299 329.966 199.076 330.399 197.689C330.638 197.008 330.943 196.284 331.479 195.671C332.009 195.058 332.712 194.612 333.449 194.294C334.932 193.644 336.567 193.486 338.013 192.888C338.741 192.592 339.379 192.183 339.843 191.616C340.309 191.057 340.597 190.364 340.564 189.701C340.496 188.329 339.043 187.438 337.772 187.364C336.44 187.256 335.145 187.682 333.939 188.016C332.734 188.367 331.621 188.726 330.612 189.077C328.595 189.782 326.993 190.443 325.89 190.908C324.787 191.375 324.177 191.638 324.154 191.592C324.133 191.55 324.702 191.204 325.775 190.659C326.847 190.114 328.428 189.379 330.44 188.608C331.447 188.224 332.561 187.834 333.771 187.455C334.971 187.102 336.299 186.618 337.823 186.715C338.581 186.762 339.362 187.019 340.02 187.501C340.677 187.974 341.209 188.764 341.255 189.66C341.325 191.479 339.86 192.949 338.284 193.541C336.694 194.187 335.08 194.335 333.723 194.93C333.045 195.217 332.436 195.606 331.987 196.115C331.534 196.621 331.248 197.259 331.013 197.907C330.586 199.218 330.131 200.576 329.442 201.666C328.781 202.778 327.978 203.688 327.175 204.428C325.558 205.913 323.911 206.662 322.765 207.037C322.188 207.224 321.728 207.332 321.413 207.375C321.098 207.424 320.931 207.438 320.927 207.414Z" fill="#FFC8A0"/>
<path d="M198.033 339.353H115.953C115.953 339.353 103.832 354.604 95.8437 370.495L212.836 370.978C215.132 367.212 198.033 339.353 198.033 339.353Z" fill="#1A1A1A"/>
<path d="M222.304 264.72C219.525 227.976 210.408 204.889 210.408 204.889L196.19 200.515V200.515C194.04 209.905 178.737 213.007 170.024 208.899L160.802 204.079C131.212 199.64 132.744 202.095 125.903 206.206C119.959 209.778 120.506 236.433 120.506 236.433C120.506 236.433 105.757 305.888 106.561 317.028C107.366 328.168 115.953 339.353 115.953 339.353C115.953 339.353 189.769 339.353 198.034 339.353C206.299 339.353 208.658 320.665 208.082 313.884C207.507 307.104 223.217 276.798 222.304 264.72Z" fill="#FFDFD9"/>
<path d="M144.355 287.853C144.323 287.895 144.796 288.329 145.73 289.017C146.665 289.702 148.089 290.61 149.978 291.492C151.862 292.379 154.243 293.18 156.984 293.594C159.72 293.98 162.824 293.958 165.941 293.206C172.239 291.743 176.977 288.03 179.875 285.122C181.34 283.647 182.386 282.329 183.078 281.402C183.751 280.459 184.086 279.913 184.04 279.879C183.916 279.782 182.427 281.873 179.449 284.682C176.488 287.435 171.818 290.955 165.743 292.363C159.68 293.832 153.927 292.534 150.225 290.932C146.464 289.332 144.45 287.708 144.355 287.853Z" fill="#1A1A1A"/>
<path d="M182.668 281.77C182.045 287.966 179.081 293.985 174.236 297.899C169.391 301.812 162.659 303.439 156.671 301.726C150.683 300.014 145.712 294.834 144.675 288.693C148.896 290.616 153.186 292.56 157.772 293.254C167.55 294.733 177.992 289.804 183.064 281.315C182.841 281.551 182.618 281.786 182.395 282.022" fill="#1A1A1A"/>
<path d="M88.9757 263.028L130.339 282.421C130.339 282.421 147.201 245.119 148.65 240.021C150.099 234.922 154.65 226.848 149.986 216.215C145.322 205.582 132.822 201.675 125.903 206.207C110.423 216.346 88.9757 263.028 88.9757 263.028Z" fill="#FFDFD9"/>
<path d="M219.039 264.995C220.97 264.995 243.146 276.595 243.146 276.595L255.773 234.77C236.917 222.205 221.442 207.852 210.408 204.888L216.207 239.453L219.039 264.995Z" fill="#FFDFD9"/>
<path d="M88.9757 263.027C88.9872 263.002 89.2696 263.103 89.7968 263.317C90.4016 263.574 91.1589 263.896 92.0865 264.29C94.1616 265.211 96.9924 266.467 100.446 268C107.563 271.245 117.224 275.649 127.898 280.516C129.045 281.045 130.181 281.568 131.247 282.06L130.724 282.246C135.497 272.409 139.681 263.608 142.643 257.256C144.073 254.148 145.242 251.61 146.101 249.743C146.477 248.923 146.785 248.251 147.033 247.709C147.252 247.248 147.378 247.01 147.402 247.02C147.426 247.03 147.347 247.286 147.174 247.767C146.997 248.247 146.739 248.957 146.372 249.859C145.649 251.667 144.549 254.269 143.134 257.479C140.298 263.895 136.198 272.741 131.438 282.593L131.269 282.943L130.915 282.78C129.849 282.289 128.713 281.767 127.565 281.239C116.928 276.29 107.302 271.811 100.21 268.512C96.8007 266.884 94.0057 265.549 91.9569 264.571C91.0545 264.122 90.3178 263.756 89.7297 263.463C89.2241 263.202 88.9642 263.052 88.9757 263.027Z" fill="#1A1A1A"/>
<path d="M215.232 230.653C215.286 230.639 215.58 231.56 216.09 233.228C216.641 235.015 217.375 237.399 218.266 240.29C220.058 246.236 222.669 254.62 222.79 264.27C222.714 269.096 221.733 273.6 220.585 277.575C219.435 281.559 218.102 285.041 216.966 287.95C215.819 290.856 214.842 293.184 214.17 294.795C213.497 296.405 213.111 297.29 213.059 297.27C213.034 297.261 213.095 297.026 213.235 296.588C213.414 296.067 213.63 295.439 213.888 294.685C214.537 292.931 215.402 290.592 216.452 287.754C217.519 284.827 218.794 281.339 219.896 277.38C220.996 273.428 221.938 268.981 222.012 264.263C221.895 254.784 219.398 246.427 217.738 240.445C216.89 237.442 216.217 235.005 215.798 233.309C215.583 232.463 215.437 231.8 215.339 231.35C215.244 230.9 215.206 230.66 215.232 230.653Z" fill="#1A1A1A"/>
<path d="M180.263 222.318C179.624 216.232 176.418 210.603 172.097 206.27C169.954 204.12 167.379 201.972 166.963 198.965C166.424 195.07 169.796 191.421 169.249 187.526C168.566 182.666 162.483 180.553 160.309 176.153C157.386 170.236 162.478 162.545 159.343 156.737C157.454 153.239 152.952 151.357 152.047 147.485C151.461 144.98 156.238 141.322 157.348 135.884C159.844 123.657 161.113 114.198 149.238 107.079L142.302 97.573C134.527 101.365 127.997 109.901 127.863 118.823C127.8 123.038 129.959 127.266 128.123 131.062C125.562 136.358 119.595 139.62 117.793 145.221C115.214 153.235 122.315 162.202 119.215 170.03C117.387 174.645 112.568 177.28 109.544 181.216C104.805 187.386 105.294 196.98 110.635 202.636C103.077 207.726 99.5797 218.115 102.521 226.739C103.758 230.365 106.557 233.961 110.382 234.173C115.862 234.475 118.986 228.275 122.997 224.53C129.23 218.71 140.153 218.996 146.074 225.134C150.293 229.509 151.994 236.09 156.908 239.665C161.857 243.265 169.202 242.613 173.958 238.762C178.714 234.91 180.901 228.405 180.263 222.318Z" fill="#1A1A1A"/>
<path d="M126.281 279.787C118.449 292.658 112.984 300.061 112.984 300.061L183.231 342.843L175.044 361.858L83.9338 324.357C83.9338 324.357 74.9549 315.114 78.124 304.815L92.6507 264.721L126.281 279.787Z" fill="#FFC8A0"/>
<path d="M95.8942 306.599C96.0596 306.817 99.378 304.027 104.302 302.231C109.207 300.38 113.541 300.33 113.524 300.057C113.565 299.852 109.085 299.507 104.001 301.419C98.9012 303.286 95.7295 306.47 95.8942 306.599Z" fill="#FFC8A0"/>
<path d="M237.734 355.872L220.213 347.49L186.02 344.778L183.231 342.843L175.045 361.858C175.045 361.858 184.008 366.143 188.702 366.525L217.45 365.654L232.481 367.233L237.734 355.872Z" fill="#FFC8A0"/>
<path d="M336.3 288.381L237.729 289.182C234.531 289.182 231.476 290.718 230.997 293.88L220.225 365.722H169.453C167.818 365.722 166.493 367.048 166.493 368.682C166.493 370.317 167.818 371.642 169.453 371.642H219.337H228.806H331.612L342.694 295.818C343.287 291.905 340.258 288.381 336.3 288.381Z" fill="#F1F4F8"/>
<path d="M336.3 288.381C336.3 288.381 336.836 288.313 337.853 288.527C338.84 288.757 340.394 289.365 341.619 291.024C342.23 291.835 342.693 292.919 342.837 294.17C342.998 295.439 342.634 296.778 342.475 298.225C342.062 301.128 341.587 304.472 341.053 308.23C338.883 323.292 335.757 344.999 331.913 371.686L331.876 371.946L331.612 371.946C289.651 371.971 234.509 372.004 174.293 372.04C172.879 372.04 171.468 372.04 170.059 372.04C169.407 372.068 168.496 372.03 167.819 371.614C167.119 371.229 166.575 370.583 166.303 369.835C165.712 368.331 166.418 366.489 167.834 365.742C168.509 365.334 169.409 365.298 170.055 365.325L172.14 365.325C177.694 365.326 183.191 365.327 188.617 365.328C199.469 365.332 210.039 365.335 220.225 365.339L219.846 365.665C223.723 339.936 227.341 315.935 230.586 294.403C230.698 293.04 231.314 291.564 232.409 290.649C233.479 289.7 234.834 289.196 236.178 288.986C237.55 288.778 238.854 288.89 240.153 288.846C241.453 288.837 242.743 288.829 244.023 288.82C249.141 288.785 254.092 288.752 258.863 288.72C268.403 288.66 277.225 288.604 285.236 288.553C301.24 288.471 313.998 288.405 322.782 288.36C327.147 288.353 330.519 288.347 332.826 288.342C333.953 288.348 334.815 288.352 335.42 288.355C336.003 288.361 336.3 288.381 336.3 288.381C336.3 288.381 336.003 288.407 335.42 288.422C334.815 288.435 333.953 288.453 332.827 288.477C330.52 288.51 327.148 288.559 322.783 288.622C313.999 288.719 301.242 288.861 285.238 289.039C277.227 289.119 268.405 289.206 258.865 289.301C254.094 289.346 249.144 289.393 244.026 289.442C242.746 289.454 241.456 289.466 240.155 289.478C238.858 289.522 237.524 289.422 236.279 289.62C235.026 289.817 233.784 290.292 232.841 291.136C231.872 291.98 231.36 293.156 231.238 294.502C228.025 316.038 224.444 340.044 220.605 365.779L220.556 366.106H220.225C210.039 366.11 199.469 366.113 188.617 366.117C183.191 366.118 177.694 366.119 172.14 366.12L170.055 366.12C169.319 366.099 168.77 366.128 168.218 366.438C167.137 367.01 166.599 368.414 167.05 369.562C167.257 370.13 167.673 370.627 168.207 370.92C168.762 371.235 169.315 371.265 170.059 371.244C171.468 371.244 172.879 371.244 174.293 371.244C234.509 371.28 289.651 371.313 331.612 371.338L331.311 371.598C335.266 344.927 338.483 323.233 340.716 308.18C341.279 304.426 341.781 301.087 342.216 298.186C342.391 296.734 342.763 295.402 342.619 294.192C342.493 292.983 342.058 291.926 341.475 291.128C340.306 289.497 338.799 288.869 337.832 288.615C336.836 288.375 336.297 288.421 336.3 288.381Z" fill="#1A1A1A"/>
<path d="M282.834 335.27C286.242 335.27 289.005 332.507 289.005 329.099C289.005 325.69 286.242 322.927 282.834 322.927C279.426 322.927 276.663 325.69 276.663 329.099C276.663 332.507 279.426 335.27 282.834 335.27Z" fill="white"/>
<path d="M224.22 370.979C224.36 371.002 227.497 352.708 231.227 330.124C234.958 307.532 237.869 289.205 237.73 289.182C237.591 289.159 234.454 307.449 230.722 330.041C226.992 352.625 224.081 370.956 224.22 370.979Z" fill="#1A1A1A"/>
</svg>
