<svg width="622" height="473" viewBox="0 0 622 473" fill="none" xmlns="http://www.w3.org/2000/svg">
<g clip-path="url(#clip0_1279_15264)">
<path d="M377.16 142.534C377.934 142.57 378.7 142.367 379.355 141.953C380.009 141.539 380.521 140.934 380.819 140.22C381.118 139.507 381.19 138.718 381.025 137.962C380.861 137.206 380.467 136.519 379.898 135.993C379.803 135.615 379.735 135.344 379.64 134.965C379.674 134.883 379.708 134.801 379.742 134.719C383.221 126.434 395.009 126.491 398.458 134.788C401.519 142.152 405.416 149.528 406.376 157.314C406.799 160.756 406.62 164.245 405.849 167.625C413.039 151.961 416.772 134.935 416.796 117.702C416.798 113.378 416.557 109.057 416.076 104.76C415.678 101.237 415.126 97.7388 414.42 94.2659C410.566 75.4226 402.293 57.7611 390.278 42.7318C384.463 39.5627 379.761 34.6895 376.804 28.7688C375.733 26.6405 374.976 24.3685 374.557 22.0236C375.213 22.1095 377.03 12.1312 376.535 11.519C377.45 10.1335 379.086 9.44476 380.084 8.09276C385.049 1.36878 391.89 2.54283 395.461 11.6802C403.09 15.526 403.164 21.9041 398.483 28.0383C395.505 31.941 395.096 37.2217 392.483 41.3998C392.752 41.7435 393.031 42.0765 393.3 42.4203C398.214 48.7321 402.498 55.5097 406.088 62.656C405.072 54.7301 406.572 45.1814 409.129 39.0262C412.04 32.013 417.495 26.1065 422.299 20.0436C428.07 12.7611 439.903 15.9393 440.919 25.171C440.929 25.2604 440.939 25.3498 440.948 25.4391C440.235 25.8411 439.536 26.2679 438.853 26.7194C437.994 27.2924 437.329 28.111 436.944 29.0681C436.559 30.0252 436.473 31.076 436.696 32.083C436.92 33.0899 437.442 34.006 438.196 34.7112C438.949 35.4163 439.898 35.8777 440.919 36.0348L441.023 36.0509C440.769 38.6197 440.32 41.1655 439.679 43.6662C445.842 67.4727 432.537 76.1435 413.538 76.533C413.118 76.7478 412.71 76.9625 412.29 77.1667C415.898 87.3781 418.161 98.0147 419.022 108.809C419.51 115.177 419.481 121.575 418.936 127.938L418.968 127.713C420.345 120.636 424.124 114.251 429.668 109.636C437.902 102.88 449.535 100.392 458.418 94.9617C462.694 92.3476 468.173 95.7257 467.427 100.677C467.415 100.756 467.403 100.835 467.391 100.915C466.066 101.453 464.777 102.074 463.53 102.773C462.817 103.175 462.118 103.602 461.435 104.053C460.576 104.626 459.911 105.445 459.526 106.402C459.141 107.359 459.055 108.41 459.278 109.417C459.502 110.424 460.024 111.34 460.778 112.045C461.531 112.75 462.48 113.211 463.501 113.368L463.606 113.385C463.681 113.395 463.745 113.406 463.82 113.417C461.558 118.813 458.382 123.78 454.433 128.099C450.579 148.882 434.028 150.853 416.323 144.801H416.312C414.37 153.233 411.555 161.44 407.914 169.29H377.912C377.804 168.957 377.708 168.614 377.611 168.281C380.388 168.455 383.176 168.289 385.912 167.787C383.686 165.058 381.461 162.309 379.235 159.581C379.185 159.53 379.138 159.476 379.095 159.419C377.966 158.023 376.826 156.638 375.697 155.241L375.696 155.24C375.636 150.96 376.128 146.69 377.159 142.535L377.16 142.534Z" fill="white"/>
<path d="M473.487 65.8429C467.908 45.5281 512.902 28.1076 524.717 44.4673C526.36 42.1414 532.431 40.7287 535.217 41.4421C538.003 42.1556 540.346 43.9393 542.632 45.6659C545.775 48.0775 549.032 50.5746 550.961 54.0421C552.903 57.4953 553.203 62.2043 550.589 65.2008C548.518 67.5838 542.403 69.1249 539.289 69.7528C537.117 70.1951 535.289 70.5519 533.717 70.8087C532.29 68.7546 531.632 66.2639 531.86 63.7739C530.802 64.4865 529.915 65.4242 529.263 66.5196C528.611 67.615 528.21 68.8409 528.088 70.1095C528.046 70.6375 545.646 135.321 545.646 135.321C543.531 136.523 541.307 137.522 539.003 138.303C534.445 131.345 530.954 123.746 528.646 115.757C528.115 121.099 528.182 126.484 528.846 131.811C529.199 134.798 529.704 137.765 530.36 140.7C509.445 145.21 477.987 143.726 464.301 124.547C464.298 124.468 464.296 124.389 464.294 124.309C464.283 123.552 464.009 122.823 463.519 122.245C463.029 121.668 462.353 121.278 461.607 121.144C460.861 121.009 460.092 121.138 459.431 121.508C458.769 121.878 458.257 122.466 457.982 123.171C457.65 124.017 457.345 124.75 457.072 125.332C453.086 111.091 458.243 94.6101 473.487 65.8429Z" fill="#2F2E41"/>
<path d="M437.896 406.428V407.094C437.87 406.873 437.87 406.649 437.896 406.428Z" fill="#2F2E41"/>
<path d="M458.378 291.46C458.91 291.316 459.451 291.211 459.998 291.146C459.37 291.248 458.83 291.353 458.378 291.46Z" fill="#2F2E41"/>
<path d="M457.904 291.581C458.048 291.54 458.208 291.5 458.378 291.46C458.219 291.501 458.067 291.532 457.904 291.581Z" fill="#2F2E41"/>
<path d="M609.226 472.997H532.563C531.469 472.125 530.709 470.904 530.41 469.539C530.111 468.173 530.292 466.747 530.922 465.498C533.016 460.701 528.912 456.317 528.912 456.317C527.519 454.687 526.55 452.738 526.092 450.644C525.634 448.55 525.7 446.375 526.284 444.313C528.316 437.227 520.356 417.227 520.356 417.227C520.356 417.227 516.065 443.052 510.806 472.997H437.896C436.675 470.919 436.031 468.553 436.031 466.144C436.031 463.734 436.675 461.368 437.896 459.29C442.145 452.094 437.896 450.714 437.896 450.714C437.896 450.714 433.647 442.661 437.896 436.814C442.145 430.968 437.896 407.094 437.896 407.094C438.056 408.149 439.267 406.23 441.13 402.206C443.968 396.084 448.304 385.075 452.684 372.293C455.816 363.171 458.974 353.134 461.612 343.321H461.619C462.311 340.743 462.966 338.188 463.585 335.657C464.796 330.693 465.833 325.869 466.621 321.34C468.331 311.585 468.894 303.204 467.582 297.754C466.493 293.218 464.11 290.717 459.998 291.146C462.202 290.781 465.43 290.436 469.407 290.109C470.124 290.052 470.867 289.994 471.636 289.93C501.302 287.691 564.951 286.406 564.951 286.406L584.447 321.276L609.137 365.448C609.137 365.448 608.464 424.705 609.226 472.997Z" fill="#2F2E41"/>
<path d="M527.399 135.688L482.483 126.171L473.565 144.101L443.532 161.468C443.532 161.468 462.891 240.529 462.78 251.649C462.5 279.88 417.276 343.165 451.435 338.296C485.594 333.428 492.533 313.035 503.498 316.259C513.388 319.168 525.464 332.104 533.549 322.852C541.633 313.6 544.481 324.284 549.593 324.653C552.022 324.828 550.559 312.97 556.671 325.021C562.784 337.073 595.197 320.85 584.211 309.877C565.915 291.602 562.197 156.886 562.197 156.886L541.829 150.627L527.399 135.688Z" fill="#E6E6E6"/>
<path d="M442.682 422.804C444.487 420.655 445.381 417.887 445.174 415.089C444.966 412.292 443.674 409.685 441.572 407.825C441.139 407.453 440.676 407.118 440.187 406.823L447.697 370.009L430.336 359.63L425.507 411.172C424.438 413.29 424.102 415.702 424.55 418.031C424.999 420.36 426.206 422.476 427.985 424.047C429.005 424.932 430.191 425.607 431.472 426.034C432.754 426.461 434.108 426.632 435.456 426.536C436.803 426.441 438.119 426.081 439.328 425.478C440.537 424.875 441.615 424.04 442.5 423.02C442.562 422.949 442.623 422.877 442.682 422.804Z" fill="#A0616A"/>
<path d="M496.588 228.754C496.479 227.571 494.968 227.034 492.874 226.292C490.77 225.644 488.771 224.699 486.936 223.483C482.299 220.138 484.125 216.638 486.648 211.802C487.141 210.862 487.654 209.883 488.134 208.866C489.562 205.853 487.289 193.423 481.364 171.916C479.539 165.295 479.545 160.619 478.284 157.516C477.028 154.413 474.511 152.884 467.652 152.565C459.361 152.146 451.242 155.029 445.076 160.58C444.909 160.727 444.736 160.887 444.57 161.041C444.256 161.335 443.949 161.636 443.648 161.943C437.945 167.673 434.681 175.384 434.54 183.463L434.508 184.838L433.093 250.55L429.115 308.213L423.633 387.647L427.694 387.845L443.897 388.651L445.864 388.747L450.526 369.21L456.137 345.701L458.199 337.064L464.597 310.273L467.582 297.754L469.407 290.109L470.15 286.988L473.775 271.814C473.858 271.494 482.197 238.632 491.81 233.137C495.397 231.089 496.691 229.9 496.588 228.754Z" fill="#E6E6E6"/>
<path d="M604.449 422.412C602.424 420.469 601.238 417.813 601.143 415.009C601.049 412.205 602.053 409.475 603.943 407.4C604.333 406.984 604.758 406.602 605.212 406.256L593.787 370.46L609.932 358.279L620.275 409.005C621.565 410.996 622.159 413.358 621.963 415.722C621.768 418.086 620.795 420.318 619.196 422.071C618.276 423.06 617.17 423.859 615.942 424.421C614.713 424.983 613.386 425.298 612.036 425.348C610.686 425.397 609.339 425.181 608.072 424.711C606.805 424.241 605.644 423.526 604.654 422.607C604.585 422.543 604.517 422.478 604.449 422.412Z" fill="#A0616A"/>
<path d="M612.348 344.74C612.348 344.74 599.756 300.489 603.596 295.699C607.436 290.908 596.095 289.973 600.982 281.051C605.869 272.13 599.124 270.637 599.124 270.637L595.463 250.125L588.919 199.74L588.72 198.241L586.817 183.583C586.285 179.396 584.914 175.359 582.784 171.714C580.655 168.068 577.812 164.889 574.424 162.367C574.251 162.235 574.075 162.107 573.898 161.98C573.092 161.401 572.269 160.864 571.428 160.37C565.147 156.669 557.77 155.269 550.567 156.412C536.994 158.524 541.218 163.579 539.017 177.122C535.44 199.144 534.512 211.742 536.256 214.589C536.843 215.547 537.461 216.464 538.049 217.345C541.08 221.889 543.271 225.167 539.018 228.998C537.323 230.398 535.438 231.55 533.418 232.42C531.419 233.387 529.972 234.081 529.992 235.269C530.014 236.42 531.427 237.46 535.211 239.109C539.795 241.113 544.72 248.689 548.753 256.43C551.953 262.669 554.807 269.079 557.302 275.631L591.969 373.014L597.623 388.896L599.573 388.588L615.591 386.051L619.608 385.416L612.348 344.74Z" fill="#E6E6E6"/>
<path d="M508.449 125.499C528.687 125.499 545.093 109.111 545.093 88.8968C545.093 68.6821 528.687 52.2949 508.449 52.2949C488.21 52.2949 471.804 68.6821 471.804 88.8968C471.804 109.111 488.21 125.499 508.449 125.499Z" fill="#A0616A"/>
<path d="M453.486 68.697C447.908 48.3821 492.901 30.9617 504.716 47.3213C506.359 44.9954 512.431 43.5827 515.217 44.2961C518.003 45.0096 520.345 46.7933 522.631 48.5199C525.774 50.9315 529.031 53.4286 530.96 56.8961C532.903 60.3493 533.203 65.0583 530.589 68.0548C528.517 70.4378 522.403 71.9789 519.288 72.6068C517.117 73.0491 515.288 73.4059 513.717 73.6627C512.289 71.6086 511.632 69.1179 511.859 66.6279C510.802 67.3405 509.915 68.2782 509.263 69.3736C508.611 70.469 508.21 71.6949 508.088 72.9635C508.045 73.4915 525.646 138.175 525.646 138.175C523.531 139.377 521.307 140.376 519.003 141.157C514.445 134.199 510.954 126.6 508.645 118.611C508.114 123.953 508.182 129.338 508.845 134.665C509.198 137.652 509.703 140.619 510.359 143.554C489.444 148.064 457.986 146.58 444.3 127.401C444.298 127.322 444.295 127.243 444.293 127.163C444.283 126.406 444.009 125.677 443.519 125.099C443.029 124.522 442.353 124.132 441.607 123.998C440.861 123.863 440.091 123.992 439.43 124.362C438.769 124.732 438.257 125.32 437.982 126.025C437.65 126.871 437.344 127.604 437.071 128.186C433.086 113.945 438.243 97.4641 453.486 68.697Z" fill="#2F2E41"/>
<path d="M271.751 195.172C270.977 195.208 270.211 195.005 269.556 194.591C268.902 194.177 268.39 193.572 268.092 192.858C267.793 192.144 267.721 191.356 267.886 190.6C268.05 189.844 268.444 189.156 269.013 188.631C269.108 188.253 269.176 187.981 269.271 187.603C269.237 187.521 269.203 187.439 269.169 187.356C265.69 179.072 253.902 179.129 250.453 187.426C247.392 194.79 243.494 202.166 242.535 209.952C242.112 213.394 242.291 216.882 243.062 220.263C235.872 204.598 232.139 187.572 232.115 170.34C232.113 166.016 232.354 161.695 232.835 157.397C233.233 153.874 233.785 150.377 234.491 146.904C238.345 128.06 246.618 110.399 258.633 95.3695C264.447 92.2005 269.15 87.3272 272.107 81.4065C273.178 79.2782 273.935 77.0062 274.354 74.6612C273.698 74.7472 271.881 64.7689 272.375 64.1567C271.461 62.7712 269.825 62.0825 268.827 60.7305C263.862 54.0065 257.021 55.1805 253.45 64.3179C245.821 68.1637 245.747 74.5418 250.428 80.676C253.406 84.5787 253.815 89.8594 256.428 94.0375C256.159 94.3812 255.88 94.7142 255.611 95.058C250.697 101.37 246.413 108.147 242.823 115.294C243.839 107.368 242.339 97.8191 239.782 91.6639C236.871 84.6507 231.416 78.7442 226.612 72.6813C220.841 65.3988 209.008 68.577 207.992 77.8087C207.982 77.8981 207.972 77.9875 207.963 78.0768C208.676 78.4788 209.375 78.9056 210.058 79.3571C210.917 79.9301 211.582 80.7487 211.967 81.7058C212.352 82.6629 212.438 83.7137 212.215 84.7207C211.991 85.7276 211.469 86.6437 210.715 87.3489C209.962 88.054 209.013 88.5154 207.992 88.6726L207.888 88.6886C208.142 91.2574 208.591 93.8032 209.232 96.3039C203.069 120.11 216.374 128.781 235.373 129.171C235.792 129.385 236.201 129.6 236.621 129.804C233.013 140.016 230.75 150.652 229.889 161.447C229.401 167.815 229.43 174.212 229.975 180.576L229.943 180.35C228.566 173.274 224.787 166.889 219.243 162.274C211.009 155.518 199.376 153.03 190.493 147.599C186.217 144.985 180.738 148.363 181.484 153.315C181.496 153.394 181.508 153.473 181.52 153.552C182.845 154.091 184.134 154.711 185.381 155.41C186.094 155.812 186.793 156.239 187.476 156.691C188.335 157.264 189 158.082 189.385 159.039C189.77 159.996 189.856 161.047 189.633 162.054C189.409 163.061 188.887 163.977 188.133 164.682C187.38 165.388 186.431 165.849 185.41 166.006L185.305 166.022C185.23 166.033 185.166 166.044 185.091 166.055C187.353 171.451 190.529 176.417 194.478 180.737C198.332 201.519 214.883 203.491 232.588 197.439H232.599C234.541 205.871 237.356 214.078 240.997 221.928H270.999C271.107 221.595 271.203 221.251 271.3 220.918C268.523 221.093 265.735 220.927 262.998 220.424C265.224 217.696 267.45 214.946 269.676 212.218C269.726 212.167 269.773 212.113 269.816 212.057C270.945 210.661 272.085 209.275 273.214 207.879L273.215 207.877C273.275 203.597 272.783 199.327 271.752 195.173L271.751 195.172Z" fill="white"/>
<path d="M131.76 44.468C131.079 46.053 110.084 45.8831 109.122 47.2945C101.708 58.1905 128.434 104.551 121.02 115.461L119.987 116.69C122.406 115.577 124.729 114.268 126.934 112.776C127.132 108.31 127.33 103.83 127.543 99.364C129.763 102.201 131.556 105.349 132.863 108.705C134.589 107.49 136.005 105.237 143.404 100.805C146.399 97.5189 149.852 94.6798 153.657 92.3753L131.76 44.468Z" fill="#2F2E41"/>
<path d="M147.006 133.767C144.689 132.26 142.046 131.326 139.295 131.043C136.545 130.76 133.766 131.137 131.19 132.141C128.615 133.146 126.316 134.749 124.485 136.819C122.654 138.888 121.343 141.364 120.662 144.041L88.7558 227.078L33.9131 195.979C33.6723 192.404 32.3043 188.997 30.0053 186.247C27.7062 183.497 24.5943 181.545 21.1159 180.671C17.6374 179.796 13.971 180.045 10.6427 181.381C7.31435 182.716 4.49498 185.07 2.58896 188.105C0.682933 191.14 -0.211822 194.7 0.0330227 198.275C0.277867 201.849 1.64974 205.254 3.95186 208.002C6.25399 210.749 9.3681 212.698 12.8476 213.568C16.327 214.439 19.9931 214.186 23.3199 212.847C34.8693 225.159 84.9402 275.638 105.669 255.915C123.093 239.336 148.237 175.083 154.29 152.895C155.26 149.348 155.077 145.584 153.768 142.146C152.459 138.709 150.091 135.775 147.006 133.767Z" fill="#FFB6B6"/>
<path d="M87.0956 259.395L97.1641 304.85L170.789 311.501L177.555 271.922L87.0956 259.395Z" fill="#FFB6B6"/>
<path d="M199.558 375.958C199.525 376.61 199.484 377.255 199.437 377.907C198.731 387.325 197.924 398.188 197.05 410.092C195.671 428.982 194.131 450.492 192.577 472.997H38.149L68.0987 383.082C68.0987 383.082 80.1918 376.432 74.0351 365.26C67.8784 354.088 79.9925 362.991 80.1052 347.036C80.2179 331.081 91.0733 314.108 91.0733 314.108L92.8557 289.95L93.8712 289.971L174.236 291.307L175.702 291.334L178.171 312.072C193.158 329.885 200.804 352.724 199.558 375.958Z" fill="#2F2E41"/>
<path d="M133.047 111.738L169.694 109.853L186.715 136.717C186.715 136.717 218.741 142.065 216.521 179.76C214.301 217.454 177.555 250.531 177.555 250.531L179.126 245.152L176.398 252.938L176.747 257.31L180.469 261.94L180.852 266.728L177.555 274.304C177.984 274.99 178.211 275.783 178.212 276.592C178.212 277.401 177.986 278.195 177.558 278.882C177.13 279.569 176.518 280.122 175.791 280.479C175.064 280.837 174.252 280.983 173.446 280.902L120.494 275.602C119.289 272.29 118.322 268.326 113.489 274.924L108.501 274.441L87.7655 272.435L86.545 267.994C85.8515 265.471 85.7434 262.823 86.229 260.251C86.7146 257.68 87.7809 255.253 89.347 253.156C87.5459 247.522 88.0177 241.409 90.6618 236.118L90.761 235.92L92.963 234.086C92.963 234.086 68.8722 197.936 96.5277 170.708L107.627 151.86L120.047 136.726L133.047 111.738Z" fill="#00B4A6"/>
<path d="M142.168 95.8804C161.36 95.8804 176.919 80.34 176.919 61.17C176.919 42.0001 161.36 26.4597 142.168 26.4597C122.975 26.4597 107.417 42.0001 107.417 61.17C107.417 80.34 122.975 95.8804 142.168 95.8804Z" fill="#FFB6B6"/>
<path d="M168.561 111.173C165.732 108.811 163.762 105.582 162.958 101.987C162.316 106.352 162.484 110.797 163.454 115.101C161.572 116.515 159.747 117.857 158.02 119.073C156.714 115.716 154.921 112.569 152.7 109.731C152.488 114.197 152.29 118.677 152.092 123.143C149.887 124.635 147.564 125.944 145.145 127.057L146.178 125.828C153.592 114.918 134.406 94.8357 141.82 83.9397C143.9 80.887 134.505 56.7632 127.346 55.675C120.979 54.714 121.248 56.5512 115.079 57.8938C114.438 55.2251 113.443 52.6539 112.122 50.2481C112.473 52.9288 112.392 55.6486 111.881 58.3036C109.688 58.3884 107.963 56.9926 105.627 56.636C90.7284 54.3607 92.2423 38.264 96.388 33.1622C100.548 28.0746 114.357 26.5482 120.724 24.8947C121.304 24.3295 122.62 24.6828 123.2 24.1457C135.402 12.9917 151.722 11.1445 166.407 16.0882C182.069 21.3603 191.833 31.5641 196.845 47.2945L198.282 59.8828C199.572 63.9304 197.95 82.7633 196.845 86.8651C192.551 102.809 183.405 94.8499 168.561 111.173Z" fill="#2F2E41"/>
<path d="M219.231 275.621L217.863 169.195C217.792 164.686 215.949 160.386 212.731 157.223C209.514 154.06 205.18 152.287 200.666 152.287H200.666C198.33 152.287 196.019 152.762 193.873 153.683C191.728 154.604 189.792 155.952 188.185 157.645C186.578 159.338 185.333 161.339 184.526 163.528C183.719 165.718 183.366 168.048 183.49 170.377L188.304 280.885L188.396 348.157C185.558 349.358 183.16 351.404 181.527 354.014C179.894 356.625 179.105 359.674 179.267 362.749C179.43 365.823 180.536 368.772 182.435 371.197C184.334 373.621 186.934 375.403 189.883 376.3C192.831 377.197 195.984 377.165 198.914 376.21C201.844 375.254 204.408 373.421 206.259 370.959C208.109 368.497 209.156 365.526 209.257 362.45C209.358 359.373 208.508 356.34 206.823 353.762L219.231 275.621Z" fill="#FFB6B6"/>
<path d="M398.585 413.312C398.585 413.312 396.469 451.322 395.497 473H322.653C321.154 453.272 320.649 438.778 320.649 438.778L316.663 473H243.033L238.468 409.62L260.527 355.003C260.527 355.003 380.073 346.722 391.162 357.227C402.244 367.725 398.585 413.312 398.585 413.312Z" fill="#2F2E41"/>
<path d="M334.17 93.5657C356.145 93.5657 373.959 75.7722 373.959 53.8229C373.959 31.8735 356.145 14.0801 334.17 14.0801C312.195 14.0801 294.38 31.8735 294.38 53.8229C294.38 75.7722 312.195 93.5657 334.17 93.5657Z" fill="#FFB6B6"/>
<path d="M380.548 40.9089C376.462 42.7703 373.814 56.2513 370.601 53.1172C367.389 49.9832 367.603 45.9047 363.273 44.7481C359.775 43.81 356.012 44.8821 352.822 46.5728C352.252 46.8712 351.7 47.1955 351.161 47.5181C350.806 47.281 350.453 47.0579 350.073 46.8521C347.22 45.3269 343.889 44.9527 340.768 45.8067C343.234 46.6318 345.379 48.2106 346.898 50.3196C345.83 51.0342 344.749 51.7507 343.643 52.3856C334.401 57.7122 321.252 46.1297 311.525 41.7784C317.618 53.1985 314.617 57.9282 309.327 69.739L309.144 70.4116C309.445 67.4514 300.274 65.2454 300.806 69.4124C301.184 72.371 303.747 78.9471 305.183 81.5592C294.956 69.7478 287.967 55.294 289.442 40.3836C289.763 37.2514 289.666 33.9465 291.284 31.2279C292.903 28.5234 296.278 26.6255 299.265 27.6568C299.012 22.9017 300.053 18.167 302.279 13.9561C304.505 9.74513 307.832 6.21532 311.905 3.74193C315.979 1.26853 320.648 -0.0559949 325.415 -0.0908468C330.182 -0.125699 334.87 1.13044 338.98 3.544C342.798 5.78211 345.986 8.94751 349.486 11.6779C352.986 14.4083 357.021 16.7883 361.459 17.0137C364.274 17.1493 367.338 16.4628 369.757 17.9193C372.559 19.6093 373.039 23.1477 373.459 26.5525C370.96 26.7986 368.591 27.7833 366.655 29.3809C369.241 29.1174 371.844 29.6751 374.094 30.9746C374.137 30.9939 374.178 31.017 374.216 31.0438C375.697 36.6708 375.546 37.9182 380.548 40.9089Z" fill="#2F2E41"/>
<path d="M243.209 374.23C277.093 334.615 265.648 284.227 252.2 233.364L254.759 158.222C254.884 154.536 255.896 150.935 257.708 147.722C259.521 144.508 262.081 141.778 265.172 139.761L299.763 117.189L313.227 97.7456L350.339 101.452L370.919 123.191L393.698 140.561C399.418 144.923 403.77 150.827 406.241 157.577C408.713 164.327 409.2 171.643 407.647 178.661L385.847 277.131C385.847 277.131 394.965 328.178 389.402 333.816C383.838 339.454 369.503 333.819 380.871 340.148C394.513 347.743 406.918 346.341 400.014 353.237C393.11 360.132 401.847 369.719 401.847 369.719L243.209 374.23Z" fill="#00B4A6"/>
<path d="M257.697 431.805L263.345 391.607L240.805 385.18L236.347 427.892C234.482 429.6 233.13 431.795 232.445 434.228C231.76 436.662 231.768 439.238 232.468 441.667C233.168 444.096 234.533 446.282 236.408 447.979C238.284 449.676 240.597 450.817 243.086 451.273C245.575 451.729 248.143 451.483 250.499 450.562C252.856 449.64 254.909 448.081 256.427 446.058C257.945 444.035 258.868 441.63 259.092 439.112C259.316 436.594 258.833 434.064 257.697 431.805Z" fill="#FFB6B6"/>
<path d="M300.609 124.435C300.609 124.435 236.45 145.292 234.92 160.553C233.391 175.814 233.898 185.156 227.126 246.223L227.483 410.722C227.483 410.722 270.498 419.92 266.086 410.085C261.675 400.25 263.214 395.623 263.214 395.623C263.214 395.623 272.436 391.988 270.128 380.44C267.819 368.892 279.396 311.664 279.396 311.664L286.703 209.029L300.609 124.435Z" fill="#00B4A6"/>
<path d="M379.717 429.677L376.711 389.196L399.623 384.254L401.277 427.166C403.027 428.992 404.231 431.27 404.756 433.743C405.281 436.216 405.104 438.786 404.247 441.164C403.389 443.543 401.884 445.635 399.901 447.206C397.918 448.777 395.536 449.764 393.022 450.057C390.509 450.349 387.963 449.936 385.672 448.863C383.38 447.79 381.434 446.099 380.051 443.982C378.669 441.865 377.905 439.404 377.846 436.877C377.787 434.35 378.435 431.856 379.717 429.677H379.717Z" fill="#FFB6B6"/>
<path d="M357.012 120.162C357.012 120.162 419.668 145.163 420.196 160.491C420.724 175.819 419.606 185.109 422.367 246.487L411.246 410.611C411.246 410.611 367.721 416.981 372.767 407.455C377.812 397.929 376.579 393.211 376.579 393.211C376.579 393.211 367.614 388.982 370.674 377.61C373.733 366.237 365.926 308.376 365.926 308.376L365.351 205.483L357.012 120.162Z" fill="#00B4A6"/>
</g>
<defs>
<clipPath id="clip0_1279_15264">
<rect width="622" height="473" fill="white"/>
</clipPath>
</defs>
</svg>
