<svg width="698" height="532" viewBox="0 0 698 532" fill="none" xmlns="http://www.w3.org/2000/svg">
<g clip-path="url(#clip0_1190_9443)">
<path d="M423.244 160.138C424.113 160.178 424.972 159.95 425.707 159.485C426.441 159.02 427.015 158.34 427.35 157.538C427.686 156.736 427.767 155.85 427.582 155.001C427.397 154.151 426.955 153.379 426.317 152.789C426.21 152.364 426.133 152.059 426.026 151.634C426.065 151.542 426.103 151.449 426.142 151.357C430.045 142.049 443.274 142.113 447.144 151.435C450.579 159.708 454.953 167.995 456.03 176.743C456.504 180.61 456.304 184.529 455.438 188.328C463.507 170.728 467.696 151.6 467.723 132.239C467.725 127.381 467.455 122.526 466.915 117.698C466.468 113.74 465.849 109.81 465.056 105.908C460.732 84.7376 451.447 64.8948 437.965 48.0093C431.44 44.4489 426.163 38.9738 422.845 32.3219C421.643 29.9307 420.793 27.3782 420.323 24.7436C421.059 24.8402 423.098 13.6296 422.543 12.9417C423.569 11.3851 425.405 10.6113 426.525 9.09235C432.097 1.53795 439.774 2.85699 443.782 13.1228C452.343 17.4436 452.426 24.6094 447.172 31.5012C443.83 35.8859 443.371 41.8187 440.439 46.5128C440.741 46.899 441.054 47.2732 441.356 47.6594C446.871 54.7506 451.677 62.3653 455.707 70.3943C454.567 61.4894 456.25 50.7615 459.119 43.8461C462.385 35.9668 468.507 29.3308 473.898 22.5191C480.374 14.3373 493.653 17.908 494.794 28.2798C494.805 28.3802 494.816 28.4806 494.826 28.5809C494.025 29.0327 493.242 29.5122 492.475 30.0194C491.511 30.6632 490.765 31.5829 490.333 32.6582C489.901 33.7334 489.804 34.9141 490.055 36.0454C490.305 37.1767 490.892 38.2059 491.737 38.9981C492.583 39.7904 493.648 40.3088 494.793 40.4853L494.911 40.5034C494.625 43.3894 494.121 46.2496 493.402 49.0592C500.318 75.8057 485.387 85.5474 464.067 85.985C463.596 86.2263 463.137 86.4676 462.667 86.697C466.715 98.1695 469.254 110.12 470.221 122.247C470.768 129.402 470.736 136.589 470.124 143.739L470.161 143.486C471.705 135.535 475.946 128.362 482.168 123.176C491.408 115.586 504.462 112.791 514.43 106.69C519.229 103.753 525.378 107.548 524.54 113.111C524.527 113.2 524.513 113.289 524.499 113.378C523.013 113.983 521.567 114.68 520.167 115.465C519.367 115.917 518.583 116.397 517.816 116.904C516.852 117.548 516.106 118.467 515.674 119.543C515.242 120.618 515.145 121.798 515.396 122.93C515.646 124.061 516.233 125.09 517.079 125.883C517.924 126.675 518.989 127.193 520.135 127.37L520.252 127.388C520.336 127.4 520.409 127.412 520.493 127.424C517.954 133.486 514.391 139.067 509.958 143.92C505.634 167.269 487.06 169.484 467.192 162.685H467.18C465 172.157 461.842 181.378 457.755 190.198H424.088C423.967 189.824 423.858 189.438 423.75 189.064C426.866 189.259 429.995 189.073 433.066 188.509C430.568 185.443 428.07 182.354 425.572 179.289C425.516 179.232 425.464 179.171 425.415 179.108C424.148 177.539 422.869 175.983 421.602 174.414L421.601 174.412C421.534 169.603 422.086 164.806 423.243 160.138L423.244 160.138Z" fill="white"/>
<path d="M531.34 73.975C525.08 51.1512 575.571 31.5793 588.83 49.9594C590.674 47.3463 597.487 45.7591 600.613 46.5607C603.74 47.3623 606.369 49.3662 608.934 51.3061C612.461 54.0155 616.116 56.821 618.28 60.7167C620.461 64.5964 620.797 69.8869 617.864 73.2535C615.539 75.9308 608.677 77.6623 605.182 78.3677C602.746 78.8647 600.694 79.2655 598.93 79.554C597.328 77.2462 596.59 74.448 596.846 71.6504C595.659 72.4511 594.664 73.5045 593.932 74.7352C593.2 75.9659 592.75 77.3432 592.614 78.7685C592.566 79.3617 612.317 152.034 612.317 152.034C609.943 153.384 607.447 154.506 604.862 155.384C599.747 147.567 595.829 139.029 593.239 130.054C592.643 136.056 592.719 142.105 593.463 148.09C593.859 151.446 594.427 154.779 595.163 158.077C571.692 163.144 536.39 161.476 521.032 139.93C521.029 139.84 521.027 139.751 521.024 139.662C521.012 138.812 520.705 137.992 520.155 137.343C519.605 136.694 518.846 136.257 518.009 136.105C517.172 135.954 516.309 136.099 515.567 136.515C514.825 136.93 514.25 137.591 513.941 138.383C513.569 139.334 513.226 140.157 512.92 140.811C508.447 124.812 514.234 106.295 531.34 73.975Z" fill="#2F2E41"/>
<path d="M491.401 456.623V457.371C491.372 457.122 491.372 456.871 491.401 456.623Z" fill="#2F2E41"/>
<path d="M514.385 327.456C514.982 327.294 515.59 327.176 516.204 327.103C515.499 327.217 514.893 327.335 514.385 327.456Z" fill="#2F2E41"/>
<path d="M513.854 327.591C514.015 327.546 514.194 327.501 514.385 327.456C514.208 327.502 514.036 327.536 513.854 327.591Z" fill="#2F2E41"/>
<path d="M683.666 531.413H597.635C596.408 530.433 595.555 529.061 595.219 527.527C594.884 525.993 595.086 524.39 595.793 522.988C598.143 517.598 593.538 512.673 593.538 512.673C591.975 510.841 590.887 508.652 590.373 506.299C589.859 503.946 589.933 501.503 590.589 499.186C592.869 491.225 583.936 468.755 583.936 468.755C583.936 468.755 579.121 497.77 573.22 531.413H491.401C490.03 529.078 489.308 526.42 489.308 523.713C489.308 521.006 490.03 518.347 491.401 516.013C496.169 507.928 491.401 506.377 491.401 506.377C491.401 506.377 486.633 497.33 491.401 490.761C496.169 484.193 491.401 457.37 491.401 457.37C491.581 458.556 492.939 456.4 495.031 451.879C498.215 445.001 503.08 432.632 507.996 418.272C511.511 408.023 515.054 396.746 518.015 385.721H518.022C518.799 382.825 519.534 379.955 520.229 377.111C521.587 371.534 522.752 366.115 523.636 361.026C525.555 350.066 526.187 340.65 524.714 334.527C523.492 329.431 520.818 326.621 516.204 327.103C518.676 326.693 522.299 326.305 526.762 325.938C527.567 325.873 528.401 325.809 529.263 325.737C562.554 323.221 633.981 321.777 633.981 321.777L655.858 360.954L683.565 410.582C683.565 410.582 682.81 477.157 683.666 531.413Z" fill="#2F2E41"/>
<path d="M591.84 152.445L541.436 141.753L531.428 161.898L497.725 181.41C497.725 181.41 519.45 270.235 519.326 282.728C519.011 314.446 468.262 385.546 506.594 380.076C544.927 374.607 552.713 351.695 565.019 355.318C576.117 358.585 589.669 373.12 598.741 362.725C607.813 352.33 611.009 364.333 616.745 364.748C619.472 364.945 617.83 351.622 624.689 365.162C631.548 378.702 667.922 360.476 655.594 348.148C635.062 327.616 630.889 176.262 630.889 176.262L608.033 169.229L591.84 152.445Z" fill="#E6E6E6"/>
<path d="M496.772 475.021C498.797 472.606 499.8 469.496 499.568 466.353C499.335 463.21 497.885 460.282 495.526 458.191C495.04 457.774 494.52 457.397 493.972 457.066L502.4 415.705L482.917 404.045L477.498 461.952C476.299 464.332 475.922 467.042 476.425 469.658C476.928 472.275 478.283 474.652 480.279 476.417C481.424 477.411 482.754 478.17 484.193 478.65C485.631 479.129 487.15 479.321 488.662 479.214C490.175 479.107 491.652 478.703 493.008 478.025C494.364 477.347 495.574 476.409 496.568 475.263C496.637 475.184 496.705 475.103 496.772 475.021Z" fill="#A0616A"/>
<path d="M557.265 257.006C557.142 255.676 555.446 255.073 553.096 254.239C550.736 253.512 548.492 252.449 546.434 251.084C541.23 247.325 543.278 243.394 546.11 237.96C546.664 236.904 547.238 235.804 547.778 234.661C549.38 231.276 546.829 217.311 540.181 193.148C538.132 185.709 538.14 180.455 536.724 176.97C535.315 173.484 532.49 171.766 524.793 171.407C515.489 170.937 506.378 174.175 499.458 180.412C499.271 180.577 499.077 180.757 498.89 180.93C498.538 181.26 498.193 181.598 497.855 181.943C491.456 188.381 487.794 197.045 487.635 206.121L487.599 207.666L486.011 281.493L481.548 346.278L475.395 435.522L479.952 435.745L498.136 436.65L500.342 436.758L505.574 414.808L511.87 388.395L514.185 378.692L521.365 348.593L524.714 334.527L526.762 325.938L527.596 322.431L531.664 305.383C531.757 305.024 541.115 268.103 551.903 261.929C555.928 259.629 557.38 258.293 557.265 257.006Z" fill="#E6E6E6"/>
<path d="M678.305 474.581C676.032 472.397 674.701 469.413 674.595 466.263C674.489 463.113 675.616 460.046 677.736 457.715C678.175 457.248 678.651 456.818 679.161 456.429L666.34 416.213L684.458 402.527L696.064 459.517C697.512 461.755 698.178 464.408 697.959 467.064C697.74 469.72 696.648 472.228 694.853 474.198C693.821 475.309 692.58 476.206 691.202 476.837C689.823 477.469 688.334 477.823 686.818 477.879C685.303 477.935 683.792 477.691 682.37 477.163C680.949 476.635 679.645 475.832 678.534 474.8C678.457 474.728 678.381 474.655 678.305 474.581Z" fill="#A0616A"/>
<path d="M687.168 387.316C687.168 387.316 673.038 337.6 677.347 332.218C681.657 326.836 668.929 325.785 674.414 315.761C679.898 305.738 672.328 304.061 672.328 304.061L668.22 281.015L660.877 224.408L660.654 222.724L658.518 206.255C657.921 201.551 656.382 197.016 653.993 192.921C651.603 188.825 648.413 185.253 644.611 182.419C644.417 182.271 644.219 182.128 644.02 181.985C643.116 181.334 642.193 180.731 641.249 180.176C634.2 176.017 625.922 174.445 617.838 175.729C602.608 178.101 607.348 183.781 604.877 198.997C600.864 223.738 599.822 237.893 601.779 241.091C602.438 242.168 603.131 243.198 603.792 244.187C607.193 249.292 609.651 252.975 604.879 257.279C602.977 258.852 600.861 260.147 598.595 261.124C596.351 262.21 594.728 262.99 594.749 264.325C594.775 265.618 596.36 266.786 600.606 268.639C605.751 270.89 611.277 279.403 615.803 288.099C619.394 295.108 622.597 302.31 625.397 309.671L664.299 419.082L670.644 436.925L672.833 436.579L690.808 433.729L695.316 433.016L687.168 387.316Z" fill="#E6E6E6"/>
<path d="M570.574 140.998C593.285 140.998 611.696 122.587 611.696 99.8756C611.696 77.1645 593.285 58.7534 570.574 58.7534C547.863 58.7534 529.452 77.1645 529.452 99.8756C529.452 122.587 547.863 140.998 570.574 140.998Z" fill="#A0616A"/>
<path d="M508.896 77.1811C502.636 54.3572 553.127 34.7854 566.386 53.1654C568.229 50.5524 575.043 48.9651 578.169 49.7667C581.295 50.5683 583.925 52.5723 586.49 54.5121C590.017 57.2215 593.672 60.0271 595.836 63.9228C598.017 67.8024 598.353 73.093 595.419 76.4596C593.095 79.1369 586.233 80.8683 582.738 81.5737C580.301 82.0707 578.249 82.4715 576.486 82.7601C574.884 80.4523 574.146 77.654 574.402 74.8564C573.215 75.6571 572.22 76.7106 571.488 77.9412C570.756 79.1719 570.306 80.5493 570.169 81.9745C570.121 82.5677 589.872 155.24 589.872 155.24C587.499 156.59 585.003 157.712 582.418 158.59C577.303 150.773 573.385 142.235 570.795 133.26C570.199 139.262 570.274 145.311 571.019 151.296C571.415 154.652 571.982 157.985 572.718 161.284C549.248 166.35 513.946 164.682 498.588 143.136C498.585 143.047 498.582 142.957 498.58 142.868C498.568 142.018 498.261 141.198 497.711 140.549C497.161 139.9 496.402 139.463 495.565 139.312C494.728 139.16 493.865 139.305 493.122 139.721C492.38 140.136 491.806 140.797 491.497 141.589C491.125 142.54 490.782 143.363 490.476 144.017C486.003 128.018 491.79 109.501 508.896 77.1811Z" fill="#2F2E41"/>
<path d="M304.955 219.276C304.087 219.316 303.227 219.088 302.492 218.623C301.758 218.158 301.184 217.478 300.849 216.676C300.513 215.874 300.433 214.988 300.618 214.139C300.802 213.289 301.244 212.517 301.882 211.927C301.989 211.502 302.066 211.197 302.173 210.772C302.135 210.68 302.096 210.587 302.057 210.495C298.154 201.187 284.925 201.251 281.055 210.573C277.62 218.846 273.246 227.134 272.169 235.881C271.695 239.748 271.895 243.667 272.761 247.466C264.693 229.866 260.503 210.738 260.476 191.377C260.474 186.519 260.744 181.664 261.285 176.836C261.731 172.878 262.351 168.948 263.143 165.046C267.467 143.876 276.752 124.033 290.234 107.148C296.759 103.587 302.036 98.112 305.354 91.4601C306.556 89.0689 307.406 86.5163 307.876 83.8818C307.14 83.9783 305.101 72.7677 305.656 72.0799C304.63 70.5233 302.794 69.7495 301.674 68.2305C296.102 60.6761 288.425 61.9952 284.418 72.261C275.856 76.5818 275.774 83.7476 281.027 90.6394C284.369 95.024 284.828 100.957 287.76 105.651C287.459 106.037 287.145 106.411 286.843 106.798C281.328 113.889 276.522 121.504 272.492 129.532C273.632 120.628 271.949 109.9 269.08 102.984C265.814 95.105 259.692 88.469 254.301 81.6573C247.825 73.4755 234.546 77.0462 233.405 87.418C233.394 87.5184 233.384 87.6188 233.373 87.7191C234.174 88.1709 234.958 88.6504 235.725 89.1576C236.688 89.8013 237.435 90.7211 237.867 91.7964C238.298 92.8716 238.395 94.0523 238.145 95.1836C237.894 96.3149 237.307 97.3441 236.462 98.1363C235.616 98.9286 234.551 99.447 233.406 99.6235L233.289 99.6416C233.574 102.528 234.078 105.388 234.797 108.197C227.881 134.944 242.812 144.686 264.133 145.123C264.603 145.365 265.062 145.606 265.532 145.835C261.484 157.308 258.945 169.258 257.978 181.385C257.431 188.54 257.463 195.728 258.075 202.877L258.039 202.624C256.494 194.673 252.253 187.5 246.032 182.315C236.792 174.724 223.737 171.929 213.769 165.828C208.97 162.891 202.822 166.686 203.659 172.25C203.672 172.338 203.686 172.427 203.7 172.516C205.186 173.121 206.633 173.818 208.032 174.603C208.833 175.055 209.616 175.535 210.383 176.042C211.347 176.686 212.093 177.605 212.525 178.681C212.957 179.756 213.054 180.937 212.803 182.068C212.553 183.199 211.966 184.228 211.121 185.021C210.275 185.813 209.21 186.331 208.065 186.508L207.947 186.526C207.863 186.538 207.79 186.55 207.706 186.562C210.245 192.625 213.809 198.205 218.241 203.058C222.565 226.407 241.139 228.622 261.007 221.823H261.019C263.199 231.296 266.358 240.516 270.444 249.336H304.111C304.232 248.962 304.341 248.576 304.449 248.202C301.333 248.398 298.204 248.211 295.133 247.647C297.631 244.582 300.129 241.492 302.627 238.427C302.683 238.37 302.735 238.31 302.784 238.246C304.051 236.678 305.33 235.121 306.597 233.552L306.598 233.55C306.665 228.742 306.114 223.944 304.956 219.277L304.955 219.276Z" fill="white"/>
<path d="M147.86 49.96C147.095 51.7407 123.534 51.5499 122.455 53.1355C114.135 65.3772 144.127 117.463 135.807 129.72L134.648 131.102C137.362 129.851 139.97 128.38 142.444 126.704C142.666 121.686 142.889 116.653 143.127 111.636C145.619 114.824 147.63 118.36 149.097 122.131C151.034 120.765 152.623 118.234 160.926 113.255C164.287 109.563 168.162 106.373 172.431 103.784L147.86 49.96Z" fill="#2F2E41"/>
<path d="M164.968 150.288C162.368 148.594 159.402 147.545 156.315 147.227C153.229 146.909 150.111 147.332 147.22 148.461C144.329 149.59 141.75 151.391 139.695 153.716C137.64 156.042 136.169 158.823 135.405 161.831L99.6005 255.122L38.0568 220.182C37.7866 216.166 36.2514 212.339 33.6715 209.249C31.0915 206.159 27.5994 203.966 23.6959 202.984C19.7924 202.002 15.6781 202.281 11.943 203.781C8.20801 205.282 5.04416 207.927 2.90524 211.337C0.766329 214.747 -0.237753 218.746 0.0370086 222.762C0.31177 226.778 1.85126 230.604 4.43468 233.69C7.01809 236.777 10.5127 238.966 14.4173 239.944C18.3219 240.922 22.4359 240.638 26.1692 239.134C39.1298 252.966 95.3186 309.68 118.58 287.521C138.133 268.895 166.35 196.706 173.142 171.778C174.23 167.792 174.025 163.564 172.556 159.702C171.087 155.84 168.43 152.543 164.968 150.288Z" fill="#FFB6B6"/>
<path d="M97.7374 291.43L109.036 342.499L191.657 349.972L199.25 305.505L97.7374 291.43Z" fill="#FFB6B6"/>
<path d="M223.942 422.39C223.904 423.122 223.859 423.847 223.806 424.579C223.013 435.16 222.108 447.364 221.127 460.738C219.579 481.962 217.851 506.129 216.107 531.413H42.8104L76.4196 430.393C76.4196 430.393 89.9902 422.922 83.0812 410.37C76.1723 397.819 89.7666 407.821 89.8931 389.896C90.0195 371.971 102.201 352.9 102.201 352.9L104.201 325.76L105.341 325.782L195.526 327.284L197.171 327.315L199.941 350.614C216.759 370.627 225.339 396.286 223.942 422.39Z" fill="#2F2E41"/>
<path d="M149.304 125.538L190.428 123.42L209.529 153.602C209.529 153.602 245.468 159.611 242.977 201.96C240.486 244.31 199.25 281.473 199.25 281.473L201.012 275.429L197.951 284.177L198.344 289.088L202.52 294.29L202.95 299.67L199.25 308.181C199.731 308.952 199.986 309.843 199.987 310.752C199.987 311.661 199.733 312.552 199.253 313.324C198.773 314.096 198.086 314.718 197.27 315.119C196.455 315.52 195.543 315.685 194.638 315.594L135.217 309.639C133.864 305.918 132.779 301.465 127.356 308.878L121.758 308.335L98.4892 306.081L97.1196 301.092C96.3414 298.257 96.2201 295.282 96.765 292.393C97.3099 289.504 98.5066 286.778 100.264 284.421C98.2428 278.092 98.7722 271.224 101.739 265.279L101.851 265.056L104.322 262.997C104.322 262.997 77.2875 222.381 108.322 191.79L120.778 170.615L134.715 153.612L149.304 125.538Z" fill="#00B4A6"/>
<path d="M159.539 107.722C181.076 107.722 198.536 90.2621 198.536 68.7246C198.536 47.1871 181.076 29.7275 159.539 29.7275C138.001 29.7275 120.542 47.1871 120.542 68.7246C120.542 90.2621 138.001 107.722 159.539 107.722Z" fill="#FFB6B6"/>
<path d="M189.157 124.903C185.982 122.249 183.771 118.621 182.87 114.582C182.149 119.486 182.337 124.481 183.426 129.317C181.314 130.905 179.266 132.413 177.328 133.779C175.862 130.007 173.85 126.471 171.358 123.283C171.12 128.301 170.898 133.334 170.676 138.351C168.201 140.028 165.594 141.499 162.88 142.749L164.039 141.368C172.359 129.111 150.829 106.548 159.148 94.3066C161.483 90.877 150.94 63.7738 142.906 62.5512C135.761 61.4715 136.062 63.5356 129.14 65.044C128.421 62.0458 127.305 59.157 125.821 56.4541C126.216 59.4659 126.125 62.5215 125.551 65.5044C123.09 65.5997 121.154 64.0315 118.533 63.6309C101.814 61.0746 103.513 42.9899 108.165 37.258C112.833 31.5421 128.33 29.8273 135.475 27.9695C136.126 27.3345 137.602 27.7314 138.254 27.128C151.946 14.5965 170.26 12.5212 186.74 18.0754C204.315 23.9986 215.273 35.4626 220.897 53.1357L222.51 67.2787C223.957 71.8262 222.137 92.985 220.897 97.5933C216.078 115.507 205.815 106.564 189.157 124.903Z" fill="#2F2E41"/>
<path d="M246.018 309.661L244.483 190.091C244.403 185.025 242.335 180.194 238.724 176.64C235.114 173.086 230.251 171.094 225.184 171.094H225.184C222.563 171.094 219.97 171.628 217.562 172.663C215.154 173.698 212.982 175.213 211.179 177.114C209.375 179.016 207.978 181.265 207.072 183.724C206.167 186.184 205.771 188.802 205.91 191.419L211.312 315.575L211.415 391.154C208.231 392.505 205.54 394.802 203.707 397.735C201.874 400.669 200.989 404.095 201.171 407.549C201.353 411.002 202.595 414.316 204.726 417.04C206.857 419.764 209.775 421.766 213.084 422.773C216.392 423.781 219.931 423.746 223.219 422.672C226.506 421.599 229.384 419.539 231.461 416.773C233.537 414.007 234.712 410.669 234.825 407.213C234.938 403.756 233.985 400.348 232.094 397.452L246.018 309.661Z" fill="#FFB6B6"/>
<path d="M447.286 464.357C447.286 464.357 444.913 507.061 443.821 531.416H362.077C360.395 509.252 359.828 492.968 359.828 492.968L355.355 531.416H272.728L267.605 460.209L292.36 398.846C292.36 398.846 426.513 389.542 438.957 401.345C451.393 413.139 447.286 464.357 447.286 464.357Z" fill="#2F2E41"/>
<path d="M375.001 105.121C399.661 105.121 419.652 85.1301 419.652 60.47C419.652 35.8098 399.661 15.8188 375.001 15.8188C350.341 15.8188 330.35 35.8098 330.35 60.47C330.35 85.1301 350.341 105.121 375.001 105.121Z" fill="#FFB6B6"/>
<path d="M427.046 45.9615C422.46 48.0528 419.489 63.1987 415.884 59.6776C412.279 56.1565 412.52 51.5743 407.66 50.2748C403.735 49.221 399.511 50.4254 395.932 52.325C395.292 52.6601 394.673 53.0246 394.069 53.387C393.67 53.1206 393.273 52.87 392.847 52.6387C389.645 50.9251 385.908 50.5048 382.405 51.4642C385.173 52.3913 387.579 54.1649 389.284 56.5344C388.086 57.3373 386.872 58.1423 385.631 58.8556C375.261 64.84 360.504 51.8271 349.589 46.9384C356.426 59.769 353.059 65.0827 347.123 78.3522L346.918 79.1078C347.255 75.7821 336.964 73.3036 337.561 77.9852C337.984 81.3092 340.861 88.6975 342.472 91.6322C330.996 78.3621 323.153 62.1232 324.808 45.3713C325.168 41.8523 325.059 38.1393 326.874 35.085C328.691 32.0464 332.48 29.9141 335.831 31.0728C335.547 25.7305 336.716 20.411 339.214 15.68C341.711 10.949 345.445 6.98324 350.016 4.20438C354.588 1.42552 359.827 -0.0625897 365.177 -0.101746C370.526 -0.140902 375.787 1.27037 380.398 3.98201C384.684 6.49653 388.261 10.0529 392.189 13.1205C396.116 16.1881 400.644 18.862 405.624 19.1152C408.784 19.2676 412.222 18.4963 414.936 20.1326C418.081 22.0314 418.619 26.0068 419.091 29.8321C416.286 30.1086 413.628 31.2149 411.455 33.0098C414.357 32.7138 417.278 33.3403 419.803 34.8003C419.851 34.822 419.897 34.848 419.94 34.878C421.602 41.2 421.432 42.6015 427.046 45.9615Z" fill="#2F2E41"/>
<path d="M272.926 420.448C310.95 375.94 298.107 319.33 283.015 262.184L285.887 177.763C286.028 173.622 287.163 169.576 289.197 165.965C291.231 162.355 294.103 159.288 297.572 157.021L336.39 131.662L351.499 109.817L393.145 113.982L416.24 138.405L441.803 157.921C448.222 162.821 453.105 169.454 455.879 177.038C458.652 184.622 459.199 192.841 457.456 200.726L432.993 311.357C432.993 311.357 443.224 368.709 436.981 375.043C430.738 381.377 414.651 375.046 427.408 382.156C442.717 390.689 456.637 389.115 448.89 396.862C441.143 404.609 450.948 415.38 450.948 415.38L272.926 420.448Z" fill="#00B4A6"/>
<path d="M289.184 485.134L295.523 439.971L270.229 432.75L265.225 480.737C263.132 482.657 261.616 485.122 260.847 487.856C260.078 490.59 260.087 493.484 260.872 496.213C261.658 498.943 263.189 501.398 265.294 503.305C267.399 505.212 269.994 506.493 272.788 507.006C275.581 507.518 278.462 507.242 281.107 506.207C283.752 505.172 286.055 503.419 287.759 501.147C289.462 498.874 290.498 496.172 290.75 493.343C291.001 490.514 290.459 487.671 289.184 485.134Z" fill="#FFB6B6"/>
<path d="M337.339 139.803C337.339 139.803 265.341 163.236 263.625 180.382C261.908 197.527 262.477 208.023 254.878 276.632L255.279 461.447C255.279 461.447 303.549 471.781 298.598 460.732C293.648 449.682 295.375 444.483 295.375 444.483C295.375 444.483 305.725 440.399 303.134 427.425C300.543 414.451 313.535 350.156 313.535 350.156L321.735 234.845L337.339 139.803Z" fill="#00B4A6"/>
<path d="M426.113 482.742L422.74 437.262L448.452 431.71L450.308 479.921C452.271 481.973 453.623 484.532 454.212 487.311C454.8 490.089 454.602 492.977 453.64 495.649C452.678 498.321 450.989 500.671 448.764 502.436C446.539 504.201 443.866 505.31 441.045 505.639C438.224 505.968 435.367 505.504 432.796 504.298C430.224 503.092 428.04 501.193 426.489 498.814C424.937 496.435 424.08 493.671 424.014 490.831C423.948 487.992 424.675 485.191 426.113 482.742H426.113Z" fill="#FFB6B6"/>
<path d="M400.634 135.002C400.634 135.002 470.946 163.091 471.538 180.312C472.13 197.533 470.876 207.969 473.974 276.928L461.494 461.322C461.494 461.322 412.652 468.479 418.314 457.776C423.976 447.074 422.592 441.773 422.592 441.773C422.592 441.773 412.532 437.022 415.965 424.245C419.398 411.468 410.637 346.46 410.637 346.46L409.992 230.86L400.634 135.002Z" fill="#00B4A6"/>
</g>
<defs>
<clipPath id="clip0_1190_9443">
<rect width="698" height="531.416" fill="white"/>
</clipPath>
</defs>
</svg>
