<svg width="40" height="40" viewBox="0 0 40 40" fill="none" xmlns="http://www.w3.org/2000/svg">
<path d="M37.5312 8.82355C36.2001 9.4134 34.7701 9.81196 33.2667 9.9921C34.8179 9.06394 35.9784 7.60313 36.5317 5.88224C35.0743 6.74788 33.4793 7.35719 31.816 7.68369C30.6975 6.48942 29.216 5.69783 27.6015 5.43184C25.987 5.16584 24.3298 5.44031 22.8873 6.21264C21.4447 6.98497 20.2975 8.21195 19.6238 9.70308C18.9501 11.1942 18.7874 12.8661 19.1612 14.4591C16.2083 14.3108 13.3195 13.5433 10.6823 12.2063C8.0452 10.8693 5.71865 8.99279 3.85369 6.69847C3.21601 7.79848 2.84934 9.07384 2.84934 10.4321C2.84863 11.6548 3.14974 12.8589 3.72596 13.9373C4.30218 15.0158 5.13569 15.9354 6.15253 16.6144C4.97326 16.5769 3.82001 16.2583 2.78876 15.685V15.7807C2.78864 17.4956 3.38186 19.1578 4.46775 20.4852C5.55364 21.8125 7.06533 22.7233 8.7463 23.063C7.65233 23.3591 6.50539 23.4027 5.3921 23.1905C5.86637 24.6661 6.7902 25.9565 8.03428 26.881C9.27835 27.8055 10.7804 28.3178 12.3301 28.3462C9.69937 30.4113 6.45047 31.5315 3.10601 31.5266C2.51357 31.5268 1.92163 31.4922 1.33325 31.423C4.72807 33.6057 8.67989 34.7642 12.7159 34.7597C26.3782 34.7597 33.847 23.444 33.847 13.6301C33.847 13.3112 33.8391 12.9892 33.8247 12.6704C35.2775 11.6197 36.5315 10.3187 37.5281 8.82833L37.5312 8.82355Z" fill="#1A1A1A"/>
</svg>
