<svg width="80" height="80" viewBox="0 0 80 80" fill="none" xmlns="http://www.w3.org/2000/svg">
<g clip-path="url(#clip0_1354_27359)">
<rect y="12" width="40" height="14" rx="4" fill="#00B4A6"/>
<rect y="30" width="40" height="14" rx="4" fill="#00B4A6"/>
<rect y="48" width="40" height="14" rx="4" fill="#00B4A6"/>
<path d="M78.3811 42.393L78.3811 42.393C77.9163 41.1171 77.3564 39.8834 76.7223 38.7136L76.2223 37.8388C76.2217 37.8378 76.2211 37.8367 76.2205 37.8357C75.5233 36.6567 74.7413 35.5409 73.8845 34.4832C73.3756 33.8691 72.549 33.6489 71.7861 33.897L71.7854 33.8973L65.7835 35.8398L65.5305 35.9216L65.3212 35.7577C63.9177 34.6584 62.2639 33.7375 60.6851 33.0351L60.4531 32.9319L60.3996 32.6837L59.0528 26.439C58.8759 25.6237 58.2657 25.0067 57.4971 24.8769L57.4966 24.8768C56.0372 24.629 54.5351 24.5 53.0008 24.5C51.4664 24.5 49.9643 24.629 48.505 24.8768L48.5045 24.8769C47.7359 25.0067 47.1257 25.6237 46.9487 26.439L45.602 32.6837L45.547 32.9385L45.3066 33.0394C43.6458 33.7361 42.0896 34.6539 40.6803 35.7577L40.471 35.9217L40.218 35.8397L34.2204 33.8972C34.2204 33.8972 34.2204 33.8972 34.2204 33.8972C33.4501 33.6478 32.6198 33.8712 32.1213 34.4819C31.2633 35.5397 30.481 36.6557 29.7824 37.8352L29.2834 38.7139C28.6434 39.8827 28.0843 41.1166 27.6158 42.394L27.6157 42.3941C27.3418 43.1408 27.5666 43.9824 28.1709 44.5462C28.1711 44.5464 28.1713 44.5466 28.1715 44.5468L32.8314 48.8547L33.0213 49.0302L32.9878 49.2866C32.8721 50.173 32.8121 51.0811 32.8121 52C32.8121 52.9189 32.8721 53.827 32.9878 54.7134L33.0213 54.9698L32.8314 55.1453L28.1715 59.4532C28.1713 59.4534 28.1711 59.4536 28.1709 59.4538C27.5664 60.0178 27.3425 60.8696 27.6151 61.6041L27.6158 61.606C28.0843 62.8836 28.6424 64.1173 29.2832 65.2858L29.7835 66.1647C30.4807 67.3437 31.2629 68.4597 32.1212 69.5234C32.6202 70.1294 33.451 70.3542 34.2206 70.1071C34.2209 70.107 34.2211 70.1069 34.2214 70.1068L40.2177 68.1604L40.4702 68.0784L40.6796 68.2417C42.0892 69.3415 43.6462 70.2599 45.3084 70.9647L45.5473 71.066L45.602 71.3196L46.9486 77.5634C46.9486 77.5636 46.9487 77.5639 46.9487 77.5641C47.1173 78.3329 47.7026 78.9026 48.528 79.1281C49.9811 79.3726 51.4749 79.5 52.9038 79.5C54.5273 79.5 56.0222 79.3723 57.4736 79.1281C58.2988 78.9026 58.884 78.3331 59.0527 77.5646C59.0528 77.5642 59.0529 77.5638 59.053 77.5634L60.3996 71.3196L60.4529 71.0726L60.6833 70.969C62.2635 70.2585 63.918 69.3371 65.3219 68.2417L65.5313 68.0784L65.7838 68.1603L71.7851 70.107L78.3811 42.393ZM78.3811 42.393L78.3832 42.3987M78.3811 42.393L78.3832 42.3987M78.3832 42.3987C78.6592 43.1288 78.4323 43.9802 77.8312 44.5467C77.8306 44.5472 77.8301 44.5477 77.8295 44.5483L73.1671 48.8546L72.977 49.0301M78.3832 42.3987L72.977 49.0301M72.977 49.0301L73.0105 49.2866M72.977 49.0301L73.0105 49.2866M73.0105 49.2866C73.1264 50.1742 73.1895 51.0822 73.1895 52C73.1895 52.9178 73.1264 53.8258 73.0105 54.7134L72.977 54.9699M73.0105 49.2866L72.977 54.9699M72.977 54.9699L73.1671 55.1454M72.977 54.9699L73.1671 55.1454M73.1671 55.1454L77.8295 59.4517C77.8301 59.4523 77.8306 59.4528 77.8312 59.4533C78.4323 60.0198 78.6592 60.8712 78.3832 61.6013L78.3832 61.6013M73.1671 55.1454L78.3832 61.6013M78.3832 61.6013L78.3811 61.607M78.3832 61.6013L78.3811 61.607M78.3811 61.607C77.9163 62.8829 77.3564 64.1166 76.7223 65.2864M78.3811 61.607L76.7223 65.2864M76.7223 65.2864L76.2223 66.1612C76.2217 66.1622 76.2211 66.1633 76.2205 66.1643C75.5236 67.3429 74.7416 68.4586 73.8846 69.5221C73.3752 70.1315 72.548 70.3532 71.7857 70.1072L76.7223 65.2864ZM53.0008 61.25C58.0503 61.25 62.1211 57.0998 62.1211 51.9016C62.1211 46.9002 58.0503 42.6516 53.0008 42.6516C47.9513 42.6516 43.8805 46.9002 43.8805 51.9016C43.8805 57.0998 47.9513 61.25 53.0008 61.25Z" stroke="black"/>
</g>
<defs>
<clipPath id="clip0_1354_27359">
<rect width="80" height="80" fill="white"/>
</clipPath>
</defs>
</svg>
