<svg width="342" height="177" viewBox="0 0 342 177" fill="none" xmlns="http://www.w3.org/2000/svg">
<path d="M101.96 23.5368C93.2651 23.6063 85.6794 29.9942 84.0949 38.5439C83.1864 43.4455 84.2871 48.1697 86.7626 51.9606C89.0634 55.4841 90.4004 59.5306 90.4202 63.6902L46.6896 59.2027L42.207 102.884C38.2224 102.007 34.5115 100.093 31.6469 97.1586C28.7508 94.1926 24.8442 92.1837 20.3962 91.7271C9.59771 90.6191 0.0235733 99.085 0.112987 110.256C0.182503 118.951 6.57045 126.537 15.1201 128.121C20.0217 129.03 24.746 127.929 28.5368 125.453C32.0604 123.153 36.1068 121.816 40.2664 121.796L35.7789 165.527L79.5094 170.014C79.4897 165.855 78.1527 161.808 75.8519 158.285C73.3764 154.494 72.2757 149.77 73.1842 144.868C74.7687 136.318 82.3544 129.93 91.0494 129.861C102.22 129.771 110.686 139.346 109.578 150.144C109.122 154.592 107.113 158.499 104.147 161.395C101.213 164.259 99.2989 167.97 98.4209 171.955L142.103 176.437L153.013 70.1132L109.332 65.6308C110.21 61.6462 112.123 57.9353 115.057 55.0707C118.023 52.1747 120.032 48.268 120.489 43.82C121.597 33.0215 113.131 23.4473 101.96 23.5368Z" fill="#1A1A1A"/>
<path d="M144.824 149.923C144.824 149.923 193.47 182.281 267.821 158.319C336.126 136.306 393.436 64.0298 393.436 64.0298L340.025 0.243164C340.025 0.243164 279.977 115.912 168.869 114.593C160.647 114.496 142.252 104.018 140.362 106.194C138.371 108.486 148.273 116.309 148.273 116.309L144.824 149.923Z" fill="#5E1618"/>
</svg>
