<svg width="60" height="60" viewBox="0 0 60 60" fill="none" xmlns="http://www.w3.org/2000/svg">
<path d="M16.5225 5.002C20.2706 1.78959 25.0509 0.0154254 30 0C40.0875 0 48.4613 7.45455 49.3725 17.0672C55.3425 17.9058 60 22.8743 60 28.9721C60 35.6663 54.3825 41 47.5763 41H14.1788C6.405 41 0 34.9096 0 27.2762C0 20.705 4.7475 15.2632 11.0325 13.8841C11.5687 10.6675 13.65 7.462 16.5225 5.002Z" fill="#00B4A6"/>
<path d="M20.5 30C20.5 29.1716 21.1716 28.5 22 28.5H35.8721C36.3344 28.5 36.7708 28.7131 37.0551 29.0777L40.1829 33.0893C40.3884 33.3528 40.5 33.6774 40.5 34.0116V51C40.5 51.8284 39.8284 52.5 39 52.5H22C21.1716 52.5 20.5 51.8284 20.5 51V30Z" stroke="#1A1A1A"/>
<path d="M30.5 47V34M30.5 34L26 38.3333M30.5 34L35 38.3333" stroke="black"/>
</svg>
