<svg width="80" height="80" viewBox="0 0 80 80" fill="none" xmlns="http://www.w3.org/2000/svg">
<g clip-path="url(#clip0_1354_27309)">
<path d="M70 79.5H10C8.067 79.5 6.5 77.933 6.5 76V31C6.5 29.067 8.067 27.5 10 27.5H70C71.933 27.5 73.5 29.067 73.5 31V76C73.5 77.933 71.933 79.5 70 79.5Z" stroke="#1A1A1A"/>
<path d="M30 15C30 12.7909 31.7909 11 34 11H70C72.2091 11 74 12.7909 74 15V76C74 78.2091 72.2091 80 70 80H34C31.7909 80 30 78.2091 30 76V15Z" fill="#00B4A6"/>
<path d="M46 43.5H40C39.1716 43.5 38.5 42.8284 38.5 42V37C38.5 36.1716 39.1716 35.5 40 35.5H46C46.8284 35.5 47.5 36.1716 47.5 37V42C47.5 42.8284 46.8284 43.5 46 43.5Z" stroke="#1A1A1A"/>
<path d="M22 60.5H16C15.1716 60.5 14.5 59.8284 14.5 59V54C14.5 53.1716 15.1716 52.5 16 52.5H22C22.8284 52.5 23.5 53.1716 23.5 54V59C23.5 59.8284 22.8284 60.5 22 60.5Z" stroke="#1A1A1A"/>
<path d="M46 26.5H40C39.1716 26.5 38.5 25.8284 38.5 25V20C38.5 19.1716 39.1716 18.5 40 18.5H46C46.8284 18.5 47.5 19.1716 47.5 20V25C47.5 25.8284 46.8284 26.5 46 26.5Z" stroke="#1A1A1A"/>
<path d="M22 43.5H16C15.1716 43.5 14.5 42.8284 14.5 42V37C14.5 36.1716 15.1716 35.5 16 35.5H22C22.8284 35.5 23.5 36.1716 23.5 37V42C23.5 42.8284 22.8284 43.5 22 43.5Z" stroke="#1A1A1A"/>
<path d="M46 60.5H40C39.1716 60.5 38.5 59.8284 38.5 59V54C38.5 53.1716 39.1716 52.5 40 52.5H46C46.8284 52.5 47.5 53.1716 47.5 54V59C47.5 59.8284 46.8284 60.5 46 60.5Z" stroke="#1A1A1A"/>
<path d="M64 43.5H58C57.1716 43.5 56.5 42.8284 56.5 42V37C56.5 36.1716 57.1716 35.5 58 35.5H64C64.8284 35.5 65.5 36.1716 65.5 37V42C65.5 42.8284 64.8284 43.5 64 43.5Z" stroke="#1A1A1A"/>
<path d="M64 26.5H58C57.1716 26.5 56.5 25.8284 56.5 25V20C56.5 19.1716 57.1716 18.5 58 18.5H64C64.8284 18.5 65.5 19.1716 65.5 20V25C65.5 25.8284 64.8284 26.5 64 26.5Z" stroke="#1A1A1A"/>
<path d="M64 60.5H58C57.1716 60.5 56.5 59.8284 56.5 59V54C56.5 53.1716 57.1716 52.5 58 52.5H64C64.8284 52.5 65.5 53.1716 65.5 54V59C65.5 59.8284 64.8284 60.5 64 60.5Z" stroke="#1A1A1A"/>
</g>
<defs>
<clipPath id="clip0_1354_27309">
<rect width="80" height="80" fill="white"/>
</clipPath>
</defs>
</svg>
