<svg width="19" height="22" viewBox="0 0 19 22" fill="none" xmlns="http://www.w3.org/2000/svg">
<path d="M1 15V7.5C1 6.672 1.641 6 2.48 6C3 6 4 6.3 4 7.5V4.5C4 3.672 4.641 3 5.48 3C5.987 3 7 3.3 7 4.5V2.5C7 1.672 7.641 1 8.48 1C9.32 1 10 1.672 10 2.5V4.5C10 3.3 10.993 3 11.5 3C12.34 3 13 3.691 13 4.52V13M10 4.5V10M7 4.5V10M4 4.5V10" stroke="#1A1A1A" stroke-linecap="round" stroke-linejoin="round"/>
<path d="M1.00003 14.9999C1.00003 18.9999 4.13403 20.9999 8.00003 20.9999C11.866 20.9999 13.196 19.9999 16.196 14.9999L17.767 12.3949C18.303 11.5269 17.874 10.4009 16.886 10.0809C16.563 9.9754 16.2153 9.97176 15.8901 10.0705C15.5648 10.1692 15.2779 10.3656 15.068 10.6329L13 13.0329" stroke="#1A1A1A" stroke-linecap="round" stroke-linejoin="round"/>
</svg>
