<svg width="40" height="40" viewBox="0 0 40 40" fill="none" xmlns="http://www.w3.org/2000/svg">
<path d="M39 0H1V40H39V0Z" fill="#007DC3"/>
<path d="M31.5177 30.1281V26.9247H30.8951V28.1687H30.0206V26.9247H29.412V30.1281H30.0206V28.699H30.8951V30.1281H31.5177ZM26.3969 29.8836L26.1168 29.4779C25.9377 29.6299 25.7754 29.6853 25.5957 29.6853C25.3335 29.6853 25.1321 29.5608 25.0094 29.3253C24.9171 29.1504 24.8824 28.9065 24.8824 28.4681C24.8824 28.0956 24.935 27.8282 25.0534 27.6436C25.1121 27.5575 25.1896 27.4875 25.2794 27.4394C25.3691 27.3912 25.4684 27.3664 25.5691 27.367C25.7407 27.367 25.9024 27.427 26.0555 27.547L26.3312 27.1093C26.1652 26.9573 25.8628 26.8556 25.5609 26.8556C25.0708 26.8556 24.6327 27.1322 24.3965 27.5979C24.2564 27.8744 24.1908 28.1921 24.1908 28.5933C24.1908 29.063 24.3135 29.4504 24.5589 29.7408C24.808 30.0402 25.1321 30.183 25.5523 30.183C25.8981 30.183 26.1565 30.0904 26.3969 29.8836ZM21.5286 26.9247H19.3365V27.459H20.0803V30.1281H20.7018V27.459H21.4282L21.5286 26.9247ZM15.9529 28.8327H15.3574C15.4231 28.6213 15.4627 28.4688 15.5192 28.2384C15.5762 27.9984 15.6636 27.6213 15.6636 27.6213C15.6636 27.6213 15.7558 28.0401 15.7862 28.1876C15.8519 28.4961 15.9529 28.8334 15.9529 28.8334V28.8327ZM16.9724 30.1281L16.0143 26.9162H15.3531L14.3553 30.1276H14.9942L15.2086 29.3676H16.1016L16.3161 30.1276H16.9729L16.9724 30.1281ZM11.8174 26.9247H11.1736L10.9238 28.1419C10.8587 28.4544 10.7664 29.1048 10.7577 29.2059C10.7577 29.2059 10.6834 28.6573 10.6264 28.3579L10.3462 26.9247H9.67693L9.40549 28.2196C9.33779 28.5577 9.28526 28.8991 9.24808 29.2424C9.24808 29.2424 9.20846 28.7864 9.08577 28.1876L8.82304 26.9247H8.17542L8.90229 30.155H9.59819L9.85176 28.8419C9.94398 28.3716 9.99613 27.9202 9.99613 27.9202C10.0054 28.0076 10.0531 28.4225 10.1405 28.851L10.4119 30.155H11.0818L11.8174 26.9247ZM31.78 20.679C31.78 20.2047 31.5085 19.8676 31.0091 19.7247L30.6421 19.619C30.388 19.5453 30.305 19.4625 30.305 19.2967C30.305 19.0796 30.4798 18.9281 30.7295 18.9281C30.9575 18.9281 31.1627 18.9968 31.4385 19.1722L31.7273 18.7116C31.4608 18.5087 31.084 18.3888 30.7121 18.3888C30.0683 18.3888 29.6221 18.7944 29.6221 19.3795C29.6221 19.559 29.6655 19.7253 29.7491 19.8681C29.8582 20.0613 30.0466 20.1858 30.3484 20.2739L30.6855 20.3704C30.957 20.4488 31.084 20.5779 31.084 20.7852C31.084 21.071 30.8999 21.223 30.5498 21.223C30.2437 21.223 29.9988 21.1213 29.7138 20.9647L29.4864 21.467C29.8035 21.6534 30.16 21.7531 30.5232 21.7573C31.281 21.7573 31.78 21.3287 31.78 20.679ZM27.538 18.4848H25.3449V19.0202H26.0886V21.6882H26.7102V19.0202H27.4371L27.538 18.4848ZM23.0475 21.6882V18.4848H22.4254V19.7288H21.5509V18.4848H20.9423V21.6882H21.5509V20.2591H22.4254V21.6882H23.0475ZM18.4256 21.439V19.9093H17.2487L17.3274 20.435H17.791V21.1625C17.6838 21.2185 17.5649 21.2453 17.4452 21.2407C17.2487 21.2407 17.0821 21.1767 16.968 21.0612C16.815 20.9002 16.7406 20.6052 16.7406 20.1487C16.7406 19.6693 16.7933 19.3242 16.999 19.1167C17.1038 19.0104 17.2568 18.955 17.4365 18.955C17.6683 18.955 17.8741 19.0338 18.0717 19.2041L18.3952 18.803C18.1282 18.559 17.7953 18.4344 17.4279 18.4344C17.1391 18.4344 16.9111 18.5036 16.688 18.6602C16.2634 18.9596 16.0534 19.439 16.0534 20.1161C16.0534 20.5962 16.1543 20.9367 16.3774 21.2361C16.6228 21.5676 16.9594 21.7247 17.4143 21.7247C17.7737 21.7247 18.1145 21.6327 18.4256 21.439ZM13.6246 21.6882V18.4848H12.9851V21.6882H13.6246ZM9.86421 19.439C9.86421 19.5727 9.82078 19.6876 9.74585 19.7612C9.6628 19.8396 9.54934 19.8676 9.28661 19.8676H9.08035V19.0012H9.29965C9.4484 19.0012 9.57541 19.0195 9.64544 19.047C9.78987 19.1024 9.86421 19.2413 9.86421 19.439ZM10.6872 21.6882C10.6872 21.6882 10.1313 20.6739 9.9565 20.4435C9.91688 20.3882 9.8908 20.3607 9.82949 20.3098C10.2057 20.3007 10.508 19.9042 10.508 19.4253C10.508 18.863 10.153 18.4853 9.61504 18.4853H8.481V21.6882H9.08087V20.351C9.11998 20.3561 9.14598 20.3653 9.17696 20.3796C9.28661 20.4298 9.37838 20.5864 9.68016 21.1625C9.79852 21.3881 9.84685 21.4756 9.96522 21.6882H10.6872ZM31.5177 13.2476V10.0458H30.9352L30.9483 11.3544C30.9526 11.5756 30.9749 11.9858 30.9966 12.2345C30.9358 12.0041 30.8175 11.6676 30.6638 11.3264L30.0819 10.0458H29.4033V13.2481H29.9945L29.9765 11.8796C29.9727 11.6121 29.9679 11.2344 29.9461 10.9722C30.0031 11.1698 30.1867 11.6219 30.3576 12.0224L30.8788 13.2481H31.5177V13.2476ZM25.7911 11.9527H25.1956C25.2613 11.7413 25.3009 11.5887 25.3574 11.3584C25.4144 11.1184 25.5023 10.7413 25.5023 10.7413C25.5023 10.7413 25.594 11.1601 25.6245 11.3076C25.6907 11.6161 25.7911 11.9533 25.7911 11.9533V11.9527ZM26.8106 13.2476L25.8524 10.0361H25.1913L24.1935 13.2476H24.8324L25.0469 12.4876H25.9399L26.1543 13.2476H26.8111H26.8106ZM21.6855 13.2476L21.414 10.0453H20.634L20.223 11.635C20.1784 11.8066 20.1418 11.9803 20.1134 12.1556C20.0873 11.9899 20.065 11.8789 20.008 11.6487L19.6101 10.0453H18.8263L18.5418 13.2476H19.1498L19.2557 11.5749C19.2687 11.3767 19.2774 11.1881 19.2774 10.999C19.3078 11.1836 19.3604 11.4093 19.3995 11.5659L19.8333 13.2476H20.3544L20.8353 11.4967C20.888 11.303 20.9141 11.1881 20.9494 11.0036C20.9494 11.1739 20.958 11.335 20.9711 11.5379L21.0851 13.2476H21.685H21.6855ZM15.7021 12.2019V10.0458H15.0805V12.0973C15.0805 12.2669 15.0805 12.3133 15.0718 12.383C15.0452 12.6173 14.8748 12.7555 14.6077 12.7555C14.4068 12.7555 14.2619 12.6773 14.1919 12.5344C14.1571 12.4658 14.1392 12.3504 14.1392 12.1516V10.0458H13.5133V12.2761C13.5133 12.5847 13.5442 12.7139 13.6447 12.8795C13.8157 13.1607 14.1571 13.3082 14.6207 13.3082C15.2776 13.3082 15.5751 12.9579 15.6538 12.7046C15.6972 12.5665 15.7021 12.5064 15.7021 12.2019ZM10.5862 13.2476V10.0458H9.96522V11.2899H9.08958V10.0458H8.481V13.2476H9.08958V11.8201H9.96522V13.2476H10.5862Z" fill="white"/>
</svg>
