<?xml version="1.0" encoding="UTF-8"?>
<svg xmlns="http://www.w3.org/2000/svg" xmlns:xlink="http://www.w3.org/1999/xlink" width="40px" height="63px" viewBox="0 0 40 63" version="1.1">
<g id="surface1">
<path style=" stroke:none;fill-rule:nonzero;fill:rgb(0%,0%,0%);fill-opacity:1;" d="M 15.84375 8.246094 C 8.730469 9.597656 4.414062 14.957031 2.675781 24.605469 C 2.113281 27.796875 2.089844 35.109375 2.675781 38.210938 C 3.804688 44.429688 6.457031 49.601562 9.71875 51.910156 C 12.605469 53.960938 16.832031 55.125 20.65625 54.890625 C 28.238281 54.449219 32.816406 50.882812 35.5625 43.335938 C 37.019531 39.28125 37.769531 33.015625 37.324219 28.496094 C 36.503906 19.96875 34.132812 14.257812 30.09375 11.136719 C 28.449219 9.855469 27.371094 9.296875 25.234375 8.621094 C 23.121094 7.96875 18.285156 7.78125 15.84375 8.246094 Z M 24.671875 9.273438 C 28.191406 10.296875 30.539062 12 32.417969 14.839844 C 36.597656 21.203125 37.816406 31.734375 35.445312 40.9375 C 33.519531 48.320312 29.460938 52.703125 23.449219 53.820312 C 21.667969 54.167969 17.488281 54.101562 15.632812 53.703125 C 10.328125 52.585938 6.550781 48.789062 4.484375 42.449219 C 2.863281 37.511719 2.441406 29.777344 3.496094 24.464844 C 4.625 18.777344 6.316406 15.191406 9.109375 12.488281 C 11.03125 10.648438 13.589844 9.390625 16.621094 8.855469 C 18.378906 8.527344 22.910156 8.761719 24.671875 9.273438 Z M 24.671875 9.273438 "/>
<path style=" stroke:none;fill-rule:nonzero;fill:rgb(0%,0%,0%);fill-opacity:1;" d="M 15.867188 11.859375 C 15.796875 11.976562 16.101562 12.140625 16.550781 12.207031 C 17.417969 12.371094 18.308594 13.28125 18.308594 14.003906 C 18.308594 14.398438 18.121094 14.445312 16.714844 14.445312 C 15.28125 14.445312 15.046875 14.375 14.53125 13.839844 C 13.730469 12.976562 12.066406 12.070312 11.480469 12.160156 C 11.007812 12.230469 11.007812 12.253906 11.714844 13.140625 C 12.113281 13.628906 12.441406 14.140625 12.441406 14.234375 C 12.441406 14.351562 11.855469 14.445312 11.148438 14.445312 C 9.976562 14.445312 9.835938 14.492188 9.507812 15.144531 C 9.015625 16.097656 9.0625 16.308594 9.859375 16.308594 C 10.445312 16.308594 10.5625 16.402344 10.5625 16.867188 C 10.5625 17.171875 10.445312 17.472656 10.304688 17.519531 C 10.140625 17.566406 10.140625 17.800781 10.304688 18.21875 C 10.515625 18.753906 10.46875 18.871094 10.070312 18.988281 C 9.296875 19.246094 8.96875 20.058594 8.804688 22.25 C 8.566406 25.277344 8.285156 26.164062 6.996094 27.910156 C 5.375 30.125 5.46875 30.359375 8.097656 30.613281 C 9.765625 30.800781 10.28125 30.941406 10.585938 31.3125 L 10.960938 31.78125 L 11.292969 31.265625 C 11.574219 30.847656 11.832031 30.753906 12.910156 30.753906 C 13.613281 30.753906 14.601562 30.683594 15.09375 30.613281 C 16.242188 30.40625 16.242188 29.824219 15.046875 28.167969 C 13.730469 26.351562 13.402344 25.394531 13.121094 22.738281 C 12.816406 19.546875 12.746094 19.359375 12.066406 19.058594 C 11.574219 18.824219 11.480469 18.664062 11.597656 18.125 C 11.667969 17.777344 11.621094 17.472656 11.503906 17.472656 C 11.363281 17.472656 11.269531 17.21875 11.269531 16.890625 C 11.269531 16.378906 11.363281 16.308594 12.183594 16.308594 C 13.121094 16.308594 13.121094 16.308594 13.285156 17.402344 C 13.519531 19.128906 14.273438 20.851562 15.09375 21.667969 C 15.914062 22.484375 17.371094 23.296875 17.957031 23.296875 C 18.285156 23.296875 18.332031 23.835938 18.261719 28.097656 C 18.191406 32.804688 18.191406 32.898438 17.628906 33.339844 C 17.324219 33.574219 16.785156 33.785156 16.410156 33.785156 C 16.03125 33.785156 15.726562 33.875 15.726562 34.015625 C 15.726562 34.15625 17.207031 34.25 19.71875 34.25 C 22.230469 34.25 23.707031 34.15625 23.707031 34.015625 C 23.707031 33.875 23.402344 33.785156 23.027344 33.785156 C 22.652344 33.785156 22.113281 33.574219 21.808594 33.339844 C 21.242188 32.898438 21.242188 32.851562 21.242188 28.167969 L 21.242188 23.460938 L 22.183594 23.136719 C 24.296875 22.4375 25.65625 20.621094 26.148438 17.847656 L 26.410156 16.425781 L 27.417969 16.355469 C 28.332031 16.285156 28.402344 16.332031 28.402344 16.867188 C 28.402344 17.242188 28.261719 17.472656 28.050781 17.472656 C 27.628906 17.472656 27.628906 17.496094 27.933594 18.289062 C 28.121094 18.800781 28.097656 18.917969 27.605469 19.152344 C 26.855469 19.476562 26.597656 20.222656 26.410156 22.601562 C 26.195312 25.371094 25.984375 26.046875 24.625 28.050781 C 22.980469 30.453125 23.050781 30.613281 25.75 30.707031 C 27.652344 30.753906 27.886719 30.824219 28.003906 31.21875 C 28.167969 31.828125 28.78125 31.828125 29.109375 31.21875 C 29.320312 30.847656 29.648438 30.753906 31.410156 30.707031 C 33.402344 30.636719 33.449219 30.636719 33.519531 30.03125 C 33.566406 29.613281 33.332031 29.078125 32.769531 28.355469 C 31.292969 26.421875 30.890625 25.210938 30.609375 21.597656 C 30.492188 19.945312 30.421875 19.734375 29.789062 19.292969 C 29.226562 18.871094 29.109375 18.664062 29.226562 18.125 C 29.320312 17.730469 29.273438 17.472656 29.132812 17.472656 C 28.992188 17.472656 28.875 17.21875 28.875 16.890625 C 28.875 16.378906 28.96875 16.308594 29.695312 16.308594 C 30.140625 16.308594 30.515625 16.261719 30.515625 16.191406 C 30.515625 16.144531 30.328125 15.726562 30.117188 15.261719 C 29.742188 14.46875 29.695312 14.445312 28.355469 14.445312 C 26.996094 14.445312 26.996094 14.445312 27.253906 13.910156 C 27.394531 13.628906 27.746094 13.164062 28.003906 12.882812 C 29.203125 11.554688 26.761719 12.140625 25.304688 13.511719 C 24.367188 14.421875 24.273438 14.445312 22.722656 14.445312 C 20.984375 14.445312 20.867188 14.328125 21.410156 13.164062 C 21.597656 12.746094 21.996094 12.488281 22.746094 12.253906 L 23.804688 11.953125 L 21.242188 11.8125 C 17.769531 11.601562 16.007812 11.601562 15.867188 11.859375 Z M 18.308594 19.359375 C 18.308594 22.085938 18.261719 22.390625 17.910156 22.320312 C 17.371094 22.226562 16.433594 20.363281 16.054688 18.59375 C 15.5625 16.261719 15.539062 16.308594 17.019531 16.308594 L 18.308594 16.308594 Z M 23.636719 17.289062 C 23.214844 20.269531 22.441406 22.15625 21.527344 22.320312 C 21.171875 22.390625 21.125 22.109375 21.125 19.359375 L 21.125 16.308594 L 23.78125 16.308594 Z M 23.636719 17.289062 "/>
<path style=" stroke:none;fill-rule:nonzero;fill:rgb(0%,0%,0%);fill-opacity:1;" d="M 9.039062 37.023438 C 6.972656 37.371094 6.433594 38.328125 6.644531 41.097656 C 7.136719 47.484375 14.71875 53.308594 21.363281 52.421875 C 22.207031 52.328125 23.308594 52.050781 23.828125 51.839844 C 26.433594 50.746094 29.71875 47.902344 30.796875 45.804688 C 31.386719 44.664062 31.480469 42.894531 30.984375 42.289062 C 29.90625 40.984375 25.140625 40.191406 18.308594 40.214844 C 12.980469 40.214844 12.207031 40.421875 11.574219 41.867188 C 10.117188 45.339844 14.90625 49.417969 20.46875 49.417969 C 22.863281 49.417969 23.851562 49.019531 25.210938 47.53125 C 25.9375 46.738281 26.078125 46.433594 26.007812 45.710938 C 25.890625 44.335938 24.953125 43.964844 21.386719 43.847656 C 18.542969 43.753906 18.472656 43.753906 18.050781 44.292969 C 17.207031 45.386719 17.394531 45.480469 20.023438 45.316406 C 22.816406 45.128906 23.707031 45.339844 23.707031 46.226562 C 23.707031 46.597656 23.449219 46.96875 22.957031 47.34375 C 22.277344 47.808594 21.925781 47.878906 19.8125 47.878906 C 17.652344 47.878906 17.347656 47.808594 16.078125 47.179688 C 14.414062 46.316406 13.730469 45.503906 13.730469 44.269531 C 13.730469 43.21875 14.273438 42.542969 15.492188 41.984375 C 16.691406 41.449219 22.652344 41.472656 25.304688 42.054688 C 27.488281 42.519531 29.015625 43.429688 29.25 44.382812 C 29.625 45.921875 27.230469 48.625 24.179688 50.070312 C 22.511719 50.859375 22.300781 50.90625 19.953125 50.90625 C 17.535156 50.90625 17.441406 50.882812 15.421875 49.929688 C 11.457031 48.019531 8.921875 44.851562 8.921875 41.75 C 8.921875 40.027344 9.367188 39.070312 10.375 38.652344 C 10.867188 38.441406 13.589844 38.441406 21.667969 38.652344 C 28.96875 38.839844 32.511719 38.863281 32.957031 38.699219 C 33.519531 38.464844 33.992188 37.859375 33.78125 37.628906 C 33.683594 37.558594 24.085938 37.253906 13.378906 36.953125 C 11.503906 36.90625 9.554688 36.929688 9.039062 37.023438 Z M 9.039062 37.023438 "/>
</g>
</svg>
