<svg width="23" height="18" viewBox="0 0 23 18" fill="none" xmlns="http://www.w3.org/2000/svg">
<path d="M9.9 0.899998L6.6 12.9L5.5 8.4C6.93333 8.4 8.1 8.81667 9 9.65C9.9 10.4833 10.35 11.6333 10.35 13.1C10.35 14.5333 9.88333 15.7 8.95 16.6C8.05 17.4667 6.91667 17.9 5.55 17.9C4.15 17.9 2.98333 17.4667 2.05 16.6C1.15 15.7 0.7 14.5333 0.7 13.1C0.7 12.6667 0.733333 12.25 0.8 11.85C0.866667 11.4167 1 10.9167 1.2 10.35C1.4 9.78333 1.68333 9.03333 2.05 8.1L4.95 0.899998H9.9ZM21.7 0.899998L18.4 12.9L17.3 8.4C18.7333 8.4 19.9 8.81667 20.8 9.65C21.7 10.4833 22.15 11.6333 22.15 13.1C22.15 14.5333 21.6833 15.7 20.75 16.6C19.85 17.4667 18.7167 17.9 17.35 17.9C15.95 17.9 14.7833 17.4667 13.85 16.6C12.95 15.7 12.5 14.5333 12.5 13.1C12.5 12.6667 12.5333 12.25 12.6 11.85C12.6667 11.4167 12.8 10.9167 13 10.35C13.2 9.78333 13.4833 9.03333 13.85 8.1L16.75 0.899998H21.7Z" fill="#AAE6E1"/>
</svg>
